<?xml version="1.0" encoding="utf-8"?>
<svg width="20" height="20" viewBox="0 0 20 20" fill="context-fill" fill-opacity="context-fill-opacity" xmlns="http://www.w3.org/2000/svg">
  <path d="M 5.737 19.192 C 5.351 18.935 5.01 18.618 4.725 18.253 C 4.412 17.877 4.121 17.481 3.856 17.069 C 3.232 16.155 2.743 15.157 2.404 14.105 C 1.996 12.883 1.799 11.711 1.799 10.565 C 1.799 9.285 2.076 8.168 2.617 7.229 C 3.019 6.496 3.609 5.883 4.327 5.453 C 5.023 5.021 5.822 4.785 6.641 4.769 C 6.927 4.769 7.236 4.81 7.564 4.889 C 7.799 4.956 8.086 5.061 8.436 5.193 C 8.881 5.364 9.127 5.469 9.21 5.495 C 9.471 5.59 9.69 5.632 9.862 5.632 C 9.993 5.632 10.178 5.59 10.387 5.527 C 10.505 5.485 10.728 5.412 11.047 5.276 C 11.362 5.161 11.61 5.062 11.807 4.989 C 12.11 4.899 12.403 4.817 12.663 4.775 C 12.973 4.726 13.287 4.714 13.599 4.737 C 14.141 4.772 14.674 4.887 15.181 5.078 C 16.012 5.412 16.684 5.933 17.184 6.676 C 16.973 6.806 16.774 6.956 16.591 7.124 C 16.194 7.477 15.855 7.891 15.589 8.35 C 15.24 8.978 15.059 9.684 15.063 10.402 C 15.076 11.285 15.303 12.061 15.748 12.733 C 16.075 13.231 16.502 13.657 16.999 13.984 C 17.254 14.156 17.474 14.274 17.684 14.353 C 17.585 14.659 17.48 14.954 17.356 15.248 C 17.074 15.906 16.734 16.537 16.337 17.133 C 15.984 17.645 15.707 18.027 15.497 18.282 C 15.169 18.669 14.854 18.966 14.535 19.172 C 14.186 19.405 13.772 19.528 13.351 19.528 C 13.066 19.54 12.781 19.506 12.508 19.427 C 12.272 19.347 12.039 19.261 11.81 19.162 C 11.572 19.053 11.326 18.96 11.075 18.885 C 10.454 18.727 9.802 18.725 9.181 18.883 C 8.926 18.956 8.681 19.042 8.439 19.147 C 8.098 19.29 7.872 19.386 7.741 19.427 C 7.481 19.503 7.21 19.55 6.936 19.567 C 6.512 19.567 6.118 19.445 5.727 19.201 Z M 11.323 4.148 C 10.769 4.425 10.241 4.542 9.716 4.504 C 9.633 3.975 9.716 3.435 9.935 2.842 C 10.122 2.34 10.398 1.877 10.75 1.473 C 11.122 1.049 11.572 0.701 12.077 0.448 C 12.615 0.171 13.128 0.022 13.618 0 C 13.682 0.553 13.618 1.098 13.415 1.687 C 13.226 2.207 12.951 2.692 12.6 3.119 C 12.242 3.545 11.802 3.894 11.307 4.147 Z" style="stroke-width: 0px;"/>
</svg>