<?xml version="1.0" encoding="utf-8"?>
<svg width="20" height="20" viewBox="0 0 20 20" fill="context-fill" fill-opacity="context-fill-opacity" xmlns="http://www.w3.org/2000/svg">
  <path d="M 3.153 5.526 C 3.899 5.526 4.505 5.122 4.832 4.557 C 5.158 3.992 5.205 3.265 4.832 2.618 C 4.659 2.319 4.412 2.076 4.122 1.909 C 3.832 1.742 3.499 1.649 3.153 1.649 C 2.407 1.649 1.8 2.053 1.474 2.619 C 1.148 3.184 1.101 3.911 1.474 4.557 C 1.647 4.857 1.894 5.099 2.183 5.267 C 2.473 5.434 2.806 5.526 3.153 5.526 Z M 9.938 5.526 C 10.685 5.526 11.291 5.122 11.617 4.557 C 11.944 3.992 11.99 3.265 11.617 2.618 C 11.444 2.319 11.198 2.076 10.908 1.909 C 10.618 1.742 10.285 1.649 9.938 1.649 C 9.192 1.649 8.586 2.053 8.259 2.619 C 7.933 3.184 7.886 3.911 8.259 4.557 C 8.433 4.857 8.679 5.099 8.969 5.267 C 9.259 5.434 9.592 5.526 9.938 5.526 Z M 16.724 5.526 C 17.47 5.526 18.076 5.122 18.403 4.557 C 18.729 3.992 18.776 3.265 18.403 2.618 C 18.23 2.319 17.983 2.076 17.693 1.909 C 17.403 1.742 17.07 1.649 16.724 1.649 C 15.978 1.649 15.371 2.053 15.045 2.619 C 14.718 3.184 14.672 3.911 15.045 4.557 C 15.218 4.857 15.465 5.099 15.754 5.267 C 16.044 5.434 16.377 5.526 16.724 5.526 Z M 3.153 12.312 C 3.899 12.312 4.505 11.908 4.832 11.343 C 5.158 10.777 5.205 10.05 4.832 9.404 C 4.659 9.104 4.412 8.862 4.122 8.694 C 3.832 8.526 3.499 8.434 3.153 8.434 C 2.407 8.434 1.8 8.838 1.474 9.404 C 1.148 9.969 1.101 10.697 1.474 11.343 C 1.647 11.643 1.894 11.885 2.183 12.052 C 2.473 12.22 2.806 12.312 3.153 12.312 Z M 9.938 12.312 C 10.685 12.312 11.291 11.908 11.617 11.343 C 11.944 10.777 11.99 10.05 11.617 9.404 C 11.444 9.104 11.198 8.862 10.908 8.694 C 10.618 8.526 10.285 8.434 9.938 8.434 C 9.192 8.434 8.586 8.838 8.259 9.404 C 7.933 9.969 7.886 10.697 8.259 11.343 C 8.433 11.643 8.679 11.885 8.969 12.052 C 9.259 12.22 9.592 12.312 9.938 12.312 Z M 16.724 12.312 C 17.47 12.312 18.076 11.908 18.403 11.343 C 18.729 10.777 18.776 10.05 18.403 9.404 C 18.23 9.104 17.983 8.862 17.693 8.694 C 17.403 8.526 17.07 8.434 16.724 8.434 C 15.978 8.434 15.371 8.838 15.045 9.404 C 14.718 9.969 14.672 10.697 15.045 11.343 C 15.218 11.643 15.465 11.885 15.754 12.052 C 16.044 12.22 16.377 12.312 16.724 12.312 Z M 3.153 19.097 C 3.899 19.097 4.505 18.693 4.832 18.128 C 5.158 17.563 5.205 16.836 4.832 16.189 C 4.659 15.889 4.412 15.647 4.122 15.48 C 3.832 15.312 3.499 15.22 3.153 15.22 C 2.407 15.22 1.8 15.624 1.474 16.189 C 1.148 16.755 1.101 17.482 1.474 18.128 C 1.647 18.428 1.894 18.67 2.183 18.838 C 2.473 19.005 2.806 19.097 3.153 19.097 Z M 9.938 19.097 C 10.685 19.097 11.291 18.693 11.617 18.128 C 11.944 17.563 11.99 16.836 11.617 16.189 C 11.444 15.889 11.198 15.647 10.908 15.48 C 10.618 15.312 10.285 15.22 9.938 15.22 C 9.192 15.22 8.586 15.624 8.259 16.189 C 7.933 16.755 7.886 17.482 8.259 18.128 C 8.433 18.428 8.679 18.67 8.969 18.838 C 9.259 19.005 9.592 19.097 9.938 19.097 Z M 16.724 19.097 C 17.47 19.097 18.076 18.693 18.403 18.128 C 18.729 17.563 18.776 16.836 18.403 16.189 C 18.23 15.889 17.983 15.647 17.693 15.48 C 17.403 15.312 17.07 15.22 16.724 15.22 C 15.978 15.22 15.371 15.624 15.045 16.189 C 14.718 16.755 14.672 17.482 15.045 18.128 C 15.218 18.428 15.465 18.67 15.754 18.838 C 16.044 19.005 16.377 19.097 16.724 19.097 Z" style=""/>
</svg>