<?xml version="1.0" encoding="utf-8"?>
<svg width="20" height="20" viewBox="0 0 20 20" fill="context-fill" fill-opacity="context-fill-opacity" xmlns="http://www.w3.org/2000/svg">
  <path style="fill: rgb(216, 216, 216); stroke: rgb(0, 0, 0);" d="M 10.035 14.543" transform="matrix(1, 0, 0, 1, 25.107742, 1.702414)"/>
  <path style="fill: rgb(216, 216, 216); stroke: rgb(0, 0, 0);" d="M 9.474 13.575" transform="matrix(1, 0, 0, 1, 25.107742, 1.702414)"/>
  <path style="fill: rgb(216, 216, 216); stroke: rgb(0, 0, 0);" d="M 9.228 14.518" transform="matrix(1, 0, 0, 1, 25.107742, 1.702414)"/>
  <path style="fill: rgb(216, 216, 216); stroke: rgb(0, 0, 0);" d="M 8.667 13.55" transform="matrix(1, 0, 0, 1, 25.107742, 1.702414)"/>
  <path style="fill: rgb(216, 216, 216); stroke: rgb(0, 0, 0);" d="M 10.035 14.543" transform="matrix(1, 0, 0, 1, 58.150874, 1.524084)"/>
  <path style="fill: rgb(216, 216, 216); stroke: rgb(0, 0, 0);" d="M 9.474 13.575" transform="matrix(1, 0, 0, 1, 58.150874, 1.524084)"/>
  <g fill="#000000" transform="matrix(1, 0, 0, 1, 82.655246, 5.825572)"/>
  <g fill="none" transform="matrix(0.859928, 0, 0, 0.859928, 24.763655, 1.28021)" style=""/>
  <path style="fill: rgb(216, 216, 216); stroke: rgb(0, 0, 0);" d="M 10.035 14.543" transform="matrix(1, 0, 0, 1, 27.349189, -1.636225)"/>
  <path style="fill: rgb(216, 216, 216); stroke: rgb(0, 0, 0);" d="M 9.474 13.575" transform="matrix(1, 0, 0, 1, 27.349189, -1.636225)"/>
  <path style="fill: rgb(216, 216, 216); stroke: rgb(0, 0, 0);" d="M 9.228 14.518" transform="matrix(1, 0, 0, 1, 27.349189, -1.636225)"/>
  <path style="fill: rgb(216, 216, 216); stroke: rgb(0, 0, 0);" d="M 8.667 13.55" transform="matrix(1, 0, 0, 1, 27.349189, -1.636225)"/>
  <path style="fill: rgb(216, 216, 216); stroke: rgb(0, 0, 0);" d="M 10.035 14.543" transform="matrix(1, 0, 0, 1, 60.392322, -1.814553)"/>
  <path style="fill: rgb(216, 216, 216); stroke: rgb(0, 0, 0);" d="M 9.474 13.575" transform="matrix(1, 0, 0, 1, 60.392322, -1.814553)"/>
  <g fill="#000000" transform="matrix(1, 0, 0, 1, 84.896694, 2.486935)"/>
  <g fill="none" transform="matrix(0.859928, 0, 0, 0.859928, 27.005102, -2.058427)" style=""/>
  <path style="fill: rgb(216, 216, 216); stroke: rgb(0, 0, 0);" d="M 9.849 14.661" transform="matrix(1, 0, 0, 1, 25.107742, 1.702414)"/>
  <path style="fill: rgb(216, 216, 216); stroke: rgb(0, 0, 0);" d="M 9.288 13.693" transform="matrix(1, 0, 0, 1, 25.107742, 1.702414)"/>
  <path style="fill: rgb(216, 216, 216); stroke: rgb(0, 0, 0);" d="M 9.042 14.636" transform="matrix(1, 0, 0, 1, 25.107742, 1.702414)"/>
  <path style="fill: rgb(216, 216, 216); stroke: rgb(0, 0, 0);" d="M 8.481 13.668" transform="matrix(1, 0, 0, 1, 25.107742, 1.702414)"/>
  <path style="fill: rgb(216, 216, 216); stroke: rgb(0, 0, 0);" d="M 42.892 14.483" transform="matrix(1, 0, 0, 1, 25.107742, 1.702414)"/>
  <path style="fill: rgb(216, 216, 216); stroke: rgb(0, 0, 0);" d="M 42.331 13.515" transform="matrix(1, 0, 0, 1, 25.107742, 1.702414)"/>
  <g fill="#000000" transform="matrix(1, 0, 0, 1, 82.46894, 5.943603)"/>
  <path style="fill: rgb(216, 216, 216); stroke: rgb(0, 0, 0);" d="M 10.035 14.543" transform="matrix(1, 0, 0, 1, 19.876124, -2.308663)"/>
  <path style="fill: rgb(216, 216, 216); stroke: rgb(0, 0, 0);" d="M 9.474 13.575" transform="matrix(1, 0, 0, 1, 19.876124, -2.308663)"/>
  <path style="fill: rgb(216, 216, 216); stroke: rgb(0, 0, 0);" d="M 9.228 14.518" transform="matrix(1, 0, 0, 1, 19.876124, -2.308663)"/>
  <path style="fill: rgb(216, 216, 216); stroke: rgb(0, 0, 0);" d="M 8.667 13.55" transform="matrix(1, 0, 0, 1, 19.876124, -2.308663)"/>
  <path style="fill: rgb(216, 216, 216); stroke: rgb(0, 0, 0);" d="M 10.035 14.543" transform="matrix(1, 0, 0, 1, 52.919256, -2.486992)"/>
  <path style="fill: rgb(216, 216, 216); stroke: rgb(0, 0, 0);" d="M 9.474 13.575" transform="matrix(1, 0, 0, 1, 52.919256, -2.486992)"/>
  <g fill="#000000" transform="matrix(1, 0, 0, 1, 77.423629, 1.814496)"/>
  <path style="fill: rgb(216, 216, 216); stroke: rgb(0, 0, 0);" d="M -16.165 17.9"/>
  <path style="fill: rgb(216, 216, 216); stroke: rgb(0, 0, 0);" d="M -16.726 16.932"/>
  <path style="fill: rgb(216, 216, 216); stroke: rgb(0, 0, 0);" d="M -16.972 17.875"/>
  <path style="fill: rgb(216, 216, 216); stroke: rgb(0, 0, 0);" d="M -17.533 16.907"/>
  <path style="fill: rgb(216, 216, 216); stroke: rgb(0, 0, 0);" d="M 16.878 17.722"/>
  <path style="fill: rgb(216, 216, 216); stroke: rgb(0, 0, 0);" d="M 16.317 16.754"/>
  <g fill="#000000" transform="matrix(1, 0, 0, 1, 31.347294, 7.480159)"/>
  <g fill="none" transform="matrix(0.859928, 0, 0, 0.859928, -26.544298, 2.934797)" style=""/>
  <path style="fill: rgb(216, 216, 216); stroke: rgb(0, 0, 0);" d="M -13.924 14.561"/>
  <path style="fill: rgb(216, 216, 216); stroke: rgb(0, 0, 0);" d="M -14.485 13.593"/>
  <path style="fill: rgb(216, 216, 216); stroke: rgb(0, 0, 0);" d="M -14.731 14.536"/>
  <path style="fill: rgb(216, 216, 216); stroke: rgb(0, 0, 0);" d="M -15.292 13.568"/>
  <path style="fill: rgb(216, 216, 216); stroke: rgb(0, 0, 0);" d="M 19.119 14.383"/>
  <path style="fill: rgb(216, 216, 216); stroke: rgb(0, 0, 0);" d="M 18.558 13.415"/>
  <g fill="#000000" transform="matrix(1, 0, 0, 1, 33.588741, 4.141521)"/>
  <g fill="none" transform="matrix(0.859928, 0, 0, 0.859928, -24.302851, -0.403841)" style=""/>
  <path style="fill: rgb(216, 216, 216); stroke: rgb(0, 0, 0);" d="M -16.351 18.018"/>
  <path style="fill: rgb(216, 216, 216); stroke: rgb(0, 0, 0);" d="M -16.912 17.05"/>
  <path style="fill: rgb(216, 216, 216); stroke: rgb(0, 0, 0);" d="M -17.158 17.993"/>
  <path style="fill: rgb(216, 216, 216); stroke: rgb(0, 0, 0);" d="M -17.719 17.025"/>
  <path style="fill: rgb(216, 216, 216); stroke: rgb(0, 0, 0);" d="M 16.692 17.84"/>
  <path style="fill: rgb(216, 216, 216); stroke: rgb(0, 0, 0);" d="M 16.131 16.872"/>
  <g fill="#000000" transform="matrix(1, 0, 0, 1, 31.160988, 7.598189)"/>
  <path style="fill: rgb(216, 216, 216); stroke: rgb(0, 0, 0);" d="M -21.397 13.889"/>
  <path style="fill: rgb(216, 216, 216); stroke: rgb(0, 0, 0);" d="M -21.958 12.921"/>
  <path style="fill: rgb(216, 216, 216); stroke: rgb(0, 0, 0);" d="M -22.204 13.864"/>
  <path style="fill: rgb(216, 216, 216); stroke: rgb(0, 0, 0);" d="M -22.765 12.896"/>
  <path style="fill: rgb(216, 216, 216); stroke: rgb(0, 0, 0);" d="M 11.646 13.711"/>
  <path style="fill: rgb(216, 216, 216); stroke: rgb(0, 0, 0);" d="M 11.085 12.743"/>
  <g fill="#000000" transform="matrix(1, 0, 0, 1, 26.115677, 3.469082)"/>
  <path d="M 16.27 3.397 L 18.058 3.397 L 18.058 16.907 L 16.27 16.907 L 16.27 3.397 Z" style=""/>
  <path d="M 18.558 2.897 L 18.558 17.407 L 15.308 17.407 L 15.308 2.897 Z M 16.308 16.407 L 17.558 16.407 L 17.558 3.897 L 16.308 3.897 Z" style="fill: none;"/>
  <path d="M 14.794 9.627 L 7.702 3.47 C 7.648 3.423 7.578 3.397 7.506 3.397 L 5.843 3.397 C 5.705 3.397 5.641 3.57 5.746 3.661 L 12.319 9.366 L 1.334 9.366 C 1.251 9.366 1.183 9.435 1.183 9.518 L 1.183 10.644 C 1.183 10.728 1.251 10.795 1.334 10.795 L 12.318 10.795 L 5.744 16.501 C 5.639 16.593 5.703 16.764 5.842 16.764 L 7.56 16.764 C 7.596 16.764 7.631 16.749 7.657 16.728 L 14.794 10.535 C 15.071 10.296 15.071 9.866 14.794 9.627 Z" style=""/>
  <path d="M 14.794 9.627 L 7.702 3.47 C 7.648 3.423 7.578 3.397 7.506 3.397 L 5.843 3.397 C 5.705 3.397 5.641 3.57 5.746 3.661 L 12.319 9.366 L 1.334 9.366 C 1.251 9.366 1.183 9.435 1.183 9.518 L 1.183 10.644 C 1.183 10.728 1.251 10.795 1.334 10.795 L 12.318 10.795 L 5.744 16.501 C 5.639 16.593 5.703 16.764 5.842 16.764 L 7.56 16.764 C 7.596 16.764 7.631 16.749 7.657 16.728 L 14.794 10.535 C 15.071 10.296 15.071 9.866 14.794 9.627 Z" style=""/>
</svg>