<?xml version="1.0" encoding="utf-8"?>
<svg width="20" height="20" viewBox="0 0 20 20" fill="context-fill" fill-opacity="context-fill-opacity" xmlns="http://www.w3.org/2000/svg">
  <path d="M 17.431 11.822 L 9.605 11.822 L 1.779 11.822 C 1.73 11.822 1.685 11.841 1.652 11.872 C 1.62 11.904 1.599 11.947 1.599 11.994 L 1.599 12.637 L 1.599 13.28 C 1.599 13.327 1.62 13.37 1.652 13.401 C 1.685 13.433 1.73 13.452 1.779 13.452 L 8.586 13.452 L 15.392 13.452 L 13.769 15.415 L 12.145 17.378 C 12.099 17.434 12.097 17.504 12.125 17.56 C 12.154 17.615 12.213 17.657 12.288 17.657 L 13.104 17.657 L 13.919 17.657 C 13.974 17.657 14.027 17.645 14.075 17.623 C 14.124 17.601 14.167 17.568 14.201 17.526 L 16.099 15.23 L 17.998 12.933 C 18.184 12.708 18.193 12.43 18.08 12.208 C 17.968 11.987 17.733 11.822 17.431 11.822 Z M 17.974 6.759 L 11.168 6.759 L 4.361 6.759 L 5.984 4.796 L 7.607 2.832 C 7.654 2.777 7.656 2.708 7.627 2.652 C 7.599 2.596 7.541 2.554 7.466 2.554 L 6.65 2.554 L 5.833 2.554 C 5.779 2.554 5.726 2.566 5.677 2.588 C 5.629 2.61 5.586 2.643 5.551 2.685 L 3.653 4.982 L 1.754 7.278 C 1.569 7.503 1.56 7.781 1.672 8.003 C 1.785 8.225 2.019 8.39 2.319 8.39 L 10.147 8.39 L 17.974 8.39 C 18.024 8.39 18.068 8.371 18.101 8.34 C 18.133 8.309 18.153 8.266 18.153 8.218 L 18.153 7.574 L 18.153 6.93 C 18.153 6.884 18.133 6.841 18.101 6.81 C 18.068 6.779 18.024 6.759 17.974 6.759 Z" style=""/>
</svg>