<?xml version="1.0" encoding="utf-8"?>
<svg width="20" height="20" viewBox="0 0 20 20" fill="context-fill" fill-opacity="context-fill-opacity" xmlns="http://www.w3.org/2000/svg">
  <path d="M 4.137 2.052 L 9.914 2.052 L 15.69 2.052 C 16.069 2.074 16.477 2.172 16.851 2.325 C 17.226 2.478 17.567 2.687 17.811 2.931 C 18.055 3.175 18.264 3.516 18.417 3.891 C 18.57 4.265 18.668 4.674 18.69 5.052 L 18.69 10.829 L 18.69 16.605 C 18.668 16.984 18.57 17.392 18.417 17.766 C 18.264 18.141 18.055 18.482 17.811 18.726 C 17.567 18.97 17.226 19.179 16.851 19.332 C 16.477 19.485 16.069 19.583 15.69 19.605 L 9.914 19.605 L 4.137 19.605 C 3.759 19.583 3.35 19.485 2.976 19.332 C 2.601 19.179 2.26 18.97 2.016 18.726 C 1.772 18.482 1.563 18.141 1.41 17.766 C 1.257 17.392 1.159 16.984 1.137 16.605 L 1.137 10.829 L 1.137 5.052 C 1.159 4.674 1.257 4.265 1.41 3.891 C 1.563 3.516 1.772 3.175 2.016 2.931 C 2.26 2.687 2.601 2.478 2.976 2.325 C 3.35 2.172 3.759 2.074 4.137 2.052 Z M 3.43 4.345 C 3.312 4.463 3.228 4.553 3.179 4.656 C 3.129 4.76 3.115 4.878 3.137 5.052 L 3.137 10.829 L 3.137 16.605 C 3.115 16.779 3.129 16.897 3.179 17.001 C 3.228 17.104 3.312 17.194 3.43 17.312 C 3.548 17.43 3.638 17.514 3.742 17.563 C 3.845 17.613 3.963 17.627 4.137 17.605 L 9.914 17.605 L 15.69 17.605 C 15.864 17.627 15.982 17.613 16.086 17.563 C 16.189 17.514 16.279 17.43 16.397 17.312 C 16.515 17.194 16.599 17.104 16.649 17.001 C 16.698 16.897 16.712 16.779 16.69 16.605 L 16.69 10.829 L 16.69 5.052 C 16.712 4.878 16.698 4.76 16.649 4.656 C 16.599 4.553 16.515 4.463 16.397 4.345 C 16.279 4.227 16.189 4.143 16.086 4.093 C 15.982 4.044 15.864 4.03 15.69 4.052 L 9.914 4.052 L 4.137 4.052 C 3.963 4.03 3.845 4.044 3.741 4.093 C 3.638 4.143 3.548 4.227 3.43 4.345 Z" style=""/>
  <path d="M 12.37 0.793 L 12.37 2.188 L 12.37 3.052 L 12.37 3.916 L 12.37 5.134 L 14.37 5.134 L 14.37 3.916 L 14.37 3.052 L 14.37 2.188 L 14.37 0.793 L 12.37 0.793 Z" style=""/>
  <path d="M 7.458 0.793 L 7.458 1.49 L 7.458 2.188 L 7.458 2.62 L 7.458 3.052 L 7.458 3.484 L 7.458 3.916 L 7.458 4.525 L 7.458 5.134 L 6.458 5.134 L 5.458 5.134 L 5.458 4.525 L 5.458 3.916 L 5.458 3.484 L 5.458 3.052 L 5.458 2.62 L 5.458 2.188 L 5.458 1.49 L 5.458 0.793 L 6.458 0.793 Z" style=""/>
  <path d="M 2.137 7.237 L 4.082 7.237 L 6.026 7.237 L 7.97 7.237 L 9.914 7.237 L 11.858 7.237 L 13.802 7.237 L 15.746 7.237 L 17.69 7.237 L 17.69 8.237 L 17.69 9.237 L 15.746 9.237 L 13.802 9.237 L 11.858 9.237 L 9.914 9.237 L 7.97 9.237 L 6.026 9.237 L 4.082 9.237 L 2.137 9.237 L 2.137 8.237 Z" style=""/>
</svg>