<?xml version="1.0" encoding="utf-8"?>
<svg width="20" height="20" preserveAspectRatio="xMidYMid meet" viewBox="0 0 20 20" style="-ms-transform: rotate(360deg); -webkit-transform: rotate(360deg); transform: rotate(360deg);" xmlns="http://www.w3.org/2000/svg">
  <path d="M 10 8.551 C 7.691 8.551 6.247 11.051 7.402 13.051 C 7.938 13.979 8.928 14.551 10 14.551 C 12.309 14.551 13.753 12.051 12.598 10.051 C 12.062 9.123 11.072 8.551 10 8.551 Z M 18 4.607 L 15.6 4.607 C 15.247 4.591 14.937 4.367 14.811 4.037 L 14.19 2.176 C 14.063 1.846 13.753 1.623 13.4 1.607 L 6.6 1.607 C 6.27 1.607 5.914 1.863 5.811 2.175 L 5.189 4.037 C 5.063 4.367 4.753 4.591 4.4 4.607 L 2 4.607 C 0.9 4.607 0 6.451 0 7.551 L 0 16.551 C 0 17.651 0.9 18.551 2 18.551 L 18 18.551 C 19.1 18.551 20 17.651 20 16.551 L 20 7.551 C 20 6.451 19.1 4.607 18 4.607 Z M 10 16.551 C 7.239 16.551 5 14.312 5 11.551 C 5 7.702 9.167 5.296 12.5 7.221 C 14.047 8.114 15 9.765 15 11.551 C 15 14.312 12.761 16.551 10 16.551 Z M 17.5 8.751 C 16.961 8.751 16.624 8.168 16.894 7.701 C 17.019 7.484 17.25 7.351 17.5 7.351 C 18.039 7.351 18.376 7.934 18.106 8.401 C 17.981 8.618 17.75 8.751 17.5 8.751 Z" style="fill: rgb(238, 238, 238);"/>
</svg>