<?xml version="1.0" encoding="utf-8"?>
<svg width="20" height="20" viewBox="0 0 20 20" fill="context-fill" fill-opacity="context-fill-opacity" xmlns="http://www.w3.org/2000/svg">
  <path d="M 19.564 10.108 C 19.564 10.756 19.493 11.401 19.361 12.029 C 19.228 12.658 19.034 13.271 18.786 13.855 C 18.539 14.44 18.238 14.997 17.894 15.513 C 17.55 16.029 17.162 16.505 16.74 16.927 C 16.317 17.35 15.842 17.737 15.326 18.081 C 14.81 18.425 14.253 18.726 13.668 18.973 C 13.083 19.22 12.471 19.415 11.842 19.547 C 11.214 19.68 10.569 19.751 9.921 19.751 C 9.274 19.751 8.629 19.68 8 19.547 C 7.372 19.415 6.759 19.22 6.174 18.973 C 5.589 18.726 5.032 18.425 4.516 18.081 C 4 17.737 3.525 17.35 3.102 16.927 C 2.68 16.505 2.292 16.029 1.948 15.513 C 1.604 14.997 1.304 14.44 1.056 13.855 C 0.809 13.271 0.615 12.658 0.482 12.029 C 0.349 11.401 0.278 10.756 0.278 10.108 C 0.278 9.461 0.349 8.816 0.482 8.187 C 0.615 7.559 0.809 6.946 1.056 6.361 C 1.304 5.776 1.604 5.219 1.948 4.703 C 2.292 4.187 2.68 3.712 3.102 3.289 C 3.525 2.867 4 2.479 4.516 2.135 C 5.032 1.791 5.589 1.491 6.174 1.243 C 6.759 0.996 7.372 0.802 8 0.669 C 8.629 0.536 9.274 0.465 9.921 0.465 C 10.569 0.465 11.214 0.536 11.842 0.669 C 12.471 0.802 13.084 0.996 13.668 1.243 C 14.253 1.491 14.81 1.791 15.326 2.135 C 15.842 2.479 16.318 2.867 16.74 3.289 C 17.163 3.712 17.55 4.187 17.894 4.703 C 18.238 5.219 18.539 5.776 18.786 6.361 C 19.034 6.946 19.228 7.559 19.361 8.187 C 19.493 8.816 19.564 9.461 19.564 10.108 Z M 15.325 4.704 C 14.965 4.345 14.585 4.025 14.181 3.747 C 13.778 3.47 13.352 3.235 12.902 3.045 C 12.452 2.855 11.98 2.71 11.484 2.613 C 10.987 2.515 10.467 2.465 9.921 2.465 C 9.375 2.465 8.855 2.515 8.359 2.613 C 7.862 2.71 7.389 2.855 6.94 3.045 C 6.49 3.235 6.064 3.47 5.661 3.747 C 5.257 4.025 4.877 4.345 4.517 4.704 C 4.158 5.064 3.838 5.445 3.56 5.848 C 3.283 6.252 3.048 6.678 2.858 7.127 C 2.668 7.576 2.523 8.049 2.425 8.545 C 2.328 9.042 2.278 9.563 2.278 10.108 C 2.278 10.654 2.328 11.174 2.425 11.671 C 2.523 12.168 2.668 12.64 2.858 13.089 C 3.048 13.539 3.283 13.965 3.56 14.368 C 3.838 14.772 4.158 15.153 4.517 15.512 C 4.877 15.872 5.258 16.191 5.661 16.469 C 6.065 16.746 6.491 16.981 6.94 17.171 C 7.39 17.361 7.862 17.506 8.359 17.604 C 8.855 17.701 9.376 17.751 9.921 17.751 C 10.467 17.751 10.987 17.701 11.484 17.604 C 11.98 17.506 12.453 17.361 12.902 17.171 C 13.352 16.981 13.778 16.746 14.181 16.469 C 14.585 16.191 14.966 15.872 15.325 15.512 C 15.685 15.153 16.004 14.772 16.282 14.368 C 16.559 13.965 16.794 13.539 16.984 13.089 C 17.174 12.64 17.319 12.168 17.417 11.671 C 17.514 11.174 17.564 10.654 17.564 10.108 C 17.564 9.563 17.514 9.042 17.417 8.546 C 17.319 8.049 17.174 7.577 16.984 7.127 C 16.794 6.678 16.559 6.252 16.282 5.848 C 16.004 5.445 15.685 5.064 15.325 4.704 Z" style=""/>
  <path d="M 14.378 10.108 C 14.378 10.688 14.24 11.288 14.007 11.837 C 13.775 12.386 13.449 12.884 13.073 13.26 C 12.697 13.636 12.199 13.962 11.65 14.194 C 11.101 14.426 10.501 14.565 9.921 14.565 C 9.342 14.565 8.741 14.426 8.192 14.194 C 7.643 13.962 7.145 13.636 6.769 13.26 C 6.394 12.884 6.067 12.386 5.835 11.837 C 5.603 11.288 5.464 10.688 5.464 10.108 C 5.464 9.529 5.603 8.929 5.835 8.379 C 6.067 7.83 6.394 7.332 6.769 6.956 C 7.145 6.581 7.643 6.254 8.192 6.022 C 8.742 5.79 9.342 5.651 9.921 5.651 C 10.501 5.651 11.101 5.79 11.65 6.022 C 12.199 6.254 12.697 6.581 13.073 6.956 C 13.449 7.332 13.775 7.83 14.007 8.379 C 14.24 8.929 14.378 9.529 14.378 10.108 Z M 11.658 8.371 C 11.409 8.121 11.162 7.941 10.884 7.824 C 10.606 7.706 10.296 7.651 9.921 7.651 C 9.546 7.651 9.237 7.706 8.958 7.824 C 8.68 7.941 8.434 8.121 8.184 8.371 C 7.934 8.621 7.754 8.867 7.636 9.145 C 7.519 9.424 7.464 9.733 7.464 10.108 C 7.464 10.483 7.519 10.793 7.636 11.071 C 7.754 11.349 7.934 11.596 8.184 11.845 C 8.433 12.095 8.68 12.275 8.958 12.393 C 9.237 12.51 9.546 12.565 9.921 12.565 C 10.296 12.565 10.606 12.51 10.884 12.393 C 11.162 12.275 11.408 12.095 11.658 11.845 C 11.908 11.596 12.088 11.349 12.205 11.071 C 12.323 10.793 12.378 10.483 12.378 10.108 C 12.378 9.733 12.323 9.424 12.205 9.145 C 12.088 8.867 11.908 8.621 11.658 8.371 Z" style=""/>
  <path d="M 9.921 5.651 L 10.912 5.651 L 11.903 5.651 L 12.893 5.651 L 13.884 5.651 L 14.875 5.651 L 15.866 5.651 L 16.856 5.651 L 17.847 5.651 L 17.847 6.651 L 17.847 7.651 L 16.856 7.651 L 15.866 7.651 L 14.875 7.651 L 13.884 7.651 L 12.894 7.651 L 11.903 7.651 L 10.912 7.651 L 9.921 7.651 L 9.921 6.651 Z" style=""/>
  <path d="M 3.83 4.474 L 4.326 5.332 L 4.822 6.189 L 5.318 7.047 L 5.814 7.905 L 6.31 8.763 L 6.806 9.621 L 7.302 10.479 L 7.797 11.336 L 6.931 11.836 L 6.065 12.336 L 5.57 11.479 L 5.074 10.621 L 4.578 9.764 L 4.082 8.906 L 3.586 8.049 L 3.09 7.191 L 2.594 6.333 L 2.098 5.474 L 2.964 4.974 Z" style=""/>
  <path d="M 9.819 19.199 L 10.314 18.342 L 10.809 17.484 L 11.304 16.626 L 11.799 15.768 L 12.294 14.91 L 12.789 14.052 L 13.283 13.193 L 13.778 12.335 L 12.912 11.836 L 12.046 11.337 L 11.551 12.194 L 11.057 13.052 L 10.562 13.91 L 10.067 14.768 L 9.572 15.626 L 9.077 16.484 L 8.582 17.342 L 8.087 18.199 L 8.953 18.699 Z" style=""/>
</svg>