<?xml version="1.0" encoding="utf-8"?>
<svg width="20" height="20" viewBox="0 0 20 20" fill="context-fill" fill-opacity="context-fill-opacity" xmlns="http://www.w3.org/2000/svg">
  <path d="M 7.624 2.958 C 7.64 2.52 7.773 2.021 7.973 1.689 C 8.175 1.352 8.537 1.02 8.859 0.82 C 9.192 0.642 9.658 0.496 10.051 0.489 C 10.439 0.483 10.939 0.617 11.326 0.822 C 11.501 0.927 11.698 1.08 11.84 1.218 C 11.979 1.363 12.129 1.56 12.229 1.727 C 12.324 1.899 12.42 2.125 12.472 2.315 C 12.524 2.507 12.554 2.755 12.557 2.958 L 12.557 7.358 L 17.708 7.358 L 17.708 19.159 L 2.474 19.159 L 2.474 7.358 L 7.624 7.358 Z M 9.124 8.858 L 3.974 8.858 L 3.974 10.791 L 16.208 10.791 L 16.208 8.858 L 11.057 8.858 L 11.057 2.958 C 11.06 2.855 11.05 2.803 11.024 2.707 C 10.998 2.609 10.98 2.559 10.928 2.474 C 10.88 2.386 10.85 2.344 10.778 2.277 C 10.709 2.204 10.666 2.169 10.575 2.12 C 10.39 1.996 10.279 1.985 10.077 1.989 C 9.88 1.992 9.776 2.011 9.607 2.121 C 9.43 2.211 9.361 2.292 9.259 2.461 C 9.155 2.635 9.108 2.736 9.124 2.958 Z M 3.974 17.659 L 5.907 17.659 L 5.907 13.572 L 7.407 13.572 L 7.407 17.659 L 9.341 17.659 L 9.341 13.572 L 10.841 13.572 L 10.841 17.659 L 12.775 17.659 L 12.775 13.572 L 14.275 13.572 L 14.275 17.659 L 16.208 17.659 L 16.208 12.291 L 3.974 12.291 Z" style=""/>
</svg>