<?xml version="1.0" encoding="utf-8"?>
<svg width="20" height="20" viewBox="0 0 20 20" fill="context-fill" fill-opacity="context-fill-opacity" xmlns="http://www.w3.org/2000/svg">
  <path d="M 5.724 14.35 C 5.479 14.35 5.243 14.261 5.06 14.098 L 0 9.6 L 5.341 4.852 C 5.926 4.352 6.834 4.672 6.974 5.429 C 7.037 5.767 6.922 6.114 6.669 6.347 L 3.01 9.6 L 6.388 12.602 C 6.964 13.113 6.771 14.056 6.04 14.299 C 5.939 14.333 5.832 14.35 5.724 14.35 Z M 14.669 14.348 L 20.01 9.6 L 14.95 5.102 C 14.375 4.591 13.462 4.894 13.307 5.648 C 13.235 5.998 13.355 6.36 13.622 6.597 L 17 9.6 L 13.341 12.852 C 12.765 13.363 12.959 14.306 13.689 14.549 C 14.029 14.662 14.402 14.585 14.669 14.348 Z M 9.991 15.765 L 11.991 3.765 C 12.139 3.009 11.413 2.378 10.685 2.628 C 10.328 2.75 10.071 3.063 10.019 3.436 L 8.019 15.436 C 7.872 16.192 8.598 16.823 9.326 16.573 C 9.682 16.451 9.939 16.138 9.991 15.765 Z" style="stroke-width: 0px;"/>
</svg>