<?xml version="1.0" encoding="utf-8"?>
<svg width="20" height="20" viewBox="0 0 20 20" fill="context-fill" fill-opacity="context-fill-opacity" xmlns="http://www.w3.org/2000/svg" xmlns:bx="https://boxy-svg.com">
  <path d="M 17.079 4.585 C 17.175 4.681 17.263 4.794 17.345 4.924 C 17.428 5.055 17.503 5.202 17.572 5.367 C 17.641 5.532 17.692 5.689 17.726 5.84 C 17.761 5.991 17.778 6.135 17.778 6.272 L 17.778 12.198 L 17.778 18.124 C 17.778 18.262 17.754 18.389 17.706 18.505 C 17.658 18.622 17.586 18.728 17.49 18.824 C 17.395 18.92 17.288 18.992 17.171 19.04 C 17.054 19.088 16.927 19.112 16.79 19.112 L 9.877 19.112 L 2.963 19.112 C 2.826 19.112 2.699 19.088 2.582 19.04 C 2.465 18.992 2.359 18.92 2.263 18.824 C 2.168 18.728 2.096 18.622 2.047 18.505 C 1.999 18.389 1.975 18.262 1.975 18.124 L 1.975 9.894 L 1.975 1.663 C 1.975 1.526 1.999 1.399 2.047 1.282 C 2.096 1.165 2.168 1.059 2.263 0.963 C 2.359 0.868 2.465 0.796 2.582 0.747 C 2.699 0.699 2.826 0.675 2.963 0.675 L 7.572 0.675 L 12.181 0.675 C 12.319 0.675 12.463 0.692 12.613 0.726 C 12.764 0.761 12.922 0.812 13.086 0.881 C 13.251 0.95 13.398 1.025 13.529 1.107 C 13.659 1.19 13.773 1.279 13.869 1.375 L 15.474 2.98 Z M 12.51 2.074 L 12.51 4.008 L 12.51 5.943 L 14.444 5.943 L 16.378 5.943 C 16.344 5.844 16.308 5.758 16.271 5.688 C 16.233 5.617 16.194 5.562 16.152 5.521 L 14.542 3.911 L 12.932 2.301 C 12.891 2.26 12.835 2.22 12.765 2.183 C 12.694 2.145 12.61 2.108 12.51 2.074 Z M 16.461 17.795 L 16.461 12.528 L 16.461 7.26 L 14.321 7.26 L 12.181 7.26 C 12.044 7.26 11.917 7.236 11.8 7.188 C 11.683 7.14 11.576 7.068 11.481 6.972 C 11.385 6.876 11.313 6.769 11.265 6.652 C 11.217 6.536 11.193 6.409 11.193 6.272 L 11.193 4.132 L 11.193 1.992 L 7.243 1.992 L 3.292 1.992 L 3.292 9.894 L 3.292 17.795 L 9.877 17.795 Z M 6.913 8.576 C 6.941 8.539 6.973 8.509 7.009 8.488 C 7.045 8.466 7.085 8.453 7.128 8.448 C 7.174 8.443 7.217 8.446 7.258 8.457 C 7.299 8.468 7.339 8.487 7.376 8.514 L 7.639 8.71 L 7.901 8.906 C 7.939 8.934 7.968 8.965 7.989 9.001 C 8.011 9.037 8.024 9.078 8.029 9.122 C 8.035 9.167 8.032 9.21 8.02 9.251 C 8.009 9.292 7.99 9.331 7.963 9.368 L 7.027 10.619 L 6.091 11.869 L 7.027 13.119 L 7.963 14.369 C 7.99 14.407 8.009 14.446 8.02 14.487 C 8.031 14.528 8.034 14.571 8.029 14.616 C 8.024 14.66 8.011 14.701 7.989 14.737 C 7.968 14.773 7.939 14.805 7.901 14.832 L 7.639 15.027 L 7.376 15.222 C 7.339 15.25 7.299 15.27 7.258 15.281 C 7.217 15.292 7.174 15.295 7.128 15.289 C 7.085 15.285 7.045 15.271 7.009 15.25 C 6.973 15.228 6.941 15.199 6.913 15.161 L 5.751 13.613 L 4.588 12.064 C 4.541 11.999 4.517 11.934 4.517 11.869 C 4.517 11.803 4.541 11.738 4.588 11.673 L 5.751 10.125 Z M 15.164 11.673 C 15.212 11.738 15.236 11.803 15.236 11.869 C 15.236 11.934 15.212 11.999 15.164 12.064 L 14.002 13.613 L 12.839 15.161 C 12.812 15.199 12.78 15.228 12.744 15.25 C 12.708 15.271 12.668 15.285 12.623 15.289 C 12.578 15.295 12.536 15.292 12.495 15.281 C 12.453 15.27 12.414 15.25 12.376 15.222 L 12.113 15.027 L 11.851 14.832 C 11.813 14.805 11.784 14.773 11.763 14.737 C 11.742 14.701 11.728 14.66 11.723 14.616 C 11.718 14.571 11.721 14.528 11.732 14.487 C 11.744 14.446 11.763 14.407 11.79 14.369 L 12.726 13.119 L 13.662 11.869 L 12.726 10.619 L 11.79 9.368 C 11.763 9.331 11.744 9.292 11.732 9.251 C 11.721 9.21 11.718 9.166 11.723 9.122 C 11.728 9.078 11.742 9.037 11.763 9.001 C 11.784 8.965 11.813 8.934 11.851 8.906 L 12.113 8.71 L 12.376 8.514 C 12.414 8.487 12.453 8.468 12.495 8.457 C 12.536 8.446 12.578 8.443 12.623 8.448 C 12.667 8.453 12.708 8.466 12.744 8.488 C 12.78 8.509 12.812 8.538 12.839 8.576 L 14.002 10.125 Z M 8.787 16.416 C 8.741 16.409 8.702 16.395 8.666 16.372 C 8.631 16.35 8.601 16.32 8.574 16.282 C 8.549 16.245 8.531 16.206 8.522 16.164 C 8.513 16.123 8.512 16.08 8.519 16.035 L 9.229 11.761 L 9.939 7.487 C 9.946 7.442 9.96 7.401 9.982 7.366 C 10.004 7.331 10.034 7.3 10.072 7.274 C 10.11 7.248 10.149 7.231 10.19 7.222 C 10.232 7.212 10.275 7.211 10.319 7.219 L 10.643 7.27 L 10.967 7.322 C 11.012 7.329 11.052 7.343 11.087 7.365 C 11.122 7.387 11.152 7.417 11.178 7.454 C 11.204 7.492 11.221 7.532 11.23 7.573 C 11.24 7.614 11.241 7.657 11.235 7.702 L 10.525 11.977 L 9.814 16.252 C 9.808 16.296 9.793 16.336 9.771 16.371 C 9.749 16.406 9.719 16.437 9.681 16.463 C 9.643 16.488 9.604 16.505 9.563 16.515 C 9.522 16.524 9.479 16.526 9.434 16.519 L 9.111 16.468 Z" style="" bx:origin="15.873 8.029"/>
</svg>