<?xml version="1.0" encoding="utf-8"?>
<svg width="20" height="20" viewBox="0 0 20 20" fill="context-fill" fill-opacity="context-fill-opacity" xmlns="http://www.w3.org/2000/svg">
  <path d="M 11.547 13.532 L 10.954 13.071 C 10.966 12.982 10.974 12.892 10.976 12.801 C 10.977 12.71 10.969 12.619 10.953 12.529 L 11.541 12.068 C 11.592 12.025 11.606 11.951 11.575 11.891 L 11.02 10.932 C 10.985 10.873 10.912 10.846 10.848 10.871 L 10.161 11.148 C 10.018 11.035 9.859 10.944 9.689 10.876 L 9.584 10.145 C 9.576 10.078 9.519 10.027 9.451 10.028 L 8.342 10.028 C 8.273 10.029 8.216 10.078 8.203 10.145 L 8.098 10.876 C 7.931 10.948 7.773 11.04 7.628 11.149 L 6.94 10.871 C 6.875 10.848 6.803 10.874 6.767 10.932 L 6.213 11.891 C 6.178 11.951 6.192 12.027 6.246 12.069 L 6.834 12.53 C 6.812 12.71 6.812 12.893 6.834 13.072 L 6.246 13.533 C 6.196 13.577 6.182 13.651 6.214 13.71 L 6.768 14.669 C 6.803 14.729 6.875 14.755 6.94 14.73 L 7.627 14.453 C 7.77 14.566 7.929 14.658 8.098 14.725 L 8.203 15.456 C 8.214 15.525 8.273 15.575 8.343 15.573 L 9.451 15.573 C 9.519 15.573 9.577 15.524 9.59 15.456 L 9.695 14.725 C 9.861 14.655 10.018 14.564 10.16 14.452 L 10.854 14.73 C 10.918 14.754 10.99 14.728 11.026 14.669 L 11.581 13.71 C 11.612 13.651 11.598 13.576 11.547 13.532 Z M 8.897 13.632 C 8.256 13.632 7.857 12.939 8.178 12.385 C 8.499 11.831 9.298 11.832 9.618 12.386 C 9.69 12.512 9.729 12.656 9.729 12.801 C 9.729 13.26 9.356 13.634 8.897 13.632 Z" style=""/>
  <path d="M 11.837 0.575 L 9.957 0.575 L 8.076 0.575 L 6.195 0.575 L 4.314 0.575 C 4.055 0.576 3.808 0.629 3.583 0.725 C 3.359 0.82 3.156 0.958 2.986 1.128 C 2.816 1.298 2.678 1.501 2.583 1.725 C 2.487 1.95 2.434 2.197 2.433 2.456 L 2.433 6.218 L 2.433 9.98 L 2.433 13.742 L 2.433 17.503 C 2.434 17.763 2.487 18.01 2.583 18.235 C 2.678 18.46 2.816 18.662 2.986 18.832 C 3.156 19.002 3.359 19.14 3.583 19.235 C 3.808 19.331 4.055 19.383 4.314 19.384 L 7.136 19.384 L 9.957 19.384 L 12.778 19.384 L 15.599 19.384 C 15.859 19.384 16.106 19.331 16.33 19.235 C 16.555 19.14 16.757 19.002 16.927 18.832 C 17.097 18.662 17.235 18.459 17.33 18.234 C 17.426 18.01 17.479 17.763 17.48 17.503 L 17.48 14.682 L 17.48 11.861 L 17.48 9.04 L 17.48 6.218 L 16.07 4.808 L 14.659 3.397 L 13.248 1.986 Z M 15.599 17.503 L 12.778 17.503 L 9.957 17.503 L 7.136 17.503 L 4.314 17.503 L 4.314 13.742 L 4.314 9.98 L 4.314 6.218 L 4.314 2.456 L 5.96 2.456 L 7.606 2.456 L 9.252 2.456 L 10.897 2.456 L 10.897 3.632 L 10.897 4.807 L 10.897 5.983 L 10.897 7.158 L 12.073 7.158 L 13.248 7.158 L 14.423 7.158 L 15.599 7.158 L 15.599 9.744 L 15.599 12.331 L 15.599 14.917 Z" style=""/>
</svg>