<?xml version="1.0" encoding="utf-8"?>
<svg width="20" height="20" viewBox="0 0 20 20" fill="context-fill" fill-opacity="context-fill-opacity" xmlns="http://www.w3.org/2000/svg">
  <path d="M 19.114 4.613 L 18.463 4.613 L 17.811 4.613 L 17.159 4.613 L 16.507 4.613 C 16.428 4.248 16.289 3.906 16.101 3.599 C 15.913 3.292 15.677 3.02 15.402 2.793 C 15.128 2.566 14.816 2.386 14.477 2.262 C 14.138 2.137 13.773 2.07 13.391 2.07 C 13.01 2.07 12.644 2.137 12.305 2.262 C 11.966 2.386 11.654 2.566 11.38 2.793 C 11.106 3.02 10.869 3.292 10.681 3.599 C 10.494 3.906 10.355 4.248 10.275 4.613 L 8.034 4.613 L 5.792 4.613 L 3.551 4.613 L 1.309 4.613 L 1.309 4.931 L 1.309 5.249 L 1.309 5.567 L 1.309 5.885 L 3.551 5.885 L 5.792 5.885 L 8.034 5.885 L 10.275 5.885 C 10.355 6.25 10.494 6.592 10.681 6.899 C 10.869 7.206 11.106 7.478 11.38 7.705 C 11.654 7.931 11.966 8.112 12.305 8.236 C 12.644 8.36 13.01 8.428 13.391 8.428 C 13.773 8.428 14.138 8.36 14.477 8.236 C 14.816 8.112 15.128 7.931 15.402 7.705 C 15.677 7.478 15.913 7.206 16.101 6.899 C 16.289 6.592 16.428 6.25 16.507 5.885 L 17.159 5.885 L 17.811 5.885 L 18.463 5.885 L 19.114 5.885 L 19.114 5.567 L 19.114 5.249 L 19.114 4.931 Z M 13.391 7.158 C 13.121 7.158 12.867 7.106 12.637 7.012 C 12.408 6.917 12.203 6.78 12.032 6.609 C 11.861 6.438 11.724 6.233 11.629 6.004 C 11.535 5.774 11.483 5.52 11.483 5.249 C 11.483 4.978 11.535 4.724 11.629 4.495 C 11.724 4.265 11.861 4.061 12.032 3.89 C 12.203 3.719 12.408 3.582 12.637 3.488 C 12.867 3.393 13.121 3.342 13.391 3.342 C 13.662 3.342 13.916 3.394 14.145 3.488 C 14.375 3.582 14.579 3.719 14.75 3.89 C 14.921 4.061 15.058 4.266 15.152 4.495 C 15.247 4.725 15.298 4.979 15.298 5.249 C 15.298 5.519 15.247 5.774 15.152 6.003 C 15.058 6.233 14.921 6.438 14.75 6.609 C 14.579 6.78 14.375 6.917 14.145 7.012 C 13.916 7.106 13.662 7.158 13.391 7.158 Z" style="stroke-width: 0px;"/>
  <path d="M 1.309 14.788 L 1.961 14.788 L 2.612 14.788 L 3.264 14.788 L 3.915 14.788 C 3.995 15.154 4.134 15.496 4.322 15.803 C 4.51 16.11 4.746 16.383 5.02 16.609 C 5.294 16.836 5.607 17.016 5.945 17.14 C 6.284 17.265 6.65 17.332 7.031 17.332 C 7.413 17.332 7.778 17.265 8.117 17.14 C 8.456 17.016 8.768 16.836 9.042 16.609 C 9.317 16.382 9.553 16.11 9.741 15.803 C 9.929 15.496 10.068 15.154 10.147 14.788 L 12.389 14.788 L 14.631 14.788 L 16.873 14.788 L 19.114 14.788 L 19.114 14.47 L 19.114 14.152 L 19.114 13.834 L 19.114 13.516 L 16.873 13.516 L 14.631 13.516 L 12.389 13.516 L 10.147 13.516 C 10.068 13.151 9.929 12.809 9.741 12.502 C 9.553 12.195 9.317 11.923 9.042 11.696 C 8.768 11.47 8.456 11.289 8.117 11.165 C 7.778 11.041 7.413 10.973 7.031 10.973 C 6.65 10.973 6.284 11.041 5.945 11.165 C 5.607 11.289 5.295 11.469 5.02 11.696 C 4.746 11.923 4.51 12.195 4.322 12.502 C 4.134 12.809 3.995 13.151 3.915 13.516 L 3.264 13.516 L 2.612 13.516 L 1.961 13.516 L 1.309 13.516 L 1.309 13.834 L 1.309 14.152 L 1.309 14.47 Z M 7.031 12.244 C 7.301 12.244 7.555 12.296 7.785 12.39 C 8.015 12.485 8.22 12.622 8.391 12.793 C 8.562 12.964 8.699 13.168 8.794 13.398 C 8.888 13.628 8.94 13.882 8.94 14.152 C 8.94 14.422 8.888 14.676 8.794 14.906 C 8.699 15.136 8.562 15.34 8.391 15.511 C 8.22 15.682 8.015 15.819 7.785 15.914 C 7.555 16.008 7.301 16.06 7.031 16.06 C 6.76 16.06 6.506 16.008 6.277 15.914 C 6.047 15.819 5.843 15.682 5.672 15.511 C 5.501 15.34 5.364 15.136 5.27 14.906 C 5.176 14.677 5.124 14.422 5.124 14.152 C 5.124 13.882 5.176 13.628 5.27 13.398 C 5.364 13.169 5.501 12.964 5.672 12.793 C 5.843 12.622 6.048 12.485 6.277 12.39 C 6.506 12.296 6.761 12.244 7.031 12.244 Z" style=""/>
</svg>