<?xml version="1.0" encoding="utf-8"?>
<svg width="20" height="20" viewBox="0 0 20 20" fill="context-fill" fill-opacity="context-fill-opacity" xmlns="http://www.w3.org/2000/svg">
  <path d="M 6.442 19.05 L 5.599 19.05 L 4.756 19.05 L 3.913 19.05 L 3.07 19.05 C 2.96 19.039 2.84 19.017 2.718 18.985 C 2.596 18.953 2.472 18.912 2.353 18.863 C 2.235 18.815 2.121 18.759 2.019 18.697 C 1.918 18.635 1.829 18.568 1.759 18.496 C 1.69 18.426 1.625 18.336 1.566 18.234 C 1.506 18.132 1.453 18.019 1.406 17.9 C 1.36 17.782 1.32 17.658 1.29 17.537 C 1.26 17.416 1.239 17.298 1.228 17.188 L 1.228 16.325 L 1.228 15.462 L 1.228 14.599 L 1.228 13.736 L 1.728 13.736 L 2.228 13.736 L 2.395 13.736 L 2.895 13.736 L 2.895 14.599 L 2.895 15.462 L 2.895 16.325 L 2.895 17.605 C 2.885 17.615 2.875 17.612 2.867 17.603 C 2.859 17.594 2.853 17.579 2.849 17.563 C 2.846 17.548 2.844 17.533 2.845 17.523 C 2.846 17.513 2.85 17.509 2.857 17.516 C 2.864 17.523 2.859 17.526 2.847 17.526 C 2.835 17.526 2.817 17.524 2.798 17.519 C 2.78 17.514 2.762 17.507 2.75 17.498 C 2.737 17.489 2.731 17.479 2.737 17.467 L 3.58 17.467 L 4.756 17.467 L 5.599 17.467 L 6.442 17.467 L 6.442 17.634 L 6.442 18.134 L 6.442 18.55 L 6.442 19.05 Z" style=""/>
  <path d="M 11.227 12.022 L 10.864 12.022 L 10.501 12.022 L 10.138 12.022 L 9.775 12.022 L 9.412 12.022 L 9.049 12.022 L 8.686 12.022 L 8.322 12.022 L 8.232 12.361 L 8.141 12.701 L 8.051 13.04 L 7.96 13.379 L 7.87 13.718 L 7.779 14.057 L 7.689 14.396 L 7.598 14.736 L 7.301 14.736 L 7.003 14.736 L 6.705 14.736 L 6.407 14.736 L 6.11 14.736 L 5.812 14.736 L 5.514 14.736 L 5.216 14.736 L 5.605 13.48 L 5.993 12.223 L 6.381 10.967 L 6.769 9.71 L 7.158 8.454 L 7.546 7.197 L 7.934 5.941 L 8.322 4.685 L 8.699 4.685 L 9.076 4.685 L 9.453 4.685 L 9.83 4.685 L 10.207 4.685 L 10.584 4.685 L 10.961 4.685 L 11.337 4.685 L 11.731 5.941 L 12.124 7.197 L 12.517 8.454 L 12.91 9.71 L 13.304 10.967 L 13.697 12.223 L 14.09 13.48 L 14.483 14.736 L 14.174 14.736 L 13.865 14.736 L 13.556 14.736 L 13.247 14.736 L 12.938 14.736 L 12.629 14.736 L 12.32 14.736 L 12.01 14.736 L 11.913 14.396 L 11.815 14.057 L 11.717 13.718 L 11.619 13.379 L 11.521 13.04 L 11.423 12.701 L 11.325 12.361 L 11.227 12.022 M 8.653 10.394 L 8.934 10.394 L 9.214 10.394 L 9.494 10.394 L 9.774 10.394 L 10.054 10.394 L 10.334 10.394 L 10.614 10.394 L 10.895 10.394 L 10.815 10.127 L 10.736 9.861 L 10.657 9.595 L 10.578 9.329 L 10.498 9.062 L 10.419 8.796 L 10.34 8.529 L 10.261 8.263 L 10.228 8.141 L 10.196 8.019 L 10.163 7.897 L 10.131 7.775 L 10.098 7.653 L 10.065 7.531 L 10.032 7.409 L 10 7.288 L 9.968 7.167 L 9.937 7.046 L 9.906 6.925 L 9.875 6.805 L 9.843 6.684 L 9.812 6.564 L 9.78 6.443 L 9.749 6.323 L 9.745 6.323 L 9.741 6.323 L 9.737 6.323 L 9.734 6.323 L 9.73 6.323 L 9.726 6.323 L 9.722 6.323 L 9.718 6.323 L 9.69 6.444 L 9.663 6.566 L 9.635 6.688 L 9.608 6.81 L 9.581 6.932 L 9.553 7.054 L 9.526 7.176 L 9.498 7.298 L 9.468 7.421 L 9.438 7.544 L 9.408 7.667 L 9.377 7.791 L 9.347 7.914 L 9.317 8.037 L 9.287 8.16 L 9.256 8.283 L 9.181 8.547 L 9.106 8.811 L 9.031 9.075 L 8.955 9.339 L 8.88 9.603 L 8.804 9.867 L 8.729 10.13 L 8.653 10.394" style=""/>
  <path d="M 6.492 6.364 L 5.649 6.364 L 4.806 6.364 L 3.963 6.364 L 3.12 6.364 C 3.01 6.353 2.89 6.331 2.768 6.299 C 2.646 6.267 2.522 6.226 2.403 6.177 C 2.285 6.129 2.171 6.073 2.069 6.011 C 1.968 5.949 1.879 5.882 1.809 5.81 C 1.74 5.74 1.675 5.65 1.616 5.548 C 1.556 5.446 1.503 5.333 1.456 5.214 C 1.41 5.096 1.37 4.972 1.34 4.851 C 1.31 4.73 1.289 4.612 1.278 4.502 L 1.278 3.639 L 1.278 2.776 L 1.278 1.913 L 1.278 1.05 L 1.778 1.05 L 2.278 1.05 L 2.445 1.05 L 2.945 1.05 L 2.945 1.913 L 2.945 2.776 L 2.945 3.639 L 2.945 4.919 C 2.935 4.929 2.925 4.926 2.917 4.917 C 2.909 4.908 2.903 4.893 2.899 4.877 C 2.896 4.862 2.894 4.847 2.895 4.837 C 2.896 4.827 2.9 4.823 2.907 4.83 C 2.914 4.837 2.909 4.84 2.897 4.84 C 2.885 4.84 2.867 4.838 2.848 4.833 C 2.83 4.828 2.812 4.821 2.8 4.812 C 2.787 4.803 2.781 4.793 2.787 4.781 L 3.63 4.781 L 4.806 4.781 L 5.649 4.781 L 6.492 4.781 L 6.492 4.948 L 6.492 5.448 L 6.492 5.864 L 6.492 6.364 Z" style="" transform="matrix(0, 1, -1, 0, 7.592, -0.178)"/>
  <path d="M 18.87 6.314 L 18.027 6.314 L 17.184 6.314 L 16.341 6.314 L 15.498 6.314 C 15.388 6.303 15.268 6.281 15.146 6.249 C 15.024 6.217 14.9 6.176 14.781 6.127 C 14.663 6.079 14.549 6.023 14.447 5.961 C 14.346 5.899 14.257 5.832 14.187 5.76 C 14.118 5.69 14.053 5.6 13.994 5.498 C 13.934 5.396 13.881 5.283 13.834 5.164 C 13.788 5.046 13.748 4.922 13.718 4.801 C 13.688 4.68 13.667 4.562 13.656 4.452 L 13.656 3.589 L 13.656 2.726 L 13.656 1.863 L 13.656 1 L 14.156 1 L 14.656 1 L 14.823 1 L 15.323 1 L 15.323 1.863 L 15.323 2.726 L 15.323 3.589 L 15.323 4.869 C 15.313 4.879 15.303 4.876 15.295 4.867 C 15.287 4.858 15.281 4.843 15.277 4.827 C 15.274 4.812 15.272 4.797 15.273 4.787 C 15.274 4.777 15.278 4.773 15.285 4.78 C 15.292 4.787 15.287 4.79 15.275 4.79 C 15.263 4.79 15.245 4.788 15.226 4.783 C 15.208 4.778 15.19 4.771 15.178 4.762 C 15.165 4.753 15.159 4.743 15.165 4.731 L 16.008 4.731 L 17.184 4.731 L 18.027 4.731 L 18.87 4.731 L 18.87 4.898 L 18.87 5.398 L 18.87 5.814 L 18.87 6.314 Z" style="" transform="matrix(-1, 0, 0, -1, 32.526001, 7.314)"/>
  <path d="M 18.472 19.1 L 17.629 19.1 L 16.786 19.1 L 15.943 19.1 L 15.1 19.1 C 14.99 19.089 14.87 19.067 14.748 19.035 C 14.626 19.003 14.502 18.962 14.383 18.913 C 14.265 18.865 14.151 18.809 14.049 18.747 C 13.948 18.685 13.859 18.618 13.789 18.546 C 13.72 18.476 13.655 18.386 13.596 18.284 C 13.536 18.182 13.483 18.069 13.436 17.95 C 13.39 17.832 13.35 17.708 13.32 17.587 C 13.29 17.466 13.269 17.348 13.258 17.238 L 13.258 16.375 L 13.258 15.512 L 13.258 14.649 L 13.258 13.786 L 13.758 13.786 L 14.258 13.786 L 14.425 13.786 L 14.925 13.786 L 14.925 14.649 L 14.925 15.512 L 14.925 16.375 L 14.925 17.655 C 14.915 17.665 14.905 17.662 14.897 17.653 C 14.889 17.644 14.883 17.629 14.879 17.613 C 14.876 17.598 14.874 17.583 14.875 17.573 C 14.876 17.563 14.88 17.559 14.887 17.566 C 14.894 17.573 14.889 17.576 14.877 17.576 C 14.865 17.576 14.847 17.574 14.828 17.569 C 14.81 17.564 14.792 17.557 14.78 17.548 C 14.767 17.539 14.761 17.529 14.767 17.517 L 15.61 17.517 L 16.786 17.517 L 17.629 17.517 L 18.472 17.517 L 18.472 17.684 L 18.472 18.184 L 18.472 18.6 L 18.472 19.1 Z" style="" transform="matrix(0, -1, 1, 0, -0.578, 32.308001)"/>
</svg>