<?xml version="1.0" encoding="utf-8"?>
<svg width="20" height="20" viewBox="0 0 20 20" fill="context-fill" fill-opacity="context-fill-opacity" xmlns="http://www.w3.org/2000/svg">
  <path d="M 7.26 8.746 C 7.204 8.746 7.151 8.754 7.101 8.768 C 7.051 8.782 7.005 8.802 6.962 8.828 C 6.919 8.853 6.88 8.885 6.846 8.92 C 6.811 8.955 6.782 8.994 6.757 9.037 C 6.733 9.08 6.713 9.125 6.7 9.172 C 6.687 9.219 6.679 9.268 6.678 9.318 C 6.677 9.368 6.683 9.419 6.696 9.469 C 6.709 9.519 6.729 9.569 6.757 9.618 C 6.77 9.641 6.784 9.662 6.8 9.682 C 6.815 9.703 6.832 9.722 6.85 9.74 C 6.868 9.757 6.887 9.774 6.907 9.789 C 6.927 9.805 6.948 9.818 6.97 9.831 C 6.991 9.843 7.014 9.855 7.037 9.864 C 7.06 9.874 7.084 9.882 7.109 9.889 C 7.133 9.896 7.158 9.901 7.183 9.904 C 7.208 9.907 7.234 9.909 7.26 9.909 L 7.986 9.909 L 8.713 9.909 L 9.439 9.909 L 10.166 9.909 L 10.892 9.909 L 11.619 9.909 L 12.345 9.909 L 13.072 9.909 C 13.128 9.909 13.181 9.901 13.231 9.888 C 13.281 9.874 13.328 9.853 13.371 9.827 C 13.414 9.802 13.453 9.771 13.487 9.735 C 13.522 9.7 13.551 9.661 13.576 9.618 C 13.6 9.576 13.619 9.531 13.632 9.484 C 13.645 9.436 13.653 9.387 13.654 9.337 C 13.655 9.287 13.649 9.236 13.636 9.186 C 13.623 9.136 13.603 9.086 13.576 9.037 C 13.563 9.015 13.548 8.993 13.533 8.973 C 13.517 8.953 13.5 8.934 13.483 8.916 C 13.465 8.898 13.446 8.881 13.426 8.866 C 13.405 8.851 13.384 8.837 13.363 8.824 C 13.341 8.812 13.318 8.801 13.295 8.791 C 13.272 8.781 13.248 8.773 13.224 8.766 C 13.199 8.76 13.174 8.755 13.149 8.751 C 13.124 8.748 13.098 8.746 13.072 8.746 L 12.345 8.746 L 11.619 8.746 L 10.892 8.746 L 10.166 8.746 L 9.439 8.746 L 8.713 8.746 L 7.986 8.746 Z M 6.679 11.652 C 6.679 11.612 6.683 11.572 6.691 11.535 C 6.699 11.497 6.71 11.461 6.725 11.426 C 6.74 11.391 6.758 11.358 6.778 11.327 C 6.799 11.296 6.823 11.268 6.849 11.241 C 6.876 11.215 6.904 11.191 6.935 11.17 C 6.966 11.15 6.999 11.132 7.034 11.117 C 7.069 11.102 7.105 11.091 7.143 11.083 C 7.181 11.075 7.22 11.071 7.26 11.071 L 7.987 11.071 L 8.713 11.071 L 9.44 11.071 L 10.166 11.071 L 10.893 11.071 L 11.619 11.071 L 12.346 11.071 L 13.072 11.071 C 13.128 11.071 13.181 11.079 13.231 11.093 C 13.281 11.107 13.328 11.127 13.371 11.153 C 13.414 11.179 13.453 11.21 13.487 11.245 C 13.522 11.28 13.551 11.319 13.576 11.361 C 13.6 11.404 13.619 11.449 13.632 11.496 C 13.645 11.544 13.653 11.593 13.654 11.643 C 13.655 11.693 13.649 11.744 13.636 11.794 C 13.624 11.845 13.603 11.895 13.576 11.943 C 13.563 11.966 13.548 11.987 13.533 12.007 C 13.517 12.028 13.5 12.047 13.483 12.064 C 13.465 12.082 13.446 12.099 13.426 12.114 C 13.405 12.129 13.384 12.143 13.363 12.155 C 13.341 12.168 13.318 12.179 13.295 12.189 C 13.272 12.198 13.248 12.207 13.224 12.213 C 13.199 12.22 13.174 12.225 13.149 12.228 C 13.124 12.231 13.098 12.233 13.072 12.233 L 12.345 12.233 L 11.619 12.233 L 10.892 12.233 L 10.166 12.233 L 9.439 12.233 L 8.713 12.233 L 7.986 12.233 L 7.26 12.233 C 7.219 12.233 7.18 12.229 7.142 12.221 C 7.104 12.214 7.068 12.202 7.033 12.187 C 6.998 12.173 6.965 12.155 6.935 12.134 C 6.904 12.113 6.875 12.09 6.849 12.063 C 6.822 12.037 6.799 12.008 6.778 11.977 C 6.757 11.946 6.739 11.913 6.725 11.878 C 6.71 11.844 6.698 11.807 6.691 11.769 C 6.683 11.731 6.679 11.692 6.679 11.652 Z M 6.679 13.977 C 6.679 13.937 6.683 13.898 6.691 13.86 C 6.699 13.823 6.71 13.786 6.725 13.751 C 6.74 13.716 6.758 13.683 6.778 13.652 C 6.799 13.621 6.823 13.593 6.849 13.566 C 6.876 13.54 6.904 13.516 6.935 13.495 C 6.966 13.475 6.999 13.457 7.034 13.442 C 7.069 13.427 7.105 13.416 7.143 13.408 C 7.181 13.4 7.22 13.396 7.26 13.396 L 7.551 13.396 L 7.841 13.396 L 8.132 13.396 L 8.422 13.396 L 8.713 13.396 L 9.003 13.396 L 9.294 13.396 L 9.585 13.396 C 9.641 13.396 9.694 13.404 9.744 13.418 C 9.794 13.432 9.841 13.452 9.884 13.478 C 9.927 13.504 9.966 13.535 10 13.57 C 10.034 13.605 10.064 13.644 10.088 13.686 C 10.112 13.729 10.132 13.774 10.145 13.821 C 10.158 13.869 10.166 13.918 10.167 13.968 C 10.167 14.018 10.162 14.069 10.149 14.119 C 10.136 14.17 10.116 14.22 10.088 14.268 C 10.075 14.291 10.061 14.312 10.045 14.332 C 10.03 14.352 10.013 14.371 9.995 14.389 C 9.977 14.407 9.958 14.423 9.938 14.438 C 9.918 14.454 9.898 14.468 9.876 14.48 C 9.854 14.493 9.832 14.504 9.808 14.514 C 9.785 14.523 9.762 14.532 9.737 14.538 C 9.713 14.545 9.688 14.55 9.662 14.553 C 9.637 14.556 9.611 14.558 9.585 14.558 L 9.294 14.558 L 9.003 14.558 L 8.713 14.558 L 8.422 14.558 L 8.132 14.558 L 7.841 14.558 L 7.551 14.558 L 7.26 14.558 C 7.22 14.558 7.18 14.554 7.142 14.546 C 7.105 14.539 7.068 14.527 7.033 14.512 C 6.999 14.498 6.966 14.48 6.935 14.459 C 6.904 14.438 6.875 14.415 6.849 14.388 C 6.823 14.362 6.799 14.333 6.778 14.302 C 6.757 14.271 6.74 14.238 6.725 14.203 C 6.71 14.169 6.699 14.132 6.691 14.094 C 6.683 14.056 6.679 14.017 6.679 13.977 Z" style=""/>
  <path d="M 11.91 0.61 L 11.111 0.61 L 10.312 0.61 L 9.513 0.61 L 8.714 0.61 L 7.915 0.61 L 7.116 0.61 L 6.317 0.61 L 5.517 0.61 C 5.357 0.61 5.2 0.626 5.048 0.657 C 4.897 0.688 4.751 0.734 4.612 0.793 C 4.473 0.852 4.341 0.924 4.217 1.007 C 4.094 1.091 3.979 1.186 3.873 1.291 C 3.768 1.396 3.673 1.511 3.589 1.635 C 3.505 1.758 3.434 1.89 3.375 2.029 C 3.316 2.168 3.27 2.314 3.239 2.465 C 3.208 2.617 3.192 2.774 3.192 2.934 L 3.192 4.678 L 3.192 6.422 L 3.192 8.166 L 3.192 9.909 L 3.192 11.653 L 3.192 13.396 L 3.192 15.14 L 3.192 16.883 C 3.192 17.044 3.208 17.2 3.239 17.352 C 3.27 17.503 3.316 17.649 3.375 17.788 C 3.434 17.927 3.506 18.059 3.589 18.183 C 3.673 18.307 3.768 18.422 3.873 18.527 C 3.979 18.633 4.094 18.728 4.217 18.811 C 4.341 18.895 4.473 18.967 4.612 19.025 C 4.751 19.084 4.897 19.13 5.048 19.161 C 5.2 19.192 5.357 19.208 5.517 19.208 L 6.68 19.208 L 7.842 19.208 L 9.005 19.208 L 10.167 19.208 L 11.33 19.208 L 12.492 19.208 L 13.654 19.208 L 14.816 19.208 C 14.977 19.208 15.133 19.192 15.285 19.161 C 15.436 19.13 15.582 19.084 15.721 19.025 C 15.86 18.967 15.992 18.895 16.116 18.811 C 16.24 18.728 16.355 18.633 16.46 18.527 C 16.565 18.422 16.661 18.307 16.744 18.183 C 16.828 18.059 16.899 17.927 16.958 17.788 C 17.017 17.649 17.063 17.503 17.094 17.352 C 17.125 17.2 17.141 17.044 17.141 16.883 L 17.141 15.503 L 17.141 14.122 L 17.141 12.742 L 17.141 11.362 L 17.141 9.982 L 17.141 8.601 L 17.141 7.221 L 17.141 5.84 L 16.487 5.186 L 15.833 4.532 L 15.179 3.879 L 14.526 3.225 L 13.872 2.571 L 13.218 1.917 L 12.564 1.264 Z M 11.91 1.772 L 11.91 2.063 L 11.91 2.354 L 11.91 2.645 L 11.91 2.935 L 11.91 3.226 L 11.91 3.516 L 11.91 3.807 L 11.91 4.097 C 11.91 4.218 11.922 4.335 11.946 4.449 C 11.969 4.562 12.003 4.672 12.047 4.776 C 12.091 4.88 12.145 4.979 12.208 5.072 C 12.271 5.165 12.342 5.251 12.421 5.33 C 12.5 5.409 12.586 5.48 12.679 5.542 C 12.772 5.605 12.871 5.659 12.975 5.703 C 13.079 5.747 13.189 5.781 13.302 5.805 C 13.416 5.828 13.533 5.84 13.653 5.84 L 13.944 5.84 L 14.235 5.84 L 14.526 5.84 L 14.816 5.84 L 15.107 5.84 L 15.397 5.84 L 15.688 5.84 L 15.978 5.84 L 15.978 7.22 L 15.978 8.6 L 15.978 9.981 L 15.978 11.361 L 15.978 12.742 L 15.978 14.122 L 15.978 15.503 L 15.978 16.883 C 15.978 16.963 15.97 17.041 15.955 17.117 C 15.939 17.193 15.917 17.266 15.887 17.335 C 15.858 17.405 15.822 17.471 15.78 17.532 C 15.738 17.594 15.691 17.652 15.638 17.705 C 15.586 17.758 15.528 17.805 15.466 17.847 C 15.405 17.889 15.339 17.925 15.269 17.954 C 15.2 17.983 15.127 18.006 15.051 18.021 C 14.975 18.037 14.897 18.045 14.816 18.045 L 13.654 18.045 L 12.492 18.045 L 11.33 18.045 L 10.167 18.045 L 9.005 18.045 L 7.842 18.045 L 6.68 18.045 L 5.517 18.045 C 5.437 18.045 5.359 18.037 5.283 18.021 C 5.207 18.006 5.134 17.983 5.064 17.954 C 4.995 17.925 4.929 17.889 4.867 17.847 C 4.805 17.805 4.748 17.758 4.695 17.705 C 4.643 17.652 4.595 17.594 4.553 17.532 C 4.511 17.471 4.475 17.405 4.445 17.335 C 4.416 17.266 4.393 17.193 4.378 17.117 C 4.362 17.041 4.354 16.963 4.354 16.883 L 4.354 15.139 L 4.354 13.395 L 4.354 11.651 L 4.354 9.908 L 4.354 8.164 L 4.354 6.421 L 4.354 4.677 L 4.354 2.934 C 4.354 2.853 4.362 2.775 4.378 2.699 C 4.393 2.623 4.416 2.55 4.445 2.481 C 4.475 2.411 4.511 2.345 4.553 2.284 C 4.595 2.222 4.643 2.164 4.695 2.112 C 4.748 2.059 4.805 2.012 4.867 1.97 C 4.929 1.928 4.995 1.892 5.064 1.863 C 5.134 1.833 5.207 1.811 5.283 1.795 C 5.359 1.78 5.437 1.772 5.517 1.772 L 6.317 1.772 L 7.116 1.772 L 7.915 1.772 L 8.714 1.772 L 9.513 1.772 L 10.312 1.772 L 11.111 1.772 Z" style=""/>
</svg>