<?xml version="1.0" encoding="utf-8"?>
<svg width="20" height="20" viewBox="0 0 20 20" fill="context-fill" fill-opacity="context-fill-opacity" xmlns="http://www.w3.org/2000/svg">
  <path d="M 0.311 2.674 L 2.582 2.674 L 4.852 2.674 L 6.693 2.674 L 8.534 2.674 L 10.375 2.674 L 12.216 2.674 L 14.057 2.674 L 15.897 2.674 L 16.397 2.674 L 16.897 2.674 L 16.897 3.174 L 16.897 3.674 L 16.897 5.515 L 16.897 7.356 L 16.897 9.197 L 16.897 11.038 L 16.897 12.879 L 16.897 14.72 L 16.897 17.003 L 16.897 19.286 L 15.897 19.286 L 14.897 19.286 L 14.897 17.003 L 14.897 14.72 L 14.897 12.879 L 14.897 11.038 L 14.897 9.197 L 14.897 7.356 L 14.897 6.015 L 14.897 4.674 L 13.557 4.674 L 12.216 4.674 L 10.375 4.674 L 8.534 4.674 L 6.693 4.674 L 4.852 4.674 L 2.581 4.674 L 0.311 4.674 L 0.311 3.674 Z" style=""/>
  <path d="M 2.556 15.601 L 4.388 13.769 L 6.219 11.938 L 8.051 10.106 L 9.882 8.275 L 11.714 6.443 L 13.545 4.612 L 15.642 2.559 L 17.738 0.506 L 18.445 1.213 L 19.152 1.92 L 17.056 3.973 L 14.959 6.026 L 13.128 7.857 L 11.296 9.689 L 9.465 11.52 L 7.633 13.352 L 5.802 15.183 L 3.97 17.015 L 3.263 16.308 Z" style=""/>
  <path d="M 18.622 17.561 L 16.34 17.561 L 14.057 17.561 L 12.216 17.561 L 10.375 17.561 L 8.534 17.561 L 6.693 17.561 L 4.852 17.561 L 3.011 17.561 L 2.511 17.561 L 2.011 17.561 L 2.011 17.061 L 2.011 16.561 L 2.011 14.72 L 2.011 12.879 L 2.011 11.038 L 2.011 9.197 L 2.011 7.356 L 2.011 5.515 L 2.011 3.232 L 2.011 0.949 L 3.011 0.949 L 4.011 0.949 L 4.011 3.232 L 4.011 5.515 L 4.011 7.356 L 4.011 9.197 L 4.011 11.038 L 4.011 12.879 L 4.011 14.22 L 4.011 15.561 L 5.352 15.561 L 6.693 15.561 L 8.534 15.561 L 10.375 15.561 L 12.216 15.561 L 14.057 15.561 L 16.34 15.561 L 18.622 15.561 L 18.622 16.561 Z" style=""/>
</svg>