<?xml version="1.0" encoding="utf-8"?>
<svg width="20" height="20" viewBox="0 0 20 20" fill="context-fill" fill-opacity="context-fill-opacity" xmlns="http://www.w3.org/2000/svg">
  <path d="M 6.233 0.65 L 5.309 0.65 L 4.384 0.65 L 3.459 0.65 L 2.534 0.65 C 2.303 0.661 1.989 0.725 1.791 0.798 C 1.592 0.893 1.329 1.069 1.177 1.209 C 1.034 1.364 0.856 1.625 0.762 1.82 C 0.687 2.021 0.62 2.34 0.609 2.572 L 0.609 3.495 L 0.609 4.417 L 0.609 5.339 L 0.609 6.261 L 2.609 6.261 L 2.609 5.339 L 2.609 4.417 L 2.609 3.495 L 2.609 2.572 C 2.598 2.55 2.585 2.62 2.602 2.604 C 2.601 2.583 2.583 2.611 2.58 2.622 C 2.569 2.625 2.561 2.631 2.556 2.636 C 2.545 2.635 2.511 2.639 2.534 2.65 L 3.459 2.65 L 4.384 2.65 L 5.309 2.65 L 6.233 2.65 Z" style=""/>
  <path d="M 6.233 19.252 L 5.309 19.252 L 4.384 19.252 L 3.459 19.252 L 2.534 19.252 C 2.303 19.241 1.982 19.174 1.784 19.101 C 1.588 19.008 1.324 18.84 1.173 18.689 C 1.024 18.54 0.856 18.276 0.762 18.079 C 0.686 17.878 0.62 17.562 0.609 17.329 L 0.609 16.406 L 0.609 15.484 L 0.609 14.562 L 0.609 13.64 L 2.609 13.64 L 2.609 14.562 L 2.609 15.484 L 2.609 16.406 L 2.609 17.329 C 2.598 17.352 2.591 17.311 2.593 17.297 C 2.585 17.286 2.57 17.258 2.587 17.275 C 2.604 17.292 2.545 17.263 2.56 17.259 C 2.572 17.274 2.511 17.263 2.534 17.252 L 3.459 17.252 L 4.384 17.252 L 5.309 17.252 L 6.233 17.252 Z" style=""/>
  <path d="M 13.633 19.252 L 14.558 19.252 L 15.482 19.252 L 16.407 19.252 L 17.332 19.252 C 17.564 19.241 17.879 19.176 18.078 19.103 C 18.272 19.011 18.532 18.836 18.693 18.689 C 18.84 18.528 19.012 18.274 19.104 18.079 C 19.18 17.878 19.246 17.562 19.257 17.329 L 19.257 16.406 L 19.257 15.484 L 19.257 14.562 L 19.257 13.64 L 17.257 13.64 L 17.257 14.562 L 17.257 15.484 L 17.257 16.406 L 17.257 17.329 C 17.268 17.352 17.273 17.316 17.273 17.301 C 17.283 17.291 17.285 17.288 17.289 17.281 C 17.303 17.273 17.306 17.271 17.311 17.267 C 17.324 17.267 17.356 17.263 17.332 17.252 L 16.407 17.252 L 15.482 17.252 L 14.558 17.252 L 13.633 17.252 Z" style=""/>
  <path d="M 13.633 0.65 L 14.558 0.65 L 15.482 0.65 L 16.407 0.65 L 17.332 0.65 C 17.564 0.661 17.883 0.727 18.082 0.801 C 18.279 0.895 18.535 1.068 18.691 1.211 C 18.839 1.371 19.013 1.631 19.105 1.823 C 19.18 2.024 19.246 2.34 19.257 2.572 L 19.257 3.495 L 19.257 4.417 L 19.257 5.339 L 19.257 6.261 L 17.257 6.261 L 17.257 5.339 L 17.257 4.417 L 17.257 3.495 L 17.257 2.572 C 17.268 2.55 17.272 2.583 17.272 2.598 C 17.277 2.603 17.281 2.607 17.287 2.621 C 17.298 2.626 17.323 2.64 17.304 2.643 C 17.29 2.627 17.356 2.639 17.332 2.65 L 16.407 2.65 L 15.482 2.65 L 14.558 2.65 L 13.633 2.65 Z" style=""/>
  <path d="M 7.308 4.339 L 9.933 4.339 L 12.557 4.339 C 12.936 4.361 13.344 4.459 13.718 4.612 C 14.093 4.765 14.434 4.974 14.678 5.218 C 14.922 5.462 15.131 5.803 15.284 6.178 C 15.437 6.552 15.535 6.961 15.557 7.339 L 15.557 9.951 L 15.557 12.562 C 15.535 12.941 15.437 13.349 15.284 13.723 C 15.131 14.098 14.922 14.439 14.678 14.683 C 14.434 14.927 14.093 15.136 13.718 15.289 C 13.344 15.442 12.935 15.54 12.557 15.562 L 9.933 15.562 L 7.308 15.562 C 6.93 15.54 6.521 15.442 6.147 15.289 C 5.772 15.136 5.431 14.927 5.187 14.683 C 4.943 14.439 4.734 14.098 4.581 13.723 C 4.428 13.349 4.33 12.941 4.308 12.562 L 4.308 9.951 L 4.308 7.339 C 4.33 6.961 4.428 6.552 4.581 6.178 C 4.734 5.803 4.943 5.462 5.187 5.218 C 5.431 4.974 5.772 4.765 6.147 4.612 C 6.521 4.459 6.93 4.361 7.308 4.339 Z M 6.601 6.632 C 6.483 6.75 6.399 6.84 6.35 6.943 C 6.3 7.047 6.286 7.165 6.308 7.339 L 6.308 9.951 L 6.308 12.562 C 6.286 12.736 6.3 12.854 6.35 12.958 C 6.399 13.061 6.483 13.151 6.601 13.269 C 6.719 13.387 6.809 13.471 6.913 13.521 C 7.016 13.57 7.134 13.584 7.308 13.562 L 9.933 13.562 L 12.557 13.562 C 12.731 13.584 12.849 13.57 12.952 13.521 C 13.056 13.471 13.146 13.387 13.264 13.269 C 13.382 13.151 13.466 13.061 13.516 12.958 C 13.565 12.854 13.579 12.736 13.557 12.562 L 13.557 9.951 L 13.557 7.339 C 13.579 7.165 13.565 7.047 13.516 6.944 C 13.466 6.84 13.382 6.75 13.264 6.632 C 13.146 6.514 13.056 6.43 12.952 6.381 C 12.849 6.331 12.731 6.317 12.557 6.339 L 9.933 6.339 L 7.308 6.339 C 7.134 6.317 7.016 6.331 6.913 6.381 C 6.809 6.43 6.719 6.514 6.601 6.632 Z" style=""/>
</svg>