<?xml version="1.0" encoding="utf-8"?>
<svg width="20" height="20" viewBox="0 0 20 20" fill="context-fill" fill-opacity="context-fill-opacity" xmlns="http://www.w3.org/2000/svg">
  <path d="M 6.327 15.744 C 6.327 16.064 6.262 16.368 6.145 16.645 C 6.028 16.922 5.859 17.172 5.649 17.381 C 5.44 17.591 5.19 17.76 4.913 17.877 C 4.636 17.994 4.332 18.059 4.012 18.059 C 3.692 18.059 3.388 17.994 3.111 17.877 C 2.834 17.76 2.585 17.59 2.375 17.381 C 2.166 17.172 1.996 16.922 1.879 16.645 C 1.762 16.368 1.697 16.064 1.697 15.744 C 1.697 15.425 1.762 15.12 1.879 14.843 C 1.996 14.566 2.166 14.317 2.375 14.107 C 2.585 13.897 2.834 13.728 3.111 13.611 C 3.388 13.494 3.692 13.429 4.012 13.429 C 4.332 13.429 4.636 13.494 4.913 13.611 C 5.19 13.728 5.44 13.898 5.649 14.107 C 5.859 14.317 6.028 14.566 6.145 14.843 C 6.262 15.12 6.327 15.425 6.327 15.744 Z" stroke-linejoin="round" style="stroke-width: 2px; paint-order: stroke;" fill="none" fill-rule="evenodd"/>
  <path d="M 7.327 15.744 C 7.327 16.169 7.22 16.671 7.066 17.034 C 6.912 17.4 6.627 17.805 6.356 18.088 C 6.073 18.359 5.668 18.644 5.302 18.798 C 4.939 18.952 4.437 19.059 4.012 19.059 C 3.587 19.059 3.085 18.952 2.722 18.798 C 2.354 18.643 1.949 18.356 1.668 18.088 C 1.399 17.807 1.113 17.401 0.958 17.034 C 0.804 16.671 0.697 16.169 0.697 15.744 C 0.697 15.321 0.804 14.818 0.958 14.454 C 1.113 14.086 1.4 13.681 1.668 13.4 C 1.951 13.13 2.355 12.845 2.722 12.69 C 3.085 12.536 3.587 12.429 4.012 12.429 C 4.437 12.429 4.939 12.536 5.302 12.69 C 5.669 12.845 6.081 13.125 6.356 13.4 C 6.633 13.676 6.911 14.087 7.066 14.454 C 7.22 14.818 7.327 15.321 7.327 15.744 Z M 5.224 15.232 C 5.145 15.045 5.085 14.958 4.942 14.814 C 4.799 14.671 4.711 14.611 4.524 14.532 C 4.333 14.452 4.227 14.429 4.012 14.429 C 3.797 14.429 3.691 14.452 3.5 14.532 C 3.313 14.611 3.22 14.663 3.083 14.813 C 2.933 14.952 2.879 15.046 2.8 15.232 C 2.72 15.422 2.697 15.529 2.697 15.744 C 2.697 15.959 2.72 16.065 2.8 16.256 C 2.879 16.443 2.932 16.537 3.081 16.673 C 3.22 16.823 3.314 16.877 3.5 16.956 C 3.691 17.036 3.797 17.059 4.012 17.059 C 4.227 17.059 4.333 17.036 4.524 16.956 C 4.712 16.876 4.806 16.824 4.94 16.676 C 5.089 16.541 5.144 16.444 5.224 16.256 C 5.304 16.065 5.327 15.959 5.327 15.744 C 5.327 15.529 5.304 15.422 5.224 15.232 Z" style=""/>
  <path d="M 18.364 15.744 C 18.364 16.064 18.299 16.368 18.182 16.645 C 18.065 16.922 17.895 17.172 17.686 17.381 C 17.477 17.591 17.227 17.76 16.95 17.877 C 16.674 17.994 16.369 18.059 16.049 18.059 C 15.73 18.059 15.425 17.994 15.148 17.877 C 14.871 17.76 14.622 17.59 14.412 17.381 C 14.202 17.172 14.033 16.922 13.916 16.645 C 13.799 16.368 13.734 16.064 13.734 15.744 C 13.734 15.425 13.799 15.12 13.916 14.843 C 14.033 14.566 14.202 14.317 14.412 14.107 C 14.622 13.897 14.871 13.728 15.148 13.611 C 15.425 13.494 15.73 13.429 16.049 13.429 C 16.369 13.429 16.674 13.494 16.95 13.611 C 17.227 13.728 17.477 13.898 17.686 14.107 C 17.896 14.317 18.065 14.566 18.182 14.843 C 18.299 15.12 18.364 15.425 18.364 15.744 Z" stroke-linejoin="round" style="stroke-width: 2px;" fill="none" fill-rule="evenodd"/>
  <path d="M 19.364 15.744 C 19.364 16.169 19.257 16.671 19.103 17.034 C 18.948 17.401 18.663 17.806 18.394 18.087 C 18.111 18.359 17.702 18.635 17.34 18.798 C 16.973 18.943 16.473 19.059 16.049 19.059 C 15.626 19.059 15.123 18.952 14.759 18.798 C 14.391 18.643 13.981 18.363 13.707 18.09 C 13.428 17.813 13.149 17.4 12.995 17.034 C 12.841 16.671 12.734 16.169 12.734 15.744 C 12.734 15.321 12.841 14.818 12.995 14.454 C 13.15 14.087 13.428 13.676 13.705 13.4 C 13.981 13.123 14.392 12.845 14.759 12.69 C 15.123 12.536 15.626 12.429 16.049 12.429 C 16.473 12.429 16.973 12.545 17.34 12.69 C 17.703 12.854 18.118 13.125 18.393 13.4 C 18.67 13.676 18.948 14.087 19.103 14.454 C 19.257 14.818 19.364 15.321 19.364 15.744 Z M 17.261 15.232 C 17.182 15.045 17.122 14.958 16.979 14.814 C 16.836 14.671 16.751 14.602 16.561 14.532 C 16.376 14.444 16.265 14.429 16.049 14.429 C 15.834 14.429 15.727 14.452 15.537 14.532 C 15.35 14.611 15.263 14.671 15.119 14.814 C 14.976 14.958 14.916 15.045 14.837 15.232 C 14.757 15.422 14.734 15.529 14.734 15.744 C 14.734 15.959 14.757 16.065 14.837 16.256 C 14.917 16.444 14.976 16.531 15.117 16.672 C 15.263 16.817 15.351 16.877 15.537 16.956 C 15.727 17.036 15.834 17.059 16.049 17.059 C 16.265 17.059 16.375 17.045 16.56 16.956 C 16.751 16.886 16.843 16.824 16.977 16.676 C 17.126 16.539 17.182 16.443 17.261 16.256 C 17.341 16.065 17.364 15.959 17.364 15.744 C 17.364 15.529 17.341 15.422 17.261 15.232 Z" style=""/>
  <path d="M 6.899 17.37 L 7.145 16.954 L 7.391 16.537 L 7.637 16.12 L 7.882 15.703 L 9.852 12.292 L 11.822 8.88 L 13.79 5.472 L 15.757 2.064 L 14.891 1.564 L 14.025 1.064 L 12.058 4.472 L 10.09 7.88 L 8.124 11.286 L 6.157 14.691 L 5.913 15.106 L 5.669 15.52 L 5.423 15.936 L 5.177 16.352 L 6.038 16.861 Z" style=""/>
  <path d="M 6.034 0.973 L 8.002 4.381 L 9.969 7.789 L 11.939 11.202 L 13.91 14.615 L 14.156 15.054 L 14.403 15.493 L 14.649 15.932 L 14.896 16.371 L 14.024 16.861 L 13.152 17.351 L 12.905 16.912 L 12.659 16.473 L 12.414 16.037 L 12.169 15.6 L 10.203 12.195 L 8.237 8.789 L 6.27 5.381 L 4.302 1.973 L 5.168 1.473 Z" style=""/>
</svg>