<?xml version="1.0" encoding="utf-8"?>
<svg width="20" height="20" viewBox="0 0 20 20" fill="context-fill" fill-opacity="context-fill-opacity" xmlns="http://www.w3.org/2000/svg">
  <path d="M 18.985 3.805 C 18.985 4.441 18.51 5.204 17.978 5.624 C 17.493 6.006 16.753 6.37 15.968 6.631 C 14.445 7.139 12.293 7.46 10.02 7.46 C 7.747 7.46 5.595 7.139 4.072 6.631 C 3.287 6.37 2.547 6.006 2.062 5.624 C 1.53 5.204 1.055 4.441 1.055 3.805 C 1.055 3.169 1.53 2.406 2.062 1.986 C 2.547 1.604 3.287 1.24 4.072 0.979 C 5.595 0.471 7.747 0.15 10.02 0.15 C 12.293 0.15 14.445 0.471 15.968 0.979 C 16.753 1.24 17.493 1.604 17.978 1.986 C 18.51 2.406 18.985 3.169 18.985 3.805 Z M 16.74 3.557 C 16.419 3.304 15.993 3.095 15.336 2.876 C 13.976 2.423 12.146 2.15 10.02 2.15 C 7.894 2.15 6.064 2.423 4.704 2.876 C 4.047 3.095 3.621 3.304 3.3 3.557 C 3.026 3.773 3.055 3.707 3.055 3.805 C 3.055 3.903 3.026 3.837 3.3 4.053 C 3.621 4.306 4.047 4.515 4.704 4.734 C 6.064 5.187 7.894 5.46 10.02 5.46 C 12.146 5.46 13.976 5.187 15.336 4.734 C 15.993 4.515 16.419 4.306 16.74 4.053 C 17.014 3.837 16.985 3.903 16.985 3.805 C 16.985 3.707 17.014 3.773 16.74 3.557 Z" style=""/>
  <path d="M 18.985 10.001 C 18.907 10.637 18.496 11.378 17.983 11.82 C 17.493 12.194 16.76 12.562 15.979 12.827 C 15.212 13.082 14.266 13.299 13.271 13.438 C 12.283 13.577 11.162 13.656 10.02 13.656 C 8.879 13.656 7.758 13.576 6.769 13.438 C 5.774 13.297 4.828 13.082 4.061 12.827 C 3.28 12.562 2.546 12.193 2.056 11.82 C 1.8 11.61 1.519 11.317 1.362 11.057 C 1.192 10.78 1.201 10.521 1.201 10.521 C 1.15 10.408 2.788 9.342 2.676 9.217 C 2.676 9.217 3.009 10.058 3.298 10.252 C 3.61 10.513 4.038 10.716 4.695 10.93 C 5.365 11.158 6.134 11.331 7.047 11.458 C 7.968 11.588 8.949 11.656 10.02 11.656 C 11.092 11.656 12.073 11.587 12.993 11.458 C 13.906 11.329 14.674 11.158 15.344 10.931 C 16.001 10.717 16.43 10.513 16.742 10.252 C 17.031 10.059 17.063 10.102 16.985 10.001 Z" style=""/>
  <path d="M 1.055 3.805 L 1.055 6.903 L 1.055 10.001 L 1.055 13.099 L 1.055 16.196 C 1.133 16.832 1.543 17.572 2.056 18.015 C 2.546 18.388 3.278 18.761 4.061 19.023 C 4.828 19.278 5.775 19.491 6.769 19.633 C 7.757 19.771 8.879 19.851 10.02 19.851 C 11.162 19.851 12.283 19.771 13.271 19.633 C 14.265 19.491 15.212 19.278 15.979 19.023 C 16.762 18.761 17.493 18.389 17.983 18.015 C 18.496 17.573 18.907 16.831 18.985 16.196 L 18.985 13.099 L 18.985 10.001 L 18.985 6.903 L 18.985 3.805 L 16.985 3.805 L 16.985 6.903 L 16.985 10.001 L 16.985 13.099 L 16.985 16.196 C 17.063 16.296 17.031 16.254 16.742 16.447 C 16.43 16.708 16 16.907 15.345 17.125 C 14.674 17.35 13.906 17.525 12.992 17.653 C 12.073 17.783 11.092 17.851 10.02 17.851 C 8.949 17.851 7.968 17.783 7.049 17.653 C 6.135 17.525 5.366 17.35 4.695 17.125 C 4.04 16.907 3.61 16.708 3.298 16.447 C 3.009 16.254 2.977 16.296 3.055 16.196 L 3.055 13.099 L 3.055 10.001 L 3.055 6.903 L 3.055 3.805 Z" style=""/>
</svg>