<?xml version="1.0" encoding="utf-8"?>
<svg width="20" height="20" viewBox="0 0 20 20" fill="context-fill" fill-opacity="context-fill-opacity" xmlns="http://www.w3.org/2000/svg">
  <path d="M 18.187 1.286 L 14.108 1.286 L 10.028 1.286 L 5.949 1.286 L 1.869 1.286 C 1.62 1.286 1.382 1.337 1.165 1.429 C 0.948 1.521 0.753 1.655 0.588 1.819 C 0.424 1.983 0.29 2.179 0.198 2.395 C 0.106 2.612 0.055 2.85 0.055 3.099 L 0.055 5.819 L 0.055 8.539 L 0.055 11.258 L 0.055 13.978 C 0.055 14.227 0.106 14.465 0.198 14.682 C 0.29 14.899 0.424 15.095 0.588 15.259 C 0.753 15.424 0.948 15.557 1.165 15.649 C 1.382 15.741 1.62 15.792 1.869 15.792 L 3.456 15.792 L 5.042 15.792 L 6.629 15.792 L 8.215 15.792 L 8.215 16.245 L 8.215 16.698 L 8.215 17.151 L 8.215 17.604 L 7.989 17.604 L 7.762 17.604 L 7.535 17.604 L 7.308 17.604 C 7.184 17.604 7.065 17.63 6.956 17.676 C 6.848 17.722 6.75 17.789 6.668 17.871 C 6.586 17.954 6.519 18.052 6.473 18.16 C 6.427 18.269 6.401 18.388 6.401 18.512 C 6.401 18.637 6.427 18.756 6.473 18.864 C 6.519 18.972 6.586 19.07 6.668 19.152 C 6.75 19.234 6.848 19.301 6.956 19.347 C 7.065 19.393 7.184 19.418 7.308 19.418 L 8.668 19.418 L 10.028 19.418 L 11.388 19.418 L 12.747 19.418 C 12.872 19.418 12.991 19.393 13.099 19.347 C 13.208 19.301 13.306 19.234 13.388 19.152 C 13.47 19.07 13.537 18.972 13.583 18.864 C 13.629 18.755 13.654 18.636 13.654 18.512 C 13.654 18.388 13.629 18.269 13.583 18.16 C 13.537 18.052 13.47 17.954 13.388 17.871 C 13.306 17.789 13.208 17.722 13.099 17.676 C 12.991 17.63 12.872 17.604 12.747 17.604 L 12.521 17.604 L 12.294 17.604 L 12.068 17.604 L 11.841 17.604 L 11.841 17.151 L 11.841 16.698 L 11.841 16.245 L 11.841 15.792 L 13.428 15.792 L 15.014 15.792 L 16.601 15.792 L 18.187 15.792 C 18.437 15.792 18.675 15.741 18.891 15.649 C 19.108 15.557 19.303 15.424 19.467 15.259 C 19.632 15.095 19.765 14.899 19.857 14.682 C 19.949 14.466 20 14.228 20 13.978 L 20 11.259 L 20 8.539 L 20 5.819 L 20 3.099 C 20 2.85 19.949 2.612 19.857 2.395 C 19.765 2.179 19.632 1.983 19.467 1.819 C 19.303 1.655 19.108 1.521 18.891 1.429 C 18.675 1.337 18.437 1.286 18.187 1.286 Z M 17.28 13.978 L 13.654 13.978 L 10.028 13.978 L 6.402 13.978 L 2.775 13.978 C 2.65 13.978 2.531 13.953 2.423 13.907 C 2.315 13.861 2.217 13.794 2.135 13.712 C 2.053 13.63 1.987 13.532 1.941 13.424 C 1.895 13.316 1.869 13.197 1.869 13.072 L 1.869 10.805 L 1.869 8.539 L 1.869 6.272 L 1.869 4.006 C 1.869 3.881 1.895 3.762 1.941 3.654 C 1.987 3.546 2.053 3.448 2.135 3.366 C 2.217 3.283 2.315 3.217 2.423 3.171 C 2.532 3.125 2.651 3.099 2.775 3.099 L 6.402 3.099 L 10.028 3.099 L 13.654 3.099 L 17.28 3.099 C 17.405 3.099 17.524 3.124 17.632 3.171 C 17.741 3.217 17.839 3.283 17.921 3.366 C 18.003 3.448 18.069 3.546 18.115 3.654 C 18.161 3.762 18.187 3.881 18.187 4.006 L 18.187 6.272 L 18.187 8.539 L 18.187 10.805 L 18.187 13.072 C 18.187 13.197 18.161 13.316 18.115 13.424 C 18.069 13.532 18.003 13.63 17.921 13.712 C 17.838 13.794 17.741 13.861 17.632 13.907 C 17.524 13.952 17.405 13.978 17.28 13.978 Z" style="stroke-miterlimit: 1;"/>
  <path d="M 19.087 0.969 C 19.347 1.085 19.621 1.272 19.82 1.465 C 20.015 1.666 20.202 1.941 20.317 2.2 C 20.424 2.462 20.494 2.798 20.5 3.099 L 20.5 13.978 C 20.494 14.28 20.424 14.616 20.317 14.878 C 20.202 15.137 20.016 15.412 19.821 15.613 C 19.62 15.807 19.347 15.994 19.087 16.109 C 18.825 16.216 18.489 16.286 18.187 16.292 L 12.341 16.292 L 12.341 17.104 L 12.747 17.104 C 12.925 17.11 13.142 17.156 13.294 17.216 C 13.447 17.286 13.626 17.408 13.744 17.52 C 13.854 17.637 13.974 17.814 14.044 17.966 C 14.104 18.12 14.154 18.337 14.154 18.512 C 14.154 18.687 14.103 18.905 14.043 19.06 C 13.973 19.211 13.856 19.391 13.742 19.506 C 13.627 19.62 13.447 19.737 13.294 19.807 C 13.14 19.868 12.923 19.913 12.747 19.918 L 7.308 19.918 C 7.133 19.913 6.915 19.867 6.76 19.807 C 6.609 19.737 6.429 19.62 6.314 19.506 C 6.2 19.391 6.078 19.213 6.013 19.06 C 5.949 18.909 5.901 18.69 5.901 18.512 C 5.901 18.335 5.953 18.117 6.013 17.964 C 6.083 17.813 6.204 17.635 6.314 17.517 C 6.432 17.406 6.61 17.285 6.762 17.215 C 6.914 17.155 7.131 17.11 7.308 17.104 L 7.715 17.104 L 7.715 16.292 L 1.869 16.292 C 1.568 16.286 1.23 16.22 0.97 16.109 C 0.708 15.998 0.432 15.81 0.234 15.613 C 0.038 15.416 -0.151 15.14 -0.262 14.877 C -0.373 14.617 -0.439 14.279 -0.445 13.978 L -0.445 3.099 C -0.439 2.798 -0.368 2.461 -0.262 2.199 C -0.146 1.94 0.042 1.664 0.236 1.464 C 0.435 1.272 0.707 1.08 0.97 0.969 C 1.23 0.858 1.568 0.792 1.869 0.786 L 18.187 0.786 C 18.489 0.792 18.825 0.862 19.087 0.969 Z M 18.187 1.786 L 1.869 1.786 C 1.672 1.78 1.534 1.816 1.36 1.889 C 1.189 1.962 1.071 2.038 0.941 2.173 C 0.807 2.301 0.727 2.418 0.658 2.591 C 0.581 2.762 0.549 2.902 0.555 3.099 L 0.555 13.978 C 0.549 14.175 0.585 14.313 0.658 14.487 C 0.731 14.658 0.81 14.774 0.942 14.905 C 1.074 15.038 1.188 15.116 1.36 15.189 C 1.534 15.262 1.672 15.298 1.869 15.292 L 8.715 15.292 L 8.715 18.104 L 7.308 18.104 C 7.237 18.098 7.216 18.104 7.151 18.136 C 7.087 18.158 7.069 18.171 7.022 18.223 C 6.97 18.271 6.956 18.29 6.933 18.355 C 6.902 18.42 6.901 18.441 6.901 18.512 C 6.901 18.584 6.905 18.603 6.933 18.668 C 6.96 18.731 6.972 18.749 7.022 18.798 C 7.071 18.848 7.086 18.864 7.151 18.887 C 7.214 18.918 7.235 18.923 7.308 18.918 L 12.747 18.918 C 12.821 18.923 12.842 18.918 12.903 18.887 C 12.968 18.865 12.985 18.848 13.034 18.798 C 13.084 18.749 13.1 18.734 13.123 18.669 C 13.154 18.606 13.154 18.585 13.154 18.512 C 13.154 18.439 13.154 18.418 13.123 18.355 C 13.1 18.291 13.087 18.272 13.033 18.223 C 12.988 18.172 12.97 18.159 12.905 18.137 C 12.841 18.105 12.819 18.098 12.747 18.104 L 11.341 18.104 L 11.341 15.292 L 18.187 15.292 C 18.385 15.298 18.525 15.267 18.695 15.189 C 18.869 15.121 18.985 15.041 19.112 14.907 C 19.247 14.779 19.328 14.661 19.397 14.487 C 19.474 14.316 19.506 14.176 19.5 13.978 L 19.5 3.099 C 19.506 2.902 19.475 2.762 19.397 2.591 C 19.328 2.417 19.249 2.301 19.115 2.174 C 18.986 2.039 18.869 1.957 18.696 1.889 C 18.525 1.812 18.385 1.78 18.187 1.786 Z M 17.28 14.478 L 2.775 14.478 C 2.599 14.473 2.38 14.432 2.227 14.367 C 2.074 14.302 1.896 14.18 1.781 14.066 C 1.666 13.95 1.546 13.771 1.481 13.62 C 1.417 13.469 1.375 13.25 1.369 13.072 L 1.369 4.006 C 1.375 3.828 1.417 3.609 1.481 3.458 C 1.546 3.307 1.668 3.133 1.78 3.014 C 1.901 2.899 2.079 2.779 2.229 2.71 C 2.381 2.65 2.598 2.605 2.775 2.599 L 17.28 2.599 C 17.456 2.604 17.673 2.65 17.829 2.712 C 17.981 2.781 18.155 2.899 18.276 3.014 C 18.388 3.133 18.511 3.307 18.575 3.458 C 18.639 3.609 18.681 3.828 18.687 4.006 L 18.687 13.072 C 18.681 13.25 18.639 13.469 18.575 13.62 C 18.511 13.771 18.385 13.949 18.272 14.068 C 18.156 14.178 17.978 14.298 17.824 14.369 C 17.674 14.427 17.458 14.472 17.28 14.478 Z M 17.438 13.446 C 17.502 13.425 17.52 13.411 17.568 13.358 C 17.619 13.313 17.627 13.293 17.655 13.228 C 17.683 13.163 17.693 13.144 17.687 13.072 L 17.687 4.006 C 17.693 3.934 17.683 3.915 17.655 3.85 C 17.627 3.785 17.619 3.764 17.567 3.72 C 17.524 3.668 17.504 3.655 17.438 3.632 C 17.378 3.6 17.354 3.594 17.28 3.599 L 2.775 3.599 C 2.704 3.593 2.683 3.599 2.618 3.631 C 2.552 3.654 2.535 3.666 2.491 3.717 C 2.439 3.762 2.429 3.785 2.401 3.85 C 2.373 3.915 2.363 3.934 2.369 4.006 L 2.369 13.072 C 2.363 13.144 2.373 13.163 2.401 13.228 C 2.429 13.293 2.44 13.31 2.489 13.358 C 2.538 13.408 2.556 13.42 2.619 13.447 C 2.682 13.474 2.701 13.483 2.775 13.478 L 17.28 13.478 C 17.352 13.484 17.374 13.477 17.438 13.446 Z" style="fill: none;"/>
</svg>