<?xml version="1.0" encoding="utf-8"?>
<svg width="20" height="20" viewBox="0 0 20 20" fill="context-fill" fill-opacity="context-fill-opacity" xmlns="http://www.w3.org/2000/svg">
  <path fill-rule="evenodd" d="M 17.758 6.956 L 15.788 6.956 L 13.817 6.956 L 11.847 6.956 L 9.876 6.956 L 7.906 6.956 L 5.935 6.956 L 3.965 6.956 L 1.994 6.956 L 1.994 8.082 L 1.994 9.208 L 1.994 10.334 L 1.994 11.46 L 1.994 12.586 L 1.994 13.712 L 1.994 14.838 L 1.994 15.964 C 1.994 16.041 2.002 16.117 2.017 16.191 C 2.032 16.264 2.055 16.335 2.083 16.403 C 2.112 16.47 2.146 16.534 2.187 16.594 C 2.227 16.654 2.273 16.709 2.324 16.76 C 2.375 16.811 2.431 16.857 2.491 16.898 C 2.551 16.938 2.615 16.973 2.682 17.002 C 2.75 17.03 2.82 17.052 2.894 17.067 C 2.967 17.082 3.043 17.09 3.12 17.09 L 4.809 17.09 L 6.498 17.09 L 8.187 17.09 L 9.876 17.09 L 11.565 17.09 L 13.254 17.09 L 14.943 17.09 L 16.632 17.09 C 16.71 17.09 16.786 17.082 16.859 17.067 C 16.933 17.053 17.004 17.03 17.071 17.002 C 17.138 16.973 17.202 16.938 17.262 16.898 C 17.322 16.857 17.378 16.811 17.428 16.76 C 17.479 16.709 17.525 16.654 17.566 16.594 C 17.607 16.534 17.642 16.47 17.67 16.403 C 17.699 16.335 17.721 16.264 17.735 16.191 C 17.75 16.117 17.758 16.041 17.758 15.964 L 17.758 14.838 L 17.758 13.712 L 17.758 12.586 L 17.758 11.46 L 17.758 10.334 L 17.758 9.208 L 17.758 8.082 Z M 17.758 5.83 L 15.788 5.83 L 13.817 5.83 L 11.847 5.83 L 9.876 5.83 L 7.906 5.83 L 5.935 5.83 L 3.965 5.83 L 1.994 5.83 L 1.994 5.69 L 1.994 5.549 L 1.994 5.408 L 1.994 5.267 L 1.994 5.126 L 1.994 4.985 L 1.994 4.844 L 1.994 4.704 C 1.994 4.626 2.002 4.55 2.017 4.477 C 2.032 4.403 2.055 4.333 2.083 4.266 C 2.112 4.198 2.146 4.134 2.187 4.075 C 2.227 4.015 2.273 3.959 2.324 3.908 C 2.375 3.857 2.431 3.811 2.491 3.77 C 2.551 3.73 2.615 3.694 2.682 3.666 C 2.75 3.637 2.82 3.616 2.894 3.601 C 2.967 3.586 3.043 3.578 3.12 3.578 L 4.809 3.578 L 6.498 3.578 L 8.187 3.578 L 9.876 3.578 L 11.565 3.578 L 13.254 3.578 L 14.943 3.578 L 16.632 3.578 C 16.71 3.578 16.786 3.586 16.859 3.601 C 16.933 3.616 17.004 3.638 17.071 3.666 C 17.138 3.694 17.202 3.73 17.262 3.77 C 17.322 3.811 17.378 3.857 17.428 3.908 C 17.479 3.959 17.525 4.015 17.566 4.075 C 17.607 4.134 17.642 4.198 17.67 4.266 C 17.699 4.333 17.721 4.403 17.735 4.477 C 17.75 4.55 17.758 4.626 17.758 4.704 L 17.758 4.844 L 17.758 4.985 L 17.758 5.126 L 17.758 5.267 L 17.758 5.408 L 17.758 5.549 L 17.758 5.69 Z M 18.884 4.704 C 18.884 4.549 18.868 4.397 18.838 4.25 C 18.808 4.104 18.764 3.962 18.707 3.828 C 18.65 3.693 18.58 3.565 18.499 3.445 C 18.418 3.326 18.326 3.214 18.224 3.112 C 18.122 3.01 18.011 2.918 17.891 2.837 C 17.771 2.756 17.643 2.686 17.509 2.629 C 17.374 2.572 17.232 2.528 17.086 2.498 C 16.939 2.468 16.787 2.452 16.632 2.452 L 14.943 2.452 L 13.254 2.452 L 11.565 2.452 L 9.876 2.452 L 8.187 2.452 L 6.498 2.452 L 4.809 2.452 L 3.12 2.452 C 2.965 2.452 2.814 2.468 2.667 2.498 C 2.521 2.528 2.379 2.572 2.244 2.629 C 2.11 2.686 1.982 2.756 1.862 2.837 C 1.742 2.918 1.63 3.01 1.528 3.112 C 1.426 3.214 1.334 3.326 1.253 3.446 C 1.172 3.565 1.102 3.694 1.045 3.828 C 0.988 3.963 0.944 4.104 0.914 4.251 C 0.884 4.397 0.868 4.549 0.868 4.704 L 0.868 6.112 L 0.868 7.519 L 0.868 8.927 L 0.868 10.334 L 0.868 11.742 L 0.868 13.149 L 0.868 14.557 L 0.868 15.964 C 0.868 16.12 0.884 16.271 0.914 16.418 C 0.944 16.565 0.988 16.706 1.045 16.841 C 1.102 16.976 1.172 17.104 1.253 17.223 C 1.334 17.343 1.426 17.455 1.528 17.557 C 1.63 17.659 1.742 17.751 1.862 17.831 C 1.981 17.912 2.11 17.982 2.244 18.039 C 2.379 18.096 2.521 18.14 2.667 18.17 C 2.814 18.2 2.965 18.216 3.12 18.216 L 4.809 18.216 L 6.498 18.216 L 8.187 18.216 L 9.876 18.216 L 11.565 18.216 L 13.254 18.216 L 14.943 18.216 L 16.632 18.216 C 16.788 18.216 16.939 18.2 17.086 18.17 C 17.233 18.14 17.374 18.096 17.509 18.039 C 17.644 17.982 17.771 17.912 17.891 17.831 C 18.011 17.751 18.122 17.659 18.224 17.557 C 18.326 17.455 18.418 17.343 18.499 17.223 C 18.58 17.104 18.65 16.976 18.707 16.841 C 18.764 16.706 18.808 16.565 18.838 16.418 C 18.868 16.271 18.884 16.12 18.884 15.964 L 18.884 14.557 L 18.884 13.149 L 18.884 11.742 L 18.884 10.334 L 18.884 8.927 L 18.884 7.519 L 18.884 6.112 Z" style="stroke-width: 0px; stroke-miterlimit: 3;"/>
  <path d="M 4.246 14.275 C 4.246 14.12 4.309 13.979 4.411 13.877 C 4.513 13.775 4.654 13.712 4.809 13.712 L 5.372 13.712 L 5.935 13.712 C 6.091 13.712 6.231 13.775 6.333 13.877 C 6.435 13.979 6.498 14.12 6.498 14.275 L 6.498 14.838 L 6.498 15.401 C 6.498 15.557 6.435 15.697 6.333 15.799 C 6.231 15.901 6.091 15.964 5.935 15.964 L 5.372 15.964 L 4.809 15.964 C 4.654 15.964 4.513 15.901 4.411 15.799 C 4.309 15.697 4.246 15.557 4.246 15.401 L 4.246 14.838 Z M 8.75 14.275 C 8.75 14.12 8.813 13.979 8.915 13.877 C 9.017 13.775 9.158 13.712 9.313 13.712 L 9.876 13.712 L 10.439 13.712 C 10.595 13.712 10.735 13.775 10.837 13.877 C 10.939 13.979 11.002 14.12 11.002 14.275 L 11.002 14.838 L 11.002 15.401 C 11.002 15.557 10.939 15.697 10.837 15.799 C 10.735 15.901 10.595 15.964 10.439 15.964 L 9.876 15.964 L 9.313 15.964 C 9.158 15.964 9.017 15.901 8.915 15.799 C 8.813 15.697 8.75 15.557 8.75 15.401 L 8.75 14.838 Z M 13.254 14.275 C 13.254 14.12 13.317 13.979 13.419 13.877 C 13.521 13.775 13.662 13.712 13.817 13.712 L 14.38 13.712 L 14.943 13.712 C 15.099 13.712 15.239 13.775 15.341 13.877 C 15.443 13.979 15.506 14.12 15.506 14.275 L 15.506 14.838 L 15.506 15.401 C 15.506 15.557 15.443 15.697 15.341 15.799 C 15.239 15.901 15.099 15.964 14.943 15.964 L 14.38 15.964 L 13.817 15.964 C 13.662 15.964 13.521 15.901 13.419 15.799 C 13.317 15.697 13.254 15.557 13.254 15.401 L 13.254 14.838 Z" style="stroke-width: 13px;"/>
</svg>