<?xml version="1.0" encoding="utf-8"?>
<svg width="16" height="16" viewBox="0 0 24 24" fill="none" stroke="#ff0000" stroke-width="4" stroke-linecap="square" stroke-linejoin="round" xmlns="http://www.w3.org/2000/svg">
  <path style="fill: rgb(216, 216, 216); stroke: rgb(0, 0, 0); stroke-width: 1px;" d="M 12.182 12.309"/>
  <path style="fill: rgb(216, 216, 216); stroke: rgb(0, 0, 0); stroke-width: 1px;" d="M 2.774 12.043"/>
  <path d="M 17.834 8.737 L 15.712 8.737 L 15.712 2.063 C 15.712 1.329 15.112 0.729 14.377 0.729 L 9.041 0.729 C 8.305 0.729 7.705 1.329 7.705 2.063 L 7.705 8.737 L 5.583 8.737 C 4.395 8.737 3.795 10.177 4.636 11.019 L 10.761 17.143 C 11.282 17.664 12.121 17.664 12.643 17.143 L 18.769 11.019 C 19.61 10.177 19.022 8.737 17.834 8.737 Z M 2.367 22.082 C 2.367 22.815 2.967 23.416 3.701 23.416 L 19.716 23.416 C 20.451 23.416 21.051 22.815 21.051 22.082 C 21.051 21.348 20.451 20.747 19.716 20.747 L 3.701 20.747 C 2.967 20.747 2.367 21.348 2.367 22.082 Z" style="stroke-width: 0px; fill: rgb(90, 90, 90);"/>
</svg>