<?xml version="1.0" encoding="utf-8"?>
<svg width="20" height="20" viewBox="0 0 20 20" fill="context-fill" fill-opacity="context-fill-opacity" xmlns="http://www.w3.org/2000/svg">
  <path d="M 9.012 13.257 C 8.699 12.907 8.435 12.524 8.233 12.11 C 8.031 11.697 7.89 11.254 7.822 10.786 C 7.686 10.995 7.561 11.213 7.45 11.44 C 7.338 11.667 7.24 11.904 7.158 12.149 C 6.741 13.398 6.895 14.801 7.463 16.006 C 8.031 17.211 9.012 18.217 10.247 18.671 C 11.31 19.026 12.439 18.887 13.498 18.487 C 14.558 18.088 15.548 17.427 16.334 16.736 C 16.452 16.577 16.976 16.087 17.356 15.614 C 17.735 15.14 17.969 14.684 17.506 14.593 C 16.134 15.297 14.54 15.548 13.024 15.331 C 11.508 15.114 10.07 14.429 9.012 13.257 M 9.557 7.979 C 10.03 7.975 10.039 7.878 9.881 7.745 C 9.723 7.612 9.399 7.444 9.203 7.298 C 8.731 7.039 8.217 6.846 7.688 6.718 C 7.159 6.59 6.614 6.526 6.078 6.526 C 4.33 6.544 2.823 7.1 1.901 8.105 C 0.98 9.11 0.644 10.564 1.237 12.376 C 1.664 14.139 2.642 15.728 3.966 16.934 C 5.29 18.14 6.959 18.962 8.767 19.188 C 7.836 18.603 7.089 17.76 6.574 16.79 C 6.06 15.821 5.778 14.724 5.778 13.629 C 5.814 12.48 6.187 11.231 6.836 10.188 C 7.486 9.145 8.413 8.307 9.557 7.979 M 1.672 6.78 C 3.053 5.763 4.842 5.295 6.584 5.402 C 8.326 5.509 10.021 6.19 11.211 7.471 C 11.674 7.975 12.064 8.656 12.234 9.367 C 12.403 10.078 12.35 10.818 11.928 11.44 C 11.138 12.294 11.837 12.778 12.852 13.016 C 13.865 13.255 15.194 13.248 15.662 13.121 C 17.361 12.794 18.435 11.643 18.882 10.232 C 19.329 8.822 19.15 7.153 18.341 5.79 C 17.569 4.246 16.327 3.069 14.857 2.282 C 13.388 1.495 11.692 1.098 10.011 1.112 C 8.167 1.08 6.416 1.648 4.96 2.648 C 3.503 3.649 2.34 5.082 1.672 6.78 Z" style=""/>
</svg>