<?xml version="1.0" encoding="utf-8"?>
<svg width="20" height="20" viewBox="0 0 20 20" fill="context-fill" fill-opacity="context-fill-opacity" xmlns="http://www.w3.org/2000/svg">
  <path d="M 15.694 1.718 C 14.919 1.72 14.174 2.031 13.63 2.584 L 2.395 13.817 L 2.351 14.04 L 1.574 17.948 L 1.352 18.991 L 2.396 18.769 L 6.303 17.991 L 6.524 17.947 L 17.759 6.714 C 18.915 5.578 18.915 3.718 17.759 2.583 C 17.214 2.031 16.471 1.72 15.694 1.718 Z M 15.694 3.072 C 16.052 3.072 16.413 3.236 16.76 3.583 C 17.451 4.274 17.451 5.022 16.76 5.715 L 16.25 6.203 L 14.139 4.093 L 14.629 3.583 C 14.976 3.236 15.336 3.072 15.694 3.072 Z M 13.141 5.093 L 15.249 7.202 L 6.659 15.793 C 6.194 14.886 5.456 14.148 4.548 13.684 Z M 3.639 14.839 C 4.489 15.181 5.163 15.855 5.503 16.705 L 3.172 17.171 Z" style="stroke-miterlimit: 1; stroke-width: 0px;"/>
</svg>