<?xml version="1.0" encoding="utf-8"?>
<svg width="20" height="20" viewBox="0 0 20 20" fill="context-fill" fill-opacity="context-fill-opacity" xmlns="http://www.w3.org/2000/svg">
  <path d="M 10.074 0.443 C 8.749 0.443 7.486 0.712 6.337 1.198 C 5.189 1.684 4.155 2.386 3.286 3.255 C 2.418 4.124 1.715 5.158 1.229 6.306 C 0.743 7.455 0.474 8.718 0.474 10.043 C 0.475 11.891 0.975 13.565 1.825 14.979 C 2.675 16.394 3.875 17.548 5.275 18.356 C 6.675 19.165 8.275 19.627 9.925 19.655 C 11.575 19.684 13.275 19.28 14.875 18.356 C 15.618 17.928 16.289 17.408 16.878 16.816 C 17.467 16.224 17.975 15.56 18.389 14.842 C 18.803 14.125 19.125 13.353 19.342 12.547 C 19.56 11.741 19.675 10.9 19.674 10.042 C 19.674 8.717 19.405 7.455 18.919 6.306 C 18.434 5.158 17.731 4.124 16.862 3.255 C 15.994 2.387 14.959 1.684 13.81 1.198 C 12.662 0.712 11.399 0.443 10.074 0.443 Z M 10.074 17.642 C 8.612 17.659 7.281 17.278 6.154 16.618 C 5.027 15.958 4.102 15.019 3.449 13.918 C 2.797 12.817 2.417 11.555 2.379 10.249 C 2.341 8.943 2.646 7.593 3.362 6.318 C 3.703 5.713 4.119 5.166 4.595 4.687 C 5.071 4.208 5.607 3.796 6.187 3.461 C 6.767 3.126 7.392 2.868 8.045 2.695 C 8.698 2.522 9.38 2.435 10.074 2.443 C 11.537 2.427 12.867 2.807 13.994 3.467 C 15.122 4.127 16.047 5.067 16.699 6.167 C 17.351 7.268 17.732 8.531 17.77 9.837 C 17.807 11.143 17.503 12.492 16.786 13.767 C 16.446 14.373 16.03 14.919 15.554 15.398 C 15.078 15.878 14.541 16.289 13.961 16.624 C 13.381 16.96 12.756 17.218 12.103 17.391 C 11.45 17.563 10.768 17.65 10.074 17.642 Z M 7.575 9.793 C 7.782 9.793 7.979 9.744 8.159 9.656 C 8.338 9.567 8.5 9.439 8.635 9.281 C 8.771 9.123 8.88 8.934 8.956 8.724 C 9.032 8.515 9.074 8.285 9.074 8.043 C 9.074 7.801 9.032 7.571 8.956 7.361 C 8.88 7.152 8.771 6.964 8.635 6.805 C 8.499 6.647 8.337 6.519 8.158 6.43 C 7.978 6.342 7.781 6.293 7.574 6.293 C 7.367 6.293 7.17 6.342 6.99 6.43 C 6.811 6.519 6.649 6.647 6.513 6.805 C 6.377 6.964 6.268 7.152 6.192 7.362 C 6.116 7.571 6.074 7.802 6.074 8.043 C 6.074 8.285 6.116 8.515 6.192 8.724 C 6.268 8.934 6.378 9.122 6.514 9.281 C 6.65 9.439 6.811 9.567 6.991 9.656 C 7.171 9.744 7.368 9.793 7.575 9.793 Z M 12.574 9.793 C 12.782 9.793 12.979 9.744 13.159 9.656 C 13.338 9.567 13.5 9.439 13.635 9.281 C 13.771 9.123 13.88 8.934 13.956 8.724 C 14.032 8.515 14.074 8.285 14.074 8.043 C 14.074 7.801 14.032 7.571 13.956 7.361 C 13.88 7.152 13.771 6.964 13.635 6.805 C 13.499 6.647 13.337 6.519 13.158 6.43 C 12.978 6.342 12.781 6.293 12.574 6.293 C 12.367 6.293 12.17 6.342 11.99 6.431 C 11.811 6.519 11.65 6.647 11.514 6.806 C 11.378 6.964 11.268 7.153 11.192 7.362 C 11.116 7.571 11.074 7.802 11.074 8.043 C 11.074 8.285 11.116 8.515 11.192 8.724 C 11.268 8.933 11.378 9.122 11.514 9.28 C 11.65 9.439 11.811 9.567 11.99 9.655 C 12.17 9.744 12.367 9.793 12.574 9.793 Z M 14.415 11.379 C 14.323 11.333 14.226 11.307 14.13 11.3 C 14.033 11.293 13.937 11.305 13.846 11.333 C 13.755 11.362 13.669 11.408 13.594 11.47 C 13.519 11.531 13.455 11.608 13.407 11.699 C 13.399 11.716 13.34 11.823 13.219 11.976 C 13.097 12.128 12.913 12.325 12.652 12.52 C 12.392 12.715 12.055 12.908 11.63 13.052 C 11.205 13.197 10.691 13.292 10.075 13.292 C 9.462 13.292 8.95 13.198 8.526 13.055 C 8.102 12.912 7.766 12.72 7.505 12.526 C 7.244 12.332 7.059 12.136 6.936 11.983 C 6.813 11.83 6.753 11.72 6.742 11.7 C 6.677 11.571 6.583 11.472 6.474 11.403 C 6.365 11.334 6.24 11.296 6.114 11.289 C 5.988 11.282 5.86 11.307 5.744 11.363 C 5.628 11.42 5.524 11.507 5.445 11.628 C 5.409 11.684 5.38 11.744 5.36 11.807 C 5.34 11.869 5.328 11.933 5.324 11.998 C 5.32 12.062 5.325 12.128 5.338 12.192 C 5.351 12.256 5.373 12.318 5.403 12.378 C 5.416 12.403 5.5 12.566 5.673 12.797 C 5.846 13.028 6.107 13.326 6.474 13.622 C 6.841 13.917 7.313 14.21 7.908 14.429 C 8.502 14.647 9.219 14.792 10.075 14.792 C 10.932 14.792 11.649 14.647 12.243 14.429 C 12.838 14.21 13.31 13.918 13.676 13.622 C 14.043 13.326 14.304 13.027 14.476 12.796 C 14.649 12.565 14.733 12.402 14.745 12.377 C 14.791 12.285 14.816 12.189 14.823 12.092 C 14.829 11.996 14.816 11.9 14.786 11.81 C 14.757 11.719 14.71 11.635 14.647 11.561 C 14.585 11.488 14.507 11.425 14.415 11.379 Z" style=""/>
  <path d="M 20.174 10.042 C 20.141 13.597 18.186 16.983 15.125 18.789 C 11.784 20.669 7.921 20.461 5.025 18.789 C 2.129 17.118 0.016 13.877 -0.026 10.043 C -0.004 7.29 1.132 4.701 2.932 2.901 C 4.732 1.101 7.321 -0.057 10.074 -0.057 C 12.827 -0.057 15.415 1.101 17.215 2.901 C 19.016 4.701 20.152 7.289 20.174 10.042 Z M 16.508 3.608 C 14.834 1.934 12.622 0.943 10.074 0.943 C 7.525 0.943 5.314 1.934 3.639 3.608 C 1.965 5.283 0.952 7.494 0.974 10.043 C 0.933 13.599 2.821 16.362 5.525 17.923 C 8.229 19.484 11.566 19.738 14.625 17.923 C 17.504 16.299 19.209 13.347 19.174 10.042 C 19.196 7.494 18.183 5.282 16.508 3.608 Z M 10.076 18.142 C 7.014 18.134 4.381 16.47 3.019 14.173 C 1.657 11.875 1.461 8.764 2.926 6.073 C 4.38 3.558 7.17 1.947 10.072 1.943 C 13.134 1.951 15.767 3.615 17.129 5.912 C 18.491 8.21 18.687 11.321 17.222 14.012 C 15.768 16.527 12.979 18.138 10.076 18.142 Z M 16.35 13.522 C 17.752 11.113 17.517 8.529 16.269 6.422 C 15.02 4.316 12.866 2.869 10.08 2.943 C 7.431 2.877 5.066 4.236 3.798 6.563 C 2.396 8.972 2.631 11.556 3.879 13.663 C 5.128 15.769 7.282 17.216 10.068 17.142 C 12.718 17.208 15.082 15.849 16.35 13.522 Z M 5.574 8.043 C 5.574 7.47 5.808 6.86 6.134 6.48 C 6.466 6.093 7.044 5.793 7.574 5.793 C 8.104 5.793 8.682 6.093 9.014 6.48 C 9.34 6.86 9.574 7.47 9.574 8.043 C 9.574 8.616 9.341 9.226 9.015 9.606 C 8.683 9.993 8.105 10.293 7.575 10.293 C 7.045 10.293 6.466 9.993 6.134 9.606 C 5.808 9.226 5.574 8.616 5.574 8.043 Z M 6.893 8.955 C 7.104 9.201 7.276 9.293 7.575 9.293 C 7.873 9.293 8.045 9.201 8.255 8.955 C 8.472 8.702 8.574 8.437 8.574 8.043 C 8.574 7.649 8.472 7.384 8.255 7.131 C 8.044 6.885 7.872 6.793 7.574 6.793 C 7.276 6.793 7.104 6.885 6.893 7.131 C 6.676 7.384 6.574 7.649 6.574 8.043 C 6.574 8.437 6.676 8.702 6.893 8.955 Z M 10.574 8.043 C 10.574 7.47 10.808 6.861 11.134 6.48 C 11.466 6.093 12.044 5.793 12.574 5.793 C 13.104 5.793 13.682 6.093 14.014 6.48 C 14.34 6.86 14.574 7.47 14.574 8.043 C 14.574 8.616 14.341 9.226 14.015 9.606 C 13.683 9.993 13.104 10.293 12.574 10.293 C 12.044 10.293 11.466 9.993 11.134 9.606 C 10.808 9.225 10.574 8.616 10.574 8.043 Z M 11.893 8.955 C 12.104 9.201 12.276 9.293 12.574 9.293 C 12.873 9.293 13.044 9.201 13.255 8.955 C 13.472 8.702 13.574 8.437 13.574 8.043 C 13.574 7.649 13.472 7.384 13.255 7.131 C 13.044 6.885 12.872 6.793 12.574 6.793 C 12.276 6.793 12.104 6.885 11.893 7.131 C 11.676 7.384 11.574 7.65 11.574 8.043 C 11.574 8.436 11.676 8.702 11.893 8.955 Z M 15.192 12.601 C 15.158 12.668 14.802 13.356 13.99 14.011 C 13.215 14.636 11.9 15.292 10.075 15.292 C 8.251 15.292 6.935 14.636 6.16 14.011 C 5.348 13.357 4.985 12.659 4.957 12.604 C 4.809 12.238 4.839 11.702 5.026 11.355 C 5.295 11.02 5.778 10.77 6.141 10.79 C 6.504 10.81 6.958 11.111 7.188 11.474 C 7.221 11.537 7.365 11.798 7.804 12.124 C 8.284 12.482 8.954 12.792 10.075 12.792 C 11.201 12.792 11.873 12.479 12.352 12.12 C 12.79 11.792 12.951 11.492 12.966 11.464 C 13.128 11.204 13.429 10.941 13.695 10.857 C 13.96 10.773 14.358 10.814 14.641 10.933 C 14.905 11.091 15.173 11.388 15.261 11.653 C 15.349 11.918 15.31 12.316 15.192 12.601 Z M 14.312 11.967 C 14.28 11.871 14.292 11.853 14.19 11.825 C 14.106 11.759 14.095 11.779 13.997 11.81 C 13.899 11.841 13.879 11.831 13.849 11.934 C 13.812 12.001 13.556 12.468 12.952 12.92 C 12.389 13.342 11.412 13.792 10.075 13.792 C 8.745 13.792 7.77 13.346 7.207 12.927 C 6.602 12.477 6.324 11.978 6.301 11.935 C 6.27 11.782 6.228 11.796 6.086 11.789 C 5.945 11.781 5.91 11.753 5.864 11.901 C 5.757 12.003 5.755 12.04 5.849 12.152 C 5.873 12.2 6.132 12.705 6.787 13.233 C 7.48 13.791 8.475 14.292 10.075 14.292 C 11.675 14.292 12.67 13.79 13.362 13.232 C 14.017 12.704 14.274 12.201 14.297 12.155 C 14.363 12.073 14.343 12.063 14.312 11.967 Z" style="fill: none;"/>
</svg>