<?xml version="1.0" encoding="utf-8"?>
<svg width="20" height="20" viewBox="0 0 20 20" fill="context-fill" fill-opacity="context-fill-opacity" xmlns="http://www.w3.org/2000/svg">
  <path d="M 1.658 0.996 C 1.603 0.94 1.538 0.898 1.469 0.87 C 1.4 0.842 1.327 0.828 1.253 0.828 C 1.18 0.828 1.106 0.842 1.037 0.87 C 0.969 0.898 0.904 0.94 0.848 0.996 C 0.792 1.053 0.75 1.117 0.722 1.186 C 0.694 1.255 0.68 1.329 0.68 1.402 C 0.68 1.476 0.694 1.549 0.722 1.618 C 0.75 1.687 0.792 1.752 0.848 1.808 L 1.852 2.811 L 2.855 3.814 L 3.858 4.817 L 4.861 5.82 C 4.381 6.147 3.932 6.52 3.519 6.934 C 3.107 7.347 2.732 7.802 2.401 8.291 C 2.071 8.781 1.784 9.305 1.548 9.86 C 1.313 10.415 1.128 10.999 1.001 11.608 C 0.985 11.686 0.985 11.763 0.999 11.836 C 1.014 11.909 1.042 11.978 1.082 12.039 C 1.122 12.101 1.174 12.154 1.236 12.197 C 1.297 12.239 1.367 12.27 1.445 12.286 C 1.522 12.303 1.6 12.303 1.673 12.288 C 1.746 12.274 1.815 12.246 1.876 12.205 C 1.937 12.165 1.991 12.113 2.034 12.052 C 2.077 11.99 2.108 11.92 2.124 11.842 C 2.239 11.288 2.409 10.757 2.627 10.254 C 2.845 9.752 3.11 9.279 3.416 8.839 C 3.722 8.399 4.069 7.993 4.45 7.627 C 4.831 7.26 5.247 6.932 5.689 6.648 L 6.144 7.103 L 6.599 7.558 L 7.054 8.013 L 7.508 8.468 C 7.256 8.651 7.026 8.862 6.822 9.096 C 6.619 9.331 6.442 9.59 6.297 9.867 C 6.152 10.145 6.038 10.442 5.96 10.753 C 5.883 11.065 5.842 11.39 5.842 11.725 C 5.842 12.28 5.954 12.808 6.157 13.288 C 6.361 13.768 6.655 14.201 7.018 14.564 C 7.381 14.928 7.814 15.222 8.294 15.425 C 8.774 15.628 9.302 15.74 9.856 15.74 C 10.191 15.74 10.517 15.699 10.828 15.622 C 11.139 15.544 11.436 15.431 11.713 15.285 C 11.991 15.14 12.25 14.963 12.485 14.76 C 12.72 14.556 12.931 14.326 13.113 14.073 L 14.348 15.308 L 15.583 16.543 L 16.818 17.778 L 18.053 19.013 C 18.109 19.069 18.174 19.111 18.243 19.139 C 18.312 19.167 18.386 19.181 18.459 19.181 C 18.532 19.181 18.605 19.167 18.674 19.139 C 18.743 19.111 18.808 19.069 18.864 19.013 C 18.92 18.957 18.962 18.892 18.99 18.823 C 19.018 18.754 19.032 18.681 19.032 18.607 C 19.032 18.534 19.018 18.46 18.99 18.391 C 18.962 18.322 18.92 18.257 18.864 18.201 L 14.563 13.9 L 10.261 9.598 L 5.96 5.297 Z M 12.287 13.246 C 12.161 13.449 12.009 13.634 11.838 13.798 C 11.666 13.962 11.474 14.105 11.266 14.223 C 11.058 14.341 10.834 14.434 10.597 14.497 C 10.361 14.56 10.112 14.593 9.856 14.593 C 9.46 14.593 9.083 14.513 8.74 14.368 C 8.397 14.223 8.088 14.013 7.829 13.753 C 7.57 13.494 7.36 13.185 7.214 12.841 C 7.069 12.498 6.989 12.121 6.989 11.725 C 6.989 11.469 7.023 11.221 7.086 10.985 C 7.148 10.748 7.241 10.524 7.359 10.316 C 7.477 10.108 7.619 9.916 7.783 9.744 C 7.947 9.573 8.132 9.422 8.334 9.295 L 9.323 10.283 L 10.311 11.271 L 11.299 12.259 Z" style=""/>
  <path d="M 9.997 7.713 L 10.965 8.681 L 11.932 9.648 L 12.899 10.615 L 13.867 11.583 C 13.849 11.057 13.73 10.557 13.528 10.101 C 13.326 9.645 13.042 9.234 12.694 8.886 C 12.346 8.539 11.935 8.254 11.48 8.052 C 11.024 7.851 10.523 7.731 9.997 7.713 Z" style=""/>
  <path d="M 9.856 5.417 C 9.692 5.417 9.53 5.422 9.368 5.433 C 9.206 5.443 9.046 5.459 8.886 5.479 C 8.727 5.5 8.568 5.525 8.411 5.555 C 8.255 5.586 8.099 5.621 7.945 5.661 L 7.715 5.431 L 7.485 5.201 L 7.255 4.97 L 7.024 4.74 C 7.249 4.663 7.476 4.596 7.707 4.538 C 7.938 4.479 8.172 4.43 8.408 4.39 C 8.645 4.35 8.884 4.32 9.125 4.3 C 9.367 4.28 9.611 4.27 9.856 4.27 C 10.915 4.27 11.942 4.462 12.901 4.816 C 13.86 5.17 14.751 5.687 15.537 6.337 C 16.324 6.987 17.006 7.771 17.547 8.659 C 18.088 9.548 18.488 10.54 18.71 11.608 C 18.727 11.686 18.727 11.763 18.712 11.836 C 18.698 11.909 18.67 11.978 18.629 12.039 C 18.589 12.101 18.537 12.154 18.476 12.197 C 18.414 12.239 18.344 12.27 18.266 12.286 C 18.189 12.303 18.112 12.303 18.039 12.288 C 17.966 12.274 17.897 12.246 17.835 12.205 C 17.774 12.165 17.72 12.113 17.678 12.052 C 17.635 11.99 17.604 11.919 17.587 11.842 C 17.392 10.903 17.04 10.032 16.566 9.254 C 16.092 8.475 15.494 7.79 14.807 7.221 C 14.119 6.653 13.341 6.202 12.505 5.893 C 11.669 5.584 10.775 5.417 9.856 5.417 Z" style=""/>
</svg>