<?xml version="1.0" encoding="utf-8"?>
<svg width="20" height="20" viewBox="0 0 20 20" fill="context-fill" fill-opacity="context-fill-opacity" xmlns="http://www.w3.org/2000/svg">
  <path d="M 2.279 11.552 C 2.475 10.612 2.827 9.741 3.302 8.962 C 3.776 8.182 4.374 7.496 5.062 6.927 C 5.75 6.359 6.529 5.907 7.365 5.598 C 8.202 5.289 9.097 5.122 10.017 5.122 C 10.937 5.122 11.832 5.289 12.668 5.598 C 13.505 5.907 14.284 6.359 14.972 6.927 C 15.66 7.496 16.258 8.183 16.732 8.962 C 17.207 9.741 17.559 10.613 17.755 11.552 C 17.771 11.63 17.802 11.7 17.844 11.762 C 17.887 11.823 17.941 11.875 18.002 11.915 C 18.063 11.956 18.133 11.984 18.206 11.999 C 18.279 12.013 18.356 12.014 18.433 11.997 C 18.511 11.981 18.582 11.95 18.644 11.907 C 18.705 11.865 18.757 11.811 18.797 11.749 C 18.838 11.688 18.866 11.619 18.88 11.546 C 18.895 11.473 18.895 11.396 18.879 11.318 C 18.656 10.249 18.256 9.256 17.714 8.367 C 17.173 7.478 16.49 6.694 15.703 6.043 C 14.916 5.392 14.025 4.875 13.065 4.52 C 12.105 4.166 11.077 3.974 10.017 3.974 C 8.958 3.974 7.93 4.166 6.97 4.52 C 6.01 4.875 5.118 5.392 4.331 6.043 C 3.544 6.694 2.862 7.478 2.321 8.367 C 1.779 9.256 1.379 10.249 1.156 11.318 C 1.14 11.396 1.14 11.473 1.155 11.546 C 1.169 11.619 1.197 11.688 1.237 11.749 C 1.278 11.811 1.33 11.865 1.391 11.907 C 1.452 11.95 1.523 11.981 1.6 11.997 C 1.678 12.014 1.755 12.013 1.828 11.999 C 1.902 11.984 1.971 11.956 2.032 11.915 C 2.094 11.875 2.147 11.823 2.19 11.762 C 2.232 11.7 2.263 11.63 2.279 11.552 Z" style=""/>
  <path d="M 10.017 7.418 C 9.462 7.418 8.933 7.531 8.453 7.734 C 7.972 7.937 7.54 8.232 7.176 8.595 C 6.813 8.959 6.519 9.391 6.316 9.872 C 6.113 10.352 6 10.881 6 11.435 C 6 11.99 6.112 12.519 6.315 12.999 C 6.518 13.48 6.813 13.913 7.176 14.276 C 7.54 14.64 7.972 14.934 8.453 15.137 C 8.934 15.341 9.462 15.453 10.017 15.453 C 10.572 15.453 11.101 15.341 11.581 15.137 C 12.062 14.934 12.495 14.64 12.858 14.276 C 13.222 13.913 13.516 13.48 13.719 12.999 C 13.923 12.519 14.035 11.99 14.035 11.435 C 14.035 10.881 13.923 10.352 13.719 9.872 C 13.516 9.391 13.222 8.959 12.858 8.595 C 12.495 8.232 12.062 7.937 11.581 7.734 C 11.101 7.531 10.572 7.418 10.017 7.418 Z M 7.148 11.435 C 7.148 11.039 7.228 10.662 7.373 10.318 C 7.519 9.975 7.729 9.666 7.988 9.406 C 8.248 9.147 8.557 8.937 8.9 8.791 C 9.243 8.646 9.621 8.566 10.017 8.566 C 10.414 8.566 10.791 8.646 11.134 8.791 C 11.478 8.937 11.787 9.147 12.046 9.406 C 12.306 9.666 12.516 9.975 12.662 10.318 C 12.807 10.662 12.887 11.039 12.887 11.435 C 12.887 11.832 12.807 12.209 12.662 12.553 C 12.516 12.896 12.306 13.205 12.046 13.465 C 11.787 13.724 11.478 13.935 11.134 14.08 C 10.791 14.225 10.414 14.305 10.017 14.305 C 9.621 14.305 9.243 14.225 8.9 14.08 C 8.557 13.935 8.248 13.724 7.988 13.465 C 7.729 13.206 7.519 12.896 7.373 12.553 C 7.228 12.209 7.148 11.832 7.148 11.435 Z" style=""/>
</svg>