<?xml version="1.0" encoding="utf-8"?>
<svg width="20" height="20" viewBox="0 0 20 20" fill="context-fill" fill-opacity="context-fill-opacity" xmlns="http://www.w3.org/2000/svg">
  <path d="M 7.436 6.233 C 7.442 6.233 7.439 6.233 7.436 6.233 Z M 5.216 5.123 C 5.22 5.123 5.218 5.123 5.216 5.123 Z M 18.5 6.836 C 18.1 5.873 17.287 4.832 16.65 4.503 C 17.169 5.52 17.47 6.54 17.584 7.302 L 17.585 7.317 C 16.543 4.718 14.775 3.67 13.33 1.389 C 13.258 1.272 13.185 1.157 13.114 1.035 C 13.077 0.972 13.043 0.909 13.011 0.845 C 12.951 0.728 12.905 0.606 12.874 0.48 C 12.874 0.467 12.865 0.457 12.853 0.456 C 12.848 0.455 12.842 0.455 12.836 0.456 L 12.832 0.457 C 12.828 0.458 12.826 0.459 12.824 0.461 L 12.828 0.455 C 10.778 1.656 9.928 3.76 9.71 5.098 C 9.076 5.134 8.455 5.292 7.882 5.563 C 7.774 5.617 7.724 5.743 7.766 5.857 C 7.811 5.985 7.956 6.047 8.08 5.992 C 8.58 5.755 9.12 5.615 9.672 5.577 L 9.725 5.573 C 10.248 5.543 10.773 5.602 11.277 5.749 L 11.352 5.773 C 11.518 5.824 11.681 5.884 11.84 5.954 C 11.904 5.982 11.967 6.012 12.029 6.042 L 12.114 6.086 C 12.213 6.138 12.311 6.194 12.406 6.253 C 13.073 6.666 13.629 7.24 14.019 7.922 C 13.527 7.575 12.645 7.233 11.796 7.382 C 15.113 9.039 14.222 14.75 9.626 14.534 C 9.217 14.516 8.812 14.439 8.426 14.302 C 8.28 14.25 8.137 14.189 8 14.118 C 6.874 13.536 5.943 12.437 5.827 11.101 C 5.827 11.101 6.253 9.515 8.876 9.515 C 9.159 9.515 9.97 8.723 9.984 8.494 C 9.98 8.419 8.375 7.781 7.751 7.164 C 7.416 6.835 7.257 6.676 7.116 6.556 C 7.04 6.491 6.96 6.432 6.878 6.376 C 6.667 5.64 6.659 4.863 6.852 4.123 C 5.905 4.554 5.168 5.235 4.632 5.838 L 4.627 5.838 C 4.262 5.375 4.288 3.848 4.308 3.528 C 4.304 3.508 4.036 3.668 4 3.691 C 3.677 3.921 3.376 4.18 3.099 4.464 C 2.784 4.783 2.497 5.129 2.239 5.497 C 1.646 6.336 1.225 7.285 1 8.288 C 0.998 8.298 0.913 8.674 0.85 9.139 C 0.839 9.21 0.829 9.282 0.82 9.355 C 0.794 9.53 0.776 9.706 0.766 9.883 L 0.764 9.91 L 0.746 10.217 L 0.745 10.265 C 0.745 15.358 4.874 19.485 9.967 19.485 C 14.528 19.485 18.314 16.174 19.056 11.824 C 19.072 11.706 19.084 11.588 19.097 11.469 C 19.281 9.888 19.078 8.226 18.5 6.835 Z" style=""/>
</svg>