<?xml version="1.0" encoding="utf-8"?>
<svg width="20" height="20" viewBox="0 0 20 20" fill="context-fill" fill-opacity="context-fill-opacity" xmlns="http://www.w3.org/2000/svg">
  <path d="M 0.504 2.661 C 0.525 2.438 0.596 2.183 0.693 1.944 C 0.791 1.706 0.916 1.485 1.046 1.329 C 1.201 1.195 1.422 1.066 1.66 0.964 C 1.899 0.862 2.155 0.789 2.38 0.766 L 5.247 0.766 L 8.113 0.766 L 8.811 1.622 L 9.508 2.477 L 9.906 2.964 L 10.303 3.451 L 13.79 3.451 L 17.277 3.451 C 17.502 3.474 17.759 3.548 17.998 3.65 C 18.238 3.752 18.459 3.882 18.613 4.015 C 18.742 4.17 18.867 4.391 18.964 4.629 C 19.062 4.867 19.132 5.123 19.153 5.346 L 19.153 11.163 L 19.153 16.98 C 19.132 17.204 19.061 17.459 18.963 17.697 C 18.866 17.936 18.741 18.157 18.611 18.312 C 18.457 18.446 18.236 18.575 17.997 18.676 C 17.759 18.778 17.502 18.852 17.277 18.874 L 9.829 18.874 L 2.38 18.874 C 2.155 18.852 1.899 18.778 1.66 18.676 C 1.422 18.575 1.201 18.445 1.046 18.311 C 0.917 18.156 0.792 17.935 0.694 17.697 C 0.596 17.459 0.525 17.204 0.504 16.98 L 0.504 9.821 Z M 2.504 2.766 L 2.504 9.82 L 2.504 16.874 L 9.829 16.874 L 17.153 16.874 L 17.153 11.163 L 17.153 5.451 L 13.253 5.451 L 9.353 5.451 L 8.655 4.596 L 7.958 3.741 L 7.56 3.254 L 7.163 2.766 L 4.833 2.766 Z" style=""/>
  <path d="M 18.153 9.926 L 16.072 9.926 L 13.99 9.926 L 11.909 9.926 L 9.828 9.926 L 7.747 9.926 L 5.666 9.926 L 3.585 9.926 L 1.504 9.926 L 1.504 9.426 L 1.504 8.926 L 1.504 8.426 L 1.504 7.926 L 3.585 7.926 L 5.666 7.926 L 7.747 7.926 L 9.828 7.926 L 11.909 7.926 L 13.99 7.926 L 16.072 7.926 L 18.153 7.926 L 18.153 8.426 L 18.153 8.926 L 18.153 9.426 Z" style=""/>
</svg>