<?xml version="1.0" encoding="utf-8"?>
<svg width="20" height="20" viewBox="0 0 20 20" fill="context-fill" fill-opacity="context-fill-opacity" xmlns="http://www.w3.org/2000/svg">
  <path d="M 7.648 8.876 C 7.717 8.059 8.24 7.226 8.824 6.84 C 9.45 6.527 10.432 6.491 11.174 6.84 C 11.498 7.042 11.84 7.388 12.036 7.699 C 12.208 8.024 12.241 8.465 12.241 8.465 C 12.282 8.561 10.78 9.192 10.821 9.288 C 10.821 9.288 10.707 8.654 10.615 8.522 C 10.547 8.377 10.505 8.331 10.356 8.262 C 10.077 8.022 9.912 8.057 9.646 8.261 C 9.335 8.39 9.221 8.515 9.29 8.876 Z" style=""/>
  <path d="M 0.821 7.345 C 0.821 9.64 1.013 11.171 1.585 12.126 C 2.159 13.083 3.114 13.465 4.645 13.465 C 6.176 13.465 7.132 13.083 7.705 12.126 C 8.279 11.171 8.469 9.64 8.469 7.345 C 8.469 7.345 8.279 7.153 7.705 6.963 C 7.132 6.771 6.176 6.58 4.645 6.58 C 3.114 6.58 2.159 6.771 1.585 6.963 C 1.013 7.153 0.821 7.345 0.821 7.345 Z" stroke-linecap="round" stroke-linejoin="round" style="stroke-width: 1.5px;" fill="none"/>
  <path d="M 1.325 6.184 C 1.948 5.979 3.033 5.759 4.645 5.759 C 6.256 5.759 7.34 5.979 7.964 6.184 C 8.7 6.475 9.052 6.766 9.052 6.766 L 9.29 6.964 L 9.29 7.345 C 9.287 9.691 9.039 11.432 8.409 12.549 C 7.636 13.675 6.328 14.286 4.645 14.286 C 2.962 14.286 1.654 13.675 0.881 12.548 C 0.253 11.432 0.003 9.692 0 7.345 L 0 6.963 L 0.24 6.765 C 0.24 6.765 0.592 6.474 1.325 6.184 Z M 1.643 7.795 C 1.659 9.769 1.773 10.909 2.289 11.703 C 2.663 12.491 3.266 12.644 4.645 12.644 C 6.024 12.644 6.627 12.491 7.001 11.703 C 7.519 10.909 7.632 9.769 7.647 7.795 C 7.593 7.777 7.858 7.832 7.446 7.742 C 6.923 7.564 6.094 7.401 4.645 7.401 C 3.195 7.401 2.369 7.563 1.845 7.741 C 1.432 7.833 1.697 7.777 1.643 7.795 Z" style=""/>
  <path d="M 20 7.345 C 19.997 9.691 19.748 11.432 19.119 12.549 C 18.346 13.675 17.038 14.286 15.355 14.286 C 13.673 14.286 12.365 13.675 11.592 12.549 C 10.962 11.432 10.713 9.692 10.71 7.345 L 10.71 6.963 L 10.951 6.765 C 10.951 6.765 11.304 6.474 12.038 6.184 C 12.661 5.979 13.745 5.759 15.355 5.759 C 16.967 5.759 18.05 5.979 18.674 6.184 C 19.409 6.475 19.762 6.766 19.762 6.766 L 20 6.964 Z M 18.157 7.742 C 17.632 7.564 16.805 7.401 15.355 7.401 C 13.907 7.401 13.079 7.563 12.557 7.741 C 12.144 7.833 12.408 7.778 12.353 7.795 C 12.368 9.769 12.482 10.908 13 11.703 C 13.374 12.491 13.977 12.644 15.355 12.644 C 16.734 12.644 17.337 12.491 17.711 11.703 C 18.229 10.909 18.341 9.769 18.357 7.795 C 18.304 7.777 18.569 7.832 18.157 7.742 Z" style=""/>
</svg>