<?xml version="1.0" encoding="utf-8"?>
<svg width="20" height="20" preserveAspectRatio="xMidYMid meet" viewBox="0 0 20 20" style="-ms-transform: rotate(360deg); -webkit-transform: rotate(360deg); transform: rotate(360deg);" xmlns="http://www.w3.org/2000/svg">
  <path style="fill: rgb(216, 216, 216); stroke: rgb(0, 0, 0);" d="M 10.035 14.543"/>
  <path style="fill: rgb(216, 216, 216); stroke: rgb(0, 0, 0);" d="M 9.474 13.575"/>
  <path style="fill: rgb(216, 216, 216); stroke: rgb(0, 0, 0);" d="M 9.228 14.518"/>
  <path style="fill: rgb(216, 216, 216); stroke: rgb(0, 0, 0);" d="M 8.667 13.55"/>
  <path style="fill: rgb(216, 216, 216); stroke: rgb(0, 0, 0);" d="M 10.035 14.543" transform="matrix(1, 0, 0, 1, 33.043134, -0.178329)"/>
  <path style="fill: rgb(216, 216, 216); stroke: rgb(0, 0, 0);" d="M 9.474 13.575" transform="matrix(1, 0, 0, 1, 33.043134, -0.178329)"/>
  <g fill="#000000" transform="matrix(1, 0, 0, 1, 57.547506, 4.123159)"/>
  <g fill="none" transform="matrix(0.859928, 0, 0, 0.859928, -0.344087, -0.422203)" style=""/>
  <path d="M 9.846 19.434 C 4.663 19.434 0.474 15.245 0.474 10.062 C 0.474 4.879 4.663 0.664 9.846 0.664 C 15.029 0.664 19.244 4.879 19.244 10.062 C 19.244 15.245 15.029 19.434 9.846 19.434 Z M 9.846 2.995 C 5.971 2.995 2.831 6.189 2.831 10.062 C 2.831 13.937 5.971 17.077 9.846 17.077 C 13.719 17.077 16.913 13.937 16.913 10.062 C 16.913 6.189 13.719 2.995 9.846 2.995 Z M 12.385 13.648 L 9.062 11.214 C 8.826 11.031 8.59 10.638 8.59 10.323 L 8.59 5.01 C 8.59 4.721 8.851 4.486 9.165 4.486 L 10.266 4.486 C 10.552 4.486 10.788 4.721 10.788 5.01 L 10.788 9.198 C 10.788 9.513 11.023 9.904 11.26 10.088 L 13.695 11.842 C 13.929 12.025 13.982 12.393 13.798 12.627 L 13.144 13.517 C 12.961 13.753 12.621 13.805 12.385 13.648 Z" style="fill: rgb(238, 238, 238);"/>
</svg>