<?xml version="1.0" encoding="utf-8"?>
<svg width="20" height="20" viewBox="0 0 20 20" fill="context-fill" fill-opacity="context-fill-opacity" xmlns="http://www.w3.org/2000/svg">
  <path d="M 17.136 5.167 C 17.219 5.167 17.3 5.176 17.378 5.192 C 17.456 5.208 17.531 5.231 17.603 5.261 C 17.675 5.291 17.743 5.328 17.807 5.371 C 17.87 5.414 17.93 5.463 17.984 5.518 C 18.039 5.572 18.088 5.632 18.13 5.696 C 18.173 5.759 18.21 5.827 18.241 5.899 C 18.271 5.971 18.295 6.046 18.311 6.124 C 18.327 6.202 18.335 6.283 18.335 6.366 L 18.335 7.566 L 18.335 8.766 L 18.335 9.965 L 18.335 11.165 L 18.335 12.365 L 18.335 13.564 L 18.335 14.764 L 18.335 15.963 C 18.335 16.046 18.327 16.127 18.311 16.205 C 18.295 16.284 18.271 16.359 18.241 16.431 C 18.21 16.503 18.173 16.571 18.13 16.634 C 18.088 16.698 18.039 16.758 17.984 16.812 C 17.93 16.867 17.871 16.916 17.807 16.959 C 17.743 17.002 17.675 17.039 17.603 17.069 C 17.531 17.1 17.456 17.123 17.378 17.139 C 17.3 17.155 17.219 17.163 17.136 17.163 L 15.337 17.163 L 13.538 17.163 L 11.739 17.163 L 9.939 17.163 L 8.14 17.163 L 6.34 17.163 L 4.541 17.163 L 2.741 17.163 C 2.658 17.163 2.577 17.155 2.499 17.139 C 2.421 17.123 2.345 17.1 2.273 17.069 C 2.202 17.039 2.133 17.002 2.069 16.959 C 2.006 16.916 1.946 16.867 1.892 16.812 C 1.838 16.758 1.789 16.699 1.746 16.635 C 1.703 16.571 1.665 16.503 1.635 16.431 C 1.605 16.359 1.581 16.284 1.565 16.205 C 1.549 16.127 1.541 16.046 1.541 15.963 L 1.541 14.763 L 1.541 13.564 L 1.541 12.364 L 1.541 11.165 L 1.541 9.965 L 1.541 8.766 L 1.541 7.566 L 1.541 6.366 C 1.541 6.283 1.549 6.203 1.565 6.125 C 1.581 6.047 1.605 5.971 1.635 5.899 C 1.665 5.828 1.702 5.759 1.745 5.695 C 1.788 5.632 1.837 5.572 1.892 5.518 C 1.946 5.464 2.005 5.415 2.069 5.372 C 2.133 5.329 2.202 5.292 2.274 5.261 C 2.345 5.231 2.421 5.208 2.499 5.192 C 2.577 5.176 2.658 5.167 2.741 5.167 L 4.54 5.167 L 6.34 5.167 L 8.139 5.167 L 9.939 5.167 L 11.738 5.167 L 13.538 5.167 L 15.337 5.167 Z M 2.741 3.967 C 2.576 3.967 2.414 3.984 2.258 4.016 C 2.102 4.048 1.952 4.095 1.808 4.156 C 1.665 4.217 1.528 4.291 1.4 4.377 C 1.273 4.463 1.154 4.562 1.045 4.67 C 0.937 4.779 0.838 4.898 0.752 5.025 C 0.666 5.153 0.592 5.289 0.531 5.433 C 0.47 5.577 0.423 5.727 0.391 5.883 C 0.359 6.039 0.342 6.201 0.342 6.366 L 0.342 7.566 L 0.342 8.765 L 0.342 9.965 L 0.342 11.164 L 0.342 12.364 L 0.342 13.564 L 0.342 14.764 L 0.342 15.963 C 0.342 16.129 0.359 16.29 0.391 16.447 C 0.423 16.603 0.47 16.754 0.531 16.897 C 0.592 17.041 0.666 17.177 0.752 17.304 C 0.838 17.432 0.937 17.551 1.045 17.659 C 1.154 17.768 1.273 17.866 1.4 17.952 C 1.528 18.038 1.665 18.113 1.808 18.173 C 1.952 18.234 2.102 18.281 2.258 18.313 C 2.414 18.345 2.576 18.362 2.741 18.362 L 4.541 18.362 L 6.34 18.362 L 8.14 18.362 L 9.939 18.362 L 11.739 18.362 L 13.538 18.362 L 15.337 18.362 L 17.136 18.362 C 17.302 18.362 17.463 18.345 17.62 18.313 C 17.776 18.281 17.926 18.234 18.07 18.173 C 18.214 18.113 18.35 18.038 18.477 17.952 C 18.605 17.866 18.724 17.768 18.832 17.659 C 18.941 17.551 19.039 17.432 19.126 17.304 C 19.212 17.177 19.286 17.041 19.347 16.897 C 19.408 16.754 19.455 16.603 19.486 16.447 C 19.518 16.29 19.535 16.128 19.535 15.963 L 19.535 14.764 L 19.535 13.564 L 19.535 12.364 L 19.535 11.164 L 19.535 9.965 L 19.535 8.765 L 19.535 7.566 L 19.535 6.366 C 19.535 6.201 19.518 6.039 19.486 5.882 C 19.455 5.726 19.408 5.575 19.347 5.432 C 19.286 5.288 19.212 5.152 19.126 5.025 C 19.039 4.897 18.941 4.778 18.832 4.67 C 18.724 4.561 18.605 4.463 18.477 4.377 C 18.35 4.291 18.214 4.216 18.07 4.156 C 17.927 4.095 17.776 4.048 17.62 4.016 C 17.463 3.984 17.301 3.967 17.136 3.967 L 15.337 3.967 L 13.538 3.967 L 11.739 3.967 L 9.939 3.967 L 8.14 3.967 L 6.34 3.967 L 4.541 3.967 Z" style=""/>
  <path d="M 9.079 8.488 L 8.721 8.846 L 8.362 9.205 L 8.003 9.564 L 7.644 9.923 L 7.286 10.281 L 6.927 10.64 L 6.568 10.999 L 6.209 11.358 L 6.568 11.716 L 6.927 12.075 L 7.286 12.433 L 7.644 12.792 L 8.003 13.15 L 8.362 13.509 L 8.721 13.867 L 9.079 14.226 L 8.986 14.413 L 8.892 14.6 L 8.798 14.787 L 8.704 14.975 L 8.611 15.162 L 8.517 15.349 L 8.423 15.536 L 8.329 15.723 L 7.784 15.177 L 7.238 14.632 L 6.692 14.086 L 6.146 13.541 L 5.601 12.995 L 5.055 12.45 L 4.509 11.904 L 3.963 11.358 L 4.509 10.812 L 5.055 10.267 L 5.601 9.721 L 6.146 9.175 L 6.692 8.629 L 7.238 8.083 L 7.784 7.537 L 8.329 6.991 L 8.423 7.178 L 8.517 7.366 L 8.611 7.553 L 8.704 7.74 L 8.798 7.927 L 8.892 8.114 L 8.986 8.301 Z M 10.575 14.226 L 10.933 13.868 L 11.292 13.509 L 11.651 13.151 L 12.01 12.792 L 12.368 12.434 L 12.727 12.075 L 13.085 11.717 L 13.444 11.358 L 13.085 11 L 12.727 10.641 L 12.368 10.282 L 12.01 9.923 L 11.651 9.565 L 11.292 9.206 L 10.933 8.847 L 10.575 8.488 L 10.669 8.301 L 10.762 8.114 L 10.856 7.927 L 10.949 7.74 L 11.043 7.553 L 11.136 7.366 L 11.23 7.179 L 11.324 6.991 L 11.87 7.537 L 12.415 8.083 L 12.961 8.629 L 13.507 9.175 L 14.053 9.721 L 14.598 10.267 L 15.144 10.813 L 15.69 11.358 L 15.144 11.904 L 14.598 12.45 L 14.053 12.996 L 13.507 13.541 L 12.961 14.087 L 12.415 14.632 L 11.87 15.178 L 11.324 15.723 L 11.23 15.536 L 11.136 15.349 L 11.043 15.162 L 10.949 14.975 L 10.856 14.788 L 10.762 14.6 L 10.669 14.413 Z" style=""/>
</svg>