<?xml version="1.0" encoding="utf-8"?>
<svg width="20" height="20" viewBox="0 0 20 20" fill="context-fill" fill-opacity="context-fill-opacity" xmlns="http://www.w3.org/2000/svg">
  <path d="M 1.851 3.349 C 1.747 3.415 1.648 3.487 1.555 3.564 C 1.462 3.642 1.374 3.724 1.292 3.812 C 1.21 3.9 1.134 3.992 1.063 4.089 C 0.993 4.186 0.93 4.286 0.872 4.39 C 0.815 4.495 0.763 4.603 0.72 4.714 C 0.676 4.825 0.638 4.939 0.609 5.055 C 0.579 5.172 0.556 5.29 0.54 5.411 C 0.524 5.531 0.517 5.653 0.517 5.775 L 0.517 6.937 L 0.517 8.099 L 0.517 9.26 L 0.517 10.422 L 0.517 11.583 L 0.517 12.745 L 0.517 13.907 L 0.517 15.068 C 0.517 15.389 0.549 15.702 0.612 16.005 C 0.674 16.308 0.765 16.6 0.883 16.877 C 1 17.155 1.144 17.419 1.311 17.667 C 1.478 17.914 1.668 18.144 1.878 18.354 C 2.088 18.564 2.318 18.755 2.565 18.921 C 2.813 19.088 3.077 19.231 3.355 19.349 C 3.632 19.467 3.925 19.558 4.228 19.62 C 4.53 19.683 4.843 19.715 5.164 19.715 L 6.325 19.715 L 7.486 19.715 L 8.648 19.715 L 9.81 19.715 L 10.972 19.715 L 12.134 19.715 L 13.295 19.715 L 14.457 19.715 C 14.58 19.715 14.702 19.707 14.822 19.692 C 14.942 19.676 15.061 19.653 15.177 19.624 C 15.293 19.594 15.408 19.556 15.519 19.512 C 15.63 19.469 15.738 19.417 15.843 19.36 C 15.947 19.302 16.048 19.239 16.144 19.169 C 16.242 19.099 16.335 19.023 16.422 18.941 C 16.51 18.859 16.593 18.771 16.671 18.678 C 16.748 18.584 16.82 18.485 16.886 18.381 L 16.872 18.382 L 16.859 18.383 L 16.845 18.383 L 16.832 18.384 L 16.818 18.384 L 16.805 18.385 L 16.791 18.385 L 16.777 18.387 L 16.764 18.387 L 16.75 18.388 L 16.737 18.388 L 16.724 18.388 L 16.711 18.388 L 16.697 18.388 L 16.683 18.388 L 16.67 18.388 L 15.232 18.388 L 13.794 18.388 L 12.355 18.388 L 10.917 18.388 L 9.478 18.388 L 8.04 18.388 L 6.602 18.388 L 5.164 18.388 C 4.934 18.388 4.71 18.365 4.494 18.32 C 4.278 18.276 4.07 18.211 3.872 18.128 C 3.673 18.043 3.484 17.941 3.308 17.821 C 3.131 17.702 2.966 17.567 2.817 17.416 C 2.666 17.266 2.531 17.102 2.412 16.925 C 2.292 16.749 2.189 16.56 2.106 16.361 C 2.021 16.162 1.956 15.954 1.912 15.738 C 1.867 15.522 1.844 15.297 1.844 15.068 L 1.844 13.63 L 1.844 12.192 L 1.844 10.754 L 1.844 9.316 L 1.844 7.878 L 1.844 6.44 L 1.844 5.001 L 1.844 3.563 C 1.844 3.554 1.844 3.545 1.844 3.536 C 1.844 3.528 1.844 3.518 1.845 3.51 C 1.845 3.501 1.845 3.491 1.845 3.483 C 1.845 3.473 1.845 3.464 1.847 3.456 C 1.847 3.446 1.847 3.438 1.848 3.429 C 1.848 3.42 1.848 3.411 1.849 3.402 C 1.849 3.393 1.849 3.385 1.85 3.375 C 1.85 3.367 1.85 3.357 1.851 3.349 Z M 5.606 0.687 C 5.408 0.687 5.215 0.707 5.027 0.745 C 4.84 0.784 4.659 0.84 4.487 0.913 C 4.316 0.986 4.152 1.075 3.999 1.179 C 3.846 1.282 3.703 1.4 3.573 1.53 C 3.442 1.66 3.324 1.802 3.221 1.956 C 3.118 2.108 3.029 2.272 2.956 2.444 C 2.884 2.616 2.826 2.797 2.789 2.984 C 2.75 3.172 2.73 3.365 2.73 3.563 L 2.73 4.947 L 2.73 6.33 L 2.73 7.713 L 2.73 9.095 L 2.73 10.478 L 2.73 11.861 L 2.73 13.244 L 2.73 14.627 C 2.73 14.825 2.75 15.019 2.789 15.206 C 2.826 15.394 2.884 15.575 2.956 15.746 C 3.029 15.919 3.118 16.083 3.222 16.235 C 3.325 16.388 3.442 16.531 3.573 16.66 C 3.703 16.791 3.846 16.909 3.999 17.012 C 4.152 17.115 4.316 17.204 4.487 17.277 C 4.659 17.35 4.84 17.407 5.027 17.444 C 5.214 17.483 5.408 17.503 5.606 17.503 L 6.99 17.503 L 8.373 17.503 L 9.756 17.503 L 11.139 17.503 L 12.521 17.503 L 13.904 17.503 L 15.287 17.503 L 16.67 17.503 C 16.869 17.503 17.062 17.483 17.25 17.444 C 17.437 17.407 17.618 17.35 17.789 17.277 C 17.962 17.204 18.125 17.115 18.278 17.012 C 18.431 16.909 18.574 16.791 18.703 16.66 C 18.834 16.531 18.951 16.388 19.054 16.235 C 19.159 16.082 19.247 15.919 19.321 15.746 C 19.394 15.575 19.45 15.394 19.488 15.206 C 19.526 15.019 19.546 14.825 19.546 14.627 L 19.546 13.244 L 19.546 11.861 L 19.546 10.478 L 19.546 9.095 L 19.546 7.713 L 19.546 6.33 L 19.546 4.947 L 19.546 3.563 C 19.546 3.365 19.526 3.172 19.488 2.984 C 19.45 2.797 19.394 2.616 19.321 2.444 C 19.247 2.272 19.159 2.108 19.054 1.956 C 18.951 1.802 18.834 1.66 18.703 1.53 C 18.574 1.399 18.431 1.281 18.278 1.178 C 18.125 1.074 17.962 0.986 17.789 0.913 C 17.618 0.84 17.437 0.784 17.249 0.745 C 17.062 0.707 16.868 0.687 16.67 0.687 L 15.287 0.687 L 13.904 0.687 L 12.521 0.687 L 11.139 0.687 L 9.756 0.687 L 8.373 0.687 L 6.99 0.687 Z M 5.092 16.088 L 5.789 15.405 L 6.487 14.721 L 7.184 14.037 L 7.882 13.354 L 8.581 12.669 L 9.279 11.986 L 9.976 11.302 L 10.674 10.619 C 10.702 10.591 10.733 10.566 10.766 10.544 C 10.798 10.522 10.833 10.503 10.868 10.488 C 10.903 10.472 10.939 10.459 10.977 10.45 C 11.013 10.441 11.051 10.434 11.09 10.431 C 11.127 10.428 11.166 10.429 11.203 10.433 C 11.242 10.436 11.28 10.444 11.317 10.454 C 11.354 10.465 11.39 10.478 11.426 10.496 C 11.461 10.513 11.496 10.534 11.528 10.558 L 11.538 10.565 L 11.547 10.573 L 11.555 10.581 L 11.565 10.588 L 11.574 10.595 L 11.584 10.604 L 11.593 10.611 L 11.602 10.619 L 12.3 11.302 L 12.998 11.986 L 13.695 12.67 L 14.393 13.354 L 15.091 14.038 L 15.788 14.721 L 16.486 15.405 L 17.184 16.088 C 17.163 16.095 17.143 16.102 17.122 16.109 C 17.101 16.115 17.079 16.12 17.058 16.126 C 17.037 16.132 17.017 16.137 16.995 16.141 C 16.974 16.145 16.952 16.149 16.931 16.154 C 16.91 16.157 16.888 16.16 16.866 16.163 C 16.845 16.166 16.823 16.168 16.801 16.17 C 16.779 16.171 16.758 16.173 16.736 16.174 C 16.714 16.174 16.692 16.176 16.67 16.176 L 15.287 16.176 L 13.904 16.176 L 12.521 16.176 L 11.139 16.176 L 9.756 16.176 L 8.373 16.176 L 6.989 16.176 L 5.606 16.176 C 5.583 16.176 5.561 16.174 5.54 16.174 C 5.517 16.173 5.495 16.171 5.473 16.17 C 5.451 16.168 5.429 16.166 5.407 16.163 C 5.385 16.16 5.363 16.157 5.341 16.153 C 5.319 16.148 5.298 16.144 5.277 16.14 C 5.257 16.136 5.236 16.131 5.215 16.125 C 5.194 16.12 5.173 16.114 5.152 16.108 C 5.131 16.101 5.111 16.095 5.092 16.088 Z M 5.606 2.014 L 6.99 2.014 L 8.373 2.014 L 9.756 2.014 L 11.139 2.014 L 12.521 2.014 L 13.904 2.014 L 15.287 2.014 L 16.67 2.014 C 16.777 2.014 16.882 2.026 16.982 2.046 C 17.083 2.067 17.181 2.098 17.272 2.137 C 17.365 2.175 17.454 2.223 17.537 2.279 C 17.619 2.335 17.695 2.398 17.765 2.468 C 17.835 2.539 17.899 2.615 17.954 2.697 C 18.01 2.78 18.058 2.868 18.098 2.961 C 18.136 3.054 18.166 3.151 18.187 3.251 C 18.208 3.351 18.219 3.457 18.219 3.563 L 18.219 4.947 L 18.219 6.33 L 18.219 7.713 L 18.219 9.095 L 18.219 10.478 L 18.219 11.861 L 18.219 13.244 L 18.219 14.627 C 18.219 14.65 18.218 14.673 18.217 14.696 C 18.216 14.719 18.214 14.74 18.212 14.762 C 18.21 14.784 18.207 14.807 18.205 14.829 C 18.202 14.852 18.198 14.874 18.195 14.896 C 18.19 14.918 18.186 14.94 18.182 14.962 C 18.177 14.984 18.172 15.005 18.166 15.026 C 18.16 15.048 18.155 15.068 18.149 15.089 C 18.141 15.11 18.135 15.131 18.128 15.151 L 17.428 14.466 L 16.728 13.781 L 16.029 13.097 L 15.33 12.411 L 14.63 11.726 L 13.93 11.041 L 13.231 10.357 L 12.532 9.672 C 12.44 9.582 12.342 9.503 12.239 9.434 C 12.136 9.366 12.027 9.307 11.916 9.26 C 11.804 9.213 11.689 9.176 11.572 9.15 C 11.454 9.125 11.335 9.109 11.216 9.105 C 11.096 9.101 10.976 9.106 10.858 9.123 C 10.739 9.14 10.621 9.168 10.506 9.206 C 10.391 9.245 10.278 9.294 10.169 9.354 C 10.062 9.415 9.957 9.486 9.859 9.569 L 9.845 9.582 L 9.83 9.595 L 9.816 9.608 L 9.802 9.621 L 9.787 9.633 L 9.773 9.646 L 9.759 9.659 L 9.744 9.672 L 9.045 10.357 L 8.345 11.042 L 7.646 11.727 L 6.946 12.413 L 6.247 13.098 L 5.547 13.782 L 4.848 14.467 L 4.148 15.152 C 4.141 15.131 4.134 15.109 4.128 15.088 C 4.12 15.066 4.115 15.045 4.109 15.024 C 4.103 15.003 4.098 14.981 4.093 14.959 C 4.089 14.937 4.085 14.915 4.081 14.893 C 4.076 14.871 4.073 14.849 4.07 14.827 C 4.067 14.804 4.065 14.782 4.063 14.76 C 4.062 14.738 4.06 14.715 4.059 14.693 C 4.059 14.671 4.058 14.649 4.058 14.627 L 4.058 13.244 L 4.058 11.861 L 4.058 10.478 L 4.058 9.095 L 4.058 7.713 L 4.058 6.329 L 4.058 4.946 L 4.058 3.563 C 4.058 3.457 4.069 3.352 4.089 3.251 C 4.11 3.151 4.141 3.054 4.18 2.961 C 4.219 2.868 4.266 2.78 4.322 2.697 C 4.378 2.615 4.441 2.538 4.511 2.468 C 4.582 2.398 4.658 2.334 4.741 2.279 C 4.823 2.223 4.911 2.175 5.004 2.136 C 5.097 2.097 5.194 2.067 5.294 2.046 C 5.395 2.025 5.5 2.014 5.606 2.014 Z M 8.04 4.892 C 7.934 4.889 7.832 4.901 7.736 4.925 C 7.64 4.949 7.55 4.986 7.468 5.032 C 7.385 5.078 7.309 5.135 7.242 5.2 C 7.174 5.265 7.116 5.338 7.066 5.417 C 7.018 5.496 6.979 5.582 6.952 5.671 C 6.923 5.761 6.907 5.854 6.903 5.949 C 6.897 6.044 6.906 6.141 6.928 6.237 C 6.95 6.333 6.985 6.429 7.035 6.523 C 7.06 6.569 7.088 6.613 7.119 6.655 C 7.149 6.695 7.182 6.734 7.218 6.771 C 7.253 6.807 7.291 6.841 7.331 6.872 C 7.371 6.902 7.413 6.93 7.456 6.955 C 7.5 6.981 7.546 7.002 7.592 7.021 C 7.639 7.041 7.687 7.057 7.736 7.069 C 7.785 7.082 7.835 7.091 7.886 7.098 C 7.936 7.103 7.989 7.105 8.04 7.104 C 8.146 7.101 8.248 7.083 8.342 7.054 C 8.437 7.024 8.524 6.983 8.605 6.931 C 8.685 6.88 8.757 6.819 8.821 6.751 C 8.884 6.682 8.939 6.605 8.983 6.523 C 9.028 6.441 9.061 6.354 9.084 6.263 C 9.106 6.172 9.118 6.078 9.117 5.983 C 9.116 5.888 9.102 5.792 9.075 5.697 C 9.048 5.602 9.007 5.508 8.951 5.417 C 8.927 5.377 8.9 5.34 8.871 5.303 C 8.842 5.268 8.812 5.234 8.778 5.203 C 8.746 5.172 8.711 5.141 8.675 5.114 C 8.639 5.086 8.602 5.061 8.562 5.039 C 8.523 5.017 8.483 4.996 8.441 4.978 C 8.399 4.962 8.356 4.946 8.312 4.934 C 8.269 4.921 8.224 4.912 8.179 4.904 C 8.133 4.897 8.087 4.893 8.04 4.892 Z" style=""/>
</svg>