<?xml version="1.0" encoding="utf-8"?>
<svg width="20" height="20" viewBox="0 0 20 20" fill="context-fill" fill-opacity="context-fill-opacity" xmlns="http://www.w3.org/2000/svg">
  <path style="fill: rgb(216, 216, 216); stroke: rgb(0, 0, 0);" d="M 10.035 14.543" transform="matrix(1, 0, 0, 1, 25.107742, 1.702414)"/>
  <path style="fill: rgb(216, 216, 216); stroke: rgb(0, 0, 0);" d="M 9.474 13.575" transform="matrix(1, 0, 0, 1, 25.107742, 1.702414)"/>
  <path style="fill: rgb(216, 216, 216); stroke: rgb(0, 0, 0);" d="M 9.228 14.518" transform="matrix(1, 0, 0, 1, 25.107742, 1.702414)"/>
  <path style="fill: rgb(216, 216, 216); stroke: rgb(0, 0, 0);" d="M 8.667 13.55" transform="matrix(1, 0, 0, 1, 25.107742, 1.702414)"/>
  <path style="fill: rgb(216, 216, 216); stroke: rgb(0, 0, 0);" d="M 10.035 14.543" transform="matrix(1, 0, 0, 1, 58.150874, 1.524084)"/>
  <path style="fill: rgb(216, 216, 216); stroke: rgb(0, 0, 0);" d="M 9.474 13.575" transform="matrix(1, 0, 0, 1, 58.150874, 1.524084)"/>
  <g fill="#000000" transform="matrix(1, 0, 0, 1, 82.655246, 5.825572)"/>
  <g fill="none" transform="matrix(0.859928, 0, 0, 0.859928, 24.763655, 1.28021)" style=""/>
  <path style="fill: rgb(216, 216, 216); stroke: rgb(0, 0, 0);" d="M 10.035 14.543" transform="matrix(1, 0, 0, 1, 27.349189, -1.636225)"/>
  <path style="fill: rgb(216, 216, 216); stroke: rgb(0, 0, 0);" d="M 9.474 13.575" transform="matrix(1, 0, 0, 1, 27.349189, -1.636225)"/>
  <path style="fill: rgb(216, 216, 216); stroke: rgb(0, 0, 0);" d="M 9.228 14.518" transform="matrix(1, 0, 0, 1, 27.349189, -1.636225)"/>
  <path style="fill: rgb(216, 216, 216); stroke: rgb(0, 0, 0);" d="M 8.667 13.55" transform="matrix(1, 0, 0, 1, 27.349189, -1.636225)"/>
  <path style="fill: rgb(216, 216, 216); stroke: rgb(0, 0, 0);" d="M 10.035 14.543" transform="matrix(1, 0, 0, 1, 60.392322, -1.814553)"/>
  <path style="fill: rgb(216, 216, 216); stroke: rgb(0, 0, 0);" d="M 9.474 13.575" transform="matrix(1, 0, 0, 1, 60.392322, -1.814553)"/>
  <g fill="#000000" transform="matrix(1, 0, 0, 1, 84.896694, 2.486935)"/>
  <g fill="none" transform="matrix(0.859928, 0, 0, 0.859928, 27.005102, -2.058427)" style=""/>
  <path style="fill: rgb(216, 216, 216); stroke: rgb(0, 0, 0);" d="M 9.849 14.661" transform="matrix(1, 0, 0, 1, 25.107742, 1.702414)"/>
  <path style="fill: rgb(216, 216, 216); stroke: rgb(0, 0, 0);" d="M 9.288 13.693" transform="matrix(1, 0, 0, 1, 25.107742, 1.702414)"/>
  <path style="fill: rgb(216, 216, 216); stroke: rgb(0, 0, 0);" d="M 9.042 14.636" transform="matrix(1, 0, 0, 1, 25.107742, 1.702414)"/>
  <path style="fill: rgb(216, 216, 216); stroke: rgb(0, 0, 0);" d="M 8.481 13.668" transform="matrix(1, 0, 0, 1, 25.107742, 1.702414)"/>
  <path style="fill: rgb(216, 216, 216); stroke: rgb(0, 0, 0);" d="M 42.892 14.483" transform="matrix(1, 0, 0, 1, 25.107742, 1.702414)"/>
  <path style="fill: rgb(216, 216, 216); stroke: rgb(0, 0, 0);" d="M 42.331 13.515" transform="matrix(1, 0, 0, 1, 25.107742, 1.702414)"/>
  <g fill="#000000" transform="matrix(1, 0, 0, 1, 82.46894, 5.943603)"/>
  <path style="fill: rgb(216, 216, 216); stroke: rgb(0, 0, 0);" d="M 10.035 14.543" transform="matrix(1, 0, 0, 1, 19.876124, -2.308663)"/>
  <path style="fill: rgb(216, 216, 216); stroke: rgb(0, 0, 0);" d="M 9.474 13.575" transform="matrix(1, 0, 0, 1, 19.876124, -2.308663)"/>
  <path style="fill: rgb(216, 216, 216); stroke: rgb(0, 0, 0);" d="M 9.228 14.518" transform="matrix(1, 0, 0, 1, 19.876124, -2.308663)"/>
  <path style="fill: rgb(216, 216, 216); stroke: rgb(0, 0, 0);" d="M 8.667 13.55" transform="matrix(1, 0, 0, 1, 19.876124, -2.308663)"/>
  <path style="fill: rgb(216, 216, 216); stroke: rgb(0, 0, 0);" d="M 10.035 14.543" transform="matrix(1, 0, 0, 1, 52.919256, -2.486992)"/>
  <path style="fill: rgb(216, 216, 216); stroke: rgb(0, 0, 0);" d="M 9.474 13.575" transform="matrix(1, 0, 0, 1, 52.919256, -2.486992)"/>
  <g fill="#000000" transform="matrix(1, 0, 0, 1, 77.423629, 1.814496)"/>
  <path style="fill: rgb(216, 216, 216); stroke: rgb(0, 0, 0);" d="M -16.165 17.9"/>
  <path style="fill: rgb(216, 216, 216); stroke: rgb(0, 0, 0);" d="M -16.726 16.932"/>
  <path style="fill: rgb(216, 216, 216); stroke: rgb(0, 0, 0);" d="M -16.972 17.875"/>
  <path style="fill: rgb(216, 216, 216); stroke: rgb(0, 0, 0);" d="M -17.533 16.907"/>
  <path style="fill: rgb(216, 216, 216); stroke: rgb(0, 0, 0);" d="M 16.878 17.722"/>
  <path style="fill: rgb(216, 216, 216); stroke: rgb(0, 0, 0);" d="M 16.317 16.754"/>
  <g fill="#000000" transform="matrix(1, 0, 0, 1, 31.347294, 7.480159)"/>
  <g fill="none" transform="matrix(0.859928, 0, 0, 0.859928, -26.544298, 2.934797)" style=""/>
  <path style="fill: rgb(216, 216, 216); stroke: rgb(0, 0, 0);" d="M -13.924 14.561"/>
  <path style="fill: rgb(216, 216, 216); stroke: rgb(0, 0, 0);" d="M -14.485 13.593"/>
  <path style="fill: rgb(216, 216, 216); stroke: rgb(0, 0, 0);" d="M -14.731 14.536"/>
  <path style="fill: rgb(216, 216, 216); stroke: rgb(0, 0, 0);" d="M -15.292 13.568"/>
  <path style="fill: rgb(216, 216, 216); stroke: rgb(0, 0, 0);" d="M 19.119 14.383"/>
  <path style="fill: rgb(216, 216, 216); stroke: rgb(0, 0, 0);" d="M 18.558 13.415"/>
  <g fill="#000000" transform="matrix(1, 0, 0, 1, 33.588741, 4.141521)"/>
  <g fill="none" transform="matrix(0.859928, 0, 0, 0.859928, -24.302851, -0.403841)" style=""/>
  <path style="fill: rgb(216, 216, 216); stroke: rgb(0, 0, 0);" d="M -16.351 18.018"/>
  <path style="fill: rgb(216, 216, 216); stroke: rgb(0, 0, 0);" d="M -16.912 17.05"/>
  <path style="fill: rgb(216, 216, 216); stroke: rgb(0, 0, 0);" d="M -17.158 17.993"/>
  <path style="fill: rgb(216, 216, 216); stroke: rgb(0, 0, 0);" d="M -17.719 17.025"/>
  <path style="fill: rgb(216, 216, 216); stroke: rgb(0, 0, 0);" d="M 16.692 17.84"/>
  <path style="fill: rgb(216, 216, 216); stroke: rgb(0, 0, 0);" d="M 16.131 16.872"/>
  <g fill="#000000" transform="matrix(1, 0, 0, 1, 31.160988, 7.598189)"/>
  <path style="fill: rgb(216, 216, 216); stroke: rgb(0, 0, 0);" d="M -21.397 13.889"/>
  <path style="fill: rgb(216, 216, 216); stroke: rgb(0, 0, 0);" d="M -21.958 12.921"/>
  <path style="fill: rgb(216, 216, 216); stroke: rgb(0, 0, 0);" d="M -22.204 13.864"/>
  <path style="fill: rgb(216, 216, 216); stroke: rgb(0, 0, 0);" d="M -22.765 12.896"/>
  <path style="fill: rgb(216, 216, 216); stroke: rgb(0, 0, 0);" d="M 11.646 13.711"/>
  <path style="fill: rgb(216, 216, 216); stroke: rgb(0, 0, 0);" d="M 11.085 12.743"/>
  <g fill="#000000" transform="matrix(1, 0, 0, 1, 26.115677, 3.469082)"/>
  <path d="M 18.558 2.897 L 18.558 17.407 L 15.308 17.407 L 15.308 2.897 Z M 16.308 16.407 L 17.558 16.407 L 17.558 3.897 L 16.308 3.897 Z" style="fill: none;"/>
  <path d="M 4.322 1.641 C 4.124 1.641 3.931 1.661 3.743 1.699 C 3.556 1.738 3.375 1.794 3.203 1.867 C 3.032 1.94 2.868 2.029 2.715 2.133 C 2.562 2.236 2.419 2.354 2.289 2.484 C 2.158 2.614 2.04 2.756 1.937 2.91 C 1.834 3.062 1.745 3.226 1.672 3.398 C 1.6 3.57 1.542 3.751 1.505 3.938 C 1.466 4.126 1.446 4.319 1.446 4.517 L 1.446 5.901 L 1.446 7.284 L 1.446 8.667 L 1.446 10.049 L 1.446 11.432 L 1.446 12.815 L 1.446 14.198 L 1.446 15.581 C 1.446 15.779 1.466 15.973 1.505 16.16 C 1.542 16.348 1.6 16.529 1.672 16.7 C 1.745 16.873 1.834 17.037 1.938 17.189 C 2.041 17.342 2.158 17.485 2.289 17.614 C 2.419 17.745 2.562 17.863 2.715 17.966 C 2.868 18.069 3.032 18.158 3.203 18.231 C 3.375 18.304 3.556 18.361 3.743 18.398 C 3.93 18.437 4.124 18.457 4.322 18.457 L 5.706 18.457 L 7.089 18.457 L 8.472 18.457 L 9.855 18.457 L 11.237 18.457 L 12.62 18.457 L 14.003 18.457 L 15.386 18.457 C 15.585 18.457 15.778 18.437 15.966 18.398 C 16.153 18.361 16.334 18.304 16.505 18.231 C 16.678 18.158 16.841 18.069 16.994 17.966 C 17.147 17.863 17.29 17.745 17.419 17.614 C 17.55 17.485 17.667 17.342 17.77 17.189 C 17.875 17.036 17.963 16.873 18.037 16.7 C 18.11 16.529 18.166 16.348 18.204 16.16 C 18.242 15.973 18.262 15.779 18.262 15.581 L 18.262 14.198 L 18.262 12.815 L 18.262 11.432 L 18.262 10.049 L 18.262 8.667 L 18.262 7.284 L 18.262 5.901 L 18.262 4.517 C 18.262 4.319 18.242 4.126 18.204 3.938 C 18.166 3.751 18.11 3.57 18.037 3.398 C 17.963 3.226 17.875 3.062 17.77 2.91 C 17.667 2.756 17.55 2.614 17.419 2.484 C 17.29 2.353 17.147 2.235 16.994 2.132 C 16.841 2.028 16.678 1.94 16.505 1.867 C 16.334 1.794 16.153 1.738 15.965 1.699 C 15.778 1.661 15.584 1.641 15.386 1.641 L 14.003 1.641 L 12.62 1.641 L 11.237 1.641 L 9.855 1.641 L 8.472 1.641 L 7.089 1.641 L 5.706 1.641 L 4.322 1.641 Z M 3.808 17.042 L 4.505 16.359 L 5.203 15.675 L 5.9 14.991 L 6.598 14.308 L 7.297 13.623 L 7.995 12.94 L 8.692 12.256 L 9.39 11.573 C 9.418 11.545 9.449 11.52 9.482 11.498 C 9.514 11.476 9.549 11.457 9.584 11.442 C 9.619 11.426 9.655 11.413 9.693 11.404 C 9.729 11.395 9.767 11.388 9.806 11.385 C 9.843 11.382 9.882 11.383 9.919 11.387 C 9.958 11.39 9.996 11.398 10.033 11.408 C 10.07 11.419 10.106 11.432 10.142 11.45 C 10.177 11.467 10.212 11.488 10.244 11.512 L 10.254 11.519 L 10.263 11.527 L 10.271 11.535 L 10.281 11.542 L 10.29 11.549 L 10.3 11.558 L 10.309 11.565 L 10.318 11.573 L 11.016 12.256 L 11.714 12.94 L 12.411 13.624 L 13.109 14.308 L 13.807 14.992 L 14.504 15.675 L 15.202 16.359 L 15.9 17.042 C 15.879 17.049 15.859 17.056 15.838 17.063 C 15.817 17.069 15.795 17.074 15.774 17.08 C 15.753 17.086 15.733 17.091 15.711 17.095 C 15.69 17.099 15.668 17.103 15.647 17.108 C 15.626 17.111 15.604 17.114 15.582 17.117 C 15.561 17.12 15.539 17.122 15.517 17.124 C 15.495 17.125 15.474 17.127 15.452 17.128 C 15.43 17.128 15.408 17.13 15.386 17.13 L 14.003 17.13 L 12.62 17.13 L 11.237 17.13 L 9.855 17.13 L 8.472 17.13 L 7.089 17.13 L 5.705 17.13 L 4.322 17.13 C 4.299 17.13 4.277 17.128 4.256 17.128 C 4.233 17.127 4.211 17.125 4.189 17.124 C 4.167 17.122 4.145 17.12 4.123 17.117 C 4.101 17.114 4.079 17.111 4.057 17.107 C 4.035 17.102 4.014 17.098 3.993 17.094 C 3.973 17.09 3.952 17.085 3.931 17.079 C 3.91 17.074 3.889 17.068 3.868 17.062 C 3.847 17.055 3.827 17.049 3.808 17.042 Z M 4.322 2.968 L 5.706 2.968 L 7.089 2.968 L 8.472 2.968 L 9.855 2.968 L 11.237 2.968 L 12.62 2.968 L 14.003 2.968 L 15.386 2.968 C 15.493 2.968 15.598 2.98 15.698 3 C 15.799 3.021 15.897 3.052 15.988 3.091 C 16.081 3.129 16.17 3.177 16.253 3.233 C 16.335 3.289 16.411 3.352 16.481 3.422 C 16.551 3.493 16.615 3.569 16.67 3.651 C 16.726 3.734 16.774 3.822 16.814 3.915 C 16.852 4.008 16.882 4.105 16.903 4.205 C 16.924 4.305 16.935 4.411 16.935 4.517 L 16.935 5.901 L 16.935 7.284 L 16.935 8.667 L 16.935 10.049 L 16.935 11.432 L 16.935 12.815 L 16.935 14.198 L 16.935 15.581 C 16.935 15.604 16.934 15.627 16.933 15.65 C 16.932 15.673 16.93 15.694 16.928 15.716 C 16.926 15.738 16.923 15.761 16.921 15.783 C 16.918 15.806 16.914 15.828 16.911 15.85 C 16.906 15.872 16.902 15.894 16.898 15.916 C 16.893 15.938 16.888 15.959 16.882 15.98 C 16.876 16.002 16.871 16.022 16.865 16.043 C 16.857 16.064 16.851 16.085 16.844 16.105 L 16.144 15.42 L 15.444 14.735 L 14.745 14.051 L 14.046 13.365 L 13.346 12.68 L 12.646 11.995 L 11.947 11.311 L 11.248 10.626 C 11.156 10.536 11.058 10.457 10.955 10.388 C 10.852 10.32 10.743 10.261 10.632 10.214 C 10.52 10.167 10.405 10.13 10.288 10.104 C 10.17 10.079 10.051 10.063 9.932 10.059 C 9.812 10.055 9.692 10.06 9.574 10.077 C 9.455 10.094 9.337 10.122 9.222 10.16 C 9.107 10.199 8.994 10.248 8.885 10.308 C 8.778 10.369 8.673 10.44 8.575 10.523 L 8.561 10.536 L 8.546 10.549 L 8.532 10.562 L 8.518 10.575 L 8.503 10.587 L 8.489 10.6 L 8.475 10.613 L 8.46 10.626 L 7.761 11.311 L 7.061 11.996 L 6.362 12.681 L 5.662 13.367 L 4.963 14.052 L 4.263 14.736 L 3.564 15.421 L 2.864 16.106 C 2.857 16.085 2.85 16.063 2.844 16.042 C 2.836 16.02 2.831 15.999 2.825 15.978 C 2.819 15.957 2.814 15.935 2.809 15.913 C 2.805 15.891 2.801 15.869 2.797 15.847 C 2.792 15.825 2.789 15.803 2.786 15.781 C 2.783 15.758 2.781 15.736 2.779 15.714 C 2.778 15.692 2.776 15.669 2.775 15.647 C 2.775 15.625 2.774 15.603 2.774 15.581 L 2.774 14.198 L 2.774 12.815 L 2.774 11.432 L 2.774 10.049 L 2.774 8.667 L 2.774 7.283 L 2.774 5.9 L 2.774 4.517 C 2.774 4.411 2.785 4.306 2.805 4.205 C 2.826 4.105 2.857 4.008 2.896 3.915 C 2.935 3.822 2.982 3.734 3.038 3.651 C 3.094 3.569 3.157 3.492 3.227 3.422 C 3.298 3.352 3.374 3.288 3.457 3.233 C 3.539 3.177 3.627 3.129 3.72 3.09 C 3.813 3.051 3.91 3.021 4.01 3 C 4.111 2.979 4.216 2.968 4.322 2.968 Z M 6.756 5.846 C 6.65 5.843 6.548 5.855 6.452 5.879 C 6.356 5.903 6.266 5.94 6.184 5.986 C 6.101 6.032 6.025 6.089 5.958 6.154 C 5.89 6.219 5.832 6.292 5.782 6.371 C 5.734 6.45 5.695 6.536 5.668 6.625 C 5.639 6.715 5.623 6.808 5.619 6.903 C 5.613 6.998 5.622 7.095 5.644 7.191 C 5.666 7.287 5.701 7.383 5.751 7.477 C 5.776 7.523 5.804 7.567 5.835 7.609 C 5.865 7.649 5.898 7.688 5.934 7.725 C 5.969 7.761 6.007 7.795 6.047 7.826 C 6.087 7.856 6.129 7.884 6.172 7.909 C 6.216 7.935 6.262 7.956 6.308 7.975 C 6.355 7.995 6.403 8.011 6.452 8.023 C 6.501 8.036 6.551 8.045 6.602 8.052 C 6.652 8.057 6.705 8.059 6.756 8.058 C 6.862 8.055 6.964 8.037 7.058 8.008 C 7.153 7.978 7.24 7.937 7.321 7.885 C 7.401 7.834 7.473 7.773 7.537 7.705 C 7.6 7.636 7.655 7.559 7.699 7.477 C 7.744 7.395 7.777 7.308 7.8 7.217 C 7.822 7.126 7.834 7.032 7.833 6.937 C 7.832 6.842 7.818 6.746 7.791 6.651 C 7.764 6.556 7.723 6.462 7.667 6.371 C 7.643 6.331 7.616 6.294 7.587 6.257 C 7.558 6.222 7.528 6.188 7.494 6.157 C 7.462 6.126 7.427 6.095 7.391 6.068 C 7.355 6.04 7.318 6.015 7.278 5.993 C 7.239 5.971 7.199 5.95 7.157 5.932 C 7.115 5.916 7.072 5.9 7.028 5.888 C 6.985 5.875 6.94 5.866 6.895 5.858 C 6.849 5.851 6.803 5.847 6.756 5.846 Z" style=""/>
</svg>