<?xml version="1.0" encoding="utf-8"?>
<svg width="20" height="20" viewBox="0 0 20 20" fill="context-fill" fill-opacity="context-fill-opacity" xmlns="http://www.w3.org/2000/svg">
  <path fill-rule="evenodd" d="M 9.878 2.49 C 8.44 2.49 7.137 2.879 6.035 3.541 C 4.934 4.203 4.035 5.137 3.406 6.227 C 2.776 7.317 2.417 8.563 2.395 9.847 C 2.372 11.132 2.687 12.456 3.406 13.701 C 3.74 14.279 4.145 14.802 4.605 15.26 C 5.066 15.719 5.583 16.114 6.141 16.437 C 6.7 16.76 7.301 17.01 7.928 17.179 C 8.556 17.349 9.211 17.438 9.878 17.438 C 11.317 17.438 12.62 17.049 13.721 16.387 C 14.823 15.725 15.722 14.791 16.351 13.701 C 16.98 12.611 17.34 11.365 17.362 10.081 C 17.384 8.796 17.07 7.473 16.35 6.227 C 16.017 5.649 15.612 5.126 15.152 4.668 C 14.691 4.209 14.174 3.814 13.615 3.492 C 13.057 3.169 12.456 2.918 11.828 2.749 C 11.201 2.579 10.546 2.49 9.878 2.49 Z M 0.68 9.964 C 0.68 8.194 1.159 6.59 1.974 5.235 C 2.788 3.88 3.938 2.774 5.279 1.999 C 6.621 1.225 8.154 0.782 9.735 0.754 C 11.316 0.726 12.945 1.113 14.477 1.998 C 15.189 2.409 15.832 2.907 16.396 3.474 C 16.961 4.041 17.447 4.678 17.844 5.365 C 18.242 6.053 18.55 6.792 18.759 7.564 C 18.968 8.337 19.077 9.143 19.077 9.964 C 19.077 11.735 18.598 13.339 17.784 14.694 C 16.969 16.049 15.82 17.156 14.478 17.93 C 13.136 18.705 11.603 19.148 10.022 19.176 C 8.441 19.203 6.812 18.816 5.279 17.931 C 4.567 17.521 3.924 17.023 3.36 16.455 C 2.795 15.888 2.309 15.252 1.912 14.564 C 1.515 13.876 1.207 13.137 0.998 12.364 C 0.79 11.592 0.68 10.785 0.68 9.964 Z M 8.154 9.676 C 8.154 9.557 8.178 9.444 8.222 9.341 C 8.266 9.238 8.329 9.145 8.407 9.067 C 8.485 8.989 8.578 8.925 8.681 8.882 C 8.784 8.838 8.897 8.814 9.016 8.814 L 9.304 8.814 L 9.591 8.814 L 9.878 8.814 L 10.166 8.814 C 10.285 8.814 10.398 8.838 10.502 8.882 C 10.605 8.926 10.698 8.989 10.776 9.067 C 10.854 9.145 10.917 9.238 10.96 9.341 C 11.004 9.444 11.028 9.557 11.028 9.676 L 11.028 10.467 L 11.028 11.257 L 11.028 12.048 L 11.028 12.838 L 11.1 12.838 L 11.172 12.838 L 11.244 12.838 L 11.316 12.838 C 11.482 12.838 11.632 12.883 11.759 12.959 C 11.886 13.036 11.989 13.144 12.062 13.269 C 12.135 13.395 12.177 13.539 12.179 13.687 C 12.182 13.835 12.146 13.988 12.063 14.132 C 12.024 14.199 11.978 14.259 11.924 14.312 C 11.871 14.365 11.811 14.411 11.747 14.448 C 11.682 14.485 11.613 14.514 11.541 14.533 C 11.468 14.553 11.393 14.563 11.316 14.563 L 10.741 14.563 L 10.166 14.563 L 9.591 14.563 L 9.016 14.563 C 8.85 14.563 8.7 14.518 8.573 14.442 C 8.446 14.365 8.342 14.258 8.27 14.132 C 8.197 14.006 8.155 13.862 8.153 13.714 C 8.15 13.566 8.187 13.413 8.27 13.27 C 8.308 13.203 8.355 13.142 8.408 13.089 C 8.461 13.036 8.521 12.991 8.585 12.954 C 8.649 12.916 8.719 12.887 8.791 12.868 C 8.863 12.848 8.939 12.838 9.016 12.838 L 9.088 12.838 L 9.16 12.838 L 9.231 12.838 L 9.303 12.838 L 9.303 12.263 L 9.303 11.689 L 9.303 11.114 L 9.303 10.539 L 9.231 10.539 L 9.16 10.539 L 9.088 10.539 L 9.016 10.539 C 8.897 10.539 8.784 10.515 8.681 10.471 C 8.578 10.428 8.485 10.365 8.407 10.287 C 8.329 10.209 8.266 10.116 8.222 10.013 C 8.178 9.909 8.154 9.795 8.154 9.676 Z M 9.878 7.664 C 10.1 7.664 10.3 7.604 10.47 7.503 C 10.639 7.401 10.778 7.258 10.874 7.09 C 10.971 6.922 11.026 6.731 11.03 6.533 C 11.034 6.336 10.985 6.132 10.874 5.94 C 10.823 5.851 10.761 5.77 10.69 5.7 C 10.619 5.629 10.539 5.568 10.453 5.519 C 10.367 5.469 10.275 5.431 10.178 5.405 C 10.082 5.379 9.981 5.365 9.878 5.365 C 9.657 5.365 9.456 5.425 9.287 5.527 C 9.118 5.629 8.979 5.773 8.883 5.94 C 8.786 6.108 8.731 6.3 8.727 6.497 C 8.724 6.695 8.772 6.898 8.883 7.089 C 8.934 7.179 8.997 7.259 9.068 7.33 C 9.138 7.4 9.218 7.461 9.304 7.51 C 9.39 7.56 9.482 7.599 9.579 7.625 C 9.675 7.651 9.776 7.664 9.878 7.664 Z" style=""/>
</svg>