<?xml version="1.0" encoding="utf-8"?>
<svg width="20" height="20" viewBox="0 0 20 20" fill="context-fill" fill-opacity="context-fill-opacity" xmlns="http://www.w3.org/2000/svg">
  <path d="M 9.311 3.368 L 7.865 3.368 L 6.418 3.368 L 4.971 3.368 L 3.525 3.368 C 3.297 3.368 3.08 3.414 2.882 3.498 C 2.684 3.582 2.506 3.703 2.356 3.853 C 2.207 4.002 2.085 4.181 2.002 4.379 C 1.918 4.576 1.872 4.794 1.872 5.022 L 1.872 7.915 L 1.872 10.808 L 1.872 13.701 L 1.872 16.594 C 1.872 16.823 1.918 17.04 2.002 17.238 C 2.085 17.436 2.207 17.614 2.356 17.763 C 2.506 17.913 2.684 18.034 2.882 18.117 C 3.08 18.201 3.297 18.247 3.525 18.247 L 6.418 18.247 L 9.311 18.247 L 12.204 18.247 L 15.097 18.247 C 15.326 18.247 15.543 18.201 15.741 18.117 C 15.939 18.033 16.117 17.912 16.266 17.763 C 16.416 17.614 16.537 17.435 16.621 17.237 C 16.705 17.039 16.751 16.822 16.751 16.594 L 16.751 15.147 L 16.751 13.701 L 16.751 12.254 L 16.751 10.808" fill="none" stroke-width="2" stroke-linecap="round" stroke-linejoin="round" style=""/>
  <path d="M 9.311 2.368 L 8.588 2.368 L 7.865 2.368 L 7.142 2.368 L 6.418 2.368 L 5.695 2.368 L 4.971 2.368 L 4.248 2.368 L 3.525 2.368 C 3.359 2.374 3.172 2.396 2.991 2.431 C 2.81 2.467 2.634 2.516 2.491 2.577 C 2.348 2.638 2.191 2.726 2.043 2.826 C 1.896 2.926 1.757 3.038 1.649 3.146 C 1.542 3.254 1.432 3.393 1.334 3.541 C 1.235 3.69 1.147 3.847 1.081 3.99 C 1.025 4.135 0.975 4.31 0.938 4.49 C 0.902 4.671 0.878 4.857 0.872 5.022 L 0.872 6.469 L 0.872 7.915 L 0.872 9.362 L 0.872 10.808 L 0.872 12.255 L 0.872 13.701 L 0.872 15.148 L 0.872 16.594 C 0.878 16.761 0.902 16.946 0.938 17.127 C 0.975 17.307 1.025 17.482 1.081 17.626 C 1.147 17.77 1.235 17.927 1.334 18.075 C 1.433 18.224 1.542 18.363 1.649 18.47 C 1.757 18.578 1.897 18.688 2.045 18.786 C 2.194 18.885 2.351 18.973 2.494 19.038 C 2.639 19.095 2.813 19.144 2.993 19.181 C 3.174 19.218 3.359 19.242 3.525 19.247 L 4.972 19.247 L 6.418 19.247 L 7.865 19.247 L 9.311 19.247 L 10.758 19.247 L 12.204 19.247 L 13.651 19.247 L 15.097 19.247 C 15.264 19.242 15.451 19.22 15.632 19.184 C 15.814 19.148 15.989 19.099 16.132 19.038 C 16.276 18.977 16.43 18.888 16.576 18.787 C 16.723 18.687 16.861 18.576 16.972 18.471 C 17.078 18.36 17.19 18.22 17.29 18.073 C 17.391 17.926 17.481 17.771 17.542 17.628 C 17.603 17.485 17.652 17.31 17.688 17.128 C 17.724 16.947 17.746 16.76 17.751 16.594 L 17.751 15.871 L 17.751 15.147 L 17.751 14.424 L 17.751 13.701 L 17.751 12.978 L 17.751 12.254 L 17.751 11.531 L 17.751 10.808 L 16.751 10.808 L 15.751 10.808 L 15.751 11.531 L 15.751 12.254 L 15.751 12.978 L 15.751 13.701 L 15.751 14.424 L 15.751 15.147 L 15.751 15.871 L 15.751 16.594 C 15.757 16.656 15.756 16.692 15.747 16.725 C 15.739 16.759 15.724 16.791 15.7 16.846 C 15.677 16.901 15.664 16.935 15.645 16.965 C 15.627 16.994 15.603 17.019 15.559 17.056 C 15.521 17.101 15.496 17.124 15.467 17.142 C 15.438 17.16 15.405 17.173 15.35 17.196 C 15.295 17.22 15.263 17.235 15.229 17.243 C 15.195 17.252 15.16 17.253 15.097 17.247 L 13.651 17.247 L 12.204 17.247 L 10.758 17.247 L 9.311 17.247 L 7.865 17.247 L 6.418 17.247 L 4.972 17.247 L 3.525 17.247 C 3.463 17.253 3.426 17.253 3.39 17.246 C 3.355 17.238 3.322 17.223 3.269 17.195 C 3.214 17.177 3.183 17.163 3.156 17.144 C 3.129 17.124 3.105 17.098 3.063 17.056 C 3.021 17.014 2.995 16.989 2.974 16.961 C 2.954 16.933 2.94 16.902 2.923 16.847 C 2.895 16.794 2.88 16.762 2.872 16.728 C 2.865 16.693 2.867 16.657 2.872 16.594 L 2.872 15.148 L 2.872 13.701 L 2.872 12.255 L 2.872 10.808 L 2.872 9.362 L 2.872 7.915 L 2.872 6.469 L 2.872 5.022 C 2.867 4.96 2.866 4.922 2.874 4.886 C 2.881 4.851 2.897 4.818 2.924 4.766 C 2.942 4.711 2.956 4.68 2.976 4.653 C 2.996 4.625 3.022 4.601 3.063 4.56 C 3.105 4.518 3.13 4.494 3.159 4.475 C 3.187 4.456 3.219 4.442 3.273 4.419 C 3.328 4.396 3.36 4.38 3.394 4.372 C 3.428 4.364 3.463 4.363 3.525 4.368 L 4.248 4.368 L 4.971 4.368 L 5.695 4.368 L 6.418 4.368 L 7.142 4.368 L 7.865 4.368 L 8.588 4.368 L 9.311 4.368 L 9.311 3.368 Z" style="stroke-width: 0px;"/>
  <path d="M 15.511 2.129 C 15.75 1.891 16.03 1.739 16.323 1.666 C 16.615 1.593 16.919 1.599 17.204 1.675 C 17.49 1.752 17.756 1.899 17.973 2.108 C 18.19 2.317 18.357 2.589 18.444 2.915 C 18.485 3.067 18.504 3.22 18.504 3.373 C 18.503 3.525 18.483 3.676 18.444 3.822 C 18.405 3.969 18.347 4.11 18.271 4.242 C 18.195 4.374 18.101 4.498 17.99 4.608 L 16.027 6.572 L 14.064 8.535 L 12.101 10.498 L 10.138 12.461 L 9.312 12.668 L 8.485 12.874 L 7.659 13.081 L 6.832 13.287 L 7.039 12.461 L 7.245 11.634 L 7.452 10.808 L 7.658 9.981 L 9.622 8.018 L 11.585 6.055 L 13.548 4.092 Z" fill="none" stroke-width="2" stroke-linecap="round" stroke-linejoin="round" style=""/>
  <path d="M 14.805 1.42 C 14.982 1.259 15.198 1.107 15.422 0.982 C 15.645 0.856 15.876 0.756 16.081 0.696 C 16.293 0.652 16.537 0.632 16.78 0.635 C 17.022 0.638 17.262 0.663 17.464 0.709 C 17.663 0.771 17.886 0.866 18.098 0.983 C 18.311 1.1 18.512 1.239 18.667 1.388 C 18.82 1.536 18.97 1.739 19.1 1.961 C 19.229 2.184 19.338 2.427 19.41 2.656 C 19.437 2.766 19.459 2.894 19.476 3.02 C 19.492 3.147 19.502 3.273 19.504 3.38 C 19.501 3.487 19.491 3.609 19.475 3.731 C 19.458 3.853 19.436 3.975 19.41 4.079 C 19.38 4.184 19.339 4.302 19.292 4.417 C 19.245 4.533 19.192 4.647 19.138 4.741 C 19.084 4.834 19.013 4.937 18.936 5.037 C 18.859 5.137 18.776 5.234 18.697 5.315 L 17.715 6.297 L 16.734 7.279 L 13.691 10.322 L 10.649 13.364 L 10.515 13.398 L 10.381 13.431 L 9.967 13.535 L 9.554 13.638 L 9.14 13.741 L 8.727 13.844 L 8.314 13.948 L 7.901 14.051 L 6.679 14.356 L 5.457 14.66 L 5.763 13.44 L 6.069 12.219 L 6.172 11.805 L 6.275 11.391 L 6.378 10.979 L 6.482 10.566 L 6.618 10.018 L 6.755 9.47 L 7.835 8.391 L 8.915 7.311 L 11.86 4.366 Z M 10.329 8.725 L 9.445 9.609 L 8.561 10.492 L 8.492 10.771 L 8.422 11.05 L 8.319 11.463 L 8.215 11.876 L 8.211 11.894 L 8.206 11.913 L 8.224 11.908 L 8.242 11.904 L 8.656 11.801 L 9.07 11.698 L 9.349 11.628 L 9.627 11.558 L 12.473 8.711 L 15.32 5.865 L 16.301 4.883 L 17.283 3.901 C 17.315 3.872 17.334 3.852 17.351 3.829 C 17.368 3.807 17.382 3.781 17.404 3.743 C 17.426 3.705 17.44 3.682 17.45 3.658 C 17.461 3.634 17.468 3.608 17.477 3.566 C 17.491 3.524 17.498 3.498 17.502 3.47 C 17.506 3.443 17.506 3.414 17.504 3.37 C 17.506 3.325 17.507 3.298 17.503 3.271 C 17.5 3.243 17.493 3.217 17.479 3.175 C 17.464 3.078 17.446 3.022 17.415 2.975 C 17.385 2.927 17.343 2.889 17.279 2.828 C 17.217 2.768 17.177 2.73 17.131 2.702 C 17.085 2.674 17.032 2.657 16.945 2.641 C 16.863 2.611 16.808 2.596 16.754 2.595 C 16.7 2.593 16.646 2.607 16.566 2.636 C 16.478 2.649 16.422 2.662 16.372 2.69 C 16.322 2.718 16.279 2.761 16.217 2.838 L 13.273 5.781 Z" style=""/>
</svg>