<?xml version="1.0" encoding="utf-8"?>
<svg width="20" height="20" viewBox="0 0 20 20" fill="context-fill" fill-opacity="context-fill-opacity" xmlns="http://www.w3.org/2000/svg">
  <path d="M 19.996 9.397 C 19.986 9.286 19.934 9.187 19.856 9.117 C 19.778 9.047 19.676 9.005 19.563 9.005 L 15.026 9.005 L 10.489 9.005 C 10.19 7.859 9.52 6.862 8.616 6.151 C 7.711 5.44 6.572 5.015 5.334 5.015 C 3.863 5.015 2.529 5.613 1.564 6.579 C 0.598 7.545 0 8.878 0 10.349 C 0 11.82 0.598 13.153 1.564 14.119 C 2.529 15.084 3.863 15.682 5.334 15.682 C 6.65 15.682 7.854 15.203 8.783 14.411 C 9.713 13.619 10.368 12.514 10.584 11.26 L 11.595 11.26 L 12.605 11.26 L 12.605 12.698 L 12.605 14.136 L 12.607 14.136 L 12.608 14.136 C 12.616 14.25 12.668 14.351 12.745 14.424 C 12.823 14.497 12.928 14.541 13.041 14.541 C 13.044 14.541 13.047 14.54 13.05 14.54 C 13.054 14.539 13.057 14.539 13.059 14.539 L 13.059 14.54 L 13.059 14.542 L 13.76 14.542 L 14.461 14.542 L 14.461 14.541 L 14.461 14.541 C 14.576 14.541 14.68 14.497 14.758 14.424 C 14.836 14.352 14.887 14.25 14.895 14.136 L 14.897 14.136 L 14.899 14.136 L 14.899 12.698 L 14.899 11.26 L 15.471 11.26 L 16.043 11.26 L 16.043 13.484 L 16.043 15.708 L 16.045 15.708 L 16.046 15.708 C 16.055 15.822 16.107 15.923 16.184 15.996 C 16.262 16.068 16.367 16.112 16.481 16.113 L 16.484 16.113 L 16.486 16.113 L 17.188 16.113 L 17.89 16.113 L 17.893 16.113 L 17.896 16.113 C 18.01 16.112 18.114 16.068 18.192 15.996 C 18.27 15.923 18.321 15.822 18.329 15.708 L 18.331 15.708 L 18.332 15.708 L 18.332 13.484 L 18.332 11.26 L 18.948 11.26 L 19.564 11.26 L 19.564 11.259 L 19.564 11.259 C 19.684 11.259 19.793 11.21 19.872 11.131 C 19.951 11.052 20 10.942 20 10.822 L 20 10.109 L 20 9.397 L 19.998 9.397 Z M 5.334 13.445 C 4.49 13.445 3.725 13.102 3.171 12.547 C 2.617 11.993 2.274 11.228 2.274 10.385 C 2.274 9.542 2.617 8.776 3.171 8.222 C 3.725 7.667 4.49 7.324 5.334 7.324 C 6.177 7.324 6.942 7.667 7.495 8.222 C 8.049 8.776 8.392 9.542 8.392 10.385 C 8.392 11.228 8.049 11.993 7.495 12.548 C 6.942 13.102 6.177 13.445 5.334 13.445 Z" style="stroke-width: 0px;"/>
</svg>