<?xml version="1.0" encoding="utf-8"?>
<svg width="20" height="20" viewBox="0 0 20 20" fill="context-fill" fill-opacity="context-fill-opacity" xmlns="http://www.w3.org/2000/svg">
  <path d="M 17.68 2.842 L 9.95 2.842 L 2.22 2.842 C 1.747 2.842 1.318 3.035 1.007 3.347 C 0.695 3.658 0.502 4.088 0.502 4.56 L 0.502 10.143 L 0.502 15.725 C 0.502 16.198 0.695 16.627 1.007 16.938 C 1.318 17.25 1.747 17.443 2.22 17.443 L 9.95 17.443 L 17.68 17.443 C 18.152 17.443 18.581 17.25 18.893 16.938 C 19.204 16.627 19.397 16.198 19.397 15.725 L 19.397 10.143 L 19.397 4.56 C 19.397 4.088 19.204 3.658 18.893 3.347 C 18.581 3.035 18.152 2.842 17.68 2.842 Z M 17.68 15.725 L 9.95 15.725 L 2.22 15.725 L 2.22 10.143 L 2.22 4.56 L 9.95 4.56 L 17.68 4.56 L 17.68 10.143 Z M 7.373 6.278 L 8.232 6.278 L 9.091 6.278 L 9.091 7.137 L 9.091 7.995 L 8.232 7.995 L 7.373 7.995 L 7.373 7.137 Z M 3.938 6.278 L 4.797 6.278 L 5.655 6.278 L 5.655 7.137 L 5.655 7.995 L 4.797 7.995 L 3.938 7.995 L 3.938 7.137 Z M 6.514 13.149 L 9.95 13.149 L 13.385 13.149 L 13.385 13.578 L 13.385 14.007 L 9.95 14.007 L 6.514 14.007 L 6.514 13.578 Z M 10.809 6.278 L 11.667 6.278 L 12.526 6.278 L 12.526 7.137 L 12.526 7.995 L 11.667 7.995 L 10.809 7.995 L 10.809 7.137 Z M 7.373 9.713 L 8.232 9.713 L 9.091 9.713 L 9.091 10.572 L 9.091 11.431 L 8.232 11.431 L 7.373 11.431 L 7.373 10.572 Z M 3.938 9.713 L 4.797 9.713 L 5.655 9.713 L 5.655 10.572 L 5.655 11.431 L 4.797 11.431 L 3.938 11.431 L 3.938 10.572 Z M 10.809 9.713 L 11.667 9.713 L 12.526 9.713 L 12.526 10.572 L 12.526 11.431 L 11.667 11.431 L 10.809 11.431 L 10.809 10.572 Z M 14.244 6.278 L 15.103 6.278 L 15.962 6.278 L 15.962 7.137 L 15.962 7.995 L 15.103 7.995 L 14.244 7.995 L 14.244 7.137 Z M 14.244 9.713 L 15.103 9.713 L 15.962 9.713 L 15.962 10.572 L 15.962 11.431 L 15.103 11.431 L 14.244 11.431 L 14.244 10.572 Z" style=""/>
</svg>