<?xml version="1.0" encoding="utf-8"?>
<svg width="20" height="20" viewBox="0 0 20 20" fill="context-fill" fill-opacity="context-fill-opacity" xmlns="http://www.w3.org/2000/svg">
  <path d="M 3.991 19.044 L 16.002 19.044 C 16.611 19.044 17.132 18.839 17.565 18.429 C 17.998 18.02 18.227 17.5 18.249 16.867 L 18.249 16.797 C 18.249 16.235 18.097 15.708 17.793 15.216 L 12.244 7.805 L 12.244 2.574 L 12.983 2.574 C 13.169 2.574 13.345 2.491 13.509 2.328 C 13.671 2.163 13.755 1.989 13.755 1.802 C 13.755 1.613 13.671 1.444 13.509 1.293 C 13.345 1.14 13.169 1.063 12.983 1.063 L 7.012 1.063 C 6.824 1.063 6.649 1.14 6.484 1.293 C 6.322 1.444 6.239 1.613 6.239 1.802 C 6.239 1.989 6.322 2.163 6.484 2.328 C 6.649 2.491 6.824 2.574 7.012 2.574 L 7.749 2.574 L 7.749 7.736 L 2.27 15.146 C 1.966 15.637 1.744 16.797 1.744 16.797 C 1.767 17.429 2.001 17.961 2.446 18.394 C 2.891 18.828 3.406 19.044 3.991 19.044 Z M 7.749 10.264 L 8.135 9.843 C 8.698 9.047 9.072 8.146 9.259 7.139 L 9.259 2.574 L 10.734 2.574 L 10.734 7.068 C 10.945 8.169 11.319 9.059 11.858 9.738 L 12.244 10.194 L 13.755 12.231 L 6.239 12.231 L 7.749 10.264 Z M 3.464 16.06 L 5.095 13.897 L 14.879 13.812 L 16.529 16.06 C 16.576 16.106 16.646 16.329 16.739 16.727 C 16.739 16.936 16.663 17.125 16.512 17.288 C 16.359 17.453 16.189 17.534 16.002 17.534 L 3.991 17.534 C 3.803 17.534 3.634 17.453 3.481 17.288 C 3.33 17.125 3.254 16.936 3.254 16.727 C 3.254 16.422 3.324 16.2 3.464 16.06 Z" style="stroke-miterlimit: 1; stroke-width: 0px;"/>
</svg>