<?xml version="1.0" encoding="utf-8"?>
<svg width="20" height="20" viewBox="0 0 20 20" fill="context-fill" fill-opacity="context-fill-opacity" xmlns="http://www.w3.org/2000/svg">
  <path d="M 16.654 15.741 L 16.654 15.325 L 16.654 14.908 C 17.112 14.908 17.526 14.721 17.826 14.419 C 18.126 14.117 18.311 13.7 18.311 13.242 L 18.316 9.079 L 18.32 4.915 C 18.32 4.457 18.133 4.041 17.831 3.739 C 17.529 3.437 17.112 3.25 16.654 3.25 L 9.993 3.25 L 3.331 3.25 C 2.873 3.25 2.456 3.437 2.154 3.739 C 1.852 4.041 1.665 4.457 1.665 4.915 L 1.665 9.079 L 1.665 13.242 C 1.665 13.7 1.852 14.117 2.154 14.419 C 2.457 14.721 2.873 14.908 3.331 14.908 L 3.331 15.325 L 3.331 15.741 L 1.666 15.741 L 0 15.741 L 0 16.574 L 0 17.406 L 9.993 17.406 L 19.985 17.406 L 19.985 16.574 L 19.985 15.741 L 18.319 15.741 Z M 3.331 4.915 L 9.993 4.915 L 16.654 4.915 L 16.654 9.079 L 16.654 13.242 L 9.993 13.242 L 3.331 13.242 L 3.331 9.079 Z" style=""/>
</svg>