<?xml version="1.0" encoding="utf-8"?>
<svg width="20" height="20" viewBox="0 0 20 20" fill="context-fill" fill-opacity="context-fill-opacity" xmlns="http://www.w3.org/2000/svg">
  <path d="M 6.253 9.099 L 13.737 9.099 C 14.458 9.099 14.908 9.879 14.547 10.503 C 14.38 10.792 14.071 10.97 13.737 10.97 L 6.253 10.97 C 5.533 10.97 5.083 10.191 5.443 9.568 C 5.61 9.278 5.92 9.099 6.253 9.099 Z M 8.124 12.842 L 5.006 12.842 C 2.846 12.842 1.495 10.503 2.575 8.632 C 3.077 7.764 4.003 7.229 5.006 7.229 L 8.124 7.229 C 8.844 7.229 9.294 6.449 8.934 5.826 C 8.767 5.536 8.458 5.358 8.124 5.358 L 5.006 5.358 C 1.405 5.358 -0.846 9.256 0.955 12.374 C 1.79 13.822 3.334 14.713 5.006 14.713 L 8.124 14.713 C 8.844 14.713 9.294 13.933 8.934 13.309 C 8.767 13.02 8.458 12.842 8.124 12.842 Z M 14.984 5.358 L 11.866 5.358 C 11.146 5.358 10.696 6.138 11.056 6.761 C 11.223 7.051 11.532 7.229 11.866 7.229 L 14.984 7.229 C 17.144 7.229 18.495 9.568 17.415 11.438 C 16.913 12.307 15.987 12.842 14.984 12.842 L 11.866 12.842 C 11.146 12.842 10.696 13.621 11.056 14.245 C 11.223 14.534 11.532 14.713 11.866 14.713 L 14.984 14.713 C 18.585 14.713 20.835 10.815 19.035 7.697 C 18.199 6.25 16.655 5.358 14.984 5.358 Z" style="stroke-width: 0px;"/>
</svg>