<?xml version="1.0" encoding="utf-8"?>
<svg width="20" height="20" viewBox="0 0 20 20" fill="context-fill" fill-opacity="context-fill-opacity" xmlns="http://www.w3.org/2000/svg">
  <path d="M 17.138 4.327 C 17.221 4.327 17.302 4.336 17.38 4.352 C 17.458 4.368 17.533 4.391 17.605 4.421 C 17.677 4.451 17.745 4.489 17.809 4.532 C 17.873 4.575 17.932 4.624 17.986 4.678 C 18.041 4.733 18.09 4.792 18.133 4.856 C 18.176 4.92 18.213 4.989 18.243 5.06 C 18.274 5.132 18.297 5.207 18.313 5.285 C 18.329 5.363 18.337 5.444 18.337 5.527 L 18.337 6.727 L 18.337 7.926 L 18.337 9.126 L 18.337 10.325 L 18.337 11.525 L 18.337 12.724 L 18.337 13.924 L 18.337 15.123 C 18.337 15.206 18.329 15.287 18.313 15.365 C 18.297 15.444 18.274 15.519 18.243 15.591 C 18.213 15.663 18.176 15.731 18.133 15.795 C 18.09 15.859 18.041 15.918 17.986 15.972 C 17.932 16.027 17.873 16.076 17.809 16.119 C 17.745 16.162 17.677 16.199 17.605 16.229 C 17.533 16.26 17.458 16.283 17.38 16.299 C 17.302 16.315 17.221 16.323 17.138 16.323 L 15.339 16.323 L 13.54 16.323 L 11.741 16.323 L 9.941 16.323 L 8.142 16.323 L 6.342 16.323 L 4.543 16.323 L 2.743 16.323 C 2.661 16.323 2.58 16.315 2.502 16.299 C 2.424 16.283 2.348 16.26 2.276 16.229 C 2.205 16.199 2.137 16.162 2.073 16.119 C 2.009 16.076 1.95 16.027 1.895 15.972 C 1.841 15.918 1.792 15.859 1.749 15.795 C 1.706 15.731 1.668 15.663 1.638 15.591 C 1.608 15.519 1.584 15.444 1.568 15.365 C 1.552 15.287 1.544 15.206 1.544 15.123 L 1.544 13.924 L 1.544 12.724 L 1.544 11.525 L 1.544 10.325 L 1.544 9.126 L 1.544 7.926 L 1.544 6.727 L 1.544 5.527 C 1.544 5.444 1.552 5.363 1.568 5.285 C 1.584 5.207 1.608 5.132 1.638 5.06 C 1.668 4.988 1.706 4.92 1.749 4.856 C 1.792 4.792 1.841 4.733 1.895 4.678 C 1.95 4.624 2.009 4.575 2.073 4.532 C 2.137 4.489 2.205 4.452 2.276 4.421 C 2.348 4.391 2.424 4.368 2.502 4.352 C 2.58 4.336 2.661 4.327 2.743 4.327 L 4.543 4.327 L 6.342 4.327 L 8.142 4.327 L 9.941 4.327 L 11.741 4.327 L 13.54 4.327 L 15.339 4.327 Z M 2.743 3.128 C 2.577 3.128 2.416 3.145 2.26 3.177 C 2.104 3.209 1.954 3.256 1.81 3.317 C 1.667 3.378 1.53 3.452 1.402 3.538 C 1.275 3.624 1.156 3.723 1.047 3.831 C 0.938 3.94 0.84 4.059 0.754 4.186 C 0.668 4.314 0.593 4.451 0.533 4.594 C 0.472 4.738 0.425 4.888 0.393 5.044 C 0.361 5.2 0.344 5.362 0.344 5.527 L 0.344 6.727 L 0.344 7.926 L 0.344 9.126 L 0.344 10.325 L 0.344 11.525 L 0.344 12.724 L 0.344 13.924 L 0.344 15.123 C 0.344 15.289 0.361 15.45 0.393 15.607 C 0.425 15.763 0.472 15.914 0.533 16.057 C 0.593 16.2 0.668 16.336 0.754 16.464 C 0.84 16.592 0.938 16.711 1.047 16.819 C 1.156 16.928 1.275 17.026 1.402 17.113 C 1.53 17.199 1.666 17.273 1.81 17.334 C 1.953 17.395 2.104 17.442 2.26 17.473 C 2.416 17.505 2.577 17.522 2.743 17.522 L 4.542 17.522 L 6.342 17.522 L 8.141 17.522 L 9.941 17.522 L 11.74 17.522 L 13.54 17.522 L 15.339 17.522 L 17.138 17.522 C 17.304 17.522 17.466 17.505 17.622 17.473 C 17.778 17.442 17.928 17.395 18.072 17.334 C 18.215 17.273 18.352 17.199 18.479 17.113 C 18.607 17.026 18.725 16.928 18.834 16.819 C 18.942 16.711 19.041 16.592 19.127 16.464 C 19.213 16.336 19.287 16.2 19.348 16.057 C 19.409 15.913 19.456 15.762 19.488 15.606 C 19.52 15.45 19.537 15.289 19.537 15.123 L 19.537 13.924 L 19.537 12.724 L 19.537 11.525 L 19.537 10.325 L 19.537 9.126 L 19.537 7.926 L 19.537 6.727 L 19.537 5.527 C 19.537 5.362 19.52 5.2 19.488 5.044 C 19.456 4.888 19.409 4.737 19.348 4.593 C 19.287 4.45 19.213 4.313 19.127 4.186 C 19.041 4.058 18.942 3.94 18.834 3.831 C 18.725 3.722 18.607 3.624 18.479 3.538 C 18.352 3.451 18.215 3.377 18.072 3.316 C 17.928 3.256 17.778 3.209 17.621 3.177 C 17.465 3.145 17.303 3.128 17.138 3.128 L 15.338 3.128 L 13.539 3.128 L 11.739 3.128 L 9.94 3.128 L 8.141 3.128 L 6.342 3.128 L 4.542 3.128 Z" style=""/>
  <path fill-rule="evenodd" d="M 11.315 10.5 C 11.345 10.471 11.376 10.446 11.41 10.424 C 11.443 10.402 11.478 10.383 11.514 10.368 C 11.55 10.354 11.587 10.343 11.625 10.335 C 11.663 10.328 11.702 10.324 11.74 10.324 C 11.779 10.324 11.817 10.328 11.855 10.335 C 11.893 10.343 11.93 10.354 11.966 10.368 C 12.002 10.383 12.037 10.402 12.071 10.424 C 12.104 10.446 12.135 10.471 12.165 10.5 L 12.411 10.747 L 12.658 10.994 L 12.905 11.241 L 13.152 11.488 L 13.398 11.735 L 13.645 11.982 L 13.892 12.229 L 14.139 12.476 L 14.385 12.229 L 14.632 11.982 L 14.879 11.735 L 15.126 11.488 L 15.372 11.241 L 15.619 10.994 L 15.866 10.747 L 16.113 10.5 C 16.153 10.46 16.198 10.426 16.245 10.4 C 16.292 10.374 16.341 10.355 16.391 10.342 C 16.441 10.33 16.492 10.324 16.543 10.324 C 16.594 10.325 16.645 10.332 16.694 10.345 C 16.742 10.358 16.79 10.377 16.834 10.402 C 16.878 10.426 16.92 10.457 16.957 10.493 C 16.994 10.529 17.027 10.57 17.054 10.616 C 17.081 10.662 17.103 10.713 17.118 10.769 C 17.125 10.795 17.13 10.821 17.134 10.848 C 17.137 10.874 17.139 10.9 17.139 10.926 C 17.138 10.952 17.136 10.978 17.133 11.004 C 17.129 11.03 17.124 11.055 17.118 11.08 C 17.111 11.106 17.103 11.13 17.093 11.154 C 17.083 11.178 17.072 11.202 17.059 11.224 C 17.046 11.247 17.031 11.268 17.015 11.289 C 16.999 11.31 16.982 11.33 16.963 11.349 L 16.663 11.649 L 16.363 11.949 L 16.063 12.249 L 15.764 12.549 L 15.464 12.849 L 15.164 13.149 L 14.864 13.449 L 14.564 13.749 C 14.534 13.779 14.503 13.804 14.47 13.826 C 14.436 13.848 14.401 13.866 14.365 13.881 C 14.329 13.896 14.292 13.907 14.254 13.914 C 14.216 13.921 14.177 13.925 14.139 13.925 C 14.1 13.925 14.062 13.921 14.024 13.914 C 13.986 13.907 13.949 13.896 13.913 13.881 C 13.877 13.867 13.842 13.848 13.809 13.826 C 13.775 13.804 13.743 13.779 13.714 13.749 L 13.414 13.449 L 13.114 13.149 L 12.814 12.849 L 12.515 12.549 L 12.215 12.249 L 11.915 11.949 L 11.615 11.649 L 11.315 11.349 C 11.285 11.32 11.26 11.289 11.238 11.255 C 11.216 11.222 11.197 11.187 11.183 11.151 C 11.168 11.115 11.157 11.078 11.15 11.04 C 11.143 11.002 11.139 10.964 11.139 10.925 C 11.139 10.887 11.143 10.848 11.15 10.81 C 11.157 10.772 11.168 10.735 11.183 10.699 C 11.197 10.663 11.216 10.627 11.238 10.594 C 11.26 10.561 11.285 10.529 11.315 10.5 Z" style=""/>
  <path fill-rule="evenodd" d="M 14.139 6.726 C 14.18 6.726 14.221 6.73 14.26 6.738 C 14.299 6.746 14.337 6.758 14.373 6.773 C 14.409 6.789 14.443 6.807 14.475 6.829 C 14.507 6.851 14.536 6.875 14.563 6.902 C 14.591 6.93 14.615 6.959 14.637 6.991 C 14.659 7.023 14.677 7.057 14.692 7.093 C 14.707 7.129 14.719 7.167 14.727 7.206 C 14.735 7.245 14.739 7.285 14.739 7.326 L 14.739 7.926 L 14.739 8.526 L 14.739 9.126 L 14.739 9.725 L 14.739 10.325 L 14.739 10.925 L 14.739 11.525 L 14.739 12.124 C 14.739 12.182 14.731 12.237 14.717 12.289 C 14.703 12.34 14.682 12.389 14.655 12.433 C 14.629 12.477 14.596 12.517 14.56 12.553 C 14.523 12.588 14.483 12.619 14.439 12.644 C 14.395 12.67 14.348 12.689 14.299 12.703 C 14.25 12.717 14.2 12.724 14.148 12.725 C 14.097 12.726 14.044 12.72 13.992 12.707 C 13.941 12.694 13.889 12.673 13.839 12.644 C 13.816 12.631 13.794 12.616 13.773 12.6 C 13.752 12.584 13.732 12.567 13.714 12.548 C 13.696 12.53 13.678 12.51 13.663 12.49 C 13.647 12.469 13.633 12.448 13.62 12.425 C 13.607 12.403 13.596 12.379 13.586 12.355 C 13.576 12.331 13.567 12.307 13.56 12.281 C 13.553 12.256 13.548 12.23 13.544 12.204 C 13.541 12.178 13.539 12.151 13.539 12.124 L 13.539 11.525 L 13.539 10.925 L 13.539 10.325 L 13.539 9.725 L 13.539 9.126 L 13.539 8.526 L 13.539 7.926 L 13.539 7.326 C 13.539 7.285 13.543 7.244 13.551 7.205 C 13.559 7.167 13.571 7.129 13.586 7.093 C 13.601 7.057 13.62 7.023 13.641 6.991 C 13.663 6.959 13.688 6.929 13.715 6.902 C 13.742 6.875 13.772 6.85 13.804 6.829 C 13.836 6.807 13.87 6.789 13.906 6.773 C 13.942 6.758 13.979 6.746 14.018 6.738 C 14.057 6.73 14.098 6.726 14.139 6.726 Z" style=""/>
  <path d="M 4.614 13.924 L 4.614 13.326 L 4.614 12.728 L 4.614 12.129 L 4.614 11.531 L 4.614 10.933 L 4.614 10.334 L 4.614 9.736 L 4.614 9.137 L 4.623 9.137 L 4.631 9.137 L 4.639 9.137 L 4.648 9.137 L 4.656 9.137 L 4.665 9.137 L 4.673 9.137 L 4.682 9.137 L 4.896 9.623 L 5.11 10.109 L 5.324 10.595 L 5.538 11.08 L 5.752 11.566 L 5.967 12.051 L 6.181 12.537 L 6.395 13.023 L 6.511 13.023 L 6.627 13.023 L 6.743 13.023 L 6.859 13.023 L 6.975 13.023 L 7.091 13.023 L 7.207 13.023 L 7.323 13.023 L 7.536 12.537 L 7.749 12.051 L 7.962 11.566 L 8.175 11.08 L 8.388 10.594 L 8.601 10.108 L 8.813 9.622 L 9.026 9.136 L 9.034 9.136 L 9.043 9.136 L 9.051 9.136 L 9.06 9.136 L 9.068 9.136 L 9.077 9.136 L 9.085 9.136 L 9.094 9.136 L 9.094 9.734 L 9.094 10.333 L 9.094 10.931 L 9.094 11.53 L 9.094 12.128 L 9.094 12.727 L 9.094 13.325 L 9.094 13.924 L 9.255 13.924 L 9.416 13.924 L 9.577 13.924 L 9.738 13.924 L 9.898 13.924 L 10.059 13.924 L 10.22 13.924 L 10.381 13.924 L 10.381 13.024 L 10.381 12.125 L 10.381 11.225 L 10.381 10.326 L 10.381 9.426 L 10.381 8.527 L 10.381 7.627 L 10.381 6.728 L 10.201 6.728 L 10.021 6.728 L 9.841 6.728 L 9.661 6.728 L 9.481 6.728 L 9.301 6.728 L 9.121 6.728 L 8.941 6.728 L 8.684 7.312 L 8.428 7.896 L 8.171 8.48 L 7.915 9.064 L 7.659 9.647 L 7.403 10.231 L 7.146 10.815 L 6.89 11.399 L 6.884 11.399 L 6.878 11.399 L 6.872 11.399 L 6.866 11.399 L 6.86 11.399 L 6.855 11.399 L 6.849 11.399 L 6.843 11.399 L 6.586 10.815 L 6.33 10.231 L 6.073 9.647 L 5.817 9.064 L 5.561 8.48 L 5.305 7.896 L 5.048 7.312 L 4.792 6.728 L 4.611 6.728 L 4.43 6.728 L 4.248 6.728 L 4.067 6.728 L 3.886 6.728 L 3.705 6.728 L 3.524 6.728 L 3.343 6.728 L 3.343 7.627 L 3.343 8.527 L 3.343 9.426 L 3.343 10.326 L 3.343 11.225 L 3.343 12.125 L 3.343 13.024 L 3.343 13.924 L 3.502 13.924 L 3.661 13.924 L 3.819 13.924 L 3.978 13.924 L 4.137 13.924 L 4.296 13.924 L 4.455 13.924 Z" style=""/>
</svg>