<?xml version="1.0" encoding="utf-8"?>
<svg width="20" height="20" viewBox="0 0 20 20" fill="context-fill" fill-opacity="context-fill-opacity" xmlns="http://www.w3.org/2000/svg">
  <path d="M 10.051 3.829 C 8.497 3.829 7.115 4.007 5.912 4.359 C 4.71 4.711 3.687 5.239 2.851 5.941 C 2.133 6.544 1.576 7.265 1.197 8.07 C 0.82 8.872 0.621 9.756 0.621 10.683 C 0.621 12.299 1.191 13.765 2.111 14.825 C 3.032 15.886 4.302 16.544 5.702 16.544 C 6.352 16.544 6.985 16.362 7.553 16.025 C 8.122 15.689 8.625 15.198 9.014 14.582 L 9.363 14 L 9.711 13.42 C 9.755 13.352 9.807 13.296 9.864 13.26 C 9.922 13.225 9.985 13.207 10.05 13.207 C 10.116 13.207 10.179 13.225 10.236 13.259 C 10.292 13.294 10.343 13.345 10.383 13.408 L 10.74 14.001 L 11.095 14.594 C 11.481 15.204 11.983 15.692 12.55 16.027 C 13.118 16.362 13.751 16.544 14.401 16.544 C 15.768 16.544 17.028 15.862 17.947 14.775 C 18.866 13.687 19.443 12.196 19.443 10.579 C 19.443 9.66 19.247 8.785 18.873 7.992 C 18.499 7.198 17.947 6.487 17.234 5.896 C 16.407 5.211 15.39 4.694 14.189 4.35 C 12.988 4.003 11.608 3.829 10.051 3.829 Z M 10.051 5.169 C 11.445 5.169 12.697 5.322 13.775 5.623 C 14.855 5.923 15.761 6.369 16.465 6.953 C 17.178 7.544 17.607 8.199 17.861 8.833 C 18.114 9.466 18.189 10.077 18.189 10.579 C 18.189 11.811 17.747 12.969 17.052 13.817 C 16.357 14.666 15.41 15.206 14.401 15.206 C 13.961 15.206 13.529 15.08 13.14 14.847 C 12.752 14.616 12.408 14.279 12.143 13.857 L 11.787 13.265 L 11.43 12.673 C 11.272 12.422 11.062 12.22 10.825 12.081 C 10.588 11.943 10.323 11.867 10.05 11.867 C 9.778 11.867 9.513 11.943 9.275 12.083 C 9.036 12.222 8.825 12.427 8.662 12.685 L 8.313 13.267 L 7.963 13.847 C 7.695 14.272 7.35 14.612 6.961 14.846 C 6.573 15.079 6.142 15.206 5.702 15.206 C 4.558 15.206 3.602 14.622 2.931 13.765 C 2.26 12.906 1.876 11.774 1.876 10.683 C 1.876 9.966 2.03 9.281 2.327 8.655 C 2.623 8.03 3.061 7.466 3.625 6.993 C 4.338 6.395 5.25 5.941 6.331 5.633 C 7.411 5.325 8.662 5.169 10.051 5.169 Z M 6.268 7.176 C 5.523 7.176 4.91 7.42 4.431 7.738 C 3.951 8.056 3.604 8.447 3.384 8.739 C 3.215 8.967 3.131 9.243 3.131 9.518 C 3.131 9.793 3.215 10.069 3.384 10.297 C 3.604 10.589 3.951 10.98 4.432 11.298 C 4.911 11.614 5.524 11.86 6.268 11.86 C 7.012 11.86 7.625 11.614 8.104 11.296 C 8.585 10.98 8.933 10.589 9.151 10.297 C 9.321 10.069 9.404 9.793 9.404 9.518 C 9.404 9.243 9.321 8.967 9.151 8.739 C 8.933 8.446 8.584 8.056 8.103 7.737 C 7.624 7.42 7.012 7.176 6.268 7.176 Z M 13.797 7.176 C 13.051 7.176 12.439 7.42 11.959 7.738 C 11.48 8.056 11.133 8.447 10.913 8.739 C 10.744 8.967 10.659 9.243 10.659 9.518 C 10.659 9.793 10.745 10.069 10.913 10.297 C 11.133 10.589 11.48 10.98 11.96 11.298 C 12.44 11.614 13.052 11.86 13.797 11.86 C 14.542 11.86 15.154 11.614 15.633 11.296 C 16.114 10.98 16.462 10.589 16.68 10.297 C 16.85 10.069 16.933 9.793 16.933 9.518 C 16.933 9.243 16.85 8.967 16.68 8.739 C 16.462 8.446 16.112 8.056 15.632 7.737 C 15.153 7.42 14.542 7.176 13.797 7.176 Z M 6.268 8.514 C 6.728 8.514 7.115 8.665 7.425 8.866 C 7.735 9.067 7.971 9.318 8.128 9.518 C 7.971 9.717 7.736 9.969 7.425 10.169 C 7.115 10.372 6.729 10.521 6.268 10.521 C 5.807 10.521 5.421 10.372 5.11 10.169 C 4.8 9.969 4.564 9.717 4.407 9.518 C 4.564 9.318 4.8 9.067 5.11 8.866 C 5.421 8.665 5.806 8.514 6.268 8.514 Z M 13.797 8.514 C 14.257 8.514 14.643 8.665 14.954 8.866 C 15.265 9.067 15.5 9.318 15.657 9.518 C 15.5 9.717 15.265 9.969 14.954 10.169 C 14.643 10.372 14.258 10.521 13.797 10.521 C 13.336 10.521 12.949 10.372 12.639 10.169 C 12.329 9.969 12.093 9.717 11.936 9.518 C 12.093 9.318 12.328 9.067 12.639 8.866 C 12.949 8.665 13.336 8.514 13.797 8.514 Z" style=""/>
</svg>