<?xml version="1.0" encoding="utf-8"?>
<svg viewBox="0 0 20 20" width="20px" height="20px" fill="context-fill" fill-opacity="context-fill-opacity" xmlns="http://www.w3.org/2000/svg">
  <path d="M 17.807 3.205 L 1.59 3.205 C 1.499 3.205 1.425 3.285 1.425 3.38 L 1.425 4.784 C 1.425 4.88 1.499 4.958 1.59 4.958 L 17.807 4.958 C 17.807 5.232 17.973 4.88 17.973 4.784 L 17.973 3.38 C 17.973 3.285 17.898 3.205 17.807 3.205 Z M 17.807 15.608 L 1.59 15.608 C 1.499 15.608 1.425 15.687 1.425 15.784 L 1.425 17.187 C 1.425 17.283 1.499 17.361 1.59 17.361 L 17.807 17.361 C 17.898 17.361 17.973 17.283 17.973 17.187 L 17.973 15.784 C 17.973 15.687 17.898 15.608 17.807 15.608 Z M 17.807 9.473 L 1.59 9.473 C 1.499 9.473 1.425 9.553 1.425 9.65 L 1.425 11.053 C 1.425 11.15 1.499 11.229 1.59 11.229 L 17.807 11.229 C 17.898 11.229 17.973 11.15 17.973 11.053 L 17.973 9.65 C 17.973 9.553 17.898 9.473 17.807 9.473 Z" style="stroke-width: 0px;"/>
</svg>