<?xml version="1.0" encoding="utf-8"?>
<svg width="20" height="20" viewBox="0 0 20 20" fill="context-fill" fill-opacity="context-fill-opacity" xmlns="http://www.w3.org/2000/svg">
  <path d="M 5.289 18.906 C 3.657 18.906 2.332 18.023 1.618 16.786 C 0.904 15.55 0.802 13.96 1.618 12.547 C 1.996 11.891 2.536 11.361 3.169 10.996 C 3.803 10.63 4.531 10.428 5.289 10.428 C 6.921 10.428 8.246 11.311 8.96 12.547 C 9.674 13.783 9.776 15.373 8.96 16.786 C 8.582 17.443 8.043 17.972 7.409 18.338 C 6.775 18.704 6.047 18.906 5.289 18.906 Z M 14.71 18.906 C 13.078 18.906 11.752 18.023 11.038 16.786 C 10.324 15.55 10.223 13.96 11.039 12.547 C 11.417 11.891 11.956 11.361 12.59 10.996 C 13.223 10.63 13.952 10.428 14.71 10.428 C 16.342 10.428 17.667 11.311 18.381 12.547 C 19.095 13.783 19.197 15.373 18.381 16.786 C 18.002 17.443 17.463 17.972 16.829 18.338 C 16.195 18.704 15.467 18.906 14.71 18.906 Z M 5.289 17.022 C 6.196 17.022 6.932 16.531 7.329 15.844 C 7.725 15.157 7.781 14.274 7.328 13.489 C 7.118 13.125 6.819 12.831 6.467 12.628 C 6.115 12.424 5.71 12.312 5.289 12.312 C 4.383 12.312 3.646 12.803 3.25 13.49 C 2.853 14.177 2.796 15.06 3.249 15.844 C 3.46 16.209 3.76 16.504 4.112 16.707 C 4.464 16.91 4.869 17.022 5.289 17.022 Z M 14.71 17.022 C 15.617 17.022 16.353 16.531 16.749 15.844 C 17.145 15.157 17.202 14.274 16.749 13.489 C 16.538 13.125 16.239 12.831 15.887 12.628 C 15.535 12.424 15.13 12.312 14.71 12.312 C 13.803 12.312 13.067 12.803 12.67 13.49 C 12.274 14.177 12.217 15.06 12.67 15.844 C 12.88 16.209 13.18 16.504 13.532 16.707 C 13.885 16.91 14.289 17.022 14.71 17.022 Z" style="stroke-miterlimit: 3;"/>
  <path d="M 5.289 9.562 C 3.657 9.562 2.332 8.679 1.618 7.442 C 0.904 6.206 0.802 4.616 1.618 3.203 C 1.996 2.547 2.536 2.017 3.169 1.651 C 3.803 1.286 4.531 1.084 5.289 1.084 C 6.921 1.084 8.246 1.967 8.96 3.203 C 9.674 4.44 9.776 6.029 8.96 7.442 C 8.582 8.099 8.043 8.628 7.409 8.994 C 6.775 9.36 6.047 9.562 5.289 9.562 Z M 14.71 9.562 C 13.078 9.562 11.752 8.679 11.038 7.442 C 10.324 6.206 10.223 4.616 11.039 3.203 C 11.417 2.547 11.956 2.017 12.59 1.651 C 13.223 1.286 13.952 1.084 14.71 1.084 C 16.342 1.084 17.667 1.967 18.381 3.203 C 19.095 4.44 19.197 6.029 18.381 7.442 C 18.002 8.099 17.463 8.628 16.829 8.994 C 16.195 9.36 15.467 9.562 14.71 9.562 Z M 5.289 7.678 C 6.196 7.678 6.932 7.187 7.329 6.5 C 7.725 5.813 7.781 4.93 7.328 4.145 C 7.118 3.781 6.819 3.487 6.467 3.284 C 6.115 3.08 5.71 2.968 5.289 2.968 C 4.383 2.968 3.646 3.459 3.25 4.146 C 2.853 4.833 2.796 5.716 3.249 6.5 C 3.46 6.865 3.76 7.159 4.112 7.363 C 4.464 7.566 4.869 7.678 5.289 7.678 Z M 14.71 7.678 C 15.617 7.678 16.353 7.187 16.749 6.5 C 17.145 5.813 17.202 4.93 16.749 4.145 C 16.538 3.781 16.239 3.487 15.887 3.284 C 15.535 3.08 15.13 2.968 14.71 2.968 C 13.803 2.968 13.067 3.459 12.67 4.146 C 12.274 4.833 12.217 5.716 12.67 6.5 C 12.88 6.865 13.18 7.159 13.532 7.363 C 13.885 7.566 14.289 7.678 14.71 7.678 Z" style="stroke-miterlimit: 3;"/>
</svg>