<?xml version="1.0" encoding="utf-8"?>
<svg width="20" height="20" viewBox="0 0 20 20" fill="context-fill" fill-opacity="context-fill-opacity" xmlns="http://www.w3.org/2000/svg">
  <path d="M 6.765 17.353 L 9.326 17.353 L 11.887 17.353 L 14.448 17.353 L 17.009 17.353 L 17.009 16.841 L 17.009 16.329 L 17.009 15.817 L 17.009 15.304 L 14.448 15.304 L 11.887 15.304 L 9.326 15.304 L 6.765 15.304 L 6.765 15.817 L 6.765 16.329 L 6.765 16.841 Z M 6.765 11.206 L 8.301 11.206 L 9.838 11.206 L 11.375 11.206 L 12.911 11.206 L 12.911 10.694 L 12.911 10.182 L 12.911 9.67 L 12.911 9.157 L 11.375 9.157 L 9.838 9.157 L 8.301 9.157 L 6.765 9.157 L 6.765 9.67 L 6.765 10.182 L 6.765 10.694 Z M 6.765 3.01 L 6.765 3.522 L 6.765 4.034 L 6.765 4.547 L 6.765 5.059 L 9.839 5.059 L 12.912 5.059 L 15.985 5.059 L 19.058 5.059 L 19.058 4.547 L 19.058 4.034 L 19.058 3.522 L 19.058 3.01 L 15.985 3.01 L 12.912 3.01 L 9.839 3.01 Z M 2.667 2.498 C 2.372 2.498 2.104 2.578 1.877 2.715 C 1.651 2.851 1.466 3.043 1.336 3.267 C 1.207 3.492 1.133 3.748 1.128 4.012 C 1.123 4.276 1.188 4.548 1.336 4.804 C 1.405 4.923 1.488 5.031 1.583 5.125 C 1.678 5.219 1.784 5.3 1.899 5.366 C 2.014 5.433 2.138 5.484 2.267 5.519 C 2.396 5.554 2.531 5.572 2.668 5.572 C 2.964 5.572 3.232 5.492 3.458 5.356 C 3.685 5.22 3.87 5.028 3.999 4.803 C 4.129 4.579 4.203 4.323 4.207 4.059 C 4.212 3.795 4.147 3.523 3.999 3.266 C 3.93 3.148 3.847 3.04 3.752 2.946 C 3.657 2.852 3.55 2.771 3.435 2.704 C 3.321 2.638 3.197 2.586 3.068 2.551 C 2.939 2.516 2.804 2.498 2.667 2.498 Z M 2.667 8.645 C 2.372 8.645 2.104 8.725 1.877 8.861 C 1.651 8.997 1.466 9.189 1.336 9.414 C 1.207 9.638 1.133 9.894 1.128 10.159 C 1.123 10.423 1.188 10.695 1.336 10.951 C 1.405 11.07 1.488 11.178 1.583 11.272 C 1.678 11.366 1.784 11.447 1.899 11.513 C 2.014 11.58 2.138 11.631 2.267 11.666 C 2.396 11.701 2.531 11.719 2.668 11.719 C 2.964 11.719 3.232 11.639 3.458 11.503 C 3.685 11.367 3.87 11.175 3.999 10.95 C 4.129 10.726 4.203 10.47 4.207 10.206 C 4.212 9.942 4.147 9.669 3.999 9.413 C 3.93 9.294 3.847 9.187 3.752 9.093 C 3.657 8.999 3.55 8.917 3.435 8.851 C 3.321 8.784 3.197 8.733 3.068 8.698 C 2.939 8.663 2.804 8.645 2.667 8.645 Z M 2.667 14.792 C 2.372 14.792 2.104 14.872 1.877 15.008 C 1.651 15.144 1.466 15.337 1.336 15.561 C 1.207 15.785 1.133 16.041 1.128 16.305 C 1.123 16.57 1.188 16.842 1.336 17.098 C 1.405 17.217 1.488 17.325 1.583 17.419 C 1.678 17.513 1.784 17.594 1.899 17.66 C 2.014 17.727 2.138 17.778 2.267 17.813 C 2.396 17.848 2.531 17.866 2.668 17.866 C 2.964 17.866 3.232 17.786 3.458 17.65 C 3.685 17.514 3.87 17.322 3.999 17.097 C 4.129 16.873 4.203 16.617 4.207 16.353 C 4.212 16.088 4.147 15.816 3.999 15.56 C 3.93 15.442 3.847 15.334 3.752 15.24 C 3.657 15.146 3.55 15.065 3.435 14.998 C 3.321 14.932 3.197 14.88 3.068 14.845 C 2.939 14.81 2.804 14.792 2.667 14.792 Z" style=""/>
</svg>