<?xml version="1.0" encoding="utf-8"?>
<svg width="20" height="20" viewBox="0 0 20 20" fill="context-fill" fill-opacity="context-fill-opacity" xmlns="http://www.w3.org/2000/svg">
  <path d="M 7.338 5.065 L 6.456 5.065 L 5.573 5.065 L 4.69 5.065 L 3.808 5.065 L 3.808 5.945 L 3.808 6.824 L 3.808 7.703 L 3.808 8.582 L 4.249 8.582 L 4.691 8.582 L 5.132 8.582 L 5.573 8.582 L 5.573 8.143 L 5.573 7.703 L 5.573 7.263 L 5.573 6.823 L 6.014 6.823 L 6.456 6.823 L 6.897 6.823 L 7.338 6.823 M 16.162 8.582 L 15.721 8.582 L 15.279 8.582 L 14.838 8.582 L 14.397 8.582 L 14.397 9.022 L 14.397 9.461 L 14.397 9.901 L 14.397 10.34 L 13.955 10.34 L 13.514 10.34 L 13.073 10.34 L 12.631 10.34 L 12.631 10.78 L 12.631 11.22 L 12.631 11.66 L 12.631 12.099 L 13.514 12.099 L 14.397 12.099 L 15.279 12.099 L 16.162 12.099 M 17.926 13.857 L 13.955 13.857 L 9.985 13.857 L 6.015 13.857 L 2.044 13.857 L 2.044 11.219 L 2.044 8.581 L 2.044 5.943 L 2.044 3.306 L 6.015 3.306 L 9.985 3.306 L 13.955 3.306 L 17.926 3.306 M 17.926 1.548 L 13.955 1.548 L 9.985 1.548 L 6.015 1.548 L 2.044 1.548 C 1.799 1.548 1.566 1.597 1.355 1.686 C 1.144 1.774 0.954 1.902 0.794 2.061 C 0.635 2.22 0.506 2.41 0.417 2.62 C 0.328 2.831 0.279 3.063 0.279 3.306 L 0.279 5.944 L 0.279 8.582 L 0.279 11.22 L 0.279 13.857 C 0.279 14.1 0.328 14.331 0.417 14.542 C 0.506 14.752 0.635 14.942 0.795 15.101 C 0.955 15.261 1.145 15.39 1.356 15.479 C 1.568 15.568 1.8 15.617 2.044 15.617 L 3.588 15.617 L 5.132 15.617 L 6.676 15.617 L 8.22 15.617 L 8.22 16.057 L 8.22 16.496 L 8.22 16.936 L 8.22 17.375 L 7.778 17.375 L 7.337 17.375 L 6.896 17.375 L 6.455 17.375 L 6.455 17.815 L 6.455 18.255 L 6.455 18.695 L 6.455 19.134 L 8.22 19.134 L 9.985 19.134 L 11.75 19.134 L 13.515 19.134 L 13.515 18.695 L 13.515 18.255 L 13.515 17.815 L 13.515 17.375 L 13.073 17.375 L 12.632 17.375 L 12.19 17.375 L 11.749 17.375 L 11.749 16.936 L 11.749 16.496 L 11.749 16.057 L 11.749 15.617 L 13.293 15.617 L 14.838 15.617 L 16.382 15.617 L 17.926 15.617 C 18.17 15.617 18.402 15.568 18.613 15.479 C 18.824 15.39 19.014 15.261 19.174 15.101 C 19.334 14.942 19.463 14.752 19.552 14.542 C 19.642 14.331 19.691 14.1 19.691 13.857 L 19.691 11.219 L 19.691 8.581 L 19.691 5.943 L 19.691 3.306 C 19.691 3.063 19.642 2.832 19.552 2.621 C 19.463 2.411 19.334 2.222 19.174 2.063 C 19.014 1.904 18.824 1.775 18.613 1.686 C 18.402 1.597 18.17 1.548 17.926 1.548" style=""/>
  <path d="M 7.338 5.565 L 4.308 5.565 L 4.308 8.082 L 5.073 8.082 L 5.073 6.323 L 7.338 6.323 L 7.338 7.323 L 6.073 7.323 L 6.073 9.082 L 3.308 9.082 L 3.308 4.565 L 7.338 4.565 Z M 16.162 9.082 L 14.897 9.082 L 14.897 10.84 L 13.131 10.84 L 13.131 11.599 L 16.162 11.599 L 16.162 12.599 L 12.131 12.599 L 12.131 9.84 L 13.897 9.84 L 13.897 8.082 L 16.162 8.082 Z M 17.926 14.357 L 1.544 14.357 L 1.544 2.806 L 17.926 2.806 L 17.926 3.806 L 2.544 3.806 L 2.544 13.357 L 17.926 13.357 Z M 17.926 2.048 L 2.044 2.048 C 1.656 2.026 1.391 2.149 1.147 2.415 C 0.88 2.658 0.757 2.921 0.779 3.306 L 0.779 13.857 C 0.757 14.241 0.881 14.503 1.148 14.747 C 1.394 15.015 1.658 15.139 2.044 15.117 L 8.72 15.117 L 8.72 17.875 L 6.955 17.875 L 6.955 18.634 L 13.015 18.634 L 13.015 17.875 L 11.249 17.875 L 11.249 15.117 L 17.926 15.117 C 18.312 15.139 18.576 15.015 18.82 14.747 C 19.089 14.503 19.213 14.241 19.191 13.857 L 19.191 3.306 C 19.213 2.922 19.09 2.661 18.822 2.418 C 18.577 2.151 18.312 2.026 17.926 2.048 L 17.926 1.048 C 18.516 1.07 19.133 1.34 19.527 1.709 C 19.898 2.102 20.169 2.718 20.191 3.306 L 20.191 13.857 C 20.169 14.445 19.899 15.061 19.527 15.455 C 19.133 15.825 18.516 16.095 17.926 16.117 L 12.249 16.117 L 12.249 16.875 L 14.015 16.875 L 14.015 19.634 L 5.955 19.634 L 5.955 16.875 L 7.72 16.875 L 7.72 16.117 L 2.044 16.117 C 1.454 16.095 0.836 15.825 0.441 15.455 C 0.071 15.061 -0.199 14.445 -0.221 13.857 L -0.221 3.306 C -0.199 2.717 0.071 2.1 0.442 1.706 C 0.835 1.338 1.452 1.07 2.044 1.048 L 17.926 1.048 Z" style="fill: none;"/>
</svg>