<?xml version="1.0" encoding="utf-8"?>
<svg width="20" height="20" viewBox="0 0 20 20" fill="context-fill" fill-opacity="context-fill-opacity" xmlns="http://www.w3.org/2000/svg">
  <path d="M 17.084 7.307 C 17.066 5.354 16.265 3.589 14.979 2.313 C 13.693 1.038 11.923 0.25 9.965 0.25 C 8.007 0.25 6.236 1.038 4.951 2.313 C 3.665 3.589 2.864 5.354 2.846 7.307 L 2.846 9.977 L 2.846 12.646 C 2.846 14.613 3.643 16.392 4.931 17.68 C 6.219 18.969 7.999 19.765 9.965 19.765 C 11.932 19.765 13.711 18.969 14.999 17.68 C 16.288 16.392 17.084 14.613 17.084 12.646 L 17.084 9.977 Z M 15.304 7.307 L 13.08 7.307 L 10.855 7.307 L 10.855 4.709 L 10.855 2.11 C 12.105 2.319 13.208 2.964 14.004 3.884 C 14.799 4.804 15.286 5.999 15.304 7.307 Z M 9.075 2.11 L 9.075 4.709 L 9.075 7.307 L 6.85 7.307 L 4.626 7.307 C 4.643 6.018 5.12 4.826 5.91 3.903 C 6.7 2.98 7.804 2.326 9.075 2.11 Z M 15.304 12.646 C 15.304 14.119 14.706 15.453 13.739 16.42 C 12.772 17.386 11.438 17.985 9.965 17.985 C 8.492 17.985 7.157 17.386 6.191 16.42 C 5.224 15.453 4.626 14.119 4.626 12.646 L 4.626 10.866 L 4.626 9.086 L 9.965 9.086 L 15.304 9.086 L 15.304 10.866 Z" style="stroke-width: 0px;"/>
</svg>