<?xml version="1.0" encoding="utf-8"?>
<svg width="20" height="20" viewBox="0 0 20 20" fill="context-fill" fill-opacity="context-fill-opacity" xmlns="http://www.w3.org/2000/svg">
  <path d="M 7.264 8.789 L 8.631 8.789 L 8.631 10.156 L 7.264 10.156 L 7.264 8.789 Z" style=""/>
  <path d="M 4.713 15.985 L 4.713 14.136 L 4.713 12.287 L 4.713 10.438 L 4.713 8.589 C 4.721 8.426 4.745 8.258 4.783 8.092 C 4.821 7.925 4.874 7.76 4.938 7.603 C 5.003 7.445 5.08 7.295 5.167 7.157 C 5.254 7.02 5.352 6.895 5.457 6.79 C 5.563 6.684 5.687 6.587 5.824 6.5 C 5.961 6.413 6.111 6.336 6.269 6.272 C 6.427 6.207 6.592 6.154 6.758 6.116 C 6.925 6.077 7.092 6.053 7.255 6.046 L 9.798 6.046 L 12.34 6.046 L 14.883 6.046 L 17.426 6.046 C 17.589 6.053 17.757 6.077 17.923 6.116 C 18.089 6.154 18.254 6.207 18.411 6.272 C 18.569 6.336 18.719 6.413 18.857 6.5 C 18.994 6.587 19.119 6.684 19.224 6.79 C 19.33 6.895 19.427 7.02 19.514 7.157 C 19.601 7.295 19.678 7.445 19.743 7.603 C 19.807 7.76 19.86 7.925 19.898 8.091 C 19.936 8.258 19.96 8.425 19.968 8.589 L 19.968 10.438 L 19.968 12.287 L 19.968 14.136 L 19.968 15.985 C 19.96 16.148 19.936 16.316 19.898 16.482 C 19.86 16.648 19.807 16.813 19.743 16.971 C 19.678 17.129 19.601 17.279 19.514 17.416 C 19.427 17.554 19.33 17.678 19.224 17.784 C 19.119 17.89 18.994 17.987 18.857 18.074 C 18.719 18.161 18.569 18.238 18.411 18.302 C 18.254 18.367 18.089 18.42 17.923 18.458 C 17.756 18.496 17.589 18.52 17.426 18.528 L 14.883 18.528 L 12.34 18.528 L 9.797 18.528 L 7.255 18.528 C 7.091 18.521 6.924 18.497 6.757 18.458 C 6.591 18.42 6.426 18.367 6.269 18.302 C 6.111 18.238 5.961 18.161 5.824 18.074 C 5.687 17.987 5.562 17.89 5.457 17.784 C 5.351 17.678 5.254 17.554 5.167 17.416 C 5.079 17.279 5.002 17.129 4.938 16.971 C 4.873 16.814 4.82 16.649 4.782 16.482 C 4.744 16.316 4.72 16.148 4.713 15.985 Z M 6.438 16.803 C 6.5 16.865 6.559 16.919 6.618 16.965 C 6.678 17.01 6.737 17.048 6.801 17.076 C 6.865 17.105 6.932 17.125 7.007 17.136 C 7.081 17.147 7.163 17.149 7.255 17.141 L 9.798 17.141 L 12.341 17.141 L 14.883 17.141 L 17.426 17.141 C 17.518 17.149 17.6 17.147 17.674 17.136 C 17.749 17.125 17.816 17.105 17.88 17.076 C 17.944 17.048 18.003 17.01 18.063 16.965 C 18.122 16.919 18.181 16.865 18.243 16.803 C 18.305 16.741 18.359 16.682 18.405 16.623 C 18.45 16.563 18.487 16.503 18.516 16.439 C 18.545 16.376 18.565 16.308 18.576 16.234 C 18.587 16.159 18.589 16.078 18.581 15.985 L 18.581 14.136 L 18.581 12.287 L 18.581 10.438 L 18.581 8.589 C 18.589 8.497 18.587 8.415 18.576 8.34 C 18.565 8.266 18.545 8.199 18.516 8.135 C 18.487 8.071 18.45 8.011 18.405 7.952 C 18.359 7.892 18.305 7.833 18.243 7.771 C 18.181 7.71 18.122 7.656 18.063 7.61 C 18.003 7.565 17.944 7.527 17.88 7.498 C 17.816 7.47 17.749 7.45 17.674 7.439 C 17.6 7.428 17.518 7.426 17.426 7.433 L 14.883 7.433 L 12.341 7.433 L 9.798 7.433 L 7.255 7.433 C 7.163 7.426 7.081 7.428 7.007 7.439 C 6.932 7.45 6.864 7.47 6.801 7.498 C 6.737 7.527 6.678 7.565 6.618 7.61 C 6.559 7.656 6.5 7.71 6.438 7.771 C 6.376 7.833 6.322 7.892 6.277 7.952 C 6.231 8.011 6.193 8.071 6.165 8.135 C 6.136 8.199 6.116 8.266 6.105 8.34 C 6.094 8.415 6.092 8.497 6.1 8.589 L 6.1 10.438 L 6.1 12.287 L 6.1 14.136 L 6.1 15.985 C 6.092 16.078 6.094 16.159 6.105 16.234 C 6.116 16.308 6.136 16.376 6.165 16.439 C 6.193 16.503 6.231 16.563 6.277 16.623 C 6.322 16.682 6.376 16.741 6.438 16.803 Z" style="" stroke-width="1.5"/>
  <path d="M 4.944 13.905 L 4.366 13.905 L 3.788 13.905 L 3.21 13.905 L 2.632 13.905 C 2.469 13.897 2.301 13.874 2.135 13.835 C 1.969 13.797 1.804 13.745 1.647 13.68 C 1.489 13.615 1.339 13.538 1.201 13.451 C 1.064 13.364 0.939 13.267 0.834 13.161 C 0.728 13.055 0.631 12.931 0.544 12.793 C 0.456 12.656 0.379 12.506 0.315 12.348 C 0.25 12.191 0.197 12.026 0.159 11.86 C 0.121 11.694 0.097 11.526 0.09 11.363 L 0.09 9.514 L 0.09 7.664 L 0.09 5.815 L 0.09 3.966 C 0.097 3.803 0.121 3.635 0.159 3.469 C 0.197 3.302 0.25 3.138 0.315 2.98 C 0.379 2.823 0.456 2.672 0.544 2.535 C 0.631 2.398 0.728 2.274 0.834 2.168 C 0.939 2.063 1.064 1.965 1.201 1.878 C 1.339 1.791 1.489 1.714 1.647 1.649 C 1.804 1.584 1.969 1.531 2.135 1.493 C 2.301 1.455 2.469 1.431 2.632 1.423 L 5.174 1.423 L 7.717 1.423 L 10.26 1.423 L 12.803 1.423 C 12.966 1.431 13.133 1.455 13.3 1.493 C 13.466 1.531 13.63 1.584 13.788 1.649 C 13.945 1.714 14.096 1.791 14.233 1.878 C 14.371 1.965 14.495 2.063 14.601 2.168 C 14.706 2.274 14.804 2.398 14.891 2.535 C 14.978 2.672 15.055 2.823 15.12 2.98 C 15.185 3.138 15.237 3.303 15.276 3.469 C 15.314 3.635 15.337 3.803 15.345 3.966 L 15.345 4.66 L 15.345 5.353 L 15.345 6.047 L 15.345 6.74 L 14.998 6.74 L 14.651 6.74 L 14.304 6.74 L 13.958 6.74 L 13.958 6.047 L 13.958 5.353 L 13.958 4.66 L 13.958 3.966 C 13.965 3.874 13.964 3.792 13.953 3.718 C 13.942 3.643 13.922 3.576 13.893 3.512 C 13.864 3.449 13.827 3.389 13.781 3.329 C 13.735 3.27 13.681 3.211 13.62 3.149 C 13.558 3.088 13.499 3.034 13.44 2.988 C 13.38 2.942 13.32 2.905 13.257 2.876 C 13.194 2.847 13.126 2.827 13.051 2.816 C 12.977 2.805 12.895 2.803 12.803 2.81 L 10.261 2.81 L 7.718 2.81 L 5.175 2.81 L 2.632 2.81 C 2.54 2.803 2.458 2.805 2.384 2.816 C 2.309 2.827 2.242 2.847 2.178 2.876 C 2.115 2.905 2.055 2.942 1.995 2.987 C 1.936 3.033 1.877 3.087 1.815 3.149 C 1.754 3.211 1.7 3.269 1.654 3.329 C 1.608 3.388 1.571 3.448 1.542 3.512 C 1.513 3.576 1.493 3.643 1.482 3.717 C 1.471 3.792 1.47 3.874 1.477 3.966 L 1.477 5.815 L 1.477 7.664 L 1.477 9.514 L 1.477 11.363 C 1.47 11.455 1.471 11.537 1.482 11.611 C 1.493 11.686 1.513 11.753 1.542 11.817 C 1.571 11.881 1.608 11.94 1.654 12 C 1.7 12.059 1.754 12.118 1.815 12.18 C 1.877 12.242 1.936 12.296 1.995 12.342 C 2.055 12.387 2.115 12.424 2.178 12.453 C 2.242 12.482 2.309 12.502 2.384 12.513 C 2.458 12.524 2.54 12.526 2.632 12.518 L 3.21 12.518 L 3.788 12.518 L 4.366 12.518 L 4.944 12.518 L 4.944 12.865 L 4.944 13.212 L 4.944 13.558 Z" style="" stroke-width="1.5"/>
  <path d="M 9.097 8.789 L 10.464 8.789 L 10.464 10.156 L 9.097 10.156 L 9.097 8.789 Z" style=""/>
  <path d="M 10.98 8.789 L 12.347 8.789 L 12.347 10.156 L 10.98 10.156 L 10.98 8.789 Z" style=""/>
  <path d="M 2.601 3.804 L 3.968 3.804 L 3.968 5.171 L 2.601 5.171 L 2.601 3.804 Z" style=""/>
  <path d="M 4.434 3.804 L 5.801 3.804 L 5.801 5.171 L 4.434 5.171 L 4.434 3.804 Z" style=""/>
  <path d="M 6.317 3.804 L 7.684 3.804 L 7.684 5.171 L 6.317 5.171 L 6.317 3.804 Z" style=""/>
</svg>