<?xml version="1.0" encoding="utf-8"?>
<svg width="20" height="20" viewBox="0 0 20 20" fill="context-fill" fill-opacity="context-fill-opacity" xmlns="http://www.w3.org/2000/svg">
  <path d="M 13.394 17.952 C 16.45 16.612 18.591 13.699 18.591 10.154 C 18.591 6.61 16.45 3.698 13.394 2.357 L 13.394 4.09 C 15.462 5.29 16.859 7.596 16.859 10.154 C 16.859 12.713 15.462 15.018 13.394 16.219 L 13.394 17.952 Z" style="stroke-width: 0px;"/>
  <path d="M 13.394 5.823 L 13.394 14.487 C 14.456 13.533 15.127 11.689 15.127 10.154 C 15.127 8.621 14.456 6.776 13.394 5.823 Z M 2.998 14.487 L 5.335 14.487 L 10.314 17.807 C 10.581 17.983 10.921 17.999 11.204 17.85 C 11.486 17.698 11.662 17.404 11.662 17.086 L 11.662 3.224 C 11.662 2.556 10.939 2.14 10.362 2.473 C 10.346 2.483 10.33 2.493 10.315 2.503 L 5.335 5.823 L 2.998 5.823 C 2.042 5.823 1.265 6.6 1.265 7.555 L 1.265 12.754 C 1.265 13.709 2.042 14.487 2.998 14.487 Z M 2.998 7.555 L 5.597 7.555 C 5.625 7.555 5.649 7.541 5.677 7.539 C 5.793 7.527 5.905 7.493 6.007 7.439 C 6.029 7.426 6.056 7.424 6.078 7.41 L 9.929 4.842 L 9.929 15.467 L 6.078 12.899 C 6.056 12.885 6.029 12.882 6.007 12.871 C 5.905 12.814 5.792 12.781 5.676 12.77 C 5.648 12.768 5.624 12.754 5.597 12.754 L 2.998 12.754 L 2.998 7.555 Z" style="stroke-width: 0px;"/>
</svg>