<?xml version="1.0" encoding="utf-8"?>
<svg width="20" height="20" viewBox="0 0 20 20" fill="context-fill" fill-opacity="context-fill-opacity" xmlns="http://www.w3.org/2000/svg">
  <path d="M 0.802 4.101 C 0.802 3.388 1.092 2.74 1.559 2.272 C 2.027 1.805 2.674 1.515 3.388 1.515 L 9.266 1.515 L 15.145 1.515 C 15.859 1.515 16.505 1.805 16.974 2.272 C 17.441 2.74 17.731 3.388 17.731 4.101 L 17.731 7.095 L 17.698 9.338 C 17.48 9.189 17.251 9.055 17.016 8.937 C 16.78 8.818 16.537 8.716 16.287 8.629 L 16.32 6.74 L 16.32 4.101 C 16.32 3.777 16.189 3.483 15.976 3.27 C 15.763 3.057 15.469 2.926 15.145 2.926 L 9.266 2.926 L 3.388 2.926 C 3.064 2.926 2.77 3.057 2.557 3.27 C 2.344 3.483 2.213 3.777 2.213 4.101 L 2.18 9.229 L 2.18 15.108 C 2.18 15.432 2.311 15.726 2.524 15.939 C 2.737 16.152 3.031 16.283 3.355 16.283 L 5.905 16.283 L 8.454 16.283 C 8.536 16.534 8.633 16.778 8.743 17.014 C 8.854 17.249 8.981 17.477 9.121 17.694 L 6.238 17.694 L 3.355 17.694 C 2.642 17.694 1.994 17.404 1.526 16.936 C 1.059 16.468 0.769 15.821 0.769 15.108 L 0.769 9.229 L 0.802 4.101 Z" style=""/>
  <path d="M 19.444 14.402 C 19.444 12.411 18.367 10.794 16.858 9.923 C 15.35 9.052 13.41 8.928 11.685 9.923 C 10.885 10.384 10.238 11.043 9.792 11.816 C 9.345 12.589 9.099 13.479 9.099 14.402 C 9.099 16.393 10.177 18.011 11.685 18.882 C 13.194 19.753 15.133 19.878 16.858 18.882 C 17.658 18.42 18.305 17.762 18.751 16.989 C 19.198 16.216 19.444 15.327 19.444 14.402 Z M 14.743 14.872 L 14.743 16.05 L 14.743 17.227 C 14.743 17.408 14.645 17.555 14.508 17.634 C 14.37 17.713 14.194 17.724 14.038 17.634 C 13.964 17.591 13.906 17.531 13.865 17.462 C 13.825 17.391 13.802 17.31 13.802 17.227 L 13.802 16.05 L 13.802 14.872 L 12.625 14.872 L 11.447 14.872 C 11.266 14.872 11.119 14.775 11.04 14.637 C 10.96 14.5 10.949 14.323 11.04 14.167 C 11.082 14.095 11.142 14.035 11.212 13.995 C 11.282 13.955 11.363 13.932 11.447 13.932 L 12.624 13.932 L 13.801 13.932 L 13.801 12.756 L 13.801 11.581 C 13.801 11.4 13.899 11.252 14.037 11.173 C 14.174 11.094 14.351 11.083 14.507 11.173 C 14.579 11.216 14.639 11.275 14.679 11.346 C 14.719 11.416 14.742 11.497 14.742 11.581 L 14.742 12.756 L 14.742 13.932 L 15.919 13.932 L 17.096 13.932 C 17.277 13.932 17.424 14.03 17.503 14.167 C 17.582 14.304 17.594 14.48 17.503 14.637 C 17.461 14.71 17.402 14.769 17.331 14.809 C 17.261 14.85 17.18 14.872 17.096 14.872 L 15.919 14.872 L 14.742 14.872 L 14.742 14.872 Z" style=""/>
</svg>