<?xml version="1.0" encoding="utf-8"?>
<svg width="20" height="20" viewBox="0 0 20 20" fill="context-fill" fill-opacity="context-fill-opacity" xmlns="http://www.w3.org/2000/svg">
  <path d="M 10.172 0.347 C 10.343 0.347 10.498 0.416 10.61 0.528 C 10.722 0.64 10.791 0.795 10.791 0.965 L 10.791 1.481 L 10.791 1.997 L 12.338 1.997 L 13.885 1.997 L 13.885 1.481 L 13.885 0.965 C 13.885 0.727 14.014 0.534 14.194 0.429 C 14.375 0.325 14.607 0.311 14.813 0.43 C 14.909 0.485 14.986 0.564 15.039 0.656 C 15.093 0.748 15.122 0.855 15.122 0.965 L 15.122 1.481 L 15.122 1.997 L 15.432 1.997 L 15.741 1.997 C 16.254 1.997 16.718 2.205 17.053 2.541 C 17.389 2.877 17.597 3.341 17.597 3.853 L 17.597 9.214 L 17.597 14.574 C 17.597 14.656 17.581 14.736 17.55 14.811 C 17.519 14.885 17.474 14.953 17.416 15.011 L 15.146 17.282 L 12.875 19.552 C 12.817 19.61 12.749 19.655 12.675 19.686 C 12.6 19.717 12.52 19.733 12.438 19.733 L 8.315 19.733 L 4.191 19.733 C 3.679 19.733 3.215 19.525 2.879 19.189 C 2.543 18.854 2.335 18.39 2.335 17.877 L 2.335 10.865 L 2.335 3.853 C 2.335 3.341 2.543 2.877 2.879 2.541 C 3.215 2.205 3.679 1.997 4.191 1.997 L 4.707 1.997 L 5.223 1.997 L 5.223 1.481 L 5.223 0.965 C 5.223 0.727 5.352 0.534 5.532 0.429 C 5.713 0.325 5.945 0.311 6.151 0.43 C 6.247 0.485 6.324 0.564 6.377 0.656 C 6.431 0.748 6.46 0.855 6.46 0.965 L 6.46 1.481 L 6.46 1.997 L 8.007 1.997 L 9.554 1.997 L 9.554 1.481 L 9.554 0.965 C 9.554 0.795 9.623 0.64 9.735 0.528 C 9.847 0.416 10.002 0.347 10.172 0.347 Z M 3.573 3.853 L 3.573 10.865 L 3.573 17.877 C 3.573 18.048 3.642 18.203 3.754 18.315 C 3.866 18.427 4.021 18.496 4.191 18.496 L 8.005 18.496 L 11.819 18.496 L 11.819 17.153 L 11.819 15.811 C 11.819 15.298 12.027 14.834 12.363 14.499 C 12.699 14.163 13.163 13.955 13.675 13.955 L 15.017 13.955 L 16.36 13.955 L 16.36 8.904 L 16.36 3.853 C 16.36 3.682 16.291 3.527 16.179 3.415 C 16.067 3.303 15.912 3.234 15.741 3.234 L 9.966 3.234 L 4.191 3.234 C 4.021 3.234 3.866 3.303 3.754 3.415 C 3.642 3.527 3.573 3.682 3.573 3.853 Z M 13.675 15.193 C 13.504 15.193 13.349 15.262 13.237 15.374 C 13.125 15.486 13.056 15.641 13.056 15.811 L 13.056 16.716 L 13.056 17.621 L 14.27 16.407 L 15.484 15.193 L 14.58 15.193 Z" style=""/>
  <path d="M 5.223 6.772 L 7.595 6.772 L 9.967 6.772 L 12.339 6.772 L 14.711 6.772 L 14.711 7.02 L 14.711 7.268 L 14.711 7.516 L 14.711 7.763 L 12.339 7.763 L 9.967 7.763 L 7.595 7.763 L 5.223 7.763 L 5.223 7.516 L 5.223 7.268 L 5.223 7.02 Z" style="stroke-width: 0px; stroke-miterlimit: 1;"/>
  <path d="M 15.211 6.272 L 15.211 8.263 L 4.723 8.263 L 4.723 6.272 Z M 14.211 7.272 L 14.211 7.263 L 5.723 7.263 L 5.723 7.272 Z" style="fill: none;"/>
  <path d="M 5.223 10.305 L 7.595 10.305 L 9.967 10.305 L 12.339 10.305 L 14.711 10.305 L 14.711 10.553 L 14.711 10.801 L 14.711 11.048 L 14.711 11.296 L 12.339 11.296 L 9.967 11.296 L 7.595 11.296 L 5.223 11.296 L 5.223 11.048 L 5.223 10.801 L 5.223 10.553 Z" style="stroke-width: 0px;"/>
  <path d="M 15.211 9.805 L 15.211 11.796 L 4.723 11.796 L 4.723 9.805 Z M 14.211 10.805 L 14.211 10.796 L 5.723 10.796 L 5.723 10.805 Z" style="fill: none;"/>
  <path d="M 5.223 13.788 L 6.616 13.788 L 8.009 13.788 L 9.402 13.788 L 10.794 13.788 L 10.794 14.036 L 10.794 14.284 L 10.794 14.532 L 10.794 14.779 L 9.402 14.779 L 8.009 14.779 L 6.616 14.779 L 5.223 14.779 L 5.223 14.532 L 5.223 14.284 L 5.223 14.036 Z" style="stroke-width: 0px;"/>
  <path d="M 11.294 13.288 L 11.294 15.279 L 4.723 15.279 L 4.723 13.288 Z M 10.294 14.288 L 10.294 14.279 L 5.723 14.279 L 5.723 14.288 Z" style="fill: none;"/>
</svg>