<?xml version="1.0" encoding="utf-8"?>
<svg width="20" height="20" viewBox="0 0 20 20" fill="context-fill" fill-opacity="context-fill-opacity" xmlns="http://www.w3.org/2000/svg">
  <path d="M 18.031 9.704 C 18.031 9.642 18.025 9.581 18.013 9.521 C 18.001 9.461 17.983 9.403 17.96 9.347 C 17.937 9.291 17.908 9.238 17.875 9.187 C 17.841 9.137 17.802 9.089 17.758 9.045 L 15.673 6.96 L 13.587 4.874 L 11.502 2.789 L 9.416 0.703 C 9.326 0.612 9.221 0.544 9.108 0.498 C 8.996 0.453 8.877 0.43 8.758 0.43 C 8.639 0.43 8.52 0.453 8.408 0.498 C 8.295 0.544 8.19 0.612 8.099 0.703 L 7.376 1.426 L 6.653 2.148 L 5.93 2.871 L 5.207 3.594 L 4.754 3.14 L 4.3 2.686 L 3.846 2.233 L 3.392 1.779 C 3.265 1.652 3.116 1.572 2.96 1.533 C 2.805 1.494 2.644 1.498 2.492 1.538 C 2.341 1.579 2.199 1.657 2.084 1.768 C 1.969 1.879 1.88 2.024 1.833 2.197 C 1.812 2.277 1.801 2.359 1.802 2.44 C 1.802 2.521 1.813 2.601 1.833 2.679 C 1.854 2.757 1.885 2.831 1.926 2.901 C 1.966 2.972 2.016 3.037 2.075 3.096 L 2.529 3.55 L 2.983 4.003 L 3.437 4.457 L 3.89 4.911 L 3.077 5.725 L 2.263 6.539 L 1.449 7.353 L 0.635 8.167 C 0.424 8.379 0.265 8.624 0.159 8.886 C 0.053 9.147 0 9.425 0 9.703 C 0 9.981 0.053 10.259 0.159 10.521 C 0.265 10.782 0.424 11.028 0.635 11.24 L 2.282 12.887 L 3.929 14.533 L 5.576 16.18 L 7.222 17.826 C 7.434 18.038 7.679 18.197 7.941 18.304 C 8.202 18.41 8.48 18.463 8.758 18.463 C 9.036 18.463 9.314 18.41 9.576 18.304 C 9.838 18.197 10.083 18.038 10.295 17.826 L 12.161 15.96 L 14.027 14.094 L 15.893 12.228 L 17.758 10.362 C 17.802 10.318 17.841 10.271 17.875 10.22 C 17.909 10.17 17.937 10.116 17.96 10.06 C 17.984 10.004 18.001 9.946 18.013 9.886 C 18.025 9.827 18.031 9.766 18.031 9.704 Z M 8.978 16.509 C 8.948 16.54 8.913 16.562 8.875 16.577 C 8.838 16.593 8.798 16.6 8.758 16.6 C 8.719 16.6 8.679 16.593 8.641 16.577 C 8.604 16.562 8.569 16.54 8.539 16.509 L 6.893 14.863 L 5.246 13.216 L 3.599 11.57 L 1.952 9.923 C 1.922 9.893 1.899 9.858 1.884 9.821 C 1.869 9.783 1.861 9.744 1.861 9.704 C 1.861 9.664 1.869 9.624 1.884 9.587 C 1.899 9.55 1.922 9.515 1.952 9.484 L 2.766 8.671 L 3.58 7.857 L 4.394 7.043 L 5.207 6.229 L 5.63 6.652 L 6.053 7.074 L 6.476 7.497 L 6.898 7.919 C 6.667 8.405 6.588 8.907 6.635 9.385 C 6.681 9.863 6.852 10.317 7.118 10.704 C 7.385 11.092 7.747 11.414 8.177 11.628 C 8.608 11.843 9.105 11.95 9.641 11.907 C 9.807 11.894 9.97 11.866 10.128 11.825 C 10.287 11.783 10.442 11.728 10.59 11.659 C 10.739 11.591 10.881 11.509 11.016 11.416 C 11.151 11.322 11.278 11.217 11.395 11.099 C 11.776 10.719 12.017 10.272 12.133 9.805 C 12.25 9.339 12.24 8.855 12.118 8.4 C 11.997 7.946 11.762 7.521 11.429 7.176 C 11.095 6.83 10.662 6.564 10.142 6.424 C 9.982 6.381 9.818 6.353 9.654 6.339 C 9.491 6.325 9.326 6.326 9.163 6.341 C 9 6.356 8.838 6.386 8.68 6.429 C 8.521 6.473 8.366 6.531 8.215 6.602 L 7.793 6.18 L 7.37 5.757 L 6.948 5.334 L 6.525 4.911 L 7.083 4.353 L 7.641 3.795 L 8.199 3.237 L 8.757 2.679 L 10.514 4.436 L 12.27 6.192 L 14.026 7.948 L 15.783 9.704 L 14.082 11.406 L 12.381 13.107 L 10.679 14.808 Z M 9.419 8.192 C 9.599 8.192 9.761 8.241 9.898 8.323 C 10.035 8.406 10.147 8.522 10.225 8.658 C 10.303 8.794 10.348 8.949 10.351 9.109 C 10.354 9.269 10.314 9.434 10.224 9.589 C 10.134 9.744 10.011 9.86 9.871 9.938 C 9.731 10.015 9.574 10.054 9.417 10.053 C 9.26 10.053 9.104 10.014 8.964 9.937 C 8.824 9.859 8.701 9.743 8.612 9.588 C 8.559 9.497 8.524 9.399 8.504 9.3 C 8.485 9.201 8.482 9.1 8.496 9.001 C 8.509 8.902 8.538 8.805 8.582 8.714 C 8.627 8.624 8.686 8.539 8.761 8.465 C 8.804 8.421 8.852 8.382 8.903 8.348 C 8.953 8.314 9.007 8.285 9.063 8.262 C 9.119 8.239 9.177 8.221 9.237 8.209 C 9.297 8.197 9.358 8.191 9.419 8.191 L 9.419 8.192 Z M 17.839 13.122 C 17.748 13.031 17.643 12.963 17.531 12.917 C 17.419 12.871 17.3 12.848 17.18 12.848 C 17.061 12.848 16.942 12.871 16.83 12.917 C 16.718 12.963 16.613 13.031 16.521 13.122 C 16.475 13.169 16.337 13.309 16.158 13.524 C 15.978 13.738 15.756 14.026 15.539 14.367 C 15.323 14.708 15.113 15.101 14.956 15.528 C 14.8 15.954 14.697 16.413 14.697 16.884 C 14.697 17.362 14.826 17.795 15.046 18.161 C 15.266 18.527 15.577 18.826 15.939 19.035 C 16.301 19.244 16.715 19.364 17.142 19.371 C 17.568 19.379 18.008 19.274 18.422 19.035 C 18.614 18.924 18.788 18.79 18.94 18.636 C 19.093 18.483 19.224 18.312 19.331 18.126 C 19.439 17.941 19.522 17.741 19.578 17.532 C 19.635 17.324 19.664 17.106 19.664 16.884 C 19.664 16.414 19.562 15.955 19.405 15.528 C 19.249 15.102 19.038 14.708 18.822 14.367 C 18.606 14.026 18.383 13.738 18.203 13.524 C 18.024 13.309 17.886 13.169 17.839 13.122 Z M 17.18 17.505 C 17.095 17.505 17.013 17.488 16.939 17.456 C 16.865 17.425 16.798 17.379 16.741 17.323 C 16.685 17.267 16.64 17.2 16.608 17.126 C 16.577 17.052 16.559 16.97 16.559 16.884 C 16.559 16.75 16.578 16.612 16.611 16.472 C 16.644 16.333 16.691 16.192 16.748 16.054 C 16.806 15.915 16.873 15.778 16.946 15.645 C 17.02 15.512 17.099 15.384 17.179 15.263 C 17.26 15.384 17.339 15.512 17.412 15.645 C 17.486 15.778 17.554 15.915 17.611 16.054 C 17.669 16.193 17.716 16.334 17.749 16.473 C 17.782 16.613 17.801 16.751 17.801 16.884 C 17.801 16.97 17.783 17.052 17.752 17.126 C 17.72 17.2 17.675 17.267 17.619 17.323 C 17.563 17.38 17.496 17.425 17.422 17.456 C 17.348 17.488 17.266 17.505 17.18 17.505 Z" style=""/>
</svg>