<?xml version="1.0" encoding="utf-8"?>
<svg width="20" height="20" viewBox="0 0 20 20" fill="context-fill" fill-opacity="context-fill-opacity" xmlns="http://www.w3.org/2000/svg">
  <path fill="context-fill" fill-opacity="context-fill-opacity" d="M 14.366 1.699 L 6.366 1.699 C 5.261 1.699 4.366 2.594 4.366 3.699 L 4.366 5.699 C 4.366 6.251 4.813 6.699 5.366 6.699 C 5.918 6.699 6.146 6.255 6.146 5.703 L 6.234 3.846 C 6.234 3.57 6.458 3.346 6.734 3.346 L 14.219 3.346 C 14.495 3.346 14.719 3.57 14.719 3.846 L 14.806 15.081 C 14.806 15.357 14.582 15.581 14.306 15.581 L 6.514 15.586 C 6.238 15.586 6.014 15.362 6.014 15.086 L 5.926 12.704 C 5.926 12.152 5.918 11.699 5.366 11.699 C 4.813 11.699 4.366 12.147 4.366 12.699 L 4.366 15.699 C 4.366 16.804 5.261 17.699 6.366 17.699 L 14.366 17.699 C 15.47 17.699 16.366 16.804 16.366 15.699 L 16.366 3.699 C 16.366 2.594 15.47 1.699 14.366 1.699 Z M 11.366 16.875 L 9.366 16.875 L 9.366 16.14 L 11.366 16.14 L 11.366 16.875 Z"/>
  <path fill="context-fill" fill-opacity="context-fill-opacity" d="M 7.512 11.845 C 7.235 12.112 7.351 12.579 7.721 12.685 C 7.899 12.736 8.09 12.685 8.219 12.552 L 11.219 9.552 C 11.415 9.357 11.415 9.039 11.219 8.844 L 8.219 5.844 C 7.942 5.577 7.479 5.709 7.386 6.083 C 7.344 6.25 7.392 6.427 7.512 6.551 L 9.659 8.699 L 2.866 8.699 C 2.481 8.699 2.24 9.116 2.433 9.449 C 2.522 9.604 2.687 9.699 2.866 9.699 L 9.659 9.699 Z"/>
</svg>