<?xml version="1.0" encoding="utf-8"?>
<svg width="20" height="20" viewBox="0 0 20 20" fill="context-fill" fill-opacity="context-fill-opacity" xmlns="http://www.w3.org/2000/svg">
  <path d="M 9.833 20.051 C 8.733 20.051 7.586 19.807 6.635 19.405 C 5.683 19.002 4.743 18.365 4.024 17.645 C 3.305 16.926 2.676 15.983 2.263 15.035 C 1.869 14.081 1.617 12.937 1.617 11.836 C 1.617 10.947 1.811 10.024 2.093 9.235 C 2.387 8.45 2.814 7.659 3.277 6.963 C 3.743 6.271 4.287 5.59 4.832 4.963 C 5.376 4.336 5.944 3.731 6.478 3.154 L 7.133 2.449 L 7.789 1.744 L 8.444 1.037 L 9.834 -0.458 L 11.221 1.038 L 11.877 1.744 L 12.532 2.449 L 13.189 3.156 C 13.723 3.733 14.29 4.337 14.834 4.963 C 15.378 5.59 15.925 6.27 16.389 6.964 C 16.854 7.66 17.279 8.451 17.572 9.235 C 17.855 10.024 18.049 10.946 18.049 11.836 C 18.049 12.936 17.796 14.081 17.403 15.035 C 16.99 15.984 16.361 16.926 15.642 17.645 C 14.923 18.365 13.983 19.002 13.031 19.405 C 12.08 19.807 10.933 20.051 9.833 20.051 Z M 12.251 17.563 C 13.025 17.236 13.641 16.817 14.228 16.231 C 14.815 15.644 15.242 15.032 15.561 14.255 C 15.897 13.482 16.049 12.728 16.049 11.836 C 16.049 11.146 15.937 10.568 15.694 9.923 C 15.463 9.274 15.142 8.696 14.727 8.076 C 14.311 7.454 13.844 6.872 13.324 6.275 C 12.806 5.678 12.261 5.098 11.722 4.515 L 11.067 3.811 L 10.411 3.104 L 9.833 2.482 L 9.255 3.104 L 8.599 3.811 L 7.944 4.515 C 7.405 5.097 6.86 5.676 6.342 6.273 C 5.823 6.87 5.354 7.453 4.939 8.075 C 4.522 8.694 4.204 9.272 3.971 9.923 C 3.729 10.568 3.617 11.147 3.617 11.836 C 3.617 12.729 3.768 13.483 4.105 14.255 C 4.424 15.032 4.851 15.644 5.438 16.231 C 6.025 16.817 6.641 17.236 7.415 17.563 C 8.19 17.891 8.941 18.051 9.833 18.051 C 10.725 18.051 11.476 17.891 12.251 17.563 Z" style=""/>
</svg>