<?xml version="1.0" encoding="utf-8"?>
<svg width="20" height="20" viewBox="0 0 20 20" fill="context-fill" fill-opacity="context-fill-opacity" xmlns="http://www.w3.org/2000/svg">
  <path d="M 14.042 1.901 C 13.437 1.296 12.625 1.068 11.862 1.179 C 11.099 1.29 10.386 1.741 9.978 2.494 L 8.675 4.906 L 7.371 7.318 L 5.382 8.111 L 3.392 8.905 C 3.108 9.018 2.928 9.259 2.872 9.525 C 2.817 9.792 2.887 10.084 3.103 10.302 L 4.51 11.707 L 5.916 13.112 L 4.084 14.944 L 2.252 16.777 L 2.126 17.506 L 2 18.236 L 2.73 18.111 L 3.459 17.986 L 5.292 16.153 L 7.124 14.32 L 8.529 15.726 L 9.933 17.133 C 10.15 17.35 10.443 17.42 10.71 17.366 C 10.977 17.311 11.218 17.131 11.331 16.845 L 12.128 14.854 L 12.924 12.862 L 15.333 11.559 L 17.741 10.256 C 18.495 9.85 18.946 9.137 19.057 8.374 C 19.169 7.611 18.94 6.799 18.333 6.193 L 16.188 4.047 Z M 11.481 3.307 C 11.617 3.057 11.855 2.906 12.109 2.869 C 12.363 2.832 12.634 2.907 12.835 3.109 L 14.981 5.255 L 17.127 7.401 C 17.329 7.603 17.405 7.874 17.367 8.127 C 17.33 8.381 17.179 8.619 16.928 8.754 L 14.384 10.131 L 11.84 11.507 C 11.753 11.555 11.675 11.617 11.61 11.691 C 11.544 11.764 11.491 11.849 11.454 11.941 L 10.84 13.475 L 10.226 15.008 L 7.728 12.509 L 5.23 10.01 L 6.761 9.4 L 8.292 8.79 C 8.385 8.754 8.47 8.701 8.543 8.635 C 8.617 8.569 8.678 8.49 8.726 8.402 L 10.103 5.855 Z" style="stroke: rgb(0, 0, 0); stroke-width: 0px;"/>
</svg>