<?xml version="1.0" encoding="utf-8"?>
<svg width="20" height="20" preserveAspectRatio="xMidYMid meet" viewBox="0 0 20 20" style="-ms-transform: rotate(360deg); -webkit-transform: rotate(360deg); transform: rotate(360deg);" xmlns="http://www.w3.org/2000/svg">
  <path fill="none" d="M9 14h6v5H9zm2-9h2v2h-2z" transform="matrix(1, 0, 0, 1, 72.07674, -10.672713)"/>
  <path fill="none" d="M7 14c0-1.103.897-2 2-2h6c1.103 0 2 .897 2 2v5h2.001L19 8.414L15.586 5H15v4H7V5H5v14h2v-5z" transform="matrix(1, 0, 0, 1, 72.07674, -10.672713)"/>
  <path fill="none" d="M9 14h6v5H9zm2-9h2v2h-2z" transform="matrix(1, 0, 0, 1, 25.47356, -7.87963)"/>
  <path fill="none" d="M7 14c0-1.103.897-2 2-2h6c1.103 0 2 .897 2 2v5h2.001L19 8.414L15.586 5H15v4H7V5H5v14h2v-5z" transform="matrix(1, 0, 0, 1, 25.47356, -7.87963)"/>
  <path d="M 18.201 0.669 C 18.704 0.669 19.13 0.846 19.478 1.197 C 19.826 1.55 20 1.976 20 2.48 L 20 9.415 C 20 10.777 19.737 12.077 19.212 13.314 C 18.685 14.553 17.979 15.617 17.093 16.505 C 16.207 17.395 15.147 18.102 13.913 18.624 C 12.678 19.146 11.385 19.407 10.031 19.407 C 8.67 19.407 7.372 19.146 6.138 18.624 C 4.904 18.102 3.841 17.395 2.952 16.505 C 2.062 15.617 1.354 14.553 0.828 13.314 C 0.302 12.077 0.039 10.777 0.039 9.415 L 0.039 2.48 C 0.039 1.984 0.216 1.559 0.573 1.204 C 0.928 0.847 1.354 0.669 1.849 0.669 L 18.201 0.669 Z M 10.031 13.929 C 10.395 13.929 10.711 13.802 10.983 13.547 L 15.671 9.044 C 15.958 8.773 16.101 8.443 16.101 8.057 C 16.101 7.678 15.968 7.354 15.7 7.088 C 15.434 6.821 15.11 6.686 14.731 6.686 C 14.367 6.686 14.051 6.815 13.779 7.071 L 10.031 10.668 L 6.283 7.071 C 6.011 6.815 5.698 6.686 5.341 6.686 C 4.963 6.686 4.641 6.821 4.374 7.088 C 4.106 7.354 3.973 7.678 3.973 8.057 C 3.973 8.452 4.113 8.78 4.39 9.044 L 9.09 13.547 C 9.347 13.802 9.659 13.929 10.031 13.929 Z" fill="#e83559" style=""/>
</svg>