<?xml version="1.0" encoding="utf-8"?>
<svg width="20" height="20" viewBox="0 0 20 20" fill="context-fill" fill-opacity="context-fill-opacity" xmlns="http://www.w3.org/2000/svg">
  <path d="M 7.539 1.918 C 7.348 1.918 7.169 1.952 7.006 2.02 C 6.842 2.087 6.692 2.189 6.556 2.325 C 6.42 2.462 6.318 2.612 6.25 2.775 C 6.182 2.939 6.148 3.116 6.148 3.307 L 6.148 8.177 L 6.148 13.047 L 5.327 11.948 L 4.507 10.85 C 4.359 10.654 4.188 10.508 3.994 10.41 C 3.8 10.312 3.583 10.263 3.344 10.263 C 3.156 10.263 2.981 10.298 2.82 10.367 C 2.659 10.436 2.511 10.539 2.377 10.676 C 2.243 10.814 2.143 10.964 2.076 11.127 C 2.009 11.29 1.976 11.465 1.976 11.654 C 1.976 11.81 1.999 11.958 2.046 12.097 C 2.093 12.237 2.163 12.368 2.257 12.491 L 4.343 15.273 L 6.43 18.055 C 6.568 18.24 6.729 18.378 6.914 18.47 C 7.099 18.562 7.307 18.608 7.539 18.608 L 11.44 18.608 L 15.341 18.608 C 15.42 18.608 15.496 18.596 15.568 18.572 C 15.639 18.548 15.707 18.511 15.77 18.463 C 15.833 18.413 15.886 18.357 15.927 18.295 C 15.968 18.232 15.997 18.163 16.016 18.088 L 16.515 16.088 L 17.015 14.089 C 17.102 13.741 17.168 13.391 17.211 13.04 C 17.254 12.688 17.276 12.335 17.276 11.98 L 17.276 10.8 L 17.276 9.62 C 17.276 9.472 17.25 9.335 17.2 9.206 C 17.149 9.078 17.072 8.959 16.971 8.85 C 16.87 8.741 16.758 8.66 16.635 8.606 C 16.512 8.551 16.377 8.524 16.232 8.524 C 16.087 8.524 15.953 8.549 15.83 8.6 C 15.707 8.651 15.595 8.727 15.494 8.829 C 15.393 8.931 15.317 9.043 15.266 9.166 C 15.215 9.289 15.19 9.424 15.19 9.569 L 15.015 9.569 L 14.84 9.569 L 14.84 9.238 L 14.84 8.906 C 14.84 8.732 14.811 8.571 14.753 8.424 C 14.696 8.276 14.609 8.141 14.493 8.019 C 14.377 7.898 14.247 7.807 14.103 7.746 C 13.958 7.686 13.799 7.656 13.626 7.656 C 13.459 7.656 13.304 7.685 13.16 7.745 C 13.017 7.804 12.885 7.894 12.765 8.014 C 12.646 8.134 12.557 8.265 12.497 8.408 C 12.438 8.551 12.408 8.706 12.408 8.872 L 12.408 9.221 L 12.408 9.569 L 12.233 9.569 L 12.059 9.569 L 12.059 9.079 L 12.059 8.589 C 12.059 8.39 12.025 8.205 11.958 8.034 C 11.891 7.863 11.791 7.707 11.657 7.564 C 11.523 7.421 11.374 7.313 11.21 7.241 C 11.045 7.169 10.864 7.133 10.668 7.133 C 10.476 7.133 10.299 7.167 10.135 7.235 C 9.971 7.303 9.821 7.405 9.686 7.54 C 9.55 7.677 9.448 7.827 9.38 7.991 C 9.313 8.155 9.279 8.333 9.279 8.524 L 9.279 9.047 L 9.279 9.569 L 9.104 9.569 L 8.93 9.569 L 8.93 6.472 L 8.93 3.374 C 8.93 3.175 8.896 2.989 8.829 2.818 C 8.762 2.647 8.662 2.49 8.528 2.347 C 8.393 2.204 8.244 2.096 8.079 2.025 C 7.914 1.954 7.734 1.918 7.539 1.918 Z M 7.539 0.526 C 7.927 0.526 8.285 0.597 8.614 0.737 C 8.942 0.878 9.242 1.088 9.511 1.368 C 9.781 1.649 9.984 1.956 10.119 2.291 C 10.253 2.625 10.321 2.987 10.321 3.374 L 10.321 4.569 L 10.321 5.764 C 10.401 5.757 10.47 5.751 10.528 5.748 C 10.586 5.745 10.633 5.743 10.668 5.743 C 11.027 5.743 11.363 5.806 11.677 5.93 C 11.99 6.055 12.281 6.243 12.549 6.492 C 12.72 6.416 12.894 6.359 13.074 6.321 C 13.253 6.284 13.437 6.265 13.626 6.265 C 14.035 6.265 14.405 6.344 14.738 6.501 C 15.072 6.659 15.367 6.895 15.625 7.209 C 15.722 7.184 15.822 7.165 15.923 7.152 C 16.024 7.14 16.127 7.133 16.232 7.133 C 16.572 7.133 16.887 7.194 17.175 7.316 C 17.464 7.439 17.725 7.622 17.961 7.867 C 18.196 8.111 18.373 8.38 18.49 8.672 C 18.608 8.965 18.666 9.281 18.666 9.62 L 18.666 10.8 L 18.666 11.98 C 18.666 12.4 18.641 12.814 18.59 13.221 C 18.54 13.629 18.464 14.029 18.363 14.424 L 17.863 16.425 L 17.362 18.425 C 17.305 18.657 17.214 18.867 17.091 19.056 C 16.968 19.245 16.813 19.412 16.624 19.559 C 16.436 19.706 16.234 19.816 16.02 19.89 C 15.807 19.963 15.58 20 15.341 20 L 11.44 20 L 7.539 20 C 7.322 20 7.109 19.975 6.902 19.925 C 6.695 19.876 6.493 19.801 6.296 19.702 C 6.099 19.601 5.918 19.484 5.753 19.35 C 5.589 19.215 5.442 19.063 5.312 18.892 L 3.226 16.11 L 1.139 13.327 C 0.954 13.081 0.815 12.819 0.723 12.54 C 0.63 12.261 0.584 11.966 0.584 11.654 C 0.584 11.274 0.652 10.92 0.787 10.593 C 0.922 10.266 1.124 9.966 1.394 9.692 C 1.663 9.419 1.961 9.214 2.286 9.077 C 2.611 8.941 2.964 8.872 3.344 8.872 C 3.602 8.872 3.848 8.904 4.083 8.967 C 4.319 9.031 4.543 9.126 4.757 9.253 L 4.757 6.28 L 4.757 3.307 C 4.757 2.924 4.825 2.568 4.961 2.24 C 5.096 1.913 5.3 1.613 5.572 1.341 C 5.845 1.07 6.144 0.866 6.472 0.73 C 6.8 0.594 7.155 0.526 7.539 0.526 Z M 8.93 15.827 L 8.93 13.741 L 8.93 11.654 L 8.756 11.654 L 8.582 11.654 L 8.582 13.741 L 8.582 15.827 L 8.756 15.827 Z M 11.712 15.827 L 11.712 13.741 L 11.712 11.654 L 11.538 11.654 L 11.364 11.654 L 11.364 13.741 L 11.364 15.827 L 11.538 15.827 Z M 14.493 15.827 L 14.493 13.741 L 14.493 11.654 L 14.32 11.654 L 14.147 11.654 L 14.147 13.741 L 14.147 15.827 L 14.32 15.827 Z" style=""/>
</svg>