<?xml version="1.0" encoding="utf-8"?>
<svg width="20" height="20" viewBox="0 0 20 20" fill="context-fill" fill-opacity="context-fill-opacity" xmlns="http://www.w3.org/2000/svg">
  <path d="M 0.821 7.416 C 0.821 9.814 1.013 11.413 1.585 12.411 C 2.159 13.41 3.114 13.81 4.645 13.81 C 6.176 13.81 7.132 13.41 7.705 12.411 C 8.279 11.413 8.469 9.814 8.469 7.416 C 8.469 7.416 8.279 7.215 7.705 7.017 C 7.132 6.816 6.176 6.617 4.645 6.617 C 3.114 6.617 2.159 6.816 1.585 7.017 C 1.013 7.215 0.821 7.416 0.821 7.416 Z" stroke-linecap="round" stroke-linejoin="round" style="stroke-width: 1.5px;" fill="none"/>
  <path d="M 4.545 4.199 C 4.545 3.642 4.77 3.138 5.135 2.771 C 5.502 2.407 6.006 2.181 6.563 2.181 L 9.925 2.181 L 13.288 2.181 C 13.846 2.181 14.35 2.407 14.714 2.771 C 15.081 3.138 15.306 3.642 15.306 4.199 L 15.306 4.536 L 15.306 4.873 L 15.978 4.873 L 16.652 4.873 C 17.394 4.873 18.067 5.175 18.553 5.661 C 19.039 6.147 19.341 6.82 19.341 7.562 L 19.341 10.588 L 19.341 13.614 C 19.341 14.172 19.116 14.675 18.75 15.042 C 18.386 15.407 17.88 15.634 17.323 15.634 L 16.382 15.634 L 15.442 15.634 L 15.442 15.969 L 15.442 16.305 C 15.442 16.863 15.216 17.368 14.849 17.732 C 14.484 18.097 13.98 18.323 13.423 18.323 L 9.992 18.323 L 6.563 18.323 C 6.006 18.323 5.502 18.097 5.135 17.732 C 4.77 17.368 4.545 16.863 4.545 16.305 L 4.545 15.969 L 4.545 15.634 L 3.537 15.634 L 2.528 15.634 C 1.97 15.634 1.465 15.407 1.1 15.042 C 0.736 14.675 0.51 14.172 0.51 13.614 L 0.51 10.588 L 0.51 7.562 C 0.51 6.82 0.812 6.147 1.298 5.661 C 1.784 5.175 2.457 4.873 3.199 4.873 L 3.873 4.873 L 4.545 4.873 L 4.545 4.536 Z M 13.96 4.873 L 13.96 4.536 L 13.96 4.199 C 13.96 4.014 13.885 3.846 13.764 3.724 C 13.642 3.602 13.474 3.527 13.288 3.527 L 9.925 3.527 L 6.563 3.527 C 6.377 3.527 6.208 3.602 6.088 3.724 C 5.966 3.846 5.891 4.014 5.891 4.199 L 5.891 4.536 L 5.891 4.873 L 9.925 4.873 Z M 4.545 6.218 L 3.873 6.218 L 3.199 6.218 C 2.828 6.218 2.492 6.369 2.249 6.612 C 2.006 6.854 1.856 7.189 1.856 7.562 L 1.856 10.588 L 1.856 13.614 C 1.856 13.801 1.931 13.968 2.052 14.091 C 2.173 14.214 2.342 14.288 2.528 14.288 L 3.537 14.288 L 4.545 14.288 L 4.545 13.951 L 4.545 13.614 C 4.545 13.057 4.77 12.554 5.135 12.188 C 5.502 11.822 6.006 11.597 6.563 11.597 L 9.992 11.597 L 13.423 11.597 C 13.98 11.597 14.484 11.822 14.849 12.188 C 15.216 12.554 15.442 13.057 15.442 13.614 L 15.442 13.951 L 15.442 14.288 L 16.382 14.288 L 17.323 14.288 C 17.51 14.288 17.677 14.213 17.799 14.091 C 17.92 13.968 17.996 13.801 17.996 13.614 L 17.996 10.588 L 17.996 7.562 C 17.996 7.189 17.844 6.854 17.602 6.612 C 17.359 6.369 17.022 6.218 16.652 6.218 L 10.598 6.218 Z M 6.563 12.942 C 6.377 12.942 6.208 13.017 6.088 13.139 C 5.966 13.262 5.891 13.429 5.891 13.614 L 5.891 14.96 L 5.891 16.305 C 5.891 16.491 5.966 16.659 6.088 16.781 C 6.208 16.902 6.377 16.977 6.563 16.977 L 9.992 16.977 L 13.423 16.977 C 13.608 16.977 13.777 16.902 13.898 16.781 C 14.02 16.659 14.095 16.491 14.095 16.305 L 14.095 14.959 L 14.095 13.614 C 14.095 13.429 14.02 13.262 13.898 13.139 C 13.777 13.017 13.608 12.942 13.423 12.942 L 9.992 12.942 Z" style=""/>
</svg>