<?xml version="1.0" encoding="utf-8"?>
<svg width="20" height="20" viewBox="0 0 20 20" fill="context-fill" fill-opacity="context-fill-opacity" xmlns="http://www.w3.org/2000/svg">
  <path d="M 9.915 2.284 L 13.045 3.675 L 16.174 5.066 L 16.174 7.168 L 16.174 9.269 C 16.174 11.29 15.508 13.232 14.393 14.809 C 13.277 16.385 11.712 17.595 9.915 18.149 C 8.117 17.595 6.552 16.385 5.436 14.809 C 4.321 13.232 3.655 11.29 3.655 9.269 L 3.655 7.168 L 3.655 5.066 L 6.785 3.675 L 9.915 2.284 M 9.915 0.326 L 5.89 2.115 L 1.866 3.903 L 1.866 6.586 L 1.866 9.269 C 1.866 11.751 2.725 14.152 4.16 16.073 C 5.595 17.995 7.608 19.437 9.915 20 C 12.222 19.437 14.234 17.995 15.669 16.073 C 17.104 14.152 17.963 11.751 17.963 9.269 L 17.963 6.586 L 17.963 3.903 L 13.939 2.115 Z M 9.02 5.692 L 9.915 5.692 L 10.809 5.692 L 10.809 6.586 L 10.809 7.48 L 9.915 7.48 L 9.02 7.48 L 9.02 6.586 Z M 9.02 9.269 L 9.915 9.269 L 10.809 9.269 L 10.809 11.952 L 10.809 14.634 L 9.915 14.634 L 9.02 14.634 L 9.02 11.952 Z" style=""/>
</svg>