<?xml version="1.0" encoding="utf-8"?>
<svg width="20" height="20" viewBox="0 0 20 20" fill="context-fill" fill-opacity="context-fill-opacity" xmlns="http://www.w3.org/2000/svg">
  <path d="M 0.99 2.659 C 0.994 2.171 1.389 1.775 1.877 1.771 L 17.979 1.771 C 18.469 1.771 18.866 2.169 18.866 2.659 L 18.866 16.972 C 18.862 17.46 18.468 17.856 17.979 17.859 L 1.877 17.859 C 1.387 17.858 0.99 17.461 0.99 16.972 L 0.99 2.659 Z M 2.778 3.559 L 2.778 16.072 L 17.078 16.072 L 17.078 3.559 L 2.778 3.559 Z M 4.565 5.346 L 9.928 5.346 L 9.928 10.709 L 4.565 10.709 L 4.565 5.346 Z M 6.353 7.134 L 6.353 8.921 L 8.14 8.921 L 8.14 7.134 L 6.353 7.134 Z M 4.565 12.496 L 15.291 12.496 L 15.291 14.284 L 4.565 14.284 L 4.565 12.496 Z M 11.715 5.346 L 15.291 5.346 L 15.291 7.134 L 11.715 7.134 L 11.715 5.346 Z M 11.715 8.921 L 15.291 8.921 L 15.291 10.709 L 11.715 10.709 L 11.715 8.921 Z" style=""/>
</svg>