<?xml version="1.0" encoding="utf-8"?>
<svg width="20" height="20" viewBox="0 0 20 20" fill="context-fill" fill-opacity="context-fill-opacity" xmlns="http://www.w3.org/2000/svg">
  <path d="M 12.836 19.086 L 10.836 19.086 L 10.836 17.086 L 12.836 17.086 L 12.836 19.086 Z M 10.836 12.086 L 8.836 12.086 L 8.836 17.086 L 10.836 17.086 L 10.836 12.086 Z M 18.836 10.086 L 16.836 10.086 L 16.836 14.086 L 18.836 14.086 L 18.836 10.086 Z M 16.836 8.086 L 14.836 8.086 L 14.836 10.086 L 16.836 10.086 L 16.836 8.086 Z M 4.836 10.086 L 2.836 10.086 L 2.836 12.086 L 4.836 12.086 L 4.836 10.086 Z M 2.836 8.086 L 0.836 8.086 L 0.836 10.086 L 2.836 10.086 L 2.836 8.086 Z M 9.836 3.086 L 11.836 3.086 L 11.836 1.086 L 9.836 1.086 L 9.836 3.086 Z M 2.336 2.586 L 2.336 5.586 L 5.336 5.586 L 5.336 2.586 L 2.336 2.586 Z M 6.836 7.086 L 0.836 7.086 L 0.836 1.086 L 6.836 1.086 L 6.836 7.086 Z M 2.336 14.586 L 2.336 17.586 L 5.336 17.586 L 5.336 14.586 L 2.336 14.586 Z M 6.836 19.086 L 0.836 19.086 L 0.836 13.086 L 6.836 13.086 L 6.836 19.086 Z M 14.336 2.586 L 14.336 5.586 L 17.336 5.586 L 17.336 2.586 L 14.336 2.586 Z M 18.836 7.086 L 12.836 7.086 L 12.836 1.086 L 18.836 1.086 L 18.836 7.086 Z M 16.836 17.086 L 16.836 14.086 L 12.836 14.086 L 12.836 16.086 L 14.836 16.086 L 14.836 19.086 L 18.836 19.086 L 18.836 17.086 L 16.836 17.086 Z M 14.836 10.086 L 10.836 10.086 L 10.836 12.086 L 14.836 12.086 L 14.836 10.086 Z M 10.836 8.086 L 4.836 8.086 L 4.836 10.086 L 6.836 10.086 L 6.836 12.086 L 8.836 12.086 L 8.836 10.086 L 10.836 10.086 L 10.836 8.086 Z M 11.836 7.086 L 11.836 5.086 L 9.836 5.086 L 9.836 3.086 L 7.836 3.086 L 7.836 7.086 L 11.836 7.086 Z M 4.586 3.336 L 3.086 3.336 L 3.086 4.836 L 4.586 4.836 L 4.586 3.336 Z M 4.586 15.336 L 3.086 15.336 L 3.086 16.836 L 4.586 16.836 L 4.586 15.336 Z M 16.586 3.336 L 15.086 3.336 L 15.086 4.836 L 16.586 4.836 L 16.586 3.336 Z" style=""/>
</svg>