<?xml version="1.0" encoding="utf-8"?>
<svg width="20" height="20" viewBox="0 0 20 20" fill="context-fill" fill-opacity="context-fill-opacity" xmlns="http://www.w3.org/2000/svg">
  <path d="M 4.947 2.912 L 5.971 4.375 C 1.467 7.528 2.065 14.374 7.048 16.698 C 12.031 19.022 17.66 15.081 17.183 9.604 C 16.999 7.5 15.893 5.586 14.163 4.375 L 15.187 2.912 C 17.575 4.581 18.996 7.312 18.994 10.226 C 18.994 15.157 14.998 19.153 10.067 19.153 C 5.136 19.153 1.14 15.157 1.14 10.226 C 1.138 7.312 2.559 4.581 4.947 2.912 Z M 9.175 9.903 L 9.175 0.976 L 10.959 0.976 L 10.959 9.903 L 9.175 9.903 Z" style=""/>
</svg>