<?xml version="1.0" encoding="utf-8"?>
<svg width="20" height="20" viewBox="0 0 20 20" fill="context-fill" fill-opacity="context-fill-opacity" xmlns="http://www.w3.org/2000/svg">
  <path d="M 9.951 0.878 C 5.031 0.878 1.017 4.763 0.811 9.631 C 0.797 9.964 1.052 9.983 1.052 9.983 L 2.603 9.983 C 2.905 9.983 2.959 9.81 2.965 9.657 C 3.135 5.965 6.212 3.032 9.951 3.032 C 11.945 3.032 13.746 3.868 15.019 5.209 L 13.931 6.263 C 13.741 6.491 13.745 6.768 14.025 6.847 L 18.601 7.768 C 18.993 7.865 19.459 7.569 19.299 6.959 L 18.218 2.745 C 18.19 2.585 17.923 2.337 17.672 2.514 L 16.486 3.627 C 14.826 1.931 12.51 0.878 9.951 0.878 Z M 17.537 10.296 C 17.235 10.296 17.182 10.468 17.175 10.622 C 17.005 14.314 13.928 17.246 10.19 17.246 C 8.195 17.246 6.394 16.411 5.121 15.07 L 6.209 14.016 C 6.399 13.788 6.395 13.511 6.117 13.432 L 1.539 12.511 C 1.147 12.414 0.682 12.71 0.841 13.32 L 1.922 17.534 C 1.95 17.694 2.218 17.942 2.468 17.764 L 3.654 16.651 C 5.315 18.348 7.63 19.401 10.19 19.401 C 15.109 19.401 19.123 15.515 19.33 10.648 C 19.344 10.315 19.089 10.296 19.089 10.296 L 17.537 10.296 Z" style=""/>
</svg>