<?xml version="1.0" encoding="utf-8"?>
<svg width="20" height="20" viewBox="0 0 20 20" fill="context-fill" fill-opacity="context-fill-opacity" xmlns="http://www.w3.org/2000/svg">
  <path d="M 16.925 9.617 C 16.923 9.606 16.784 8.823 16.692 8.498 C 16.6 8.171 16.499 7.89 16.368 7.588 C 16.106 6.988 15.805 6.497 15.408 6.006 C 14.615 5.024 13.693 4.336 12.535 3.883 C 10.232 2.892 7.692 3.048 5.502 4.86 C 5 5.246 4.599 5.651 4.221 6.153 C 4.172 6.217 4.124 6.282 4.077 6.346 L 5.888 6.346 L 5.888 8.346 L 0.888 8.346 L 0.888 3.346 L 2.888 3.346 L 2.888 4.623 C 3.3 4.136 3.781 3.67 4.274 3.282 C 7.004 1.262 10.534 0.968 13.287 2.029 C 14.656 2.601 16.008 3.564 16.964 4.749 C 17.442 5.341 17.884 6.062 18.201 6.789 C 18.517 7.513 18.805 8.946 18.805 8.946 C 18.827 9.008 16.922 9.583 16.925 9.617 Z M 16.925 9.617 C 16.925 9.617 16.925 9.617 16.925 9.617 C 16.925 9.617 16.925 9.617 16.925 9.617 Z" style=""/>
  <path d="M 2.851 11.075 C 2.853 11.086 2.992 11.869 3.084 12.194 C 3.176 12.521 3.277 12.802 3.408 13.104 C 3.669 13.704 3.971 14.195 4.368 14.687 C 5.16 15.669 6.088 16.343 7.241 16.81 C 9.564 17.753 12.084 17.645 14.274 15.833 C 14.776 15.448 15.175 15.042 15.555 14.539 C 15.605 14.475 15.653 14.41 15.7 14.346 L 13.888 14.346 L 13.888 12.346 L 18.888 12.346 L 18.888 17.346 L 16.888 17.346 L 16.888 16.07 C 16.476 16.556 15.996 17.022 15.502 17.411 C 12.772 19.431 9.222 19.773 6.489 18.664 C 5.114 18.105 3.768 17.128 2.811 15.943 C 2.334 15.351 1.891 14.63 1.574 13.903 C 1.259 13.179 0.971 11.745 0.971 11.745 C 0.949 11.684 2.855 11.109 2.851 11.075 Z M 2.851 11.075 C 2.851 11.075 2.851 11.075 2.851 11.075 C 2.851 11.075 2.851 11.075 2.851 11.075 Z" style=""/>
</svg>