<?xml version="1.0" encoding="utf-8"?>
<svg width="20" height="20" viewBox="0 0 20 20" fill="context-fill" fill-opacity="context-fill-opacity" xmlns="http://www.w3.org/2000/svg">
  <path d="M 3.67 11.148 C 3.67 10.272 3.848 9.436 4.171 8.674 C 4.493 7.912 4.961 7.225 5.539 6.646 L 4.785 5.893 L 4.031 5.139 C 3.236 5.937 2.615 6.876 2.193 7.897 C 1.771 8.918 1.547 10.022 1.547 11.148 C 1.547 13.314 2.357 15.288 3.69 16.786 C 5.024 18.284 6.882 19.307 8.979 19.567 L 8.979 18.495 L 8.979 17.422 C 7.477 17.167 6.149 16.387 5.198 15.276 C 4.246 14.165 3.67 12.724 3.67 11.148 Z M 18.534 11.148 C 18.534 8.802 17.584 6.678 16.047 5.141 C 14.51 3.604 12.387 2.654 10.04 2.654 C 10.009 2.654 9.977 2.657 9.945 2.659 C 9.913 2.662 9.881 2.665 9.849 2.665 L 10.428 2.087 L 11.007 1.508 L 10.259 0.754 L 9.51 0 L 7.652 1.858 L 5.794 3.716 L 7.652 5.574 L 9.51 7.432 L 10.259 6.684 L 11.007 5.935 L 10.434 5.362 L 9.86 4.788 C 9.892 4.788 9.924 4.786 9.954 4.783 C 9.985 4.781 10.014 4.778 10.04 4.778 C 11.798 4.778 13.39 5.492 14.543 6.645 C 15.696 7.798 16.41 9.391 16.41 11.148 C 16.41 12.724 15.834 14.166 14.883 15.276 C 13.932 16.387 12.605 17.167 11.102 17.422 L 11.102 18.495 L 11.102 19.567 C 13.199 19.307 15.057 18.285 16.391 16.786 C 17.725 15.288 18.534 13.314 18.534 11.148 Z" style="" transform="matrix(1, 0, 0, 1, 0.120441, 0.257931)"/>
</svg>