<?xml version="1.0" encoding="utf-8"?>
<svg width="20" height="20" viewBox="0 0 20 20" fill="context-fill" fill-opacity="context-fill-opacity" xmlns="http://www.w3.org/2000/svg">
  <path d="M 13.189 16.823 C 12.589 18.258 11.448 19.399 10.012 20 C 8.577 19.399 7.436 18.258 6.835 16.823 L 8.885 16.823 C 9.182 17.266 9.563 17.651 10.012 17.951 C 10.461 17.652 10.843 17.266 11.14 16.823 L 13.189 16.823 Z M 15.456 12.111 L 17.269 14.168 L 17.269 15.916 L 2.755 15.916 L 2.755 14.168 L 4.57 12.111 L 4.57 6.844 C 4.57 3.685 6.841 0.996 10.012 0 C 13.184 0.996 15.456 3.685 15.456 6.844 L 15.456 12.111 Z M 14.793 14.101 L 13.641 12.795 L 13.641 6.844 C 13.641 4.742 12.217 2.826 10.012 1.928 C 7.807 2.826 6.384 4.741 6.384 6.844 L 6.384 12.795 L 5.231 14.101 L 14.793 14.101 Z M 10.012 8.659 C 8.616 8.659 7.743 7.147 8.441 5.937 C 8.766 5.376 9.365 5.03 10.012 5.03 C 11.409 5.03 12.282 6.543 11.583 7.752 C 11.259 8.313 10.661 8.659 10.012 8.659 Z" style=""/>
</svg>