<?xml version="1.0" encoding="utf-8"?>
<svg width="20" height="20" preserveAspectRatio="xMidYMid meet" viewBox="0 0 20 20" style="-ms-transform: rotate(360deg); -webkit-transform: rotate(360deg); transform: rotate(360deg);" xmlns="http://www.w3.org/2000/svg">
  <path d="M 12.202 19.279 C 12.202 19.677 11.879 20 11.481 20 L 8.597 20 C 8.043 20 7.696 19.4 7.973 18.919 C 8.102 18.696 8.339 18.559 8.597 18.559 L 11.481 18.559 C 11.879 18.559 12.202 18.882 12.202 19.279 Z M 18.594 13.294 L 17.481 18.308 C 17.374 18.794 17.024 19.19 16.553 19.354 C 16.398 19.41 16.235 19.438 16.071 19.438 C 15.744 19.438 15.428 19.324 15.172 19.12 L 12.67 17.117 L 7.408 17.117 L 4.904 19.12 C 4.071 19.787 2.828 19.349 2.597 18.308 L 1.483 13.294 C 1.386 12.859 1.498 12.402 1.783 12.059 L 4.451 8.858 C 4.531 7.754 4.777 6.669 5.18 5.639 C 6.237 2.915 8.112 1.133 9.136 0.315 C 9.666 -0.108 10.417 -0.104 10.944 0.321 C 11.954 1.141 13.804 2.924 14.851 5.646 C 15.241 6.653 15.483 7.712 15.572 8.789 L 18.295 12.059 C 18.58 12.402 18.691 12.859 18.594 13.294 Z M 6.229 16.214 C 5.286 14.454 4.712 12.731 4.506 11.042 L 2.89 12.981 L 4.004 17.994 L 6.229 16.214 Z M 11.119 10.071 C 11.712 6.333 9.962 6.109 9.299 6.81 C 8.635 7.512 8.686 9.915 9.269 10.836 C 9.761 11.611 10.957 11.093 11.119 10.071 Z M 17.187 12.981 L 15.533 10.995 C 15.341 12.693 14.777 14.432 13.844 16.21 L 16.073 17.994 L 17.187 12.981 Z" style="fill: rgb(238, 238, 238);"/>
  <path style="fill: rgb(216, 216, 216); stroke: rgb(0, 0, 0); stroke-width: 1px;" d="M 12.182 12.309" transform="matrix(1, 0, 0, 1, 42.02228, 6.899785)"/>
  <path style="fill: rgb(216, 216, 216); stroke: rgb(0, 0, 0); stroke-width: 1px;" d="M 2.774 12.043" transform="matrix(1, 0, 0, 1, 42.02228, 6.899785)"/>
</svg>