<?xml version="1.0" encoding="utf-8"?>
<svg width="16" height="16" viewBox="0 0 24 24" fill="none" stroke="#ff0000" stroke-width="4" stroke-linecap="square" stroke-linejoin="round" xmlns="http://www.w3.org/2000/svg">
  <path style="fill: rgb(216, 216, 216); stroke: rgb(0, 0, 0); stroke-width: 1px;" d="M 12.182 12.309"/>
  <path style="fill: rgb(216, 216, 216); stroke: rgb(0, 0, 0); stroke-width: 1px;" d="M 2.774 12.043"/>
  <g id="#515151ff" transform="matrix(0.186286, 0, 0, 0.186286, -0.246203, 0.155388)" style="">
    <path style="fill: rgb(216, 216, 216); stroke: rgb(0, 0, 0); stroke-width: 1px;" d="M 142.533 55.952"/>
    <path style="fill: rgb(216, 216, 216); stroke: rgb(0, 0, 0); stroke-width: 1px;" d="M 126.855 51.807"/>
    <path style="fill: rgb(216, 216, 216); stroke: rgb(0, 0, 0); stroke-width: 1px;" d="M 126.314 55.051"/>
    <path d="M 103.6 122.597 L 126.855 122.597 C 126.855 57.06 72.643 3.679 6.049 3.679 L 6.049 26.48 C 59.808 26.48 103.6 69.593 103.6 122.597 Z M 62.525 122.597 L 85.781 122.597 C 85.781 79.333 49.992 44.073 6.049 44.073 L 6.049 66.874 C 21.15 66.874 35.268 72.689 45.99 83.183 C 56.584 93.559 62.547 107.768 62.525 122.597 Z M 22.131 122.446 C 30.966 122.446 38.214 115.424 38.214 106.665 C 38.214 97.983 30.966 90.885 22.131 90.885 C 13.222 90.885 6.049 97.983 6.049 106.665 C 6.049 115.424 13.222 122.446 22.131 122.446 Z" fill="#f69a35" style="stroke-width: 0px;"/>
  </g>
</svg>