<?xml version="1.0" encoding="utf-8"?>
<svg width="20" height="20" viewBox="0 0 20 20" fill="context-fill" fill-opacity="context-fill-opacity" xmlns="http://www.w3.org/2000/svg">
  <path d="M 1.404 3.948 C 1.404 3.212 1.702 2.545 2.185 2.063 C 2.667 1.58 3.334 1.282 4.07 1.282 L 8.899 1.282 L 13.728 1.282 C 14.146 1.282 14.555 1.365 14.934 1.522 C 15.313 1.678 15.661 1.909 15.957 2.205 L 16.943 3.191 L 17.929 4.177 C 18.225 4.473 18.456 4.821 18.613 5.2 C 18.769 5.579 18.852 5.988 18.852 6.406 L 18.852 11.235 L 18.852 16.064 C 18.852 16.801 18.554 17.467 18.071 17.949 C 17.589 18.432 16.922 18.73 16.186 18.73 L 10.128 18.73 L 4.07 18.73 C 3.334 18.73 2.667 18.432 2.185 17.949 C 1.702 17.467 1.404 16.8 1.404 16.064 L 1.404 10.006 Z M 4.07 2.736 C 3.736 2.736 3.433 2.872 3.213 3.091 C 2.994 3.311 2.858 3.614 2.858 3.948 L 2.858 10.006 L 2.858 16.064 C 2.858 16.399 2.994 16.702 3.213 16.921 C 3.433 17.14 3.736 17.276 4.07 17.276 L 4.191 17.276 L 4.312 17.276 L 4.312 14.732 L 4.312 12.187 C 4.312 11.585 4.556 11.039 4.951 10.645 C 5.345 10.25 5.891 10.006 6.493 10.006 L 10.128 10.006 L 13.763 10.006 C 14.366 10.006 14.911 10.25 15.305 10.645 C 15.7 11.039 15.944 11.585 15.944 12.187 L 15.944 14.732 L 15.944 17.276 L 16.065 17.276 L 16.186 17.276 C 16.521 17.276 16.824 17.14 17.043 16.921 C 17.262 16.702 17.398 16.399 17.398 16.064 L 17.398 11.235 L 17.398 6.406 C 17.398 6.181 17.354 5.96 17.269 5.756 C 17.185 5.552 17.061 5.365 16.901 5.206 L 15.915 4.22 L 14.928 3.233 C 14.803 3.108 14.66 3.003 14.504 2.923 C 14.348 2.843 14.18 2.787 14.005 2.758 L 14.005 4.08 L 14.005 5.402 C 14.005 6.004 13.761 6.549 13.366 6.944 C 12.972 7.339 12.427 7.583 11.824 7.583 L 9.643 7.583 L 7.462 7.583 C 6.86 7.583 6.314 7.339 5.92 6.944 C 5.525 6.549 5.281 6.004 5.281 5.402 L 5.281 4.069 L 5.281 2.736 L 4.676 2.736 Z M 14.49 17.276 L 14.49 14.732 L 14.49 12.187 C 14.49 11.987 14.409 11.805 14.277 11.673 C 14.145 11.542 13.964 11.46 13.763 11.46 L 10.128 11.46 L 6.493 11.46 C 6.293 11.46 6.111 11.542 5.979 11.673 C 5.848 11.805 5.766 11.987 5.766 12.187 L 5.766 14.732 L 5.766 17.276 L 10.128 17.276 Z M 6.735 2.736 L 6.735 4.069 L 6.735 5.402 C 6.735 5.603 6.817 5.784 6.948 5.916 C 7.08 6.047 7.262 6.129 7.462 6.129 L 9.643 6.129 L 11.824 6.129 C 12.025 6.129 12.207 6.047 12.338 5.916 C 12.47 5.784 12.551 5.603 12.551 5.402 L 12.551 4.069 L 12.551 2.736 L 9.643 2.736 Z" style=""/>
</svg>