<?xml version="1.0" encoding="utf-8"?>
<svg width="20" height="20" preserveAspectRatio="xMidYMid meet" viewBox="0 0 20 20" style="-ms-transform: rotate(360deg); -webkit-transform: rotate(360deg); transform: rotate(360deg);" xmlns="http://www.w3.org/2000/svg">
  <path fill="none" d="M9 14h6v5H9zm2-9h2v2h-2z" transform="matrix(1, 0, 0, 1, 72.07674, -10.672713)"/>
  <path fill="none" d="M7 14c0-1.103.897-2 2-2h6c1.103 0 2 .897 2 2v5h2.001L19 8.414L15.586 5H15v4H7V5H5v14h2v-5z" transform="matrix(1, 0, 0, 1, 72.07674, -10.672713)"/>
  <path fill="none" d="M9 14h6v5H9zm2-9h2v2h-2z" transform="matrix(1, 0, 0, 1, 25.47356, -7.87963)"/>
  <path fill="none" d="M7 14c0-1.103.897-2 2-2h6c1.103 0 2 .897 2 2v5h2.001L19 8.414L15.586 5H15v4H7V5H5v14h2v-5z" transform="matrix(1, 0, 0, 1, 25.47356, -7.87963)"/>
  <path fill="none" d="M9 14h6v5H9zm2-9h2v2h-2z" transform="matrix(1, 0, 0, 1, 105.614532, -9.769573)"/>
  <path fill="none" d="M7 14c0-1.103.897-2 2-2h6c1.103 0 2 .897 2 2v5h2.001L19 8.414L15.586 5H15v4H7V5H5v14h2v-5z" transform="matrix(1, 0, 0, 1, 105.614532, -9.769573)"/>
  <path fill="none" d="M9 14h6v5H9zm2-9h2v2h-2z" transform="matrix(1, 0, 0, 1, 59.011352, -6.976489)"/>
  <path fill="none" d="M7 14c0-1.103.897-2 2-2h6c1.103 0 2 .897 2 2v5h2.001L19 8.414L15.586 5H15v4H7V5H5v14h2v-5z" transform="matrix(1, 0, 0, 1, 59.011352, -6.976489)"/>
  <path fill="none" d="M9 14h6v5H9zm2-9h2v2h-2z" transform="matrix(1, 0, 0, 1, 137.087204, 40.397485)"/>
  <path fill="none" d="M7 14c0-1.103.897-2 2-2h6c1.103 0 2 .897 2 2v5h2.001L19 8.414L15.586 5H15v4H7V5H5v14h2v-5z" transform="matrix(1, 0, 0, 1, 137.087204, 40.397485)"/>
  <g fill="none" transform="matrix(1.111111, 0, 0, 1.111111, -3.403333, -3.497777)" style="">
    <path d="M 3.063 5.148 C 3.063 4.043 3.959 3.148 5.063 3.148 L 16.649 3.148 C 17.18 3.148 17.688 3.359 18.063 3.734 L 20.77 6.441 C 20.958 6.628 21.063 6.883 21.063 7.148 L 21.063 19.148 C 21.063 20.252 20.168 21.148 19.063 21.148 L 5.063 21.148 C 3.959 21.148 3.063 20.252 3.063 19.148 L 3.063 5.148 Z M 9.063 19.148 L 15.063 19.148 L 15.063 13.148 L 9.063 13.148 L 9.063 19.148 Z M 17.063 19.148 L 19.063 19.148 L 19.063 7.562 L 17.063 5.562 L 17.063 7.148 C 17.063 8.252 16.168 9.148 15.063 9.148 L 9.063 9.148 C 7.959 9.148 7.063 8.252 7.063 7.148 L 7.063 5.148 L 5.063 5.148 L 5.063 19.148 L 7.063 19.148 L 7.063 13.148 C 7.063 12.043 7.959 11.148 9.063 11.148 L 15.063 11.148 C 16.168 11.148 17.063 12.043 17.063 13.148 L 17.063 19.148 Z M 9.063 5.148 L 9.063 7.148 L 15.063 7.148 L 15.063 5.148 L 9.063 5.148 Z" fill="#52afb1"/>
  </g>
</svg>