<?xml version="1.0" encoding="utf-8"?>
<svg width="20" height="20" viewBox="0 0 20 20" fill="context-fill" fill-opacity="context-fill-opacity" xmlns="http://www.w3.org/2000/svg">
  <path fill="context-fill" fill-opacity="context-fill-opacity" d="M 14.815 1.058 L 5.965 1.058 C 4.743 1.058 3.753 2.048 3.753 3.27 L 3.753 5.483 C 3.753 6.093 4.247 6.589 4.859 6.589 C 5.47 6.589 5.722 6.098 5.722 5.487 L 5.819 3.433 C 5.819 3.128 6.067 2.88 6.372 2.88 L 14.652 2.88 C 14.957 2.88 15.205 3.128 15.205 3.433 L 15.301 15.861 C 15.301 16.166 15.054 16.414 14.748 16.414 L 6.129 16.42 C 5.824 16.42 5.576 16.172 5.576 15.867 L 5.478 13.232 C 5.478 12.621 5.47 12.12 4.859 12.12 C 4.247 12.12 3.753 12.615 3.753 13.226 L 3.753 16.545 C 3.753 17.767 4.743 18.757 5.965 18.757 L 14.815 18.757 C 16.036 18.757 17.027 17.767 17.027 16.545 L 17.027 3.27 C 17.027 2.048 16.036 1.058 14.815 1.058 Z M 11.496 18.144 L 9.284 18.144 L 9.284 17.032 L 11.496 17.032 L 11.496 18.144 Z" style=""/>
  <path fill="context-fill" fill-opacity="context-fill-opacity" d="M 7.233 12.281 C 6.926 12.577 7.055 13.093 7.464 13.211 C 7.661 13.267 7.872 13.211 8.015 13.063 L 11.333 9.745 C 11.55 9.529 11.55 9.177 11.333 8.962 L 8.015 5.643 C 7.708 5.348 7.196 5.494 7.093 5.908 C 7.047 6.092 7.1 6.288 7.233 6.425 L 9.608 8.801 L 2.093 8.801 C 1.668 8.801 1.401 9.263 1.614 9.631 C 1.713 9.802 1.895 9.907 2.093 9.907 L 9.608 9.907 Z" style=""/>
</svg>