<?xml version="1.0" encoding="utf-8"?>
<svg width="20" height="20" viewBox="0 0 20 20" fill="context-fill" fill-opacity="context-fill-opacity" xmlns="http://www.w3.org/2000/svg">
  <path d="M 10.014 0.284 C 10.381 0.288 10.747 0.311 11.111 0.354 C 11.475 0.396 11.837 0.457 12.196 0.537 C 12.352 0.572 12.489 0.654 12.591 0.768 C 12.693 0.882 12.76 1.027 12.778 1.186 L 12.863 1.95 L 12.948 2.713 C 13 3.176 13.268 3.547 13.63 3.757 C 13.992 3.967 14.448 4.015 14.875 3.829 L 15.576 3.522 L 16.276 3.214 C 16.422 3.149 16.58 3.135 16.728 3.165 C 16.877 3.196 17.017 3.272 17.126 3.388 C 17.632 3.928 18.073 4.523 18.443 5.159 C 18.812 5.795 19.11 6.472 19.33 7.18 C 19.377 7.332 19.373 7.491 19.326 7.635 C 19.278 7.78 19.187 7.91 19.059 8.005 L 18.438 8.463 L 17.817 8.921 C 17.441 9.197 17.253 9.615 17.253 10.034 C 17.253 10.452 17.441 10.871 17.817 11.147 L 18.438 11.605 L 19.06 12.062 C 19.188 12.157 19.28 12.287 19.328 12.431 C 19.375 12.576 19.379 12.735 19.332 12.888 C 19.112 13.595 18.814 14.273 18.445 14.909 C 18.075 15.545 17.634 16.139 17.128 16.68 C 17.019 16.796 16.88 16.872 16.732 16.902 C 16.583 16.933 16.425 16.919 16.28 16.855 L 15.576 16.547 L 14.873 16.238 C 14.446 16.051 13.99 16.097 13.628 16.307 C 13.265 16.516 12.997 16.889 12.947 17.352 L 12.862 18.115 L 12.778 18.878 C 12.76 19.035 12.694 19.178 12.594 19.292 C 12.494 19.405 12.36 19.488 12.206 19.525 C 11.481 19.697 10.742 19.783 10.003 19.783 C 9.263 19.783 8.524 19.697 7.8 19.525 C 7.646 19.488 7.512 19.405 7.412 19.292 C 7.311 19.178 7.245 19.035 7.228 18.878 L 7.144 18.116 L 7.06 17.354 C 7.007 16.892 6.738 16.522 6.377 16.313 C 6.015 16.105 5.56 16.058 5.134 16.244 L 4.431 16.552 L 3.728 16.86 C 3.582 16.924 3.424 16.938 3.275 16.907 C 3.127 16.877 2.987 16.801 2.879 16.685 C 2.373 16.144 1.931 15.548 1.561 14.912 C 1.192 14.275 0.894 13.597 0.675 12.889 C 0.628 12.736 0.631 12.577 0.679 12.432 C 0.726 12.288 0.818 12.158 0.947 12.063 L 1.569 11.605 L 2.19 11.147 C 2.566 10.871 2.754 10.452 2.754 10.034 C 2.754 9.615 2.566 9.197 2.19 8.921 L 1.569 8.464 L 0.947 8.007 C 0.819 7.912 0.727 7.782 0.68 7.637 C 0.632 7.492 0.629 7.333 0.676 7.181 C 0.895 6.474 1.193 5.796 1.563 5.16 C 1.933 4.524 2.374 3.93 2.88 3.389 C 2.989 3.273 3.128 3.197 3.277 3.166 C 3.426 3.136 3.584 3.151 3.73 3.215 L 4.43 3.523 L 5.13 3.83 C 5.558 4.015 6.014 3.967 6.377 3.757 C 6.739 3.547 7.008 3.175 7.06 2.712 L 7.145 1.949 L 7.23 1.186 C 7.248 1.026 7.315 0.881 7.417 0.767 C 7.519 0.653 7.656 0.571 7.813 0.536 C 8.172 0.457 8.534 0.396 8.901 0.354 C 9.268 0.312 9.639 0.289 10.014 0.284 Z M 10.014 1.784 C 9.787 1.787 9.561 1.798 9.335 1.817 C 9.109 1.837 8.884 1.865 8.66 1.901 L 8.606 2.39 L 8.551 2.878 C 8.443 3.845 7.883 4.621 7.127 5.058 C 6.37 5.495 5.418 5.593 4.527 5.204 L 4.078 5.007 L 3.629 4.81 C 3.343 5.157 3.086 5.526 2.861 5.913 C 2.635 6.301 2.441 6.706 2.281 7.127 L 2.68 7.42 L 3.079 7.714 C 3.862 8.289 4.254 9.162 4.254 10.035 C 4.254 10.908 3.862 11.781 3.079 12.357 L 2.68 12.651 L 2.28 12.945 C 2.44 13.366 2.634 13.772 2.859 14.161 C 3.085 14.549 3.342 14.919 3.628 15.267 L 4.08 15.068 L 4.533 14.87 C 5.422 14.481 6.372 14.579 7.126 15.015 C 7.881 15.45 8.441 16.224 8.55 17.188 L 8.605 17.68 L 8.66 18.172 C 9.104 18.247 9.554 18.284 10.003 18.284 C 10.453 18.284 10.903 18.247 11.347 18.172 L 11.402 17.68 L 11.457 17.188 C 11.564 16.222 12.123 15.447 12.879 15.011 C 13.634 14.574 14.585 14.476 15.475 14.866 L 15.927 15.064 L 16.38 15.262 C 16.665 14.914 16.922 14.545 17.147 14.157 C 17.373 13.77 17.567 13.364 17.727 12.944 L 17.328 12.65 L 16.929 12.356 C 16.145 11.78 15.754 10.907 15.754 10.034 C 15.754 9.161 16.145 8.288 16.929 7.713 L 17.327 7.419 L 17.725 7.126 C 17.565 6.705 17.37 6.3 17.145 5.912 C 16.92 5.525 16.663 5.156 16.377 4.809 L 15.929 5.005 L 15.481 5.202 C 14.59 5.591 13.638 5.493 12.881 5.057 C 12.125 4.62 11.565 3.844 11.458 2.878 L 11.403 2.39 L 11.348 1.902 C 11.127 1.865 10.906 1.837 10.683 1.818 C 10.461 1.798 10.238 1.787 10.015 1.785 L 10.014 1.784 Z M 10.002 6.284 C 11.445 6.284 12.618 7.065 13.249 8.159 C 13.881 9.253 13.971 10.659 13.249 11.909 C 12.914 12.489 12.437 12.958 11.876 13.282 C 11.316 13.605 10.672 13.784 10.002 13.784 C 8.559 13.784 7.386 13.003 6.754 11.909 C 6.123 10.815 6.033 9.409 6.754 8.159 C 7.089 7.578 7.566 7.11 8.127 6.786 C 8.688 6.462 9.332 6.284 10.002 6.284 Z M 10.002 7.784 C 9.136 7.784 8.432 8.253 8.053 8.909 C 7.674 9.565 7.62 10.409 8.053 11.159 C 8.254 11.507 8.54 11.788 8.877 11.982 C 9.213 12.177 9.6 12.284 10.002 12.284 C 10.868 12.284 11.572 11.815 11.95 11.159 C 12.329 10.503 12.383 9.659 11.95 8.909 C 11.749 8.561 11.463 8.279 11.127 8.085 C 10.791 7.891 10.404 7.784 10.002 7.784 Z" style=""/>
</svg>