<?xml version="1.0" encoding="utf-8"?>
<svg width="20" height="20" viewBox="0 0 20 20" fill="context-fill" fill-opacity="context-fill-opacity" xmlns="http://www.w3.org/2000/svg">
  <path d="M 8.909 12.074 L 8.909 13.006 L 8.909 13.939 C 7.316 13.939 5.873 14.565 4.828 15.578 C 3.784 16.59 3.138 17.99 3.138 19.535 L 2.176 19.535 L 1.214 19.535 C 1.214 17.475 2.075 15.609 3.468 14.259 C 4.86 12.909 6.784 12.074 8.909 12.074 Z M 8.909 11.142 C 7.315 11.142 5.872 10.516 4.828 9.504 C 3.784 8.491 3.138 7.092 3.138 5.547 C 3.138 4.002 3.784 2.603 4.828 1.59 C 5.872 0.578 7.315 -0.048 8.909 -0.048 C 10.504 -0.048 11.947 0.578 12.991 1.59 C 14.035 2.603 14.681 4.002 14.681 5.547 C 14.681 7.093 14.035 8.491 12.991 9.504 C 11.947 10.516 10.504 11.142 8.909 11.142 Z M 8.909 9.277 C 9.972 9.277 10.934 8.859 11.63 8.185 C 12.327 7.51 12.757 6.577 12.757 5.547 C 12.757 4.516 12.327 3.583 11.63 2.908 C 10.934 2.233 9.972 1.816 8.909 1.816 C 7.846 1.816 6.884 2.233 6.188 2.908 C 5.492 3.583 5.061 4.516 5.061 5.547 C 5.061 6.577 5.492 7.509 6.188 8.185 C 6.884 8.86 7.846 9.277 8.909 9.277 Z M 11.406 16.561 C 11.345 16.313 11.315 16.058 11.315 15.805 C 11.315 15.551 11.345 15.297 11.406 15.048 L 10.929 14.781 L 10.452 14.514 L 10.933 13.707 L 11.414 12.899 L 11.891 13.166 L 12.368 13.432 C 12.56 13.257 12.771 13.104 12.997 12.977 C 13.224 12.85 13.466 12.748 13.719 12.675 L 13.719 12.142 L 13.719 11.608 L 14.68 11.608 L 15.642 11.608 L 15.642 12.142 L 15.642 12.675 C 15.898 12.749 16.142 12.852 16.369 12.979 C 16.595 13.107 16.805 13.259 16.994 13.432 L 17.471 13.166 L 17.948 12.899 L 18.429 13.707 L 18.91 14.514 L 18.433 14.781 L 17.956 15.048 C 18.017 15.297 18.047 15.55 18.047 15.804 C 18.047 16.058 18.017 16.312 17.956 16.561 L 18.433 16.828 L 18.91 17.095 L 18.429 17.903 L 17.948 18.711 L 17.471 18.443 L 16.994 18.175 C 16.802 18.351 16.591 18.504 16.364 18.631 C 16.137 18.758 15.895 18.859 15.642 18.932 L 15.642 19.466 L 15.642 20 L 14.68 20 L 13.719 20 L 13.719 19.466 L 13.719 18.932 C 13.466 18.859 13.224 18.758 12.997 18.631 C 12.771 18.504 12.559 18.351 12.368 18.175 L 11.891 18.443 L 11.414 18.711 L 10.933 17.903 L 10.452 17.095 L 10.929 16.828 Z M 14.681 17.203 C 15.236 17.203 15.687 16.912 15.93 16.504 C 16.173 16.095 16.208 15.571 15.93 15.105 C 15.802 14.889 15.618 14.714 15.403 14.593 C 15.187 14.473 14.939 14.406 14.681 14.406 C 14.126 14.406 13.674 14.697 13.431 15.105 C 13.189 15.513 13.154 16.037 13.432 16.504 C 13.561 16.72 13.744 16.895 13.96 17.016 C 14.175 17.136 14.423 17.203 14.681 17.203 Z" style=""/>
</svg>