<?xml version="1.0" encoding="utf-8"?>
<svg width="20" height="20" viewBox="0 0 20 20" fill="context-fill" fill-opacity="context-fill-opacity" xmlns="http://www.w3.org/2000/svg">
  <path d="M 3.589 0.818 L 16.212 0.818 C 16.915 0.861 17.742 1.187 18.194 1.639 C 18.647 2.091 18.972 2.919 19.015 3.621 L 19.015 16.244 C 18.972 16.947 18.647 17.774 18.194 18.226 C 17.742 18.679 16.915 19.004 16.212 19.048 L 3.589 19.048 C 2.887 19.004 2.059 18.679 1.607 18.226 C 1.154 17.774 0.829 16.947 0.786 16.244 L 0.786 3.621 C 0.829 2.919 1.154 2.091 1.607 1.639 C 2.059 1.187 2.887 0.861 3.589 0.818 Z M 3.021 3.053 C 2.821 3.253 2.742 3.327 2.786 3.621 L 2.786 16.244 C 2.742 16.538 2.821 16.612 3.021 16.812 C 3.221 17.013 3.295 17.091 3.589 17.048 L 16.212 17.048 C 16.506 17.091 16.58 17.013 16.78 16.812 C 16.98 16.612 17.059 16.538 17.016 16.244 L 17.016 3.621 C 17.059 3.327 16.98 3.253 16.78 3.053 C 16.58 2.853 16.506 2.774 16.212 2.818 L 3.589 2.818 C 3.295 2.774 3.221 2.853 3.021 3.053 Z" style=""/>
</svg>