<?xml version="1.0" encoding="utf-8"?>
<svg width="20" height="20" viewBox="0 0 20 20" fill="context-fill" fill-opacity="context-fill-opacity" xmlns="http://www.w3.org/2000/svg">
  <path d="M 10.037 0.526 C 4.811 0.526 0.572 4.764 0.572 9.991 C 0.572 15.218 4.811 19.456 10.037 19.456 C 15.265 19.456 19.502 15.218 19.502 9.991 C 19.502 4.764 15.265 0.526 10.037 0.526 Z M 10.037 17.85 C 5.698 17.85 2.178 14.331 2.178 9.991 C 2.178 8.111 2.839 6.383 3.942 5.031 L 14.998 16.086 C 13.646 17.189 11.918 17.85 10.037 17.85 Z M 16.133 14.952 L 5.077 3.896 C 6.429 2.793 8.157 2.131 10.037 2.131 C 14.377 2.131 17.897 5.652 17.897 9.991 C 17.897 11.872 17.235 13.6 16.133 14.952 Z" style=""/>
</svg>