<?xml version="1.0" encoding="utf-8"?>
<svg width="16" height="16" viewBox="0 0 16 16" fill="context-fill" fill-opacity="context-fill-opacity" xmlns="http://www.w3.org/2000/svg">
  <path style="fill: rgb(216, 216, 216); stroke: rgb(0, 0, 0);" d="M 13.909 14.028" transform="matrix(1, 0, 0, 1, 28.618823, 8.497792)"/>
  <path style="fill: rgb(216, 216, 216); stroke: rgb(0, 0, 0);" d="M 13.348 13.06" transform="matrix(1, 0, 0, 1, 28.618823, 8.497792)"/>
  <path style="fill: rgb(216, 216, 216); stroke: rgb(0, 0, 0);" d="M 13.102 14.003" transform="matrix(1, 0, 0, 1, 28.618823, 8.497792)"/>
  <path style="fill: rgb(216, 216, 216); stroke: rgb(0, 0, 0);" d="M 12.541 13.035" transform="matrix(1, 0, 0, 1, 28.618823, 8.497792)"/>
  <path style="fill: rgb(216, 216, 216); stroke: rgb(0, 0, 0);" d="M 5.419 1.7" transform="matrix(1, 0, 0, 1, 28.618823, 8.497792)"/>
  <path d="M 7.267 6.879 L 5.959 6.879 L 5.959 8.839 L 3.997 8.839 L 3.997 10.147 L 5.959 10.147 L 5.959 12.109 L 7.267 12.109 L 7.267 10.147 L 9.227 10.147 L 9.227 8.839 L 7.267 8.839 Z" style=""/>
  <path d="M 2.69 14.723 L 10.536 14.723 C 11.256 14.723 11.843 14.137 11.843 13.416 L 11.843 5.57 C 11.843 4.85 11.256 4.264 10.536 4.264 L 2.69 4.264 C 1.969 4.264 1.383 4.85 1.383 5.57 L 1.383 13.416 C 1.383 14.137 1.969 14.723 2.69 14.723 Z M 2.69 5.57 L 10.536 5.57 L 10.538 13.416 L 2.69 13.416 L 2.69 5.57 Z" style=""/>
  <path d="M 13.15 1.649 L 5.305 1.649 L 5.305 2.956 L 13.15 2.956 L 13.15 10.801 L 14.457 10.801 L 14.457 2.956 C 14.457 2.236 13.87 1.649 13.15 1.649 Z" style=""/>
</svg>