<?xml version="1.0" encoding="utf-8"?>
<svg width="20" height="20" viewBox="0 0 20 20" fill="context-fill" fill-opacity="context-fill-opacity" xmlns="http://www.w3.org/2000/svg">
  <path d="M 6.048 12.846 C 6.567 12.846 6.989 12.565 7.215 12.172 C 7.442 11.779 7.475 11.273 7.215 10.824 C 7.094 10.615 6.923 10.447 6.721 10.331 C 6.52 10.214 6.288 10.15 6.048 10.15 C 5.529 10.15 5.107 10.431 4.88 10.824 C 4.653 11.218 4.62 11.723 4.88 12.172 C 5 12.381 5.172 12.549 5.374 12.665 C 5.575 12.782 5.807 12.846 6.048 12.846 Z" style=""/>
  <path d="M 11.44 11.498 C 11.44 12.017 11.159 12.439 10.766 12.666 C 10.373 12.893 9.868 12.926 9.418 12.666 C 9.209 12.546 9.041 12.374 8.925 12.172 C 8.808 11.971 8.744 11.739 8.744 11.498 C 8.744 10.98 9.025 10.558 9.418 10.331 C 9.811 10.104 10.317 10.072 10.766 10.331 C 10.975 10.452 11.143 10.623 11.259 10.825 C 11.376 11.026 11.44 11.258 11.44 11.498 Z" style=""/>
  <path d="M 14.136 12.846 C 14.655 12.846 15.077 12.565 15.304 12.172 C 15.531 11.779 15.564 11.273 15.304 10.824 C 15.184 10.615 15.012 10.447 14.81 10.331 C 14.609 10.214 14.377 10.15 14.136 10.15 C 13.617 10.15 13.196 10.431 12.969 10.824 C 12.742 11.218 12.71 11.723 12.969 12.172 C 13.09 12.381 13.261 12.549 13.463 12.665 C 13.664 12.782 13.896 12.846 14.136 12.846 Z" style=""/>
  <path d="M 0.655 4.084 C 0.655 3.154 1.032 2.311 1.642 1.701 C 2.252 1.091 3.095 0.714 4.026 0.714 L 10.092 0.714 L 16.158 0.714 C 17.089 0.714 17.931 1.091 18.541 1.701 C 19.151 2.311 19.528 3.154 19.528 4.084 L 19.528 10.151 L 19.528 16.217 C 19.528 17.148 19.151 17.99 18.541 18.6 C 17.932 19.21 17.089 19.587 16.158 19.587 L 10.092 19.587 L 4.026 19.587 C 3.095 19.587 2.252 19.21 1.642 18.6 C 1.032 17.99 0.655 17.148 0.655 16.217 L 0.655 10.151 Z M 4.026 2.062 C 3.468 2.062 2.962 2.288 2.596 2.654 C 2.23 3.02 2.004 3.526 2.004 4.084 L 2.004 10.151 L 2.004 16.217 C 2.004 16.775 2.23 17.281 2.596 17.647 C 2.962 18.013 3.468 18.239 4.026 18.239 L 10.092 18.239 L 16.158 18.239 C 16.717 18.239 17.222 18.013 17.588 17.647 C 17.954 17.281 18.18 16.775 18.18 16.217 L 18.18 11.161 L 18.18 6.106 L 13.799 6.106 L 9.418 6.106 C 8.859 6.106 8.354 5.88 7.988 5.514 C 7.622 5.148 7.396 4.642 7.396 4.084 L 7.396 3.073 L 7.396 2.062 L 5.711 2.062 Z M 18.18 4.084 C 18.18 3.526 17.954 3.02 17.588 2.654 C 17.222 2.288 16.717 2.062 16.158 2.062 L 12.451 2.062 L 8.744 2.062 L 8.744 3.073 L 8.744 4.084 C 8.744 4.27 8.82 4.439 8.942 4.561 C 9.064 4.683 9.232 4.758 9.418 4.758 L 13.799 4.758 L 18.18 4.758 L 18.18 4.421 Z" style=""/>
</svg>