<?xml version="1.0" encoding="utf-8"?>
<svg width="20" height="20" viewBox="0 0 20 20" fill="context-fill" fill-opacity="context-fill-opacity" xmlns="http://www.w3.org/2000/svg">
  <path d="M 5.301 0.435 C 5.599 0.434 5.866 0.62 5.97 0.9 L 8.772 8.483 L 8.784 8.513 L 8.995 9.085 L 8.209 11.066 L 7.614 9.457 L 2.988 9.457 L 1.931 12.315 C 1.74 12.83 1.065 12.945 0.715 12.523 C 0.552 12.327 0.506 12.059 0.595 11.821 L 1.818 8.513 C 1.821 8.503 1.825 8.492 1.829 8.482 L 4.633 0.9 C 4.737 0.621 5.003 0.435 5.301 0.435 Z M 3.516 8.032 L 7.086 8.032 L 5.301 3.201 L 3.514 8.032 Z" style=""/>
  <path d="M 11.764 4.682 C 11.966 4.172 12.644 4.072 12.984 4.501 C 13.028 4.556 13.063 4.617 13.089 4.682 L 18.363 18.007 L 18.832 18.007 C 19.38 18.007 19.723 18.6 19.449 19.075 C 19.322 19.295 19.087 19.431 18.832 19.431 L 16.459 19.431 C 15.911 19.431 15.568 18.837 15.842 18.363 C 15.97 18.142 16.205 18.007 16.459 18.007 L 16.831 18.007 L 15.701 15.154 L 9.139 15.154 L 8.007 18.007 L 8.387 18.007 C 8.936 18.007 9.278 18.6 9.004 19.075 C 8.877 19.295 8.642 19.431 8.387 19.431 L 6.013 19.431 C 5.465 19.431 5.122 18.837 5.396 18.363 C 5.524 18.142 5.759 18.007 6.013 18.007 L 6.474 18.007 L 11.763 4.683 Z M 15.139 13.729 L 12.426 6.878 L 9.705 13.729 L 15.137 13.729 Z" style=""/>
</svg>