<?xml version="1.0" encoding="utf-8"?>
<svg width="20" height="20" viewBox="0 0 20 20" fill="context-fill" fill-opacity="context-fill-opacity" xmlns="http://www.w3.org/2000/svg">
  <path d="M 14.843 15.527 C 14.974 15.688 15.027 15.887 15.008 16.077 C 14.988 16.268 14.895 16.452 14.734 16.582 L 12.734 18.207 L 10.734 19.832 C 10.597 19.944 10.429 20 10.261 20 C 10.094 20 9.926 19.944 9.788 19.832 L 7.788 18.207 L 5.788 16.582 C 5.627 16.452 5.535 16.268 5.515 16.077 C 5.495 15.886 5.548 15.688 5.679 15.527 C 5.809 15.366 5.993 15.274 6.184 15.254 C 6.375 15.234 6.573 15.287 6.734 15.418 L 8.497 16.851 L 10.261 18.284 L 12.025 16.851 L 13.788 15.418 C 13.949 15.288 14.148 15.234 14.338 15.254 C 14.529 15.274 14.713 15.366 14.843 15.527 Z M 3.187 7.485 C 3.458 7.485 3.697 7.53 3.905 7.619 C 4.112 7.708 4.288 7.842 4.431 8.02 C 4.575 8.198 4.683 8.415 4.757 8.671 C 4.83 8.927 4.869 9.222 4.872 9.556 L 4.872 10.014 L 4.872 10.472 C 4.872 10.816 4.837 11.12 4.765 11.383 C 4.694 11.646 4.587 11.869 4.445 12.051 C 4.302 12.233 4.127 12.37 3.919 12.461 C 3.71 12.552 3.468 12.598 3.194 12.598 C 2.923 12.598 2.684 12.553 2.476 12.464 C 2.269 12.375 2.094 12.24 1.95 12.062 C 1.807 11.883 1.698 11.665 1.625 11.409 C 1.551 11.152 1.513 10.857 1.509 10.523 L 1.509 10.065 L 1.509 9.607 C 1.509 9.26 1.545 8.954 1.617 8.69 C 1.689 8.427 1.797 8.205 1.941 8.025 C 2.085 7.845 2.261 7.71 2.469 7.62 C 2.677 7.53 2.916 7.485 3.187 7.485 Z M 7.203 7.485 C 7.474 7.485 7.713 7.53 7.921 7.619 C 8.128 7.708 8.304 7.842 8.447 8.02 C 8.59 8.198 8.699 8.415 8.772 8.671 C 8.846 8.927 8.885 9.222 8.888 9.556 L 8.888 10.014 L 8.888 10.472 C 8.888 10.816 8.853 11.12 8.781 11.383 C 8.71 11.646 8.604 11.869 8.461 12.051 C 8.319 12.233 8.143 12.37 7.935 12.461 C 7.726 12.552 7.485 12.598 7.21 12.598 C 6.939 12.598 6.7 12.553 6.492 12.464 C 6.285 12.375 6.11 12.24 5.966 12.062 C 5.823 11.883 5.714 11.665 5.641 11.409 C 5.567 11.152 5.529 10.857 5.525 10.523 L 5.525 10.065 L 5.525 9.607 C 5.525 9.26 5.561 8.954 5.633 8.69 C 5.705 8.427 5.813 8.205 5.957 8.025 C 6.102 7.845 6.278 7.71 6.485 7.62 C 6.693 7.53 6.932 7.485 7.203 7.485 Z M 13.195 7.485 C 13.466 7.485 13.705 7.53 13.913 7.619 C 14.12 7.708 14.296 7.842 14.439 8.02 C 14.583 8.198 14.691 8.415 14.765 8.671 C 14.838 8.927 14.877 9.222 14.88 9.556 L 14.88 10.014 L 14.88 10.472 C 14.88 10.816 14.844 11.12 14.773 11.383 C 14.702 11.646 14.595 11.869 14.453 12.051 C 14.311 12.233 14.135 12.37 13.927 12.461 C 13.718 12.552 13.477 12.598 13.202 12.598 C 12.931 12.598 12.691 12.553 12.484 12.464 C 12.277 12.375 12.102 12.24 11.958 12.062 C 11.814 11.883 11.705 11.665 11.632 11.409 C 11.558 11.152 11.52 10.857 11.517 10.523 L 11.517 10.065 L 11.517 9.607 C 11.517 9.26 11.553 8.954 11.625 8.69 C 11.697 8.427 11.805 8.205 11.949 8.025 C 12.093 7.845 12.269 7.71 12.477 7.62 C 12.685 7.53 12.924 7.485 13.195 7.485 Z M 17.211 7.485 C 17.482 7.485 17.721 7.53 17.929 7.619 C 18.136 7.708 18.312 7.842 18.455 8.02 C 18.598 8.198 18.707 8.415 18.781 8.671 C 18.854 8.927 18.893 9.222 18.896 9.556 L 18.896 10.014 L 18.896 10.472 C 18.896 10.816 18.861 11.12 18.789 11.383 C 18.718 11.646 18.611 11.869 18.469 12.051 C 18.327 12.233 18.151 12.37 17.943 12.461 C 17.734 12.552 17.493 12.598 17.218 12.598 C 16.947 12.598 16.707 12.553 16.5 12.464 C 16.293 12.375 16.118 12.24 15.974 12.062 C 15.831 11.883 15.722 11.665 15.649 11.409 C 15.575 11.152 15.537 10.857 15.533 10.523 L 15.533 10.065 L 15.533 9.607 C 15.533 9.26 15.569 8.954 15.641 8.69 C 15.713 8.427 15.821 8.205 15.965 8.025 C 16.109 7.845 16.285 7.71 16.493 7.62 C 16.701 7.53 16.94 7.485 17.211 7.485 Z M 10.261 11 C 10.342 11 10.416 11.012 10.483 11.037 C 10.55 11.061 10.61 11.098 10.663 11.147 C 10.716 11.196 10.756 11.253 10.782 11.316 C 10.809 11.38 10.822 11.452 10.822 11.53 C 10.822 11.608 10.809 11.678 10.782 11.741 C 10.756 11.804 10.717 11.86 10.665 11.908 C 10.612 11.956 10.552 11.992 10.485 12.017 C 10.418 12.041 10.343 12.053 10.261 12.053 C 10.18 12.053 10.106 12.041 10.04 12.017 C 9.973 11.992 9.913 11.956 9.861 11.908 C 9.809 11.86 9.77 11.804 9.743 11.741 C 9.717 11.678 9.704 11.608 9.704 11.53 C 9.704 11.452 9.717 11.38 9.744 11.316 C 9.77 11.253 9.81 11.196 9.863 11.147 C 9.916 11.098 9.976 11.061 10.042 11.037 C 10.108 11.012 10.181 11 10.261 11 Z M 3.187 8.285 C 3.071 8.285 2.97 8.307 2.884 8.352 C 2.798 8.396 2.728 8.464 2.673 8.553 C 2.617 8.642 2.575 8.757 2.546 8.897 C 2.516 9.037 2.5 9.202 2.497 9.392 L 2.497 9.997 L 2.497 10.602 C 2.497 10.805 2.511 10.982 2.538 11.132 C 2.566 11.283 2.607 11.407 2.662 11.506 C 2.717 11.605 2.789 11.679 2.878 11.728 C 2.967 11.777 3.072 11.802 3.194 11.802 C 3.314 11.802 3.418 11.778 3.506 11.731 C 3.593 11.683 3.663 11.612 3.717 11.518 C 3.77 11.423 3.811 11.304 3.839 11.159 C 3.867 11.015 3.882 10.845 3.884 10.65 L 3.884 10.058 L 3.884 9.467 C 3.884 9.261 3.87 9.083 3.842 8.933 C 3.814 8.783 3.772 8.661 3.715 8.567 C 3.658 8.473 3.586 8.402 3.498 8.355 C 3.41 8.308 3.306 8.285 3.187 8.285 Z M 7.203 8.285 C 7.087 8.285 6.986 8.307 6.9 8.352 C 6.815 8.396 6.744 8.464 6.689 8.553 C 6.634 8.642 6.591 8.757 6.562 8.897 C 6.533 9.037 6.517 9.202 6.513 9.392 L 6.513 9.997 L 6.513 10.602 C 6.513 10.805 6.527 10.982 6.554 11.132 C 6.582 11.283 6.623 11.407 6.678 11.506 C 6.734 11.605 6.806 11.679 6.894 11.728 C 6.983 11.777 7.088 11.802 7.21 11.802 C 7.331 11.802 7.435 11.778 7.522 11.731 C 7.609 11.683 7.68 11.612 7.733 11.518 C 7.787 11.423 7.827 11.304 7.855 11.159 C 7.883 11.015 7.898 10.845 7.9 10.65 L 7.9 10.058 L 7.9 9.467 C 7.9 9.261 7.886 9.083 7.858 8.933 C 7.83 8.783 7.788 8.661 7.731 8.567 C 7.675 8.473 7.602 8.402 7.514 8.355 C 7.426 8.308 7.323 8.285 7.203 8.285 Z M 13.195 8.285 C 13.079 8.285 12.978 8.307 12.892 8.352 C 12.806 8.396 12.736 8.464 12.68 8.553 C 12.625 8.642 12.583 8.757 12.553 8.897 C 12.524 9.037 12.507 9.202 12.504 9.392 L 12.504 9.997 L 12.504 10.602 C 12.504 10.805 12.518 10.982 12.546 11.132 C 12.574 11.283 12.615 11.407 12.67 11.506 C 12.726 11.605 12.798 11.679 12.886 11.728 C 12.975 11.777 13.08 11.802 13.202 11.802 C 13.323 11.802 13.427 11.778 13.514 11.731 C 13.601 11.683 13.672 11.612 13.725 11.518 C 13.779 11.423 13.819 11.304 13.847 11.159 C 13.875 11.015 13.89 10.845 13.892 10.65 L 13.892 10.058 L 13.892 9.467 C 13.892 9.261 13.878 9.083 13.85 8.933 C 13.822 8.783 13.779 8.661 13.723 8.567 C 13.667 8.473 13.594 8.402 13.506 8.355 C 13.418 8.308 13.314 8.285 13.195 8.285 Z M 17.211 8.285 C 17.095 8.285 16.994 8.307 16.908 8.352 C 16.822 8.396 16.752 8.464 16.697 8.553 C 16.65 8.628 16.613 8.719 16.585 8.829 C 16.557 8.939 16.538 9.065 16.528 9.21 L 16.525 9.301 L 16.521 9.392 L 16.521 9.997 L 16.521 10.602 C 16.521 10.805 16.535 10.982 16.562 11.132 C 16.59 11.283 16.631 11.407 16.686 11.506 C 16.742 11.604 16.814 11.678 16.902 11.728 C 16.991 11.777 17.096 11.802 17.218 11.802 C 17.339 11.802 17.443 11.778 17.53 11.731 C 17.617 11.683 17.688 11.612 17.741 11.518 C 17.786 11.439 17.821 11.343 17.848 11.229 C 17.875 11.116 17.893 10.984 17.902 10.836 L 17.905 10.743 L 17.908 10.65 L 17.908 10.058 L 17.908 9.467 C 17.908 9.261 17.894 9.083 17.866 8.933 C 17.838 8.783 17.796 8.661 17.739 8.567 C 17.683 8.473 17.61 8.402 17.522 8.355 C 17.434 8.308 17.331 8.285 17.211 8.285 Z M 10.261 8.201 C 10.342 8.201 10.416 8.213 10.483 8.238 C 10.55 8.262 10.61 8.299 10.663 8.348 C 10.716 8.397 10.756 8.453 10.782 8.517 C 10.809 8.581 10.822 8.652 10.822 8.731 C 10.822 8.808 10.809 8.878 10.782 8.941 C 10.756 9.004 10.717 9.06 10.665 9.108 C 10.612 9.157 10.552 9.193 10.485 9.217 C 10.418 9.241 10.343 9.253 10.261 9.253 C 10.18 9.253 10.106 9.241 10.04 9.217 C 9.973 9.193 9.913 9.157 9.861 9.108 C 9.809 9.06 9.77 9.004 9.743 8.941 C 9.717 8.878 9.704 8.808 9.704 8.731 C 9.704 8.652 9.717 8.581 9.744 8.517 C 9.77 8.453 9.81 8.397 9.863 8.348 C 9.916 8.299 9.976 8.262 10.042 8.238 C 10.108 8.213 10.181 8.201 10.261 8.201 Z M 5.788 3.418 L 7.788 1.793 L 9.788 0.168 C 9.911 0.069 10.057 0.013 10.205 0.002 C 10.354 -0.009 10.505 0.025 10.638 0.102 L 10.686 0.135 L 10.734 0.168 L 12.734 1.793 L 14.734 3.418 C 14.895 3.549 14.988 3.732 15.008 3.923 C 15.027 4.114 14.974 4.312 14.843 4.473 C 14.725 4.619 14.562 4.709 14.39 4.739 C 14.218 4.769 14.037 4.739 13.879 4.646 L 13.834 4.614 L 13.788 4.582 L 12.025 3.149 L 10.261 1.716 L 8.497 3.149 L 6.734 4.582 C 6.573 4.712 6.375 4.765 6.184 4.746 C 5.993 4.726 5.809 4.633 5.679 4.473 C 5.56 4.327 5.506 4.15 5.511 3.975 C 5.517 3.801 5.583 3.629 5.707 3.494 L 5.747 3.456 L 5.788 3.418 L 7.788 1.793 L 9.788 0.168 L 7.788 1.793 Z" style=""/>
</svg>