<?xml version="1.0" encoding="utf-8"?>
<svg width="20" height="20" viewBox="0 0 20 20" fill="context-fill" fill-opacity="context-fill-opacity" xmlns="http://www.w3.org/2000/svg">
  <path fill-rule="evenodd" clip-rule="evenodd" d="M 18.768 4.159 L 18.267 4.04 L 17.765 3.922 L 16.409 5.271 L 15.052 6.619 L 14.284 5.837 L 13.516 5.054 L 14.839 3.667 L 16.162 2.279 L 16.046 1.77 L 15.93 1.26 C 15.651 1.167 15.365 1.095 15.075 1.046 C 14.785 0.997 14.492 0.971 14.197 0.967 C 13.875 0.962 13.555 0.99 13.241 1.05 C 12.927 1.111 12.619 1.203 12.322 1.327 C 12.035 1.457 11.763 1.613 11.507 1.794 C 11.252 1.975 11.013 2.181 10.796 2.408 C 10.554 2.637 10.337 2.89 10.148 3.163 C 9.959 3.436 9.799 3.728 9.67 4.035 C 9.422 4.647 9.297 5.295 9.297 5.944 C 9.297 6.592 9.422 7.24 9.67 7.852 C 8.329 9.172 6.997 10.5 5.673 11.837 C 4.349 13.174 3.034 14.519 1.727 15.873 C 1.592 16.05 1.492 16.249 1.431 16.459 C 1.369 16.669 1.345 16.89 1.362 17.112 C 1.375 17.351 1.435 17.582 1.537 17.794 C 1.638 18.005 1.781 18.197 1.959 18.356 C 2.039 18.443 2.126 18.523 2.22 18.593 C 2.314 18.664 2.415 18.727 2.521 18.779 C 2.631 18.827 2.744 18.865 2.86 18.892 C 2.976 18.919 3.094 18.936 3.213 18.942 C 3.417 18.938 3.616 18.898 3.802 18.824 C 3.988 18.751 4.161 18.644 4.312 18.508 C 5.308 17.571 6.76 16.14 8.234 14.66 C 9.708 13.181 11.205 11.654 12.289 10.526 C 12.583 10.651 12.888 10.745 13.199 10.808 C 13.51 10.872 13.828 10.904 14.147 10.903 C 14.796 10.903 15.431 10.771 16.016 10.523 C 16.602 10.275 17.139 9.911 17.591 9.445 C 18.051 8.976 18.409 8.426 18.652 7.829 C 18.895 7.232 19.023 6.589 19.021 5.932 C 19.029 5.632 19.011 5.332 18.968 5.035 C 18.926 4.739 18.859 4.446 18.768 4.159 Z M 3.534 17.596 C 3.509 17.618 3.481 17.637 3.452 17.652 C 3.423 17.667 3.392 17.679 3.36 17.686 C 3.329 17.692 3.297 17.694 3.264 17.694 C 3.232 17.694 3.2 17.692 3.168 17.686 C 3.135 17.681 3.103 17.672 3.071 17.66 C 3.04 17.648 3.011 17.632 2.983 17.613 C 2.954 17.596 2.926 17.575 2.901 17.551 C 2.877 17.527 2.855 17.5 2.836 17.471 C 2.746 17.379 2.659 17.245 2.616 17.11 C 2.572 16.975 2.572 16.838 2.656 16.74 C 3.538 15.803 4.886 14.418 6.297 12.988 C 7.709 11.557 9.184 10.081 10.319 8.961 C 10.383 9.046 10.451 9.129 10.521 9.21 C 10.592 9.29 10.665 9.369 10.741 9.445 C 10.817 9.524 10.895 9.6 10.977 9.673 C 11.059 9.746 11.143 9.816 11.23 9.883 C 10.132 11.009 8.688 12.477 7.279 13.894 C 5.87 15.311 4.495 16.676 3.535 17.596 L 3.535 17.596 Z M 17.839 5.932 C 17.841 6.424 17.746 6.907 17.564 7.354 C 17.382 7.802 17.114 8.215 16.769 8.567 C 16.053 9.27 15.122 9.621 14.191 9.621 C 13.26 9.621 12.329 9.27 11.613 8.567 C 11.098 8.03 10.761 7.369 10.619 6.668 C 10.477 5.967 10.531 5.226 10.796 4.531 C 10.971 4.062 11.241 3.641 11.584 3.292 C 11.927 2.942 12.342 2.664 12.807 2.48 C 13.026 2.389 13.252 2.319 13.483 2.273 C 13.714 2.227 13.95 2.204 14.186 2.204 L 14.35 2.204 L 14.513 2.204 L 13.344 3.409 L 12.175 4.614 L 12.175 5.062 L 12.175 5.51 L 13.395 6.724 L 14.614 7.937 L 15.039 7.937 L 15.463 7.937 L 16.651 6.769 L 17.839 5.6 L 17.839 5.766 Z M 3.929 8.28 L 4.914 8.28 L 5.899 8.28 L 6.353 8.741 L 6.806 9.203 L 7.242 8.769 L 7.678 8.336 L 7.251 7.899 L 6.823 7.463 L 6.823 7.435 L 6.823 7.408 L 6.86 6.347 L 6.896 5.286 L 6.755 5.005 L 6.613 4.724 L 4.773 3.513 L 2.933 2.302 L 2.553 2.344 L 2.172 2.387 L 1.638 2.933 L 1.103 3.479 L 1.061 3.864 L 1.018 4.25 L 2.201 6.127 L 3.383 8.005 L 3.656 8.143 L 3.929 8.281 L 3.929 8.28 Z M 2.713 3.607 L 4.202 4.588 L 5.69 5.568 L 5.665 6.291 L 5.64 7.013 L 4.948 7.013 L 4.256 7.013 L 3.296 5.494 L 2.336 3.974 L 2.524 3.791 Z M 11.855 12.562 L 12.289 12.129 L 12.722 11.696 L 14.721 13.746 L 16.719 15.795 C 17.069 16.162 17.243 16.634 17.243 17.106 C 17.243 17.578 17.069 18.051 16.719 18.418 C 16.46 18.684 16.133 18.857 15.785 18.928 C 15.437 18.999 15.068 18.968 14.726 18.824 C 14.619 18.777 14.518 18.718 14.424 18.65 C 14.329 18.582 14.242 18.505 14.163 18.418 L 12.142 16.358 L 10.12 14.297 L 10.557 13.861 L 10.994 13.425 L 13.009 15.48 L 15.024 17.534 C 15.051 17.564 15.082 17.591 15.115 17.613 C 15.148 17.636 15.184 17.655 15.221 17.669 C 15.295 17.7 15.374 17.715 15.452 17.715 C 15.531 17.715 15.609 17.7 15.683 17.669 C 15.721 17.655 15.756 17.636 15.789 17.613 C 15.823 17.591 15.853 17.564 15.88 17.534 C 15.908 17.506 15.933 17.475 15.955 17.442 C 15.976 17.409 15.994 17.374 16.008 17.337 C 16.023 17.3 16.035 17.261 16.042 17.221 C 16.05 17.182 16.055 17.142 16.055 17.101 C 16.054 17.061 16.05 17.02 16.042 16.981 C 16.035 16.941 16.024 16.902 16.01 16.864 C 15.995 16.827 15.977 16.792 15.956 16.759 C 15.934 16.726 15.909 16.695 15.881 16.667 L 13.868 14.615 Z" style=""/>
</svg>