<?xml version="1.0" encoding="utf-8"?>
<svg width="20" height="20" viewBox="0 0 20 20" fill="context-fill" fill-opacity="context-fill-opacity" xmlns="http://www.w3.org/2000/svg">
  <path d="M 10.771 12.855 L 10.25 12.34 L 9.729 11.825 L 9.207 11.31 L 8.686 10.794 L 8.692 10.788 L 8.698 10.782 L 8.705 10.776 L 8.711 10.77 C 9.059 10.384 9.384 9.98 9.687 9.56 C 9.99 9.14 10.27 8.705 10.525 8.255 C 10.78 7.805 11.011 7.342 11.217 6.867 C 11.423 6.392 11.603 5.906 11.757 5.41 L 12.359 5.41 L 12.96 5.41 L 13.561 5.41 L 14.162 5.41 L 14.162 4.999 L 14.162 4.589 L 14.162 4.179 L 14.162 3.768 L 12.726 3.768 L 11.289 3.768 L 9.853 3.768 L 8.416 3.768 L 8.416 3.358 L 8.416 2.947 L 8.416 2.537 L 8.416 2.127 L 8.006 2.127 L 7.595 2.127 L 7.185 2.127 L 6.774 2.127 L 6.774 2.537 L 6.774 2.947 L 6.774 3.358 L 6.774 3.768 L 5.338 3.768 L 3.901 3.768 L 2.465 3.768 L 1.029 3.768 L 1.029 4.177 L 1.029 4.585 L 1.029 4.994 L 1.029 5.402 L 3.321 5.402 L 5.612 5.402 L 7.904 5.402 L 10.196 5.402 C 10.059 5.798 9.902 6.189 9.725 6.573 C 9.547 6.957 9.35 7.334 9.133 7.703 C 8.916 8.072 8.679 8.433 8.423 8.783 C 8.167 9.133 7.891 9.473 7.595 9.801 C 7.404 9.59 7.221 9.374 7.047 9.153 C 6.872 8.932 6.706 8.706 6.548 8.476 C 6.39 8.246 6.241 8.012 6.099 7.774 C 5.958 7.537 5.824 7.296 5.699 7.051 L 5.289 7.051 L 4.879 7.051 L 4.468 7.051 L 4.058 7.051 C 4.208 7.386 4.371 7.716 4.549 8.04 C 4.726 8.365 4.916 8.684 5.121 8.997 C 5.325 9.31 5.542 9.617 5.773 9.917 C 6.003 10.216 6.247 10.509 6.503 10.794 L 5.458 11.824 L 4.414 12.854 L 3.369 13.884 L 2.325 14.914 L 2.616 15.205 L 2.908 15.497 L 3.199 15.788 L 3.491 16.08 L 4.517 15.054 L 5.543 14.028 L 6.569 13.002 L 7.595 11.976 L 8.233 12.614 L 8.871 13.252 L 9.509 13.89 L 10.147 14.528 L 10.303 14.11 L 10.459 13.692 L 10.615 13.273 Z M 15.393 8.693 L 14.983 8.693 L 14.572 8.693 L 14.161 8.693 L 13.751 8.693 L 12.827 11.156 L 11.904 13.618 L 10.98 16.08 L 10.057 18.542 L 10.467 18.542 L 10.878 18.542 L 11.288 18.542 L 11.698 18.542 L 11.928 17.927 L 12.158 17.311 L 12.388 16.696 L 12.618 16.08 L 13.592 16.08 L 14.567 16.08 L 15.541 16.08 L 16.516 16.08 L 16.748 16.696 L 16.98 17.311 L 17.212 17.927 L 17.444 18.542 L 17.854 18.542 L 18.265 18.542 L 18.675 18.542 L 19.086 18.542 L 18.163 16.08 L 17.24 13.618 L 16.316 11.156 Z M 13.242 14.438 L 13.575 13.55 L 13.907 12.661 L 14.239 11.772 L 14.572 10.884 L 14.904 11.772 L 15.236 12.661 L 15.569 13.55 L 15.901 14.438 L 15.236 14.438 L 14.571 14.438 L 13.907 14.438 Z" style=""/>
</svg>