<?xml version="1.0" encoding="utf-8"?>
<svg width="20" height="20" viewBox="0 0 20 20" fill="context-fill" fill-opacity="context-fill-opacity" xmlns="http://www.w3.org/2000/svg">
  <path style="fill: rgb(216, 216, 216); stroke: rgb(0, 0, 0);" d="M 10.035 14.543" transform="matrix(1, 0, 0, 1, 25.107742, 1.702414)"/>
  <path style="fill: rgb(216, 216, 216); stroke: rgb(0, 0, 0);" d="M 9.474 13.575" transform="matrix(1, 0, 0, 1, 25.107742, 1.702414)"/>
  <path style="fill: rgb(216, 216, 216); stroke: rgb(0, 0, 0);" d="M 9.228 14.518" transform="matrix(1, 0, 0, 1, 25.107742, 1.702414)"/>
  <path style="fill: rgb(216, 216, 216); stroke: rgb(0, 0, 0);" d="M 8.667 13.55" transform="matrix(1, 0, 0, 1, 25.107742, 1.702414)"/>
  <path style="fill: rgb(216, 216, 216); stroke: rgb(0, 0, 0);" d="M 10.035 14.543" transform="matrix(1, 0, 0, 1, 58.150874, 1.524084)"/>
  <path style="fill: rgb(216, 216, 216); stroke: rgb(0, 0, 0);" d="M 9.474 13.575" transform="matrix(1, 0, 0, 1, 58.150874, 1.524084)"/>
  <g fill="#000000" transform="matrix(1, 0, 0, 1, 82.655246, 5.825572)"/>
  <g fill="none" transform="matrix(0.859928, 0, 0, 0.859928, 24.763655, 1.28021)" style=""/>
  <path style="fill: rgb(216, 216, 216); stroke: rgb(0, 0, 0);" d="M 10.035 14.543" transform="matrix(1, 0, 0, 1, 27.349189, -1.636225)"/>
  <path style="fill: rgb(216, 216, 216); stroke: rgb(0, 0, 0);" d="M 9.474 13.575" transform="matrix(1, 0, 0, 1, 27.349189, -1.636225)"/>
  <path style="fill: rgb(216, 216, 216); stroke: rgb(0, 0, 0);" d="M 9.228 14.518" transform="matrix(1, 0, 0, 1, 27.349189, -1.636225)"/>
  <path style="fill: rgb(216, 216, 216); stroke: rgb(0, 0, 0);" d="M 8.667 13.55" transform="matrix(1, 0, 0, 1, 27.349189, -1.636225)"/>
  <path style="fill: rgb(216, 216, 216); stroke: rgb(0, 0, 0);" d="M 10.035 14.543" transform="matrix(1, 0, 0, 1, 60.392322, -1.814553)"/>
  <path style="fill: rgb(216, 216, 216); stroke: rgb(0, 0, 0);" d="M 9.474 13.575" transform="matrix(1, 0, 0, 1, 60.392322, -1.814553)"/>
  <g fill="#000000" transform="matrix(1, 0, 0, 1, 84.896694, 2.486935)"/>
  <g fill="none" transform="matrix(0.859928, 0, 0, 0.859928, 27.005102, -2.058427)" style=""/>
  <path style="fill: rgb(216, 216, 216); stroke: rgb(0, 0, 0);" d="M 9.849 14.661" transform="matrix(1, 0, 0, 1, 25.107742, 1.702414)"/>
  <path style="fill: rgb(216, 216, 216); stroke: rgb(0, 0, 0);" d="M 9.288 13.693" transform="matrix(1, 0, 0, 1, 25.107742, 1.702414)"/>
  <path style="fill: rgb(216, 216, 216); stroke: rgb(0, 0, 0);" d="M 9.042 14.636" transform="matrix(1, 0, 0, 1, 25.107742, 1.702414)"/>
  <path style="fill: rgb(216, 216, 216); stroke: rgb(0, 0, 0);" d="M 8.481 13.668" transform="matrix(1, 0, 0, 1, 25.107742, 1.702414)"/>
  <path style="fill: rgb(216, 216, 216); stroke: rgb(0, 0, 0);" d="M 42.892 14.483" transform="matrix(1, 0, 0, 1, 25.107742, 1.702414)"/>
  <path style="fill: rgb(216, 216, 216); stroke: rgb(0, 0, 0);" d="M 42.331 13.515" transform="matrix(1, 0, 0, 1, 25.107742, 1.702414)"/>
  <g fill="#000000" transform="matrix(1, 0, 0, 1, 82.46894, 5.943603)"/>
  <path style="fill: rgb(216, 216, 216); stroke: rgb(0, 0, 0);" d="M 10.035 14.543" transform="matrix(1, 0, 0, 1, 19.876124, -2.308663)"/>
  <path style="fill: rgb(216, 216, 216); stroke: rgb(0, 0, 0);" d="M 9.474 13.575" transform="matrix(1, 0, 0, 1, 19.876124, -2.308663)"/>
  <path style="fill: rgb(216, 216, 216); stroke: rgb(0, 0, 0);" d="M 9.228 14.518" transform="matrix(1, 0, 0, 1, 19.876124, -2.308663)"/>
  <path style="fill: rgb(216, 216, 216); stroke: rgb(0, 0, 0);" d="M 8.667 13.55" transform="matrix(1, 0, 0, 1, 19.876124, -2.308663)"/>
  <path style="fill: rgb(216, 216, 216); stroke: rgb(0, 0, 0);" d="M 10.035 14.543" transform="matrix(1, 0, 0, 1, 52.919256, -2.486992)"/>
  <path style="fill: rgb(216, 216, 216); stroke: rgb(0, 0, 0);" d="M 9.474 13.575" transform="matrix(1, 0, 0, 1, 52.919256, -2.486992)"/>
  <g fill="#000000" transform="matrix(1, 0, 0, 1, 77.423629, 1.814496)"/>
  <path style="fill: rgb(216, 216, 216); stroke: rgb(0, 0, 0);" d="M -16.165 17.9"/>
  <path style="fill: rgb(216, 216, 216); stroke: rgb(0, 0, 0);" d="M -16.726 16.932"/>
  <path style="fill: rgb(216, 216, 216); stroke: rgb(0, 0, 0);" d="M -16.972 17.875"/>
  <path style="fill: rgb(216, 216, 216); stroke: rgb(0, 0, 0);" d="M -17.533 16.907"/>
  <path style="fill: rgb(216, 216, 216); stroke: rgb(0, 0, 0);" d="M 16.878 17.722"/>
  <path style="fill: rgb(216, 216, 216); stroke: rgb(0, 0, 0);" d="M 16.317 16.754"/>
  <g fill="#000000" transform="matrix(1, 0, 0, 1, 31.347294, 7.480159)"/>
  <g fill="none" transform="matrix(0.859928, 0, 0, 0.859928, -26.544298, 2.934797)" style=""/>
  <path style="fill: rgb(216, 216, 216); stroke: rgb(0, 0, 0);" d="M -13.924 14.561"/>
  <path style="fill: rgb(216, 216, 216); stroke: rgb(0, 0, 0);" d="M -14.485 13.593"/>
  <path style="fill: rgb(216, 216, 216); stroke: rgb(0, 0, 0);" d="M -14.731 14.536"/>
  <path style="fill: rgb(216, 216, 216); stroke: rgb(0, 0, 0);" d="M -15.292 13.568"/>
  <path style="fill: rgb(216, 216, 216); stroke: rgb(0, 0, 0);" d="M 19.119 14.383"/>
  <path style="fill: rgb(216, 216, 216); stroke: rgb(0, 0, 0);" d="M 18.558 13.415"/>
  <g fill="#000000" transform="matrix(1, 0, 0, 1, 33.588741, 4.141521)"/>
  <g fill="none" transform="matrix(0.859928, 0, 0, 0.859928, -24.302851, -0.403841)" style=""/>
  <path style="fill: rgb(216, 216, 216); stroke: rgb(0, 0, 0);" d="M -16.351 18.018"/>
  <path style="fill: rgb(216, 216, 216); stroke: rgb(0, 0, 0);" d="M -16.912 17.05"/>
  <path style="fill: rgb(216, 216, 216); stroke: rgb(0, 0, 0);" d="M -17.158 17.993"/>
  <path style="fill: rgb(216, 216, 216); stroke: rgb(0, 0, 0);" d="M -17.719 17.025"/>
  <path style="fill: rgb(216, 216, 216); stroke: rgb(0, 0, 0);" d="M 16.692 17.84"/>
  <path style="fill: rgb(216, 216, 216); stroke: rgb(0, 0, 0);" d="M 16.131 16.872"/>
  <g fill="#000000" transform="matrix(1, 0, 0, 1, 31.160988, 7.598189)"/>
  <path style="fill: rgb(216, 216, 216); stroke: rgb(0, 0, 0);" d="M -21.397 13.889"/>
  <path style="fill: rgb(216, 216, 216); stroke: rgb(0, 0, 0);" d="M -21.958 12.921"/>
  <path style="fill: rgb(216, 216, 216); stroke: rgb(0, 0, 0);" d="M -22.204 13.864"/>
  <path style="fill: rgb(216, 216, 216); stroke: rgb(0, 0, 0);" d="M -22.765 12.896"/>
  <path style="fill: rgb(216, 216, 216); stroke: rgb(0, 0, 0);" d="M 11.646 13.711"/>
  <path style="fill: rgb(216, 216, 216); stroke: rgb(0, 0, 0);" d="M 11.085 12.743"/>
  <g fill="#000000" transform="matrix(1, 0, 0, 1, 26.115677, 3.469082)"/>
  <path d="M 7.232 1.855 L 1.278 7.808 L 0.768 8.344 L 1.279 8.88 L 7.233 14.833 L 8.304 13.762 L 3.627 9.088 L 13.349 9.088 C 15.399 9.088 17.07 10.759 17.07 12.809 L 17.07 18.018 L 18.558 18.018 L 18.558 12.809 C 18.558 9.948 16.21 7.6 13.349 7.6 L 3.628 7.6 L 8.303 2.927 L 7.231 1.855 Z" style="paint-order: fill;"/>
</svg>