<?xml version="1.0" encoding="utf-8"?>
<svg width="20" height="20" viewBox="0 0 20 20" fill="context-fill" fill-opacity="context-fill-opacity" xmlns="http://www.w3.org/2000/svg">
  <path d="M 18.734 17.27 L 16.925 15.46 C 18.267 13.902 19.002 11.911 18.995 9.853 C 18.995 6.195 16.785 3.189 13.631 1.805 L 13.631 3.594 C 15.765 4.833 17.207 7.213 17.207 9.853 C 17.203 11.443 16.678 12.986 15.711 14.247 L 14.562 13.098 C 15.101 12.121 15.419 10.918 15.419 9.853 C 15.419 8.27 14.726 6.366 13.631 5.382 L 13.631 12.166 L 11.842 10.378 L 11.842 2.699 C 11.842 2.012 11.096 1.582 10.501 1.926 C 10.485 1.936 10.468 1.946 10.452 1.955 L 6.232 4.768 L 2.637 1.173 L 1.373 2.437 L 17.47 18.534 L 18.734 17.27 Z M 10.054 4.37 L 10.054 8.589 L 7.522 6.057 L 10.054 4.37 Z M 2.9 14.325 L 5.311 14.325 L 10.451 17.752 C 10.727 17.934 11.079 17.952 11.37 17.796 C 11.661 17.641 11.843 17.337 11.842 17.008 L 11.842 15.327 L 10.054 13.539 L 10.054 15.337 L 6.079 12.686 C 6.056 12.671 6.028 12.669 6.005 12.657 C 5.9 12.6 5.783 12.565 5.664 12.553 C 5.635 12.551 5.611 12.536 5.582 12.536 L 2.9 12.536 L 2.9 7.171 L 3.686 7.171 L 2.096 5.582 C 1.495 5.883 1.114 6.498 1.111 7.171 L 1.111 12.536 C 1.111 13.523 1.913 14.325 2.9 14.325 Z" style=""/>
</svg>