<?xml version="1.0" encoding="utf-8"?>
<svg width="20" height="20" viewBox="0 0 20 20" fill="context-fill" fill-opacity="context-fill-opacity" xmlns="http://www.w3.org/2000/svg">
  <path fill-rule="evenodd" clip-rule="evenodd" d="M 13.387 7.334 C 13.387 8.641 12.68 9.702 11.69 10.274 C 10.7 10.845 9.427 10.927 8.295 10.274 C 7.77 9.971 7.345 9.539 7.052 9.031 C 6.759 8.524 6.597 7.941 6.597 7.334 C 6.597 6.028 7.304 4.966 8.294 4.394 C 9.285 3.822 10.558 3.741 11.689 4.394 C 12.215 4.697 12.639 5.129 12.932 5.636 C 13.225 6.144 13.387 6.728 13.387 7.334 Z M 11.689 7.334 C 11.689 7.987 11.336 8.518 10.841 8.804 C 10.346 9.09 9.709 9.131 9.143 8.804 C 8.881 8.653 8.669 8.437 8.522 8.183 C 8.376 7.929 8.295 7.637 8.295 7.334 C 8.295 6.68 8.649 6.15 9.144 5.864 C 9.638 5.578 10.275 5.538 10.841 5.864 C 11.103 6.016 11.316 6.231 11.462 6.485 C 11.608 6.739 11.689 7.03 11.689 7.334 Z" style=""/>
  <path fill-rule="evenodd" clip-rule="evenodd" d="M 9.992 0.544 C 7.414 0.544 5.08 1.589 3.391 3.279 C 1.702 4.968 0.657 7.302 0.657 9.88 C 0.657 12.458 1.702 14.791 3.391 16.481 C 5.08 18.17 7.414 19.215 9.992 19.215 C 12.57 19.215 14.904 18.17 16.593 16.481 C 18.282 14.791 19.327 12.458 19.327 9.88 C 19.327 7.302 18.282 4.968 16.593 3.279 C 14.904 1.589 12.57 0.544 9.992 0.544 Z M 2.354 9.88 C 2.354 10.767 2.505 11.619 2.783 12.41 C 3.061 13.202 3.466 13.935 3.973 14.583 C 4.695 13.635 5.618 12.883 6.658 12.368 C 7.698 11.854 8.856 11.576 10.047 11.577 C 11.223 11.576 12.366 11.846 13.396 12.349 C 14.426 12.851 15.343 13.585 16.066 14.512 C 17.849 12.174 18.031 9.31 17.04 6.936 C 16.048 4.563 13.882 2.68 10.966 2.305 C 8.683 2.012 6.53 2.754 4.948 4.146 C 3.366 5.537 2.355 7.578 2.354 9.88 Z M 9.992 17.518 C 9.116 17.519 8.252 17.369 7.438 17.08 C 6.623 16.791 5.858 16.364 5.178 15.81 C 5.733 15.015 6.466 14.381 7.302 13.946 C 8.137 13.51 9.077 13.274 10.047 13.275 C 11.004 13.274 11.933 13.504 12.761 13.929 C 13.589 14.354 14.317 14.974 14.875 15.753 C 14.19 16.324 13.415 16.766 12.589 17.065 C 11.762 17.363 10.884 17.519 9.992 17.518 Z" style=""/>
</svg>