<?xml version="1.0" encoding="utf-8"?>
<svg width="20" height="20" viewBox="0 0 20 20" fill="context-fill" fill-opacity="context-fill-opacity" xmlns="http://www.w3.org/2000/svg">
  <path style="" d="M 3.681 1.5 C 2.505 1.5 1.551 2.453 1.551 3.63 L 1.551 16.409 C 1.551 17.584 2.505 18.538 3.681 18.538 L 16.46 18.538 C 17.636 18.538 18.589 17.584 18.589 16.409 L 18.589 3.63 C 18.589 2.453 17.636 1.5 16.46 1.5 L 3.681 1.5 Z M 3.681 2.565 L 16.46 2.565 C 17.049 2.565 17.525 3.041 17.525 3.63 L 17.525 16.409 C 17.525 16.996 17.049 17.474 16.46 17.474 L 3.681 17.474 C 3.093 17.474 2.616 16.996 2.616 16.409 L 2.616 3.63 C 2.616 3.041 3.093 2.565 3.681 2.565 Z M 5.278 3.63 C 4.396 3.63 3.681 4.344 3.681 5.227 L 3.681 7.357 C 3.681 7.767 4.125 8.023 4.479 7.818 C 4.645 7.722 4.746 7.547 4.746 7.357 L 4.746 5.227 C 4.746 4.932 4.984 4.695 5.278 4.695 L 7.408 4.695 C 7.818 4.695 8.075 4.251 7.869 3.896 C 7.774 3.731 7.599 3.63 7.408 3.63 L 5.278 3.63 Z M 12.732 3.63 C 12.324 3.63 12.067 4.073 12.271 4.428 C 12.367 4.592 12.543 4.695 12.732 4.695 L 14.862 4.695 C 15.157 4.695 15.395 4.932 15.395 5.227 L 15.395 7.357 C 15.395 7.767 15.839 8.023 16.193 7.818 C 16.358 7.722 16.46 7.547 16.46 7.357 L 16.46 5.227 C 16.46 4.344 15.745 3.63 14.862 3.63 L 12.732 3.63 Z M 8.488 6.746 C 8.189 6.737 7.94 6.978 7.94 7.278 L 7.94 12.76 C 7.944 13.171 8.391 13.426 8.745 13.217 C 8.753 13.214 8.759 13.21 8.766 13.205 L 13.025 10.386 C 13.349 10.172 13.344 9.694 13.015 9.489 L 8.755 6.827 C 8.675 6.776 8.583 6.748 8.488 6.746 Z M 4.213 12.149 C 3.919 12.149 3.681 12.386 3.681 12.681 L 3.681 14.811 C 3.681 15.693 4.396 16.409 5.278 16.409 L 7.408 16.409 C 7.818 16.409 8.075 15.965 7.869 15.61 C 7.774 15.445 7.599 15.344 7.408 15.344 L 5.278 15.344 C 4.984 15.344 4.746 15.105 4.746 14.811 L 4.746 12.681 C 4.746 12.386 4.508 12.149 4.213 12.149 Z M 15.927 12.149 C 15.633 12.149 15.395 12.386 15.395 12.681 L 15.395 14.811 C 15.395 15.105 15.157 15.344 14.862 15.344 L 12.732 15.344 C 12.324 15.344 12.067 15.787 12.271 16.142 C 12.367 16.306 12.543 16.409 12.732 16.409 L 14.862 16.409 C 15.745 16.409 16.46 15.693 16.46 14.811 L 16.46 12.681 C 16.46 12.386 16.222 12.149 15.927 12.149 Z"/>
</svg>