<?xml version="1.0" encoding="utf-8"?>
<svg width="20" height="20" viewBox="0 0 20 20" fill="context-fill" fill-opacity="context-fill-opacity" xmlns="http://www.w3.org/2000/svg">
  <path d="M 18.303 14.508 L 14.046 11.508 L 12.562 9.247 L 16.884 5.873 L 19.879 3.76 L 19.879 15.619 L 18.303 14.508 Z M 17.879 7.618 L 18.036 7.507 L 14.938 9.69 L 15.198 9.874 L 17.879 11.763 L 17.879 7.618 Z" style=""/>
  <path d="M 3.039 3.089 L 5.08 3.089 L 7.121 3.089 L 9.162 3.089 L 11.203 3.089 C 11.393 3.1 11.589 3.13 11.785 3.176 C 11.982 3.223 12.177 3.286 12.364 3.362 C 12.552 3.439 12.731 3.529 12.893 3.631 C 13.056 3.733 13.202 3.846 13.324 3.968 C 13.446 4.09 13.559 4.236 13.661 4.399 C 13.763 4.562 13.854 4.741 13.93 4.928 C 14.007 5.115 14.069 5.311 14.116 5.507 C 14.162 5.703 14.192 5.9 14.203 6.089 L 14.203 7.89 L 14.203 9.691 L 14.203 11.492 L 14.203 13.292 C 14.192 13.482 14.162 13.678 14.116 13.874 C 14.069 14.071 14.007 14.266 13.93 14.453 C 13.854 14.641 13.763 14.82 13.661 14.982 C 13.559 15.145 13.446 15.291 13.324 15.413 C 13.202 15.535 13.056 15.648 12.893 15.75 C 12.731 15.852 12.552 15.943 12.364 16.019 C 12.177 16.096 11.981 16.158 11.785 16.205 C 11.589 16.251 11.392 16.281 11.203 16.292 L 9.162 16.292 L 7.121 16.292 L 5.08 16.292 L 3.039 16.292 C 2.85 16.281 2.653 16.251 2.457 16.205 C 2.261 16.158 2.065 16.096 1.878 16.019 C 1.691 15.943 1.512 15.852 1.349 15.75 C 1.186 15.648 1.04 15.535 0.918 15.413 C 0.796 15.291 0.683 15.145 0.581 14.982 C 0.479 14.82 0.389 14.641 0.312 14.453 C 0.236 14.266 0.173 14.071 0.126 13.874 C 0.08 13.678 0.05 13.482 0.039 13.292 L 0.039 11.492 L 0.039 9.691 L 0.039 7.89 L 0.039 6.089 C 0.05 5.9 0.08 5.703 0.126 5.507 C 0.173 5.311 0.236 5.115 0.312 4.928 C 0.389 4.741 0.479 4.562 0.581 4.399 C 0.683 4.236 0.796 4.09 0.918 3.968 C 1.04 3.846 1.186 3.733 1.349 3.631 C 1.512 3.529 1.691 3.439 1.878 3.362 C 2.065 3.286 2.261 3.223 2.457 3.176 C 2.653 3.13 2.85 3.1 3.039 3.089 Z M 2.332 5.382 C 2.273 5.441 2.223 5.493 2.181 5.543 C 2.139 5.593 2.106 5.642 2.081 5.693 C 2.056 5.745 2.04 5.801 2.033 5.865 C 2.026 5.929 2.028 6.002 2.039 6.089 L 2.039 7.89 L 2.039 9.691 L 2.039 11.491 L 2.039 13.292 C 2.028 13.379 2.026 13.452 2.033 13.516 C 2.04 13.58 2.056 13.636 2.081 13.688 C 2.106 13.739 2.139 13.788 2.181 13.838 C 2.223 13.888 2.273 13.94 2.332 13.999 C 2.391 14.058 2.443 14.108 2.493 14.15 C 2.544 14.192 2.592 14.226 2.644 14.251 C 2.696 14.275 2.751 14.291 2.815 14.298 C 2.879 14.305 2.952 14.303 3.039 14.292 L 5.08 14.292 L 7.121 14.292 L 9.162 14.292 L 11.203 14.292 C 11.29 14.303 11.363 14.305 11.427 14.298 C 11.492 14.291 11.547 14.276 11.599 14.251 C 11.651 14.226 11.699 14.192 11.749 14.15 C 11.799 14.108 11.851 14.058 11.91 13.999 C 11.969 13.94 12.02 13.888 12.062 13.838 C 12.104 13.788 12.137 13.739 12.162 13.688 C 12.187 13.636 12.202 13.58 12.209 13.516 C 12.216 13.452 12.214 13.379 12.203 13.292 L 12.203 11.491 L 12.203 9.691 L 12.203 7.89 L 12.203 6.089 C 12.214 6.002 12.216 5.929 12.209 5.865 C 12.202 5.801 12.187 5.745 12.162 5.694 C 12.137 5.642 12.104 5.593 12.062 5.543 C 12.02 5.493 11.969 5.441 11.91 5.382 C 11.851 5.323 11.799 5.272 11.749 5.231 C 11.699 5.189 11.651 5.156 11.599 5.131 C 11.547 5.106 11.492 5.09 11.427 5.083 C 11.363 5.076 11.29 5.078 11.203 5.089 L 9.162 5.089 L 7.121 5.089 L 5.08 5.089 L 3.039 5.089 C 2.952 5.078 2.879 5.076 2.815 5.083 C 2.751 5.09 2.695 5.106 2.643 5.131 C 2.592 5.156 2.543 5.189 2.493 5.231 C 2.443 5.273 2.391 5.323 2.332 5.382 Z" style=""/>
</svg>