<?xml version="1.0" encoding="utf-8"?>
<svg width="20" height="20" viewBox="0 0 20 20" fill="context-fill" fill-opacity="context-fill-opacity" xmlns="http://www.w3.org/2000/svg">
  <path d="M 0.614 3.345 L 4.482 2.812 L 8.349 2.279 L 8.349 6.015 L 8.349 9.752 L 4.482 9.752 L 0.614 9.752 L 0.614 6.548 Z M 0.614 17.019 L 4.482 17.551 L 8.349 18.084 L 8.349 14.394 L 8.349 10.705 L 4.482 10.705 L 0.614 10.705 L 0.614 13.862 Z M 9.2 18.199 L 14.343 18.909 L 19.487 19.618 L 19.487 15.161 L 19.487 10.705 L 14.343 10.705 L 9.2 10.705 L 9.2 14.452 Z M 9.2 2.165 L 9.2 5.959 L 9.2 9.752 L 14.343 9.752 L 19.487 9.752 L 19.487 5.248 L 19.487 0.745 L 14.343 1.455 Z" style=""/>
</svg>