<?xml version="1.0" encoding="utf-8"?>
<svg width="20" height="20" viewBox="0 0 20 20" fill="context-fill" fill-opacity="context-fill-opacity" xmlns="http://www.w3.org/2000/svg">
  <path d="M 0.57 4.03 C 0.57 3.795 0.594 3.565 0.64 3.343 C 0.685 3.121 0.752 2.907 0.838 2.703 C 0.925 2.499 1.03 2.305 1.152 2.124 C 1.275 1.943 1.414 1.774 1.568 1.619 C 1.722 1.465 1.891 1.326 2.073 1.203 C 2.254 1.08 2.448 0.975 2.652 0.888 C 2.856 0.802 3.07 0.735 3.292 0.69 C 3.514 0.644 3.744 0.62 3.979 0.62 L 5.487 0.62 L 6.996 0.62 L 8.504 0.62 L 10.012 0.62 L 11.52 0.62 L 13.029 0.62 L 14.537 0.62 L 16.045 0.62 C 16.28 0.62 16.51 0.644 16.732 0.69 C 16.954 0.735 17.168 0.802 17.372 0.888 C 17.576 0.975 17.77 1.08 17.951 1.203 C 18.133 1.326 18.302 1.465 18.456 1.619 C 18.61 1.774 18.75 1.943 18.872 2.124 C 18.995 2.305 19.1 2.499 19.186 2.703 C 19.272 2.907 19.339 3.121 19.385 3.343 C 19.43 3.565 19.454 3.795 19.454 4.03 L 19.454 5.539 L 19.454 7.047 L 19.454 8.555 L 19.454 10.063 L 19.454 11.571 L 19.454 13.079 L 19.454 14.587 L 19.454 16.095 C 19.454 16.331 19.43 16.561 19.385 16.783 C 19.339 17.005 19.272 17.219 19.186 17.422 C 19.1 17.626 18.994 17.82 18.872 18.002 C 18.749 18.183 18.61 18.352 18.456 18.506 C 18.302 18.661 18.133 18.8 17.951 18.923 C 17.77 19.045 17.576 19.151 17.372 19.237 C 17.168 19.324 16.954 19.391 16.732 19.436 C 16.51 19.481 16.281 19.505 16.045 19.505 L 14.537 19.505 L 13.029 19.505 L 11.521 19.505 L 10.012 19.505 L 8.504 19.505 L 6.996 19.505 L 5.488 19.505 L 3.979 19.505 C 3.744 19.505 3.514 19.481 3.292 19.436 C 3.07 19.391 2.856 19.324 2.652 19.237 C 2.448 19.151 2.254 19.045 2.073 18.923 C 1.891 18.8 1.722 18.661 1.568 18.506 C 1.414 18.352 1.275 18.183 1.152 18.002 C 1.03 17.82 0.924 17.626 0.838 17.422 C 0.752 17.219 0.685 17.005 0.639 16.783 C 0.594 16.561 0.57 16.331 0.57 16.095 L 0.57 14.587 L 0.57 13.079 L 0.57 11.571 L 0.57 10.063 L 0.57 8.555 L 0.57 7.047 L 0.57 5.539 Z M 3.979 2.194 C 3.853 2.194 3.729 2.207 3.609 2.232 C 3.49 2.256 3.374 2.293 3.264 2.339 C 3.154 2.386 3.05 2.442 2.953 2.508 C 2.855 2.574 2.764 2.649 2.681 2.732 C 2.598 2.815 2.523 2.906 2.457 3.004 C 2.391 3.101 2.335 3.205 2.288 3.315 C 2.242 3.425 2.205 3.54 2.181 3.66 C 2.156 3.779 2.143 3.903 2.143 4.03 L 2.143 4.062 L 2.143 4.095 L 2.143 4.128 L 2.143 4.161 L 2.143 4.194 L 2.143 4.227 L 2.143 4.259 L 2.143 4.292 L 4.11 4.292 L 6.078 4.292 L 8.045 4.292 L 10.012 4.292 L 11.979 4.292 L 13.947 4.292 L 15.914 4.292 L 17.881 4.292 L 17.881 4.259 L 17.881 4.227 L 17.881 4.194 L 17.881 4.161 L 17.881 4.128 L 17.881 4.095 L 17.881 4.062 L 17.881 4.03 C 17.881 3.903 17.868 3.779 17.844 3.66 C 17.819 3.54 17.783 3.425 17.737 3.315 C 17.69 3.205 17.634 3.101 17.568 3.004 C 17.502 2.906 17.426 2.815 17.343 2.732 C 17.26 2.649 17.169 2.573 17.071 2.507 C 16.974 2.441 16.869 2.385 16.76 2.338 C 16.65 2.292 16.535 2.256 16.415 2.231 C 16.296 2.207 16.172 2.194 16.045 2.194 L 14.537 2.194 L 13.029 2.194 L 11.52 2.194 L 10.012 2.194 L 8.504 2.194 L 6.996 2.194 L 5.487 2.194 Z M 17.881 5.866 L 15.914 5.866 L 13.947 5.866 L 11.98 5.866 L 10.012 5.866 L 8.045 5.866 L 6.078 5.866 L 4.111 5.866 L 2.143 5.866 L 2.143 7.145 L 2.143 8.424 L 2.143 9.702 L 2.143 10.981 L 2.143 12.259 L 2.143 13.538 L 2.143 14.816 L 2.143 16.095 C 2.143 16.222 2.156 16.346 2.181 16.465 C 2.205 16.585 2.242 16.7 2.288 16.81 C 2.335 16.919 2.391 17.024 2.457 17.121 C 2.523 17.219 2.598 17.31 2.681 17.393 C 2.765 17.476 2.856 17.551 2.954 17.617 C 3.051 17.683 3.156 17.74 3.265 17.787 C 3.375 17.833 3.49 17.869 3.61 17.894 C 3.729 17.918 3.853 17.931 3.979 17.931 L 5.488 17.931 L 6.996 17.931 L 8.504 17.931 L 10.012 17.931 L 11.521 17.931 L 13.029 17.931 L 14.537 17.931 L 16.045 17.931 C 16.172 17.931 16.296 17.918 16.415 17.894 C 16.535 17.87 16.65 17.833 16.76 17.787 C 16.87 17.74 16.974 17.683 17.071 17.617 C 17.169 17.551 17.26 17.476 17.343 17.393 C 17.427 17.31 17.502 17.219 17.568 17.121 C 17.634 17.024 17.691 16.919 17.737 16.81 C 17.784 16.7 17.82 16.585 17.844 16.465 C 17.868 16.346 17.881 16.222 17.881 16.095 L 17.881 14.816 L 17.881 13.538 L 17.881 12.259 L 17.881 10.981 L 17.881 9.702 L 17.881 8.424 L 17.881 7.145 Z" style="stroke-width: 0px;"/>
</svg>